<svg xmlns="http://www.w3.org/2000/svg" viewBox="0 0 100 100"><title>Adventurers League Icon - 09 Rime of the Frostmaiden</title><path d="M86.3,50l-.16-.19c-.77-1-2.63-3.64-2.45-6.64l-11-14.62s-11.91-6.9-10.37-14.44L56.17,6.27C52.74,6.12,50.65,1.61,50.08.2L50,0l-.08.2c-.57,1.41-2.66,5.92-6.09,6.07l-6.19,7.84c1.54,7.54-10.37,14.44-10.37,14.44l-11,14.62c.18,3-1.68,5.67-2.45,6.64L13.7,50l.16.19c.77,1,2.63,3.64,2.45,6.64l11,14.62s11.91,6.9,10.37,14.44l6.19,7.84c3.43.15,5.52,4.66,6.09,6.07l.08.2.08-.2c.57-1.41,2.66-5.92,6.09-6.07l6.19-7.84c-1.54-7.54,10.37-14.44,10.37-14.44l11-14.62c-.18-3,1.68-5.66,2.45-6.64L86.3,50M50,97.16,15.16,50,50,2.84,84.84,50Z" style="fill:#00040c"/><path d="M66.69,47.61s-1.24,2.68-2.29.29c0,0-4.4,1.34-5.93.76V48a25.37,25.37,0,0,1-5.77.64,25.23,25.23,0,0,1,3.94-4.16l-.53-.41c.46-1.56,4.17-4.27,4.17-4.27-1.27-2.28,1.61-1.66,1.61-1.66a11,11,0,0,0,1.89-6.48,11.09,11.09,0,0,0-5.71,3.6s1.4,2.61-1.15,2c0,0-1.57,4.32-3,5.19l-.53-.4a25.05,25.05,0,0,1-3,5.08l-.27.32h-.28l-.27-.32a25.05,25.05,0,0,1-3-5.08l-.53.4c-1.38-.87-3-5.19-3-5.19-2.55.6-1.15-2-1.15-2a11.09,11.09,0,0,0-5.71-3.6,11,11,0,0,0,1.89,6.48s2.88-.62,1.61,1.66c0,0,3.71,2.71,4.17,4.27l-.53.41a25.23,25.23,0,0,1,3.94,4.16A25.37,25.37,0,0,1,41.53,48v.67c-1.53.58-5.93-.76-5.93-.76-1.05,2.39-2.29-.29-2.29-.29A11.05,11.05,0,0,0,27,50a11.05,11.05,0,0,0,6.31,2.39s1.24-2.68,2.29-.29c0,0,4.4-1.34,5.93-.76V52a25.07,25.07,0,0,1,5.77-.65,25.05,25.05,0,0,1-3.94,4.17l.53.41c-.46,1.56-4.17,4.27-4.17,4.27,1.27,2.28-1.61,1.66-1.61,1.66a11,11,0,0,0-1.89,6.48,11.09,11.09,0,0,0,5.71-3.6s-1.4-2.61,1.15-2c0,0,1.57-4.32,3-5.19l.53.4a25.05,25.05,0,0,1,3-5.08l.27-.32h.28l.27.32a25.05,25.05,0,0,1,3,5.08l.53-.4c1.38.87,3,5.19,3,5.19,2.55-.6,1.15,2,1.15,2a11.09,11.09,0,0,0,5.71,3.6,11,11,0,0,0-1.89-6.48s-2.88.62-1.61-1.66c0,0-3.71-2.71-4.17-4.27l.53-.41a25.05,25.05,0,0,1-3.94-4.17,25.07,25.07,0,0,1,5.77.65v-.67c1.53-.58,5.93.76,5.93.76,1-2.39,2.29.29,2.29.29A11.05,11.05,0,0,0,73,50a11.05,11.05,0,0,0-6.31-2.39m-9.18-9.07c2.32-.53,1.83-3,1.83-3a3,3,0,0,1,2.6-1.4A3,3,0,0,1,61.32,37s-2.56.23-2.43,2.6a12,12,0,0,0-2.47,1.85,11.66,11.66,0,0,0,1.09-2.89m-16.4,1c.13-2.37-2.43-2.6-2.43-2.6a3,3,0,0,1-.62-2.89,3,3,0,0,1,2.6,1.4s-.49,2.52,1.83,3a12.16,12.16,0,0,0,1.09,2.89,12,12,0,0,0-2.47-1.85M36.27,50.86c-1.82-1.53-3.54.38-3.54.38A3,3,0,0,1,30.06,50a3,3,0,0,1,2.67-1.24s1.72,1.91,3.54.38a12.1,12.1,0,0,0,3,.86,12.1,12.1,0,0,0-3,.86m6.22,10.6c-2.32.53-1.83,3.05-1.83,3.05a3,3,0,0,1-2.6,1.4A3,3,0,0,1,38.68,63s2.56-.23,2.43-2.6a12,12,0,0,0,2.47-1.85,12.16,12.16,0,0,0-1.09,2.89m16.4-1c-.13,2.37,2.43,2.6,2.43,2.6a3,3,0,0,1,.62,2.89,3,3,0,0,1-2.6-1.4s.49-2.52-1.83-3.05a11.66,11.66,0,0,0-1.09-2.89,12,12,0,0,0,2.47,1.85M50,51.33A1.33,1.33,0,1,1,51.33,50,1.32,1.32,0,0,1,50,51.33m17.27-.09s-1.72-1.91-3.54-.38a12.1,12.1,0,0,0-3-.86,12.1,12.1,0,0,0,3-.86c1.82,1.53,3.54-.38,3.54-.38A3,3,0,0,1,69.94,50a3,3,0,0,1-2.67,1.24" style="fill:#00040c"/><polygon points="49.99 50 50 50.01 50.01 50 50 49.99 49.99 50" style="fill:#00040c"/><path d="M49.83,6.19,17.53,49.8h0l32.3,43.62,32.3-43.62h0ZM47.14,86.72,23.52,54.39a7.77,7.77,0,0,1,0-9.16L47.14,12.9a3.32,3.32,0,0,1,5.37,0L76.13,45.23a7.74,7.74,0,0,1,0,9.16L52.51,86.72a3.33,3.33,0,0,1-5.37,0" style="fill:#00040c"/></svg>