<svg xmlns="http://www.w3.org/2000/svg" xmlns:xlink="http://www.w3.org/1999/xlink" viewBox="0 0 100 100"><defs><radialGradient id="a" cx="50.06" cy="49.99" r="17.75" gradientUnits="userSpaceOnUse"><stop offset="0" stop-color="#c1acc1"/><stop offset="1" stop-color="#a093a0"/></radialGradient></defs><title>Ravnica Guild - Orzhov</title><path d="M47.29,71.62l-3.61,2.91L41.81,70l-4.36,2.11L36.7,68,23.17,79,33.53,63.18l-5.32-.28,2-4.55L25.6,56.78,28.77,53,4.83,50,28.37,47.3l-2.91-3.61L30,41.81l-2.08-4.3,4.84-.6L23.59,24.43l13.22,9.14.27-5.35,4.56,2L43.2,25.6,47,28.78,50,4.84l2.72,23.54,3.61-2.91L58.17,30l4.34-2.1.86,5.32L75.19,25.4,67.07,36.8l4.69.29-2,4.56,4.62,1.56L71.21,47,95.14,50,71.61,52.69l2.91,3.62L70,58.18l2.1,4.35-5.54,1L74.4,76.58l-10.86-9L63,71.8l-4.62-2-1.57,4.62L53,71.21,50,95.15ZM50,29A21,21,0,0,0,35.11,64.81,20.76,20.76,0,0,0,49.91,71,21.06,21.06,0,0,0,71,50,21,21,0,0,0,50,29Z" style="fill:#fcf8d5"/><path d="M50,10.12l2,17.2.14,1.16a20.74,20.74,0,0,0-2.09-.1,21.67,21.67,0,0,0-2.29.12l.09-.78L50,10.12M56,26.48l.05.12,1.25,3,0,.07a21.27,21.27,0,0,0-4-1l.6-.49L56,26.48m-12.54.19,2.24,1.86.27.21a21.07,21.07,0,0,0-3.54,1l.73-2.17.3-.89m-17.22.38,5,3.46,4.25,2.94.31.21a22.71,22.71,0,0,0-2.68,2.78l-.56-.76-6.32-8.63m46.46.72-2.39,3.36-3.13,4.39-.53.74c-.44-.53-.91-1-1.4-1.53s-.85-.82-1.3-1.2l.53-.35L69.33,30l3.41-2.24M62,28.8l.57,3.54,0,.11a22.13,22.13,0,0,0-3.7-2.15l.12-.06,3-1.44m-24.37.36,3,1.33a21.65,21.65,0,0,0-3.19,1.87l.06-1,.11-2.22m30,8.3.55,0,.55,0,2.12.13-1.32,3a21.67,21.67,0,0,0-1.9-3.21m-35.32.13a21.37,21.37,0,0,0-2,3.48L30.24,41l-1-2.07L28.82,38l2.92-.36.55-.07m38,4.89,2.57.87.47.16-1.86,2.24-.21.25a21.33,21.33,0,0,0-1-3.52m-40.62.14a20.6,20.6,0,0,0-1,4l-.48-.6-1.68-2.08.5-.2,2.62-1.1.07,0M71.5,47.7l.77.09L89.86,50l-17.2,2-1.14.13c.06-.68.1-1.36.1-2.06a22.05,22.05,0,0,0-.12-2.31m-43,.22c-.06.67-.1,1.35-.1,2a22.77,22.77,0,0,0,.12,2.34l-.77-.1L14.22,50.54,10.11,50l2.83-.33,14.38-1.66,1.14-.13m42.89,5.45.48.6.63.78,1.05,1.3-3.12,1.3-.08,0a21.67,21.67,0,0,0,1-4M28.73,54a21.33,21.33,0,0,0,1,3.52l-3-1,.4-.48,1.46-1.76.21-.25m41,4.93.06.12,1.46,3-.51.09-3.24.58a22.61,22.61,0,0,0,2.23-3.81m-39.21.4a21.6,21.6,0,0,0,1.87,3.17l-3-.15h-.22l1.32-3m3.17,4.82c.33.38.67.75,1,1.11a22.65,22.65,0,0,0,2.15,1.9l-1.33,1.07-9.11,7.4-.5.4L28,72.8l5.48-8.37.18-.29m32.62.06.25.41L72,73.77l-7.19-6-1.23-1a21.24,21.24,0,0,0,2.69-2.59M63,67.27l-.18,1.34-.31,2.26v0l-2.56-1.13-.61-.27A21.38,21.38,0,0,0,63,67.27m-25.72.19A21.86,21.86,0,0,0,41,69.7l-.1,0-3,1.46-.08-.44L37.51,69l-.28-1.51m20.28,2.79-.29.87-.75,2.21-2.24-1.87L54,71.24a21.07,21.07,0,0,0,3.54-1m-14.89.09a20.86,20.86,0,0,0,4,1l-.59.48-1.14.92-1,.76-.1-.26L42.64,70.4l0-.06m9.67,1.15-.1.78-.09.79L50,89.87l-2-17.2-.13-1.15a19.05,19.05,0,0,0,2,.1h0a22.85,22.85,0,0,0,2.36-.13M49.93,0c-1.12,9.16-2.25,18.31-3.39,27.57l-3.64-3-1.63,4.84-4.76-2.09c-.09,1.73-.18,3.39-.27,5.13L21.13,22l-.06.07L31.59,36.42,26.94,37c.74,1.53,1.44,3,2.17,4.5l-4.66,1.94,2.72,3.38L0,49.94v.12l27.53,3.38-3,3.64,4.84,1.64-2.09,4.76,5.13.26c-4,6.07-7.87,12-11.77,18l.09.06L36.28,69.19c.24,1.33.47,2.57.71,3.86l4.49-2.18,1.94,4.67,3.38-2.73C47.85,82,48.9,91,49.94,100H50c1.13-9.16,2.26-18.31,3.39-27.57l3.64,3c.56-1.63,1.09-3.21,1.64-4.83l4.76,2.09c.18-1.33.35-2.59.54-3.93l12.55,10.4.08-.07L67.58,64,73,63l-2.17-4.5,4.66-1.94-2.72-3.38L100,50.05v-.11L72.42,46.55l3-3.64-4.83-1.64c.7-1.59,1.38-3.14,2.08-4.75l-4.46-.27,9.25-13-.07-.08-13.58,9c-.28-1.76-.56-3.45-.84-5.19l-4.5,2.17c-.65-1.58-1.28-3.1-1.93-4.66l-3.38,2.72C52.12,18.06,51.08,9,50,0Zm0,70.37h0A20.37,20.37,0,0,1,50,29.63h0a20.37,20.37,0,1,1-.06,40.74Z" style="fill:#737161"/><path d="M50,4.84l2.59,22.41.13,1.13.88-.71,2.73-2.2.4,1,1.22,2.94.25.61.59-.29,3.75-1.81.11.67.59,3.7.16.95.8-.53,4.43-2.91,6.59-4.35L70.3,32.27l-2.58,3.62-.65.91,1.13.07.35,0,3.21.2L70,41l-.28.63.65.22,2.6.88,1.37.46-.23.28-2.21,2.66-.73.88,1.13.14L95.14,50,72.73,52.56l-1.12.13.71.89.34.42,1.86,2.31-3.89,1.61-.61.26.28.59,1.82,3.76-.63.11-4,.72-.89.15.46.78L74.4,76.58l-10-8.28-.86-.72-.15,1.11-.3,2.16-.13,1-2.81-1.24L59,70l-.62-.27-.22.65-1.35,4-2.94-2.45L53,71.21l-.14,1.14-.23,1.86L50,95.15l-.38-3.26L47.42,72.74l-.13-1.12-.88.71-1.11.89-1.62,1.31-.54-1.3-1.08-2.6L41.81,70l-.6.29-.56.27-3.2,1.55-.19-1-.37-2-.19-1-.82.67-9.37,7.6L23.17,79l4.57-7,5.19-7.94.6-.91-1.09-.06L29.35,63l-1.14-.06L29.94,59l.27-.62-.64-.22-4-1.35,1.06-1.28L28,53.84l.73-.88-1.13-.14L12.64,51,4.83,50l8.28-1,14.13-1.63,1.13-.13-.71-.88-2.2-2.73,1.2-.5,2.69-1.12.61-.26-.29-.59-.9-1.86-.89-1.85.47-.06L31.67,37l1.06-.13-.63-.86L23.59,24.43l6.21,4.3,6.08,4.2.93.64,0-1.12,0-.86.17-3.37L41,30l.62.28.22-.65.81-2.4.53-1.58.52.43,2.42,2,.88.73.14-1.14L50,4.84m0,66.15h0A21.06,21.06,0,0,0,71,50,21,21,0,0,0,50,29,21,21,0,0,0,35.11,64.81,20.76,20.76,0,0,0,49.91,71h0m0-71c-1.12,9.16-2.25,18.31-3.39,27.57l-3.64-3-1.63,4.84-4.76-2.09c-.09,1.73-.18,3.39-.27,5.13L21.13,22l-.06.07L31.59,36.42,26.94,37c.74,1.53,1.44,3,2.17,4.5l-4.66,1.94,2.72,3.38L0,49.94v.12l27.53,3.38-3,3.64,4.84,1.64-2.09,4.76,5.13.26c-4,6.07-7.87,12-11.77,18l.09.06L36.28,69.19c.24,1.33.47,2.57.71,3.86l4.49-2.18,1.94,4.67,3.38-2.73C47.85,82,48.9,91,49.94,100H50c1.13-9.16,2.26-18.31,3.39-27.57l3.64,3c.56-1.63,1.09-3.21,1.64-4.83l4.76,2.09c.18-1.33.35-2.59.54-3.93l12.55,10.4.08-.07L67.58,64,73,63l-2.17-4.5,4.66-1.94-2.72-3.38L100,50.05v-.11L72.42,46.55l3-3.64-4.83-1.64c.7-1.59,1.38-3.14,2.08-4.75l-4.46-.27,9.25-13-.07-.08-13.58,9c-.28-1.76-.56-3.45-.84-5.19l-4.5,2.17c-.65-1.58-1.28-3.1-1.93-4.66l-3.38,2.72C52.12,18.06,51.08,9,50,0Zm0,70.37h0A20.37,20.37,0,0,1,50,29.63h0a20.37,20.37,0,1,1-.06,40.74Z" style="fill:#1d1d1b"/><path d="M50,67.74A17.75,17.75,0,1,1,67.81,50,17.64,17.64,0,0,1,50,67.74Z" style="fill:url(#a)"/><path d="M50,31.74l0,1A17.25,17.25,0,1,1,32.81,49.93,17.29,17.29,0,0,1,50.06,32.74v-1m0,0a18.25,18.25,0,0,0,0,36.5h0a18.25,18.25,0,1,0,0-36.5Z" style="fill:#1d1d1b"/></svg>