<svg xmlns="http://www.w3.org/2000/svg" xmlns:xlink="http://www.w3.org/1999/xlink" viewBox="0 0 100 100"><defs><linearGradient id="a" x1="28.94" y1="72.8" x2="83.24" y2="6.27" gradientUnits="userSpaceOnUse"><stop offset="0" stop-color="#9fc6e8"/><stop offset="0.26" stop-color="#6095a1"/><stop offset="0.43" stop-color="#3d7979"/><stop offset="0.74" stop-color="#72a373"/><stop offset="1" stop-color="#99c36e"/></linearGradient></defs><title>Ravnica Guild - Simic</title><path d="M46.06,99.5l-.28-.22A50.94,50.94,0,0,1,33.36,87.79c-.62-.82-1.15-1.69-1.72-2.62-.26-.43-.52-.86-.8-1.29L30,82.54l-.06,1.58a17.29,17.29,0,0,0,2.06,8c.8,1.71,1.71,3.37,2.6,5l.6,1.12a41.49,41.49,0,0,1-11.37-4.65,2,2,0,0,1-.75-.75L22.14,91c-1.17-2.36-2.37-4.79-3.42-7.24a38.84,38.84,0,0,1-3.24-11.68,14.85,14.85,0,0,1,0-1.5c0-.24,0-.49,0-.73v-.48l-1.09,0-.14.3c-1.92,4.08-1.76,8.42-1.61,12.62,0,.47,0,.94,0,1.4l-.21-.29a26.07,26.07,0,0,1-.63-30.16,48,48,0,0,1,8.53-8.78l.93-.8a60.08,60.08,0,0,0,6.47-6.27c2.44-2.87,3-6,1.75-9.18a14,14,0,0,0-6.2-6.62A9.82,9.82,0,0,0,18.25,20a9,9,0,0,0-4,1c-4.18,2-6.19,5.5-5.54,9.52a8,8,0,0,0,8,6.79,7.79,7.79,0,0,0,3.59-.87,5.88,5.88,0,0,0,3-7.17A5,5,0,0,0,18.38,26a6.4,6.4,0,0,0-1.15.11,4.25,4.25,0,0,0-3.43,3.8,3.35,3.35,0,0,0,1.73,3.26h-.06A2.37,2.37,0,0,1,13.32,32a6.19,6.19,0,0,1,.22-6.12,6,6,0,0,1,5-2.24,6.51,6.51,0,0,1,5.26,2.35,8.05,8.05,0,0,1,1.39,6c-.32,3.63-2.3,6.25-5.28,7a16.42,16.42,0,0,1-4,.45c-.34,0-.68,0-1,0A8.45,8.45,0,0,1,8.06,36c-2.81-3.87-3.19-8.22-1.14-13C8.7,19,12.27,16.83,17.84,16.49l.86,0c.88,0,1.79.07,2.67.14q.82.07,1.65.12l.48,0,.05-.47C24,11,27.12,8.44,33.26,8.21l.61,0-.14-.59A5.61,5.61,0,0,1,37.93.93,11.7,11.7,0,0,1,41,.5a9.09,9.09,0,0,1,6.82,3.14c.48.52.94,1.1,1.38,1.66l.64.8.22.26.44-.14.13-.1.56-.58a12.87,12.87,0,0,1,9.65-4.33,16,16,0,0,1,1.67.09,6.76,6.76,0,0,1,4.75,2.42,6.48,6.48,0,0,1,1.17,5A6.23,6.23,0,0,1,62.46,14a4.88,4.88,0,0,1-.85-.07c-1.93-.33-3.25-1.76-3.07-3.34a2.76,2.76,0,0,1,.61-1.48,1.19,1.19,0,0,0-.08.2,2.73,2.73,0,0,0,.2,2.52,2.94,2.94,0,0,0,2.39,1.22h.25a4.34,4.34,0,0,0,4.36-3.58A4.22,4.22,0,0,0,63,4.83a8.28,8.28,0,0,0-2.05-.28,7.74,7.74,0,0,0-5.93,3,17.85,17.85,0,0,0-4.25,11.3,10.62,10.62,0,0,0,.11,1.61c0,.24.06.49.08.74l0,.65.62-.23,1.93-.73c1.41-.53,2.74-1,4.1-1.49l1.47-.5a23.34,23.34,0,0,1,4.95-1.35c2.38-.28,4.83-.39,7.2-.5,1.7-.08,3.46-.16,5.18-.31a21.43,21.43,0,0,0,5.14-1.05,2.33,2.33,0,0,0,1.57-1.51,2.76,2.76,0,0,0-.56-2.48,4.73,4.73,0,0,0-.85-.88A8.53,8.53,0,0,0,77.24,8.9a6.08,6.08,0,0,0-.61,0,7.69,7.69,0,0,0-2.34.38,1.41,1.41,0,0,0-1.09,1.06,1.52,1.52,0,0,0,.69,1.46,8.1,8.1,0,0,0,.91.62A3,3,0,0,1,72,9.6a1.9,1.9,0,0,1,.45-1.43,2.79,2.79,0,0,1,2-.76l1.27,0a15.13,15.13,0,0,1,2.86.24c3.49.68,5.78,2.58,6.81,5.65a2.42,2.42,0,0,1-.69,2.8,8.81,8.81,0,0,1-3,1.53,23.08,23.08,0,0,1-3.29.56q-.72.07-1.41.18l-.75.11,2.51,4.08.38-.13a16.22,16.22,0,0,1,5.27-.9,15.47,15.47,0,0,1,1.92.12c3.5.44,5.91,2.52,6.45,5.57.69,3.84-.34,6.73-3.13,8.85l-.54.41.55.4a10.83,10.83,0,0,1,3.86,5.23c.25.66.44,1.36.63,2.05.08.29.16.58.25.87v2.45c-.05.16-.1.33-.14.5a9.6,9.6,0,0,1-.37,1.18,9,9,0,0,1-3.78,4.44,4.75,4.75,0,0,1-2.48.73,4.39,4.39,0,0,1-4.29-3.69,3.32,3.32,0,0,1,1-3.39,3.91,3.91,0,0,1,2.37-.73,10.82,10.82,0,0,0-1.35.93,2.79,2.79,0,0,0-1,1.85,2.88,2.88,0,0,0,.79,2.17,3.2,3.2,0,0,0,2.3.93,3.9,3.9,0,0,0,1.85-.48,6.21,6.21,0,0,0,3.09-4.5,5.92,5.92,0,0,0-1.53-5,10,10,0,0,0-7.44-3.17A13.86,13.86,0,0,0,81,39.4,6.44,6.44,0,0,0,77.42,41l-.13.13v.18c0,.42,0,.82-.06,1.22,0,.8-.08,1.56-.19,2.29C76.08,51,72.78,55.08,67.22,57a10.7,10.7,0,0,1-3.56.65,7.73,7.73,0,0,1-7.49-5.46,7.89,7.89,0,0,1-.31-5.06c.66-2.23,2.92-3.65,5.91-3.7h.5l-.31.11c-3.1,1.11-4.24,2.82-4,6.12a5.59,5.59,0,0,0,5.46,5.36L64,55c4.6-.54,9.33-5.69,9.56-10.4a11.43,11.43,0,0,0-8.13-11.41,17.66,17.66,0,0,0-5.2-.8,19.94,19.94,0,0,0-9.36,2.5c-7.16,3.8-12.5,9.66-16.31,17.94-2.43,5.26-3.23,9.67-2.52,13.88,1.52,9,6.16,15.82,13.8,20.15,4.8,2.73,10.39,4.05,17.1,4.05l1.39,0A25.71,25.71,0,0,0,77.7,87.2a18.14,18.14,0,0,0,7.62-8.67,3.89,3.89,0,0,0-.21-3.45l.08.13a4,4,0,0,1,.51,1.33,7.84,7.84,0,0,1-1.58,5.95,45.28,45.28,0,0,1-7.22,7.57c-6,5.06-13.46,8-22.94,9-1,.12-2.07.2-3.1.29l-1.42.12ZM84.84,23.63a8.38,8.38,0,0,0-3.55.79l-.53.23a5.93,5.93,0,0,0-2.44,1.56,26.38,26.38,0,0,1-4.57,4.58,1.41,1.41,0,0,0-.33,1.56c.64,1.06,1.3,2.07,2,3.15l.87,1.32,4.29-1.07-.39-.59A5.48,5.48,0,0,1,79.1,31a4.45,4.45,0,0,1,2.11-2.81,3,3,0,0,1,1.68-.44,4.61,4.61,0,0,1,2.14.53l-.53,0a3.35,3.35,0,0,0-3.27,1.91,4.39,4.39,0,0,0,1.26,5.15l.14.14h4.62l.13-.09a7.18,7.18,0,0,0,3.35-5.71c.14-3.28-1.49-5.45-4.49-6A9.43,9.43,0,0,0,84.84,23.63ZM60.12,26.9a24.65,24.65,0,0,1,6.07,1l.37.09a9.84,9.84,0,0,0,2.48.43,3.69,3.69,0,0,0,.58,0c2.27-.31,4-1.68,5.37-4.19a2.94,2.94,0,0,0,.27-2.31,2.71,2.71,0,0,0-1.54-1.58A6.78,6.78,0,0,0,71,19.76a2.39,2.39,0,0,0-1.93.93,2.59,2.59,0,0,0-.38,2.24,3.25,3.25,0,0,0,.19.5,1.05,1.05,0,0,1-.39-.27,3.92,3.92,0,0,1-.6-2.74l0-.8-.73.34c-1.07.49-2.15,1-3.23,1.44A75.84,75.84,0,0,0,53.7,26.52l-1.07.68,1.25.23a3.38,3.38,0,0,0,.72.07c.21,0,.42,0,.62,0l1.42-.21c.88-.13,1.79-.26,2.69-.32C59.59,26.91,59.86,26.9,60.12,26.9ZM40.73,7.4a1.73,1.73,0,0,1,1.2.87,3.46,3.46,0,0,1-1.3,4l-.41.24.22.42c1.8,3.5,2.15,6.67,1,8.93A6.17,6.17,0,0,1,36.47,25l-.61.09,1.19,3.33,7.76-4.09-.08-2.13c-.07-1.93-.14-3.9-.2-5.86a1.83,1.83,0,0,1,.12-.81c.59-1.14,1.18-2.29,1.86-3.34A4.28,4.28,0,0,0,47,8.92a8.11,8.11,0,0,0-7.39-6.41h-.24a4.47,4.47,0,0,0-3.8,2,3.88,3.88,0,0,0-.29,3.73l.05.12,4.58,3.36.28-.15a2.48,2.48,0,0,0,1.57-2A2.49,2.49,0,0,0,40.73,7.4Zm-4.85,9.41a4.18,4.18,0,0,0-3.5,2.73c-.54,1.69.64,2.68,1.72,3.36l.36.22a4.26,4.26,0,0,0,2,.6c.93,0,2.2-.42,3-2.44,1.39-3.61-.62-8.27-4.29-10a5.31,5.31,0,0,0-2.29-.52,4.91,4.91,0,0,0-4.87,4c-.54,2.53.23,4.11,2.29,4.7l.48.14.14-.48c.61-2.07,1.95-3.27,3.69-3.27a4.33,4.33,0,0,1,1.21.18,1.77,1.77,0,0,1,1.33,1.21,2.42,2.42,0,0,0-1-.43Z" style="fill:url(#a)"/><path d="M41,1A8.59,8.59,0,0,1,47.4,4c.47.5.91,1.05,1.36,1.63l.64.8.44.54.63-.21.27-.07L51,6.46,51.36,6l.14-.15a12.41,12.41,0,0,1,9.29-4.17,14.61,14.61,0,0,1,1.61.09A6.28,6.28,0,0,1,66.82,4a6,6,0,0,1,1.06,4.64,5.72,5.72,0,0,1-5.15,4.85,4.8,4.8,0,0,0,4-3.93,4.74,4.74,0,0,0-3.65-5.25,8.84,8.84,0,0,0-2.18-.29,8.24,8.24,0,0,0-6.31,3.14A18.29,18.29,0,0,0,50.26,18.8a11.75,11.75,0,0,0,.11,1.7c0,.23.06.47.08.71l.11,1.31,1.23-.46,1.93-.73c1.41-.53,2.73-1,4.09-1.49l1.47-.5A22.3,22.3,0,0,1,64.12,18c2.37-.28,4.81-.39,7.17-.5,1.71-.08,3.47-.17,5.2-.31a22,22,0,0,0,5.26-1.08,2.8,2.8,0,0,0,1.89-1.83A3.27,3.27,0,0,0,83,11.37a5.36,5.36,0,0,0-.93-1,9.21,9.21,0,0,0-4.78-2q-.32,0-.66,0a8.06,8.06,0,0,0-2.49.41,2,2,0,0,0-1.44,1.44,1.49,1.49,0,0,0,0,.21,2.26,2.26,0,0,1-.21-.85,1.42,1.42,0,0,1,.32-1.08,2.35,2.35,0,0,1,1.66-.59c.41,0,.83,0,1.24,0a14.27,14.27,0,0,1,2.77.23c3.34.65,5.44,2.39,6.43,5.32a1.89,1.89,0,0,1-.53,2.24,8.25,8.25,0,0,1-2.82,1.45,23,23,0,0,1-3.22.54c-.48.06-1,.11-1.42.18l-1.5.22.79,1.3,1,1.58.94,1.51.41.68.76-.26A15.81,15.81,0,0,1,84.38,22a16.57,16.57,0,0,1,1.86.11c3.27.42,5.52,2.35,6,5.17.65,3.63-.31,6.37-2.94,8.36l-1.09.83,1.11.78a10.41,10.41,0,0,1,3.68,5c.24.63.42,1.29.62,2,.07.27.15.55.23.82v2.3l-.12.45c-.11.4-.22.78-.35,1.13a8.57,8.57,0,0,1-3.58,4.2,4.35,4.35,0,0,1-2.22.65,3.9,3.9,0,0,1-3.8-3.29,3,3,0,0,1,.31-2.29,2.5,2.5,0,0,0-.27,1,3.39,3.39,0,0,0,.93,2.53,3.64,3.64,0,0,0,2.66,1.09,4.49,4.49,0,0,0,2.09-.54,6.68,6.68,0,0,0,3.34-4.86A6.38,6.38,0,0,0,91.2,42a10.45,10.45,0,0,0-7.8-3.33,14,14,0,0,0-2.53.24,6.89,6.89,0,0,0-3.81,1.72l-.26.27,0,.36c0,.42,0,.83-.06,1.22a22.3,22.3,0,0,1-.18,2.25c-.93,6-4.12,9.94-9.49,11.83a10.2,10.2,0,0,1-3.39.62,7.26,7.26,0,0,1-7-5.13,7.42,7.42,0,0,1-.3-4.75,4.57,4.57,0,0,1,3-2.94c-1.51,1.19-2.1,2.88-1.95,5.36a6.1,6.1,0,0,0,6,5.83,5.32,5.32,0,0,0,.69,0c4.81-.56,9.76-5.94,10-10.86a11.93,11.93,0,0,0-8.48-11.92,18.34,18.34,0,0,0-5.35-.82,20.4,20.4,0,0,0-9.59,2.56C43.38,38.32,38,44.26,34.11,52.64,32.56,56,30.6,61.15,31.56,66.82c1.55,9.19,6.27,16.09,14,20.5,4.88,2.77,10.56,4.11,17.35,4.11l1.4,0A26.25,26.25,0,0,0,78,87.63,22.82,22.82,0,0,0,81.4,85a48,48,0,0,1-4.83,4.66c-5.87,5-13.29,7.9-22.67,8.92-1,.11-2.07.2-3.08.28l-1.4.12H46.24l-.18-.13a50.53,50.53,0,0,1-12.3-11.38,29.49,29.49,0,0,1-1.69-2.58c-.26-.43-.53-.87-.81-1.3l-1.71-2.69-.13,3.18a17.68,17.68,0,0,0,2.11,8.28c.81,1.73,1.72,3.4,2.61,5l0,.09A40.52,40.52,0,0,1,24.07,93.2a1.55,1.55,0,0,1-.56-.55c-.3-.63-.61-1.25-.92-1.88-1.16-2.35-2.37-4.78-3.41-7.22A38.17,38.17,0,0,1,16,72a13.83,13.83,0,0,1,0-1.45c0-.25,0-.49,0-.74v-1l-1,0h-.27l-.67,0-.28.6c-1.93,4.08-1.82,8.38-1.67,12.54a25.5,25.5,0,0,1,.13-28.47c2.3-3.36,5.29-5.95,8.46-8.7l.92-.79a61,61,0,0,0,6.52-6.32c2.57-3,3.2-6.39,1.83-9.7a14.48,14.48,0,0,0-6.4-6.86,10.4,10.4,0,0,0-5.33-1.6,9.56,9.56,0,0,0-4.19,1c-4.39,2.13-6.51,5.8-5.81,10a8.53,8.53,0,0,0,8.46,7.21,8.26,8.26,0,0,0,3.82-.93,6.37,6.37,0,0,0,3.22-7.77,5.49,5.49,0,0,0-5.37-3.57,6.51,6.51,0,0,0-1.24.12,4.7,4.7,0,0,0-3.84,4.27,4.42,4.42,0,0,0,0,.88,5.82,5.82,0,0,1,.59-4.65,5.55,5.55,0,0,1,4.58-2,6.07,6.07,0,0,1,4.87,2.15,7.67,7.67,0,0,1,1.29,5.67c-.31,3.41-2.15,5.87-4.92,6.57a15.28,15.28,0,0,1-3.86.44c-.34,0-.67,0-1,0a8,8,0,0,1-6.43-3.17C5.77,32,5.4,27.82,7.38,23.27c1.7-3.89,5.13-5.95,10.49-6.29l.83,0c.86,0,1.72.07,2.62.14q.84.07,1.68.12l1,.05.08-1c.47-5,3.32-7.38,9.24-7.6l1.21,0-.27-1.18a5.06,5.06,0,0,1,3.84-6.08A11.13,11.13,0,0,1,41,1M39.78,12.21l-.22.13.44.84c1.7,3.3,2,6.39,1,8.47a5.67,5.67,0,0,1-4.56,2.82l-1.22.16.41,1.16.62,1.73.17.49.39,1.08,1-.54,4.08-2.15,2.89-1.52.56-.29,0-.63-.07-1.81c-.07-1.93-.14-3.9-.2-5.86a1.5,1.5,0,0,1,.07-.58c.57-1.11,1.16-2.25,1.83-3.29a4.79,4.79,0,0,0,.57-3.59A8.62,8.62,0,0,0,39.65,2h-.27a5,5,0,0,0-4.22,2.22,4.42,4.42,0,0,0-.33,4.21l.11.24.21.15,4.23,3.1.4.29m-8.64,8,.28-.95c.54-1.85,1.71-2.92,3.21-2.92a4.38,4.38,0,0,1,.51,0,4.85,4.85,0,0,0-3.24,3c-.65,2.05.79,3.23,1.93,3.94l.39.24a4.78,4.78,0,0,0,2.29.66c.89,0,2.51-.36,3.44-2.76,1.47-3.84-.65-8.8-4.55-10.62a6,6,0,0,0-2.5-.56,5.46,5.46,0,0,0-5.36,4.39c-.8,3.71,1.31,4.9,2.64,5.29l1,.27M54.6,28a5.45,5.45,0,0,0,.68-.05l1.43-.2c.92-.14,1.78-.27,2.65-.33l.76,0a23.65,23.65,0,0,1,5.95,1l.39.1A10.71,10.71,0,0,0,69,29c.22,0,.44,0,.64,0,2.41-.34,4.35-1.83,5.75-4.45a3.41,3.41,0,0,0,.3-2.71,3.18,3.18,0,0,0-1.81-1.88A7.39,7.39,0,0,0,71,19.26h-.07a2.84,2.84,0,0,0-2.26,1.13,3.24,3.24,0,0,0-.28.47c0-.13,0-.27,0-.42l0-1.6L67,19.5c-1.07.49-2.15,1-3.23,1.44a77.82,77.82,0,0,0-10.29,5.15l-2.16,1.37,2.51.46a4.36,4.36,0,0,0,.81.08m21.47,9.39.69-.17L80,36.41l1.39-.34-.8-1.19a5,5,0,0,1-1-3.73,4,4,0,0,1,1.89-2.5,2.21,2.21,0,0,1,.77-.3A4.13,4.13,0,0,0,80.79,30c-.94,1.76-.4,4.07,1.35,5.76l.29.27h5l.27-.19a7.65,7.65,0,0,0,3.55-6.09c.15-3.56-1.63-5.92-4.9-6.47a9.45,9.45,0,0,0-1.49-.12,9.05,9.05,0,0,0-3.76.83l-.52.24a6.29,6.29,0,0,0-2.64,1.71,25.31,25.31,0,0,1-4.48,4.48A1.9,1.9,0,0,0,73,32.6c.64,1.08,1.34,2.15,2,3.18l.67,1,.39.59M41,0a11.87,11.87,0,0,0-3.16.45,6.08,6.08,0,0,0-4.55,7.26c-5.63.21-9.63,2.37-10.19,8.51C21.6,16.15,20.14,16,18.7,16c-.3,0-.59,0-.89,0-4.95.31-9.24,2-11.34,6.88-2,4.6-1.87,9.24,1.19,13.45a9,9,0,0,0,7.19,3.58c.35,0,.7,0,1.05,0A16.62,16.62,0,0,0,20,39.45c3.29-.84,5.33-3.77,5.66-7.45a8.71,8.71,0,0,0-1.49-6.37,7.1,7.1,0,0,0-5.66-2.54,6.53,6.53,0,0,0-5.39,2.45,6.66,6.66,0,0,0-.24,6.67,2.89,2.89,0,0,0,2.58,1.46,4.78,4.78,0,0,0,1.7-.35,2.29,2.29,0,0,0-.23-.11c-1.83-.51-2.7-1.59-2.64-3.28a3.73,3.73,0,0,1,3-3.33,6.44,6.44,0,0,1,1.06-.1,4.53,4.53,0,0,1,4.42,2.89A5.39,5.39,0,0,1,20.07,36a7.33,7.33,0,0,1-3.36.82A7.6,7.6,0,0,1,9.23,30.4c-.62-3.82,1.3-7.06,5.27-9a8.47,8.47,0,0,1,3.75-.91A9.35,9.35,0,0,1,23.06,22a13.62,13.62,0,0,1,6,6.38c1.34,3.22.43,6.2-1.66,8.67A58.89,58.89,0,0,1,21,43.22c-3.43,3-6.94,5.88-9.54,9.68a26.67,26.67,0,0,0,.63,30.73c.36.5.73,1,1.16,1.57-.06-5.25-.84-10.48,1.48-15.37H15c0,.76-.06,1.52,0,2.28a39.38,39.38,0,0,0,3.28,11.82c1.33,3.11,2.87,6.12,4.35,9.15a2.55,2.55,0,0,0,.94,1A42.18,42.18,0,0,0,36,99l.17,0h0c-1.21-2.28-2.58-4.61-3.71-7a16.66,16.66,0,0,1-2-7.82c.86,1.36,1.61,2.72,2.54,4A52.07,52.07,0,0,0,45.5,99.7c.14.09.25.2.38.3h3.58c1.52-.13,3-.24,4.55-.41,8.57-.92,16.52-3.47,23.21-9.15a45.65,45.65,0,0,0,7.3-7.66,8.27,8.27,0,0,0,1.67-6.31A4.38,4.38,0,0,0,85.62,75a3,3,0,0,0-2.51-1.64,2.88,2.88,0,0,0-2.41,1.53,10.77,10.77,0,0,1,1.52-.75,2,2,0,0,1,.66-.12,1.81,1.81,0,0,1,1.51.88,3.51,3.51,0,0,1,.47,3.49,17.8,17.8,0,0,1-7.43,8.44,25.34,25.34,0,0,1-13.11,3.63l-1.37,0a33.48,33.48,0,0,1-16.86-4C38.37,82.07,34,75.31,32.54,66.65c-.8-4.79.5-9.29,2.48-13.59,3.49-7.58,8.62-13.75,16.09-17.71a19.47,19.47,0,0,1,9.13-2.44,17,17,0,0,1,5.05.78A11,11,0,0,1,73.07,44.6C72.86,49,68.28,54,64,54.52l-.57,0a5.07,5.07,0,0,1-5-4.89c-.18-3.06.81-4.59,3.71-5.62.83-.3,1.7-.51,2.58-.92-.92,0-1.84-.16-2.76-.16h-.19c-3.21,0-5.66,1.61-6.38,4.06a8.38,8.38,0,0,0,.32,5.37,8.27,8.27,0,0,0,8,5.79,11.18,11.18,0,0,0,3.73-.68c5.94-2.09,9.18-6.48,10.13-12.62.18-1.12.17-2.28.26-3.55A5.85,5.85,0,0,1,81,39.89a13.82,13.82,0,0,1,2.36-.22,9.46,9.46,0,0,1,7.08,3A5.71,5.71,0,0,1,89,51.45a3.37,3.37,0,0,1-1.61.42,2.45,2.45,0,0,1-2.59-2.58,2.34,2.34,0,0,1,.81-1.49,21.23,21.23,0,0,1,2.44-1.56A3.4,3.4,0,0,0,86.71,46a4.3,4.3,0,0,0-2.73.86,3.83,3.83,0,0,0-1.16,3.86A4.88,4.88,0,0,0,87.6,54.8a5.3,5.3,0,0,0,2.74-.8,9.49,9.49,0,0,0,4-4.69c.23-.58.36-1.19.54-1.79V44.93c-.3-1-.54-2-.91-3a11.38,11.38,0,0,0-4-5.47c3.16-2.39,4-5.62,3.33-9.34-.6-3.31-3.24-5.52-6.89-6a16.34,16.34,0,0,0-7.41.81L77,18.83a40.11,40.11,0,0,0,4.76-.74A9.28,9.28,0,0,0,85,16.46a2.84,2.84,0,0,0,.86-3.35c-1.16-3.46-3.73-5.31-7.18-6a15.3,15.3,0,0,0-3-.25q-.64,0-1.29,0c-2,.09-3,1.15-2.93,2.72a3.49,3.49,0,0,0,3.34,3.26h0a12.66,12.66,0,0,0,1.44-.19,24.43,24.43,0,0,1-2.1-1.32c-.77-.62-.69-1.35.24-1.65a7.33,7.33,0,0,1,2.19-.36,5.12,5.12,0,0,1,.56,0,8.11,8.11,0,0,1,4.25,1.79,3.74,3.74,0,0,1,.76.78c1,1.26.7,2.72-.77,3.22a21.43,21.43,0,0,1-5,1c-4.13.33-8.29.33-12.4.8a34.06,34.06,0,0,0-6.52,1.88c-2,.65-3.94,1.44-6,2.22a18,18,0,0,1-.19-2.28,17.22,17.22,0,0,1,4.13-11,7.26,7.26,0,0,1,5.55-2.8,7.76,7.76,0,0,1,1.92.26,3.72,3.72,0,0,1,2.92,4.12,3.83,3.83,0,0,1-3.87,3.16h-.23a2.18,2.18,0,0,1-2.14-3.07,13.1,13.1,0,0,1,1.23-2.16C59.53,8,58.24,8.81,58,10.56s1.31,3.52,3.49,3.89a4.87,4.87,0,0,0,.93.08A6.68,6.68,0,0,0,68.87,8.8c.6-4.34-2-7.51-6.36-8A16.81,16.81,0,0,0,60.79.71a13.45,13.45,0,0,0-10,4.48l-.55.57,0,0c-.68-.83-1.32-1.7-2-2.49A9.55,9.55,0,0,0,41,0ZM40,11.11,35.74,8a3.66,3.66,0,0,1,3.64-5h.22a7.65,7.65,0,0,1,6.92,6,3.79,3.79,0,0,1-.43,2.87,38.33,38.33,0,0,0-1.88,3.38A2.22,2.22,0,0,0,44,16.32c.08,2.58.18,5.17.27,7.68l-7,3.67c-.22-.62-.5-1.41-.79-2.21,5.94-.81,7.76-6.13,4.36-12.74a3.93,3.93,0,0,0,1.49-4.67A2.69,2.69,0,0,0,39.8,6.79a6.32,6.32,0,0,0-1.11.11c1.25.55,2.61,1,2.58,2.64,0,.84-.77,1.29-1.3,1.57ZM30.46,19c-2-.57-2.37-2.14-1.94-4.11a4.42,4.42,0,0,1,4.38-3.6,5,5,0,0,1,2.08.47c3.42,1.59,5.32,6,4,9.35-.53,1.4-1.4,2.12-2.5,2.12a3.83,3.83,0,0,1-1.81-.54l-.34-.2c-1.42-.89-1.85-1.7-1.51-2.79a3.73,3.73,0,0,1,3-2.38h.21a4.82,4.82,0,0,1,1.53.84A2.08,2.08,0,0,0,36,15.56a5,5,0,0,0-1.35-.2c-1.93,0-3.49,1.32-4.17,3.63ZM69.77,24.1a9.65,9.65,0,0,1-.61-1.3,1.92,1.92,0,0,1,1.77-2.54H71a6.39,6.39,0,0,1,2.52.52,2.14,2.14,0,0,1,1,3.2c-1.08,2-2.62,3.61-5,3.94A4.36,4.36,0,0,1,69,28a9.66,9.66,0,0,1-2.36-.41,26.7,26.7,0,0,0-6.56-1.14l-.83,0c-1.38.09-2.75.35-4.13.53a5.27,5.27,0,0,1-.56,0,3.52,3.52,0,0,1-.63-.06c4.23-2.67,8.88-4.46,13.41-6.53-.06,2.62.65,3.68,2.39,3.69Zm6.75,12.15c-.92-1.4-1.83-2.76-2.67-4.16a1,1,0,0,1,.2-.91,26.75,26.75,0,0,0,4.67-4.66,7.12,7.12,0,0,1,2.78-1.65,8,8,0,0,1,3.34-.74,7.43,7.43,0,0,1,1.32.11c2.77.47,4.2,2.4,4.07,5.44A6.74,6.74,0,0,1,87.09,35H82.84a3.92,3.92,0,0,1-1.17-4.56A2.85,2.85,0,0,1,84.5,28.8a10.4,10.4,0,0,1,2.09.26,4.45,4.45,0,0,0-3.7-1.76,3.59,3.59,0,0,0-2,.51c-2.74,1.77-3.19,4.62-1.17,7.63l-3.25.81Z" style="fill:#316c61"/></svg>