<svg xmlns="http://www.w3.org/2000/svg" viewBox="0 0 100 100"><title>Ravnica Guild - Dimir</title><path d="M39.56,94c-.49-.89-.93-1.76-1.34-2.58A253.13,253.13,0,0,1,24.49,58.26c-.15-.45-.28-.92-.4-1.38s-.21-.78-.32-1.17a.17.17,0,0,1,0-.08l.44-.34c.93-.7,1.86-1.41,2.76-2.14a13.24,13.24,0,0,0,4.42-6.33c.33.93.67,1.8,1,2.62a32,32,0,0,0,2.15,4,2.35,2.35,0,0,0-.88.66,4.79,4.79,0,0,0-.91,2.48,22,22,0,0,0,0,4.81c.23,2.53.52,5.27.87,8.35a100,100,0,0,0,2.4,12.93A108,108,0,0,0,39.56,94ZM60.5,94a111.47,111.47,0,0,0,5.11-18.9c.66-3.7,1-7.49,1.42-11.15.19-1.9.36-3.69.38-5.52a12.6,12.6,0,0,0-.2-2.45,3,3,0,0,0-1.72-2.54,33.33,33.33,0,0,0,3.23-6.61,13.14,13.14,0,0,0,4.64,6.47c1,.78,2,1.54,3,2.29,0,0,0,0,0,.06A95,95,0,0,1,72.64,66.6,258.79,258.79,0,0,1,62,91.2C61.48,92.15,61,93.08,60.5,94ZM15.11,59c-1-3.61-1.8-7.41-2.49-11.51a53.77,53.77,0,0,1-.89-9s0-.25,0-.3a35.36,35.36,0,0,0,15.91-6.51,16.25,16.25,0,0,0,1.55-1.31,35.72,35.72,0,0,0-.1,6,5.65,5.65,0,0,0-.71-.05,5.12,5.12,0,0,0-.78.06,11.49,11.49,0,0,0-6.29,3.41A19.67,19.67,0,0,0,16.22,49,33.75,33.75,0,0,0,15.11,59ZM85,58.92a31.38,31.38,0,0,0-2-12.67,17.16,17.16,0,0,0-6.12-8A9.64,9.64,0,0,0,72,36.38H71.6a4.21,4.21,0,0,0-.62,0,34.51,34.51,0,0,0-.12-6,22.67,22.67,0,0,0,4.71,3.41,36.6,36.6,0,0,0,11.68,4.29l1.09.16a10.84,10.84,0,0,1,0,1.7A96.38,96.38,0,0,1,85,58.92ZM50,53.74a10.67,10.67,0,0,1-6.79-2.5,19.36,19.36,0,0,1-6.28-10,29.3,29.3,0,0,1-1.09-9,24.32,24.32,0,0,1,3.75-12.43A15.63,15.63,0,0,1,44,15.23a10.75,10.75,0,0,1,6-1.9A10.89,10.89,0,0,1,57,16a18.63,18.63,0,0,1,6,9.36,26.92,26.92,0,0,1-1.41,20,16.19,16.19,0,0,1-5.62,6.63A10.84,10.84,0,0,1,50,53.74ZM6.16,24.28A44,44,0,0,1,10.69,14,68.27,68.27,0,0,1,19.08,2.48a23.31,23.31,0,0,0,8.11,9.4A12.46,12.46,0,0,0,34,14l.74,0h.18A29.82,29.82,0,0,0,31,21.68a12.49,12.49,0,0,0-1.48-2.11,13.32,13.32,0,0,0-8.14-4.71,11.64,11.64,0,0,0-1.75-.13,12.21,12.21,0,0,0-6.82,2.2,22,22,0,0,0-6.07,6.41Zm87.76,0A27.41,27.41,0,0,0,90,19.19,14.56,14.56,0,0,0,83,15a11.62,11.62,0,0,0-2.72-.33,12.33,12.33,0,0,0-7.44,2.69,13.61,13.61,0,0,0-3.79,4.28,28.61,28.61,0,0,0-3.87-7.74c.32,0,.63,0,.94,0a12.52,12.52,0,0,0,6.73-2.09,23,23,0,0,0,7.82-8.79L81,2.42c.34.37.68.77,1,1.19A64.77,64.77,0,0,1,92.5,20.22,33.56,33.56,0,0,1,93.92,24.25ZM40.81,8.4a17.71,17.71,0,0,0-.48-6.69,14.46,14.46,0,0,1,4.51,5,14.89,14.89,0,0,0-2.37.81A15.35,15.35,0,0,0,40.81,8.4Zm18.45-.05a15.74,15.74,0,0,0-4-1.66,14,14,0,0,1,4.44-5A18.57,18.57,0,0,0,59.26,8.35Z" style="fill:#1d1d1b"/><path d="M58.56,3.59a18.82,18.82,0,0,0-.15,3.46,14.93,14.93,0,0,0-2-.81,13.16,13.16,0,0,1,2.19-2.65m-17.07,0A13.66,13.66,0,0,1,43.7,6.29a14.55,14.55,0,0,0-1.54.57l-.5.23a18.21,18.21,0,0,0-.17-3.48m39.66.12.31.36a65.1,65.1,0,0,1,9.93,15.45c-.27-.3-.55-.59-.83-.88a15.27,15.27,0,0,0-7.39-4.39,12.54,12.54,0,0,0-2.89-.35,13,13,0,0,0-7.89,2.84,14.6,14.6,0,0,0-3.15,3.18,29,29,0,0,0-2.63-5.26,13.37,13.37,0,0,0,6.64-2.2,23.31,23.31,0,0,0,7.9-8.75m-62.23,0a23.37,23.37,0,0,0,7.87,8.73,13.37,13.37,0,0,0,6.68,2.21A29.22,29.22,0,0,0,30.84,20c-.23-.32-.48-.63-.74-.93a14.18,14.18,0,0,0-8.59-5A11.74,11.74,0,0,0,19.65,14a12.85,12.85,0,0,0-7.24,2.33,19.25,19.25,0,0,0-3.76,3.31,49.1,49.1,0,0,1,2.69-5.21A68,68,0,0,1,18.92,3.78M50,14.08h0a10.13,10.13,0,0,1,6.5,2.45,17.89,17.89,0,0,1,5.73,9,26.13,26.13,0,0,1-1.37,19.4,15.28,15.28,0,0,1-5.35,6.33A10.11,10.11,0,0,1,50,53a10,10,0,0,1-6.32-2.33,18.75,18.75,0,0,1-6-9.6,28.78,28.78,0,0,1-1.05-8.74,23.64,23.64,0,0,1,3.63-12,14.9,14.9,0,0,1,4.22-4.42A10,10,0,0,1,50,14.08M71.75,32.14a27,27,0,0,0,3.44,2.29,37.59,37.59,0,0,0,11.93,4.38l.49.08q0,.47,0,1a92.68,92.68,0,0,1-2.07,13.78A28.9,28.9,0,0,0,83.63,46a17.8,17.8,0,0,0-6.38-8.37,10.45,10.45,0,0,0-5.21-2h-.26c0-1.18,0-2.34,0-3.48m-43.43,0a33.53,33.53,0,0,0,0,3.47,7.38,7.38,0,0,0-.81.07,12.23,12.23,0,0,0-6.7,3.62,20.36,20.36,0,0,0-5.29,9.47,31.77,31.77,0,0,0-.93,4.87c-.44-2-.85-4.11-1.21-6.29a53.86,53.86,0,0,1-.88-8.48,35.92,35.92,0,0,0,15.61-6.56l.23-.17M68.73,48.85a14.63,14.63,0,0,0,4.16,5c.86.68,1.74,1.36,2.58,2a102.46,102.46,0,0,1-3.53,10.44c-2.6,6.84-5.16,13-7.75,18.52q1.28-4.71,2.16-9.62C67,71.49,67.4,67.67,67.78,64c.18-1.77.35-3.65.38-5.52a14.18,14.18,0,0,0-.21-2.6,4,4,0,0,0-1.42-2.65,33.2,33.2,0,0,0,2.2-4.34m-37.38,0,.37.86a30.47,30.47,0,0,0,1.81,3.45,3,3,0,0,0-.44.44A5.39,5.39,0,0,0,32,56.48a21.71,21.71,0,0,0,0,5c.23,2.56.51,5.29.86,8.37a99.86,99.86,0,0,0,2.43,13c.16.65.32,1.29.49,1.92A246.58,246.58,0,0,1,25.2,58c-.14-.43-.26-.87-.38-1.35l-.21-.77,0,0c.92-.7,1.87-1.41,2.79-2.16a14.46,14.46,0,0,0,3.92-4.85M39,0a17.19,17.19,0,0,1,.87,9.92,18.45,18.45,0,0,1,2.94-1.69,17.7,17.7,0,0,1,3.17-1A15.49,15.49,0,0,0,39,0ZM61,.08a15,15,0,0,0-6.87,7.13,15.42,15.42,0,0,1,6.11,2.67A17.73,17.73,0,0,1,61,.08ZM80.78,1.17c-.27.54-.51,1-.77,1.53a22.33,22.33,0,0,1-7.56,8.52,11.78,11.78,0,0,1-6.33,2,11.62,11.62,0,0,1-1.3-.08c-.42,0-.83-.13-1.35-.21A28.86,28.86,0,0,1,68.9,23.69c.07-.15.11-.2.13-.26A12.55,12.55,0,0,1,73.29,18a11.5,11.5,0,0,1,7-2.54,10.9,10.9,0,0,1,2.55.31,13.85,13.85,0,0,1,6.66,4,31.57,31.57,0,0,1,5.59,8.18,1.8,1.8,0,0,0,.41.64c0-.34,0-.59,0-.83a32.88,32.88,0,0,0-2.25-7.78A65.79,65.79,0,0,0,82.61,3.13a17.78,17.78,0,0,0-1.83-2Zm-61.59,0c-.19.23-.38.47-.58.69A69.18,69.18,0,0,0,10,13.65a43.69,43.69,0,0,0-5,11.86c-.22.94-.38,1.91-.56,2.86v.4c.17-.1.21-.3.29-.46a44.41,44.41,0,0,1,2.59-4.55,21.39,21.39,0,0,1,5.85-6.21,11,11,0,0,1,8-2A12.65,12.65,0,0,1,29,20.06a11.82,11.82,0,0,1,2.19,3.71A28.8,28.8,0,0,1,36.59,13c-.69.09-1.31.2-1.92.24l-.7,0a11.65,11.65,0,0,1-6.37-2,22.85,22.85,0,0,1-8-9.47,1.22,1.22,0,0,0-.38-.59ZM50,12.58a11.5,11.5,0,0,0-6.45,2,16.17,16.17,0,0,0-4.64,4.86A25,25,0,0,0,35,32.3a30.21,30.21,0,0,0,1.12,9.19,20.24,20.24,0,0,0,6.52,10.34,11.28,11.28,0,0,0,13.66.68,16.87,16.87,0,0,0,5.87-6.93A27.54,27.54,0,0,0,63.67,25.1a19.53,19.53,0,0,0-6.22-9.73A11.61,11.61,0,0,0,50,12.58Zm19.85,15.6a36.76,36.76,0,0,1,.28,9.2,4.35,4.35,0,0,1,1.47-.26h.33a9,9,0,0,1,4.47,1.72,16.47,16.47,0,0,1,5.84,7.68C84.29,51.65,84.5,57,84,62.38c-.08,1-.21,1.91-.32,2.86a6.75,6.75,0,0,0,.57-1.33A102.36,102.36,0,0,0,89.07,40a11.57,11.57,0,0,0,0-2.42c-.58-.08-1.12-.14-1.64-.24a36,36,0,0,1-11.45-4.2,19.35,19.35,0,0,1-5.79-4.66c-.08-.1-.1-.28-.3-.29Zm-39.67,0a14.72,14.72,0,0,1-3,2.92,34.3,34.3,0,0,1-15.76,6.41c-.36.05-.47.18-.45.5s0,.34,0,.51a54.36,54.36,0,0,0,.9,9.08,113.49,113.49,0,0,0,3.66,15.54,12.74,12.74,0,0,0,.83,2.15c-.22-1.82-.4-3.63-.48-5.46a33.87,33.87,0,0,1,1.05-10.66,19.08,19.08,0,0,1,4.9-8.8,10.84,10.84,0,0,1,5.89-3.21,4.91,4.91,0,0,1,.67-.05,5.55,5.55,0,0,1,1.54.24,39.55,39.55,0,0,1,.24-9.17ZM68.89,44a35.19,35.19,0,0,1-4.59,9.86,2.3,2.3,0,0,1,2.17,2.25,11.88,11.88,0,0,1,.19,2.31c0,1.8-.19,3.59-.37,5.39-.38,3.73-.76,7.46-1.42,11.16a110,110,0,0,1-5.42,19.69c-.67,1.76-1.41,3.48-2.15,5.22a4,4,0,0,0,.9-.89,46.25,46.25,0,0,0,4.42-7.45A258,258,0,0,0,73.34,66.86a96.43,96.43,0,0,0,3.69-11,.69.69,0,0,0-.25-.83c-1-.75-2-1.51-3-2.28a12.38,12.38,0,0,1-4.68-7.27c-.1-.48-.17-1-.25-1.45ZM31.25,44a.33.33,0,0,0-.13.29,12.09,12.09,0,0,1-4.64,8.27c-1,.83-2.07,1.61-3.12,2.4a.78.78,0,0,0-.31,1c.26.85.44,1.72.72,2.57A251.41,251.41,0,0,0,37.55,91.77a45.31,45.31,0,0,0,4.15,7c.16.21.33.42.51.62l.49.57c.08-.14.07-.19,0-.23a99.66,99.66,0,0,1-6-17.28,101.67,101.67,0,0,1-2.39-12.83c-.31-2.78-.61-5.56-.86-8.34a21.17,21.17,0,0,1,0-4.64,4.05,4.05,0,0,1,.75-2.11,2.2,2.2,0,0,1,1.52-.66,29,29,0,0,1-2.69-4.78A41.59,41.59,0,0,1,31.25,44Z" style="fill:#203b8f"/><path d="M40.33,1.71a14.46,14.46,0,0,1,4.51,5,14.89,14.89,0,0,0-2.37.81,14.48,14.48,0,0,0-1.66.85,17.71,17.71,0,0,0-.48-6.69m19.35,0a18.57,18.57,0,0,0-.42,6.62,15.74,15.74,0,0,0-4-1.66,14,14,0,0,1,4.44-5M81,2.42c.35.37.69.77,1,1.19A64.94,64.94,0,0,1,92.5,20.22a33.56,33.56,0,0,1,1.42,4A27.08,27.08,0,0,0,90,19.19,14.61,14.61,0,0,0,83,15a11.62,11.62,0,0,0-2.72-.33,12.33,12.33,0,0,0-7.44,2.69,13.61,13.61,0,0,0-3.79,4.28,28.61,28.61,0,0,0-3.87-7.74c.32,0,.63,0,.94,0a12.55,12.55,0,0,0,6.73-2.09,22.91,22.91,0,0,0,7.82-8.79c.11-.21.22-.42.32-.64m-61.91.06a23.31,23.31,0,0,0,8.11,9.4A12.46,12.46,0,0,0,34,14l.75,0h.17A29.82,29.82,0,0,0,31,21.68a12.49,12.49,0,0,0-1.48-2.11,13.32,13.32,0,0,0-8.14-4.71,11.55,11.55,0,0,0-1.75-.13,12.13,12.13,0,0,0-6.82,2.2,22,22,0,0,0-6.07,6.41l-.6.94A44,44,0,0,1,10.69,14,68.27,68.27,0,0,1,19.08,2.48M50,13.33h0A10.89,10.89,0,0,1,57,16a18.63,18.63,0,0,1,6,9.36,26.92,26.92,0,0,1-1.41,20,16.19,16.19,0,0,1-5.62,6.63,10.84,10.84,0,0,1-6,1.85,10.67,10.67,0,0,1-6.79-2.5,19.36,19.36,0,0,1-6.28-10,29.27,29.27,0,0,1-1.09-9,24.32,24.32,0,0,1,3.75-12.44A15.63,15.63,0,0,1,44,15.23a10.75,10.75,0,0,1,6-1.9m20.86,17a22.94,22.94,0,0,0,4.71,3.41,36.6,36.6,0,0,0,11.68,4.29l1.09.16a12.23,12.23,0,0,1,0,1.7,96.38,96.38,0,0,1-3.36,19,31.38,31.38,0,0,0-2-12.67,17.16,17.16,0,0,0-6.12-8A9.61,9.61,0,0,0,72,36.38H71.6a4.21,4.21,0,0,0-.62,0,34.51,34.51,0,0,0-.12-6m-41.66.07a35.74,35.74,0,0,0-.1,6,5.62,5.62,0,0,0-.7-.05,5.16,5.16,0,0,0-.79.06,11.52,11.52,0,0,0-6.29,3.41A19.59,19.59,0,0,0,16.22,49a33.75,33.75,0,0,0-1.11,10c-1-3.61-1.8-7.41-2.49-11.51a53.77,53.77,0,0,1-.89-9v-.3a35.25,35.25,0,0,0,15.91-6.51,17.86,17.86,0,0,0,1.55-1.31m2.17,16.38c.33.93.67,1.8,1,2.62a31.27,31.27,0,0,0,2.15,4,2.35,2.35,0,0,0-.88.66,4.79,4.79,0,0,0-.91,2.48,22,22,0,0,0,0,4.81c.24,2.55.52,5.29.87,8.35a100,100,0,0,0,2.4,12.93A108,108,0,0,0,39.56,94c-.49-.89-.93-1.76-1.34-2.58A253.13,253.13,0,0,1,24.49,58.26c-.15-.45-.27-.9-.4-1.38s-.21-.79-.32-1.17c0,0,0-.07,0-.08l.07-.06.38-.28c.91-.69,1.86-1.4,2.76-2.14a13.24,13.24,0,0,0,4.42-6.33m37.35,0a13.19,13.19,0,0,0,4.64,6.47c1,.78,2,1.55,3,2.29,0,0,0,0,0,.06A98.07,98.07,0,0,1,72.64,66.6,258.79,258.79,0,0,1,62,91.2c-.47,1-1,1.88-1.45,2.79A111.11,111.11,0,0,0,65.61,75.1c.66-3.72,1-7.52,1.42-11.22.19-1.82.35-3.61.38-5.45a12.53,12.53,0,0,0-.2-2.45,3,3,0,0,0-1.72-2.54,33.89,33.89,0,0,0,3.23-6.61M39,0a17.19,17.19,0,0,1,.87,9.92,18.45,18.45,0,0,1,2.94-1.69,17.7,17.7,0,0,1,3.17-1A15.49,15.49,0,0,0,39,0ZM61,.08a15,15,0,0,0-6.87,7.13,15.42,15.42,0,0,1,6.11,2.67A17.73,17.73,0,0,1,61,.08ZM80.78,1.17c-.27.54-.51,1-.77,1.53a22.33,22.33,0,0,1-7.56,8.52,11.78,11.78,0,0,1-6.33,2,11.62,11.62,0,0,1-1.3-.08c-.42,0-.83-.13-1.35-.21A28.86,28.86,0,0,1,68.9,23.69c.07-.15.11-.2.13-.26A12.55,12.55,0,0,1,73.29,18a11.5,11.5,0,0,1,7-2.54,10.9,10.9,0,0,1,2.55.31,13.85,13.85,0,0,1,6.66,4,31.57,31.57,0,0,1,5.59,8.18,1.8,1.8,0,0,0,.41.64c0-.34,0-.59,0-.83a32.88,32.88,0,0,0-2.25-7.78A65.79,65.79,0,0,0,82.61,3.13a17.78,17.78,0,0,0-1.83-2Zm-61.59,0c-.19.23-.38.47-.58.69A69.18,69.18,0,0,0,10,13.65a43.69,43.69,0,0,0-5,11.86c-.22.94-.38,1.91-.56,2.86v.4c.17-.1.21-.3.29-.46a44.41,44.41,0,0,1,2.59-4.55,21.39,21.39,0,0,1,5.85-6.21,11,11,0,0,1,8-2A12.65,12.65,0,0,1,29,20.06a11.82,11.82,0,0,1,2.19,3.71A28.8,28.8,0,0,1,36.59,13c-.69.09-1.31.2-1.92.24l-.7,0a11.65,11.65,0,0,1-6.37-2,22.85,22.85,0,0,1-8-9.47,1.22,1.22,0,0,0-.38-.59ZM50,12.58a11.5,11.5,0,0,0-6.45,2,16.17,16.17,0,0,0-4.64,4.86A25,25,0,0,0,35,32.3a30.21,30.21,0,0,0,1.12,9.19,20.24,20.24,0,0,0,6.52,10.34,11.28,11.28,0,0,0,13.66.68,16.87,16.87,0,0,0,5.87-6.93A27.54,27.54,0,0,0,63.67,25.1a19.53,19.53,0,0,0-6.22-9.73A11.61,11.61,0,0,0,50,12.58Zm19.85,15.6a36.76,36.76,0,0,1,.28,9.2,4.35,4.35,0,0,1,1.47-.26h.33a9,9,0,0,1,4.47,1.72,16.47,16.47,0,0,1,5.84,7.68C84.29,51.65,84.5,57,84,62.38c-.08,1-.21,1.91-.32,2.86a6.75,6.75,0,0,0,.57-1.33A102.36,102.36,0,0,0,89.07,40a11.57,11.57,0,0,0,0-2.42c-.58-.08-1.12-.14-1.64-.24a36,36,0,0,1-11.45-4.2,19.35,19.35,0,0,1-5.79-4.66c-.08-.1-.1-.28-.3-.29Zm-39.67,0a14.72,14.72,0,0,1-3,2.92,34.3,34.3,0,0,1-15.76,6.41c-.36.05-.47.18-.45.5s0,.34,0,.51a54.36,54.36,0,0,0,.9,9.08,113.49,113.49,0,0,0,3.66,15.54,12.74,12.74,0,0,0,.83,2.15c-.22-1.82-.4-3.63-.48-5.46a33.87,33.87,0,0,1,1.05-10.66,19.08,19.08,0,0,1,4.9-8.8,10.84,10.84,0,0,1,5.89-3.21,4.91,4.91,0,0,1,.67-.05,5.55,5.55,0,0,1,1.54.24,39.55,39.55,0,0,1,.24-9.17ZM68.89,44a35.19,35.19,0,0,1-4.59,9.86,2.3,2.3,0,0,1,2.17,2.25,11.88,11.88,0,0,1,.19,2.31c0,1.8-.19,3.59-.37,5.39-.38,3.73-.76,7.46-1.42,11.16a110,110,0,0,1-5.42,19.69c-.67,1.76-1.41,3.48-2.15,5.22a4,4,0,0,0,.9-.89,46.25,46.25,0,0,0,4.42-7.45A258,258,0,0,0,73.34,66.86a96.43,96.43,0,0,0,3.69-11,.69.69,0,0,0-.25-.83c-1-.75-2-1.51-3-2.28a12.38,12.38,0,0,1-4.68-7.27c-.1-.48-.17-1-.25-1.45ZM31.25,44a.33.33,0,0,0-.13.29,12.09,12.09,0,0,1-4.64,8.27c-1,.83-2.07,1.61-3.12,2.4a.78.78,0,0,0-.31,1c.26.85.44,1.72.72,2.57A251.41,251.41,0,0,0,37.55,91.77a45.31,45.31,0,0,0,4.15,7c.16.21.33.42.51.62l.49.57c.08-.14.07-.19,0-.23a99.66,99.66,0,0,1-6-17.28,101.67,101.67,0,0,1-2.39-12.83c-.31-2.78-.61-5.56-.86-8.34a21.17,21.17,0,0,1,0-4.64,4.05,4.05,0,0,1,.75-2.11,2.2,2.2,0,0,1,1.52-.66,29,29,0,0,1-2.69-4.78A41.59,41.59,0,0,1,31.25,44Z" style="fill:#47a5dc"/><path d="M50.09,44.72a14.58,14.58,0,0,1-7.9-2.52,12.75,12.75,0,0,1-3.81-3.4,3.1,3.1,0,0,1,.07-4.25,15.57,15.57,0,0,1,6.42-4.64,14,14,0,0,1,5.73-1.15,15.49,15.49,0,0,1,10.63,5.38c1.47,1.72,1.47,3.38,0,5.24a14.69,14.69,0,0,1-5.95,4.23,13,13,0,0,1-5.18,1.11Z" style="fill:#49a5dc"/><path d="M50.61,29.51a14.76,14.76,0,0,1,10,5.12c1.26,1.47,1.2,2.74,0,4.28a14,14,0,0,1-5.66,4,12.36,12.36,0,0,1-4.88,1,14,14,0,0,1-7.5-2.41,12.24,12.24,0,0,1-3.6-3.2A2.36,2.36,0,0,1,39.05,35a14.94,14.94,0,0,1,6.11-4.41,13.2,13.2,0,0,1,5.45-1.09m.06-1.5H50.6a14.83,14.83,0,0,0-6,1.21,16.28,16.28,0,0,0-6.71,4.87,3.83,3.83,0,0,0-.09,5.14,14,14,0,0,0,4,3.6,15.46,15.46,0,0,0,8.3,2.64,13.7,13.7,0,0,0,5.47-1.17,15.36,15.36,0,0,0,6.25-4.46c1.69-2.12,1.69-4.21,0-6.19A16.19,16.19,0,0,0,50.74,28Z" style="fill:#1e3d8d"/><path d="M50.61,29.51a13.2,13.2,0,0,0-5.45,1.09A14.94,14.94,0,0,0,39.05,35,2.36,2.36,0,0,0,39,38.36a12.24,12.24,0,0,0,3.6,3.2c3.9,2.47,8,3.25,12.38,1.37a14,14,0,0,0,5.66-4c1.23-1.54,1.29-2.81,0-4.28A14.76,14.76,0,0,0,50.61,29.51Z" style="fill:none;stroke:#4ba4dc;stroke-miterlimit:10"/><path d="M50,32a4.29,4.29,0,0,1,4.29,4.36,4.3,4.3,0,1,1-8.59-.09A4.27,4.27,0,0,1,50,32Z" style="fill:#1d1d1b"/></svg>