<svg xmlns="http://www.w3.org/2000/svg" viewBox="0 0 100 100"><title>Ravnica Guild - Azorius</title><path d="M66.82,91.85A32.22,32.22,0,0,0,81.61,71.2a31.64,31.64,0,0,0,.65-4.47q0-.6.06-1.17L97.47,91.85Zm-64.24,0L17.89,65.38c0,.11,0,.22,0,.33.05,1.15.16,2.27.31,3.34a31.57,31.57,0,0,0,2,7.4A32.4,32.4,0,0,0,33.4,91.85ZM50.11,9.65,65.29,36a31.62,31.62,0,0,0-15.18-3.77H50A31.8,31.8,0,0,0,34.86,36Z" style="fill:#9bd5f5"/><path d="M50.1,12.65l6,10.41,5.58,9.67a33.61,33.61,0,0,0-11.56-2H50a33.64,33.64,0,0,0-11.52,2L50.1,12.65M16.87,70.14A33.38,33.38,0,0,0,27.74,89.53c.31.28.63.55,1,.82H5.18L16.87,70.14m66.45.16,7.48,13,2.91,5,1.16,2H71.53A35.18,35.18,0,0,0,75.08,87a33.4,33.4,0,0,0,8-15.46c.09-.4.17-.81.24-1.22M50.11,6.65,30.36,40.8A30.72,30.72,0,0,1,50,33.73h.11a30.49,30.49,0,0,1,19.56,7l0,0-19.6-34ZM19.8,59.16a.79.79,0,0,0-.21.28Q9.87,76.24.16,93c-.06.1-.11.21-.16.31H39.94a1.07,1.07,0,0,0-.22-.15,30.74,30.74,0,0,1-18.1-17.32,29.69,29.69,0,0,1-1.92-7,31,31,0,0,1-.3-3.19,30,30,0,0,1,.23-5.27c.05-.4.11-.8.17-1.21Zm60.7.26a.39.39,0,0,0,0,.21c.1,1,.24,2,.31,3a26.84,26.84,0,0,1,0,4,29,29,0,0,1-.61,4.25A30.72,30.72,0,0,1,60.5,93.2a2.34,2.34,0,0,0-.27.15H100c.1,0,0-.08,0-.11s-.14-.27-.22-.4l-3.46-6L80.68,59.71l-.18-.29Z" style="fill:#5ec0ee"/><path d="M50.1,10.65l8,13.85L64,34.8a32.2,32.2,0,0,0-13.9-3.07H50a32.3,32.3,0,0,0-13.87,3.09l14-24.17M17.49,67.07c.05.7.13,1.38.23,2.05a31.62,31.62,0,0,0,2.05,7.52A33,33,0,0,0,31.7,91.35H3.45l14-24.28m65.23.18,9,15.65,2.85,4.93,1.51,2.62.51.9H68.52a32.6,32.6,0,0,0,14.2-24.1M50.11,6.65,30.36,40.8A30.72,30.72,0,0,1,50,33.73h.11a30.49,30.49,0,0,1,19.56,7l0,0-19.6-34ZM19.8,59.16a.79.79,0,0,0-.21.28Q9.87,76.24.16,93c-.06.1-.11.21-.16.31H39.94a1.07,1.07,0,0,0-.22-.15,30.74,30.74,0,0,1-18.1-17.32,29.69,29.69,0,0,1-1.92-7,31,31,0,0,1-.3-3.19,30,30,0,0,1,.23-5.27c.05-.4.11-.8.17-1.21Zm60.7.26a.39.39,0,0,0,0,.21c.1,1,.24,2,.31,3a26.84,26.84,0,0,1,0,4,29,29,0,0,1-.61,4.25A30.72,30.72,0,0,1,60.5,93.2a2.34,2.34,0,0,0-.27.15H100c.1,0,0-.08,0-.11s-.14-.27-.22-.4l-3.46-6L80.68,59.71l-.18-.29Z" style="fill:#163596"/><path d="M42.07,52.52l.38.42a2,2,0,0,1-.1.21c0,.1-.09.19-.12.29-.12.32,0,.44.32.38s.42-.11.66-.17a14,14,0,0,1,1.47,2.19l-.37.28c-.33-.19-.55-.51-1-.56a2.29,2.29,0,0,0,.41,1l-.89.9-3.19-2.7.58-.4c.31.26.6.51.9.75a5.34,5.34,0,0,0,.56.41,1.22,1.22,0,0,0,.34.14.36.36,0,0,0,.44-.4c0-.11-.08-.15-.16-.17s-.35,0-.52-.06L41.58,55s0-.06-.07-.09c-.28-.34-.55-.69-.85-1ZM27.54,78.76a3.15,3.15,0,0,0,.51-.21,1,1,0,0,1,1.06,0,.41.41,0,0,0,.6-.09.82.82,0,0,1,.2-.17.38.38,0,0,0,.17-.34c0-.25,0-.5,0-.74a8.46,8.46,0,0,0,1.43-.75,5.41,5.41,0,0,1-.38-.49.32.32,0,0,0-.34-.16c-.21,0-.31-.07-.4-.24s-.28-.5-.43-.76l-.43.23a.25.25,0,0,0-.12.34q.12.36.21.72a.31.31,0,0,1-.22.4.47.47,0,0,1-.63-.25c-.07-.13-.07-.35-.16-.4-.28-.15-.55-.18-.76.13s-.29.13-.4-.06a2.64,2.64,0,0,1-.14-.29,9.75,9.75,0,0,0-1.05.4c.43.41.95.7,1,1.34l-.49.28ZM30,53.69s.06,0,.1,0a3.5,3.5,0,0,0,.33-.43.78.78,0,0,1,.77-.44l.07,0c.16-.38.48-.71.45-1.17l-.1-.08-3-2a.42.42,0,0,0-.18-.08c-.26,0-.53,0-.84,0a.71.71,0,0,1-.22.83l-.05.07a.44.44,0,0,0-.06.44,1.21,1.21,0,0,1,0,.84l-.12.45a1.53,1.53,0,0,0,.55.26,5.88,5.88,0,0,1,.32-.56.38.38,0,0,1,.4-.15,2.77,2.77,0,0,1,1,.36.47.47,0,0,1,.27.62c-.05.21-.12.42-.18.66ZM59.24,89.21A1.33,1.33,0,0,0,58.65,88a.78.78,0,0,1-.2-.24,3.16,3.16,0,0,1-.22-.5c-.14-.36-.27-.72-.4-1.08s-.23-.49-.56-.49a1,1,0,0,1-.25-.07c-.12,0-.24-.07-.37-.09s-.34.07-.36.3a3.09,3.09,0,0,0,0,.43c.05.6.1,1.21.16,1.81a2.3,2.3,0,0,1-.26,1.34.63.63,0,0,1-.67.4c-.1,0-.22,0-.33,0a.85.85,0,0,0,.23.58.47.47,0,0,0,.48.21l1-.15c.34-.07.37-.13.37-.47a5.77,5.77,0,0,1,0-.72c0-.15.05-.31.24-.35A.42.42,0,0,1,58,89c.07.09.12.2.19.29a.9.9,0,0,0,.31.24,1,1,0,0,0,.73,0C59.21,89.45,59.23,89.33,59.24,89.21ZM58.12,75.49,56,73.06l.44-.45,2.39,2.31L60,73.48a7.23,7.23,0,0,0-.56-.55c-.26-.23-.35-.21-.62,0l-.15.13c-.32.28-.38.27-.58-.1s-.25-.49-.39-.73a.61.61,0,0,0-.58-.36.89.89,0,0,1-.66-.3l-.23-.2-1.43,1.73.76.86L56,73.7a1.69,1.69,0,0,1,.74,1l-.66.69.9,1ZM64.84,77a5.09,5.09,0,0,0,.45.31c.17.11.23.09.38,0a.84.84,0,0,0,.15-.18c.25-.4.49-.8.75-1.23a3.8,3.8,0,0,0-.34-.29c-.4-.26-.79-.53-1.21-.75s-.28-.38-.35-.65l1.22.48.34-.71L63.8,72.42l-1.24,1.35,1.71,1.59a2.89,2.89,0,0,1-.59.69ZM41.61,89.78a.22.22,0,0,0,.23.07l1-.14c.23,0,.3-.09.35-.31s0-.25.07-.37a.69.69,0,0,0-.15-.7.38.38,0,0,1-.07-.21c0-.23,0-.46,0-.7l.85-.38c-.1-.24-.21-.45-.28-.68a6.85,6.85,0,0,1-.11-.72l-.77,0a.36.36,0,0,0-.36.2c-.12.22-.23.44-.34.66a1.91,1.91,0,0,1-.62.78.71.71,0,0,1-.46.15h-.57c-.16.36-.33.7-.46,1a2.73,2.73,0,0,0-.16.64c0,.21,0,.3.25.34a3,3,0,0,0,.43,0c.19,0,.27-.07.31-.26s0-.29.06-.43c0-.33.06-.36.4-.41h.2c.15.37,0,.66-.17,1ZM66.13,68.1c.31.14.6.3.9.46a.31.31,0,0,1,.19.27c0,.19,0,.38,0,.57s-.06.18-.1.19a1.6,1.6,0,0,1-.57,0c-.16,0-.13-.24-.17-.37a.39.39,0,0,1,0-.14.86.86,0,0,0-.39-.65.35.35,0,0,0-.55,0c-.23.33-.43.69-.64,1a.48.48,0,0,0,.11.08L68.12,71a.85.85,0,0,0,.61,0c-.07-.29-.39-.27-.55-.48,0-.44,0-.91-.05-1.38a.55.55,0,0,1,.31-.62s0,0,0,0l-.06-.76.32-.14-.19-.8L67,66.91c-.22.42-.17.36-.63.32l-.11,0-.9-.2-.07.73C65.59,67.86,65.87,68,66.13,68.1Zm-31.31-9a.23.23,0,0,0-.14-.23l-.78-.38a.61.61,0,0,0-.69.08c-.19.15-.39.28-.59.42a1,1,0,0,1-.7.22,5.79,5.79,0,0,0-.72,0h-.55A18,18,0,0,0,30,60.9l.89.52c.17-.34.19-.71.5-.94.25.29.16.66.32,1h.63v-.52l.8.1,0,.73,1.16.3.08-.6-.82-.31V60l1.31-.08C34.84,59.62,34.83,59.36,34.82,59.1Zm3.41,20.2.49.54-.92,1,.65.51,2.32-3a15.11,15.11,0,0,0-1.67-1.75,2.73,2.73,0,0,0-.78.71l.91.86a1.62,1.62,0,0,1-.38.65l-.18,0a.93.93,0,0,1-.73-.45,3.19,3.19,0,0,0-.33-.4,9.94,9.94,0,0,0-1.55,1.56l.81.85Zm1.16-27.47,1.22-1-1-1.11.28-.54a.44.44,0,0,0,0-.39l-.69-1.46A2.42,2.42,0,0,0,39,47l-1,.54c.12.19.23.34.32.51a1.69,1.69,0,0,1,.15.37c0,.2-.07.32-.26.23a2.93,2.93,0,0,1-.53-.33c-.09-.07-.16-.16-.27-.26l-.67.75Zm21.88-1.55,1,1L61,52.73l.78.81,2.92-3.24a5.1,5.1,0,0,0-.63-.82c-.31.26-.45.67-.84.84,0-.07-.09-.11-.09-.16A2.9,2.9,0,0,1,63.51,49l-1-.68ZM36.61,62.48a.17.17,0,0,0,.15.19c.3.06.41.29.5.54s.1.39-.16.59-.37.26-.59.41c.48.29.93.59,1.41.87l.31-.82h2.62a4.15,4.15,0,0,0-.08-1.45l-4.16-1.14Zm25.8,24.2a.47.47,0,0,0,.2-.66c-.08-.18-.17-.35-.25-.52s-.23-.47-.35-.7a.4.4,0,0,1,.1-.5c.11-.1.23-.19.36-.29s.24-.22.15-.48a.85.85,0,0,0-.09-.22c-.15-.29-.26-.33-.54-.17l-2.22,1.3-.14.11.28.62c.29,0,.54.07.78.12s.28.14.21.36-.17.4-.25.61a1,1,0,0,0-.11.38c0,.42.2.56.58.39s.39-.08.53.2l.27.5a.49.49,0,0,0,.46.25,1.32,1.32,0,0,0,1-.6c.12-.15.06-.27-.12-.33s-.21,0-.31,0a2,2,0,0,1-.74-.2Zm-9.34,0a.34.34,0,0,0-.29.49c0,.07.06.14.08.21.11.26.23.51.32.77a1.31,1.31,0,0,1,0,1,10.34,10.34,0,0,1-.49,1.07,1.06,1.06,0,0,0,0,.76c0,.16.12.2.28.17l.71-.12.41-.06a5.44,5.44,0,0,1-.17-.54c-.12-.57,0-.77.57-.93l.92-.22c.25-.07.27-.09.25-.34,0-.59,0-1.17-.08-1.76l-.06-.83a2.48,2.48,0,0,0-.86-.06V87.5c-.33-.06-.65,0-1-.08l.05-.8A5.57,5.57,0,0,0,53.07,86.66ZM69.71,54.88A5.78,5.78,0,0,0,70,56.07l.89-.28.38.71a4,4,0,0,0,1-.26A3.89,3.89,0,0,1,72,54.78c.14.09.24.14.33.21a2.65,2.65,0,0,1,.41.41.91.91,0,0,0,.92.39h.21a1.17,1.17,0,0,0,.2-.06l-.16-.94.47-.19c-.29-.53-.53-1.05-.86-1.54Zm2.1-5.09a.94.94,0,0,0-.22-.1c0,.25.06.45.08.65s0,.35-.29.42l-.08,0c-.37.08-.73.16-1.09.26s-.27.13-.25.36.05.34.08.51.07.41.1.61l-1.19,1,.43.77,3.86-2-.14-.83c-.28.09-.53.18-.79.25a1.46,1.46,0,0,1-.82.12A7.51,7.51,0,0,1,72.78,51,6,6,0,0,0,71.81,49.79ZM45.76,45.1c.33,0,.42.06.49.39s.15.83.22,1.25.14.75.2,1.14l1.66-.28v-.39c0-.62.08-.5-.44-.91a2.58,2.58,0,0,1-.38-.36.26.26,0,0,1,.09-.43,1.93,1.93,0,0,1,.41-.12,2.88,2.88,0,0,1,.33,0l-.1-1.18L47.81,44l0-.41a6.91,6.91,0,0,0-2.62.55l.24,1Zm-3.26-2a8.45,8.45,0,0,0,.84-.19c.22-.06.25-.14.23-.36l-.06-.46a3,3,0,0,0-.38-1.25,9.25,9.25,0,0,1-.93-2.08,3.38,3.38,0,0,0-.16-.36l-.85.46.54,1-.38.4a2.8,2.8,0,0,0-.41-.13.33.33,0,0,1-.25-.28c0-.23-.12-.46-.19-.72l-.79.31,1,2.11c.45-.05.85-.24,1.29-.25a3.16,3.16,0,0,1,0,1.85A4.88,4.88,0,0,0,42.5,43.13Zm4.88,7.13c-.06,0-.12.11-.14.18s-.09.38-.13.56a.34.34,0,0,1,0,.14.75.75,0,0,1-.79.09c-.16-.12-.32-.25-.48-.36a.33.33,0,0,0-.55.17.51.51,0,0,0,0,.52,2.68,2.68,0,0,0,.86.88,1.59,1.59,0,0,1,.49.51.2.2,0,0,1,0,.26c-.08.13-.14.27-.22.41a.48.48,0,0,0,.06.58c.27.35.27.35.69.25s.59-.14.88-.21c0-.69,0-1.36,0-2a1.41,1.41,0,0,1,.26-1,2.12,2.12,0,0,0,.12-.2.93.93,0,0,0,0-1C48.07,50.09,47.72,50.16,47.38,50.26ZM50.9,51v2.26l.61.18-.11.79,1.42.27.74-2.24-.78-.56.43-1-1.37-.55-.06.75Zm7.82,18.26c-.08.14-.16.28-.23.43a.31.31,0,0,1-.36.22,1.82,1.82,0,0,0-.4,0,.38.38,0,0,0-.34.18L57,70.7l1.59,1.55.85-.47,1.19.94.72-1.5-1.05-.31.16-.74A6.57,6.57,0,0,0,58.72,69.23Zm-7,13.24c0,.06.07.12.13.16s.25.18.36.29a.41.41,0,0,1,.09.53c-.08.17-.2.32-.29.49s-.11.13-.11.2c0,.25,0,.51,0,.81l2.77-.56a1.75,1.75,0,0,0,0-.72c-.31,0-.61,0-.91-.09-.12,0-.27,0-.28-.23a.49.49,0,0,1,.25-.52l.59-.19-.09-.76-1.1-.09-.12-1-1.33.09C51.66,81.45,51.66,82,51.67,82.47Zm11.67-2.73.1-.16a1.33,1.33,0,0,1,.7-.72c.23-.12.44-.27.67-.41l-.1-.11c-.55-.51-1.1-1-1.67-1.55a.52.52,0,0,1-.17-.58c0-.16.1-.28.28-.32a.59.59,0,0,0,.22-.12.29.29,0,0,0,0-.47.8.8,0,0,0-.16-.08,3.14,3.14,0,0,0-1.1-.19.28.28,0,0,0-.18.06c-.28.23-.55.47-.84.72a10,10,0,0,1,1,.84l-.87.64c.22.18.41.32.59.48a1.17,1.17,0,0,0,.77.33,1,1,0,0,1,.28.07l-.26.3-.27.36C62.64,79.14,63,79.45,63.34,79.74Zm6-31.18c-.22-.15-.24-.14-.44,0l-1.6,1.58c-.22.22-.2.41.06.62a5.32,5.32,0,0,1,.5-.21c.12,0,.28-.11.38,0s0,.24,0,.35l-.22.44.76,1,.36-.36c-.09-.13-.18-.24-.26-.37s-.16-.34.11-.54l2.35-1.77.27-.22-.94-1.31-1,1ZM27.63,68l-.07.59h-2.4l-.09-1.1-1.1.09.31,2.8.95.27V69.9l3.49-.27-.34-1.53ZM58.27,82.68a.33.33,0,0,1,0-.38.32.32,0,0,1,.34-.11,1.43,1.43,0,0,1,.34.14l.24.17a.46.46,0,0,0,.07-.58,10.59,10.59,0,0,1-.46-1c.1-.2.21-.39.3-.59s.08-.35-.16-.5-.29-.15-.43-.23a.38.38,0,0,1-.16-.11.76.76,0,0,1,.07-.7c.12-.13.1-.25,0-.42-.75.4-1.46.85-2.19,1.29l1.17,1.58a1.87,1.87,0,0,0-.58.7l.19.21.6.62c.35.37.35.37.8.17,0,0,0,0,0,0S58.32,82.77,58.27,82.68ZM31.44,66.13a.25.25,0,0,1,.36-.24.83.83,0,0,1,.3.2,1,1,0,0,1,.12.2h.68L33,65.15l1.22-.2L34,64.54a.82.82,0,0,0-.82-.53c-.87,0-1.73.07-2.59.12a2.2,2.2,0,0,0-.57.1c-.25.07-.27.17-.13.38s.2.23.29.35l.25.32c-.15.24-.31.45-.43.67a.88.88,0,0,0-.09.38c0,.19.07.24.26.23l1.23,0A2.66,2.66,0,0,1,31.44,66.13Zm7.63-26.34a3.36,3.36,0,0,0-1.16.17c-.42.14-.49.3-.28.69.62,1.19,1.24,2.38,1.87,3.57,0,0,.06.07.09.12l1.34-.51Zm-9.94,17.7a.44.44,0,0,0-.14-.27.8.8,0,0,0-.58-.21c-.15,0-.31,0-.46,0a1.86,1.86,0,0,1-.92-.3.3.3,0,0,1-.14-.35l.06-.19a.46.46,0,0,0-.17-.61,5.28,5.28,0,0,0-.55-.37.27.27,0,0,0-.32,0c-.23.16-.44.32-.42.63a2.49,2.49,0,0,0-.4.19.55.55,0,0,0-.23.28c-.05.31-.05.63-.08.94,1,.41,2,.79,2.93,1.2a.47.47,0,0,0,.61-.17.49.49,0,0,1,.36-.18l.46-.05A5.14,5.14,0,0,0,29.13,57.49ZM26.57,72l1.34.1-.05.38L29.39,72l-.19-1.52a8.26,8.26,0,0,1-3.15.26l-.14.26a.77.77,0,0,1-.79.51H24.6c0,.14.09.24.11.35a1,1,0,0,0,.73.83.34.34,0,0,1,.23.27c0,.16.08.31.13.49L26.9,73A6.61,6.61,0,0,1,26.57,72ZM43.7,90.47c.22,0,.45,0,.68-.1a.83.83,0,0,1,.82.21,1.78,1.78,0,0,0,.26.22c.23.16.39.12.48-.13s.1-.47.15-.7a.25.25,0,0,0-.1-.27c-.2-.19-.4-.37-.58-.57a.64.64,0,0,1,0-.95,3.24,3.24,0,0,1,.36-.38,1,1,0,0,0,.27-1,.3.3,0,0,0-.2-.22,1.78,1.78,0,0,1-.43-.23.41.41,0,0,0-.53,0,.83.83,0,0,0-.26.3,2.47,2.47,0,0,0-.25,1.11,2.57,2.57,0,0,1-.08.62.31.31,0,0,1-.11.2,1.56,1.56,0,0,0-.6,1,2.23,2.23,0,0,0,0,.45c0,.15-.09.29-.14.47A1.89,1.89,0,0,0,43.7,90.47ZM37.72,75a1.76,1.76,0,0,1-.93.24.63.63,0,0,0-.53.33l-.36.6a2.07,2.07,0,0,1-.33.39c-.34.33-.69.64-1,1a1.33,1.33,0,0,0-.16.17l1.28,1.25.6-.57c-.08-.15-.17-.28-.23-.42s-.08-.23,0-.31.23,0,.31,0a3,3,0,0,1,.29.32l.81-.71a1.5,1.5,0,0,1-.11-.22,1.17,1.17,0,0,1-.09-.24c0-.24.07-.38.31-.36a1.35,1.35,0,0,1,.33.09l.39.18.37-.84Zm-2.65,7.84a.7.7,0,0,1,.11.84c-.11.24-.16.27-.38.13s-.29-.2-.44-.28-.17,0-.2,0,0,.14,0,.21a.55.55,0,0,0,.12.19l.32.38a.91.91,0,0,1,.13.85l-1.23-.57c-.09.22-.17.41-.24.6a.23.23,0,0,0,.09.28l.53.4c.25.19.51.38.78.55s.38.18.6-.1l1-1.38c.08-.1.14-.2.21-.29-.14-.16-.28-.3-.39-.45a.36.36,0,0,1,0-.5,3.5,3.5,0,0,0,.29-.54c-.06-.06-.08-.1-.12-.13a.59.59,0,0,1-.19-.67c.13-.48.17-.33-.23-.65a.74.74,0,0,0-.13-.08l-.86.94A1.81,1.81,0,0,0,35.07,82.82ZM74.31,67.89c-.27.4-.42.44-.79.34s-.72-.16-1.08-.21a4.63,4.63,0,0,0-.91,0c-.25,0-.3.15-.15.35a4,4,0,0,0,.39.43c.25.26.25.28.08.59s-.09.36.15.42a2,2,0,0,0,.6,0,4.27,4.27,0,0,1,2.12.29.56.56,0,0,0,.36,0,5.24,5.24,0,0,0,.59-.24,1.67,1.67,0,0,1-.55-1.37l.53-.08a1.93,1.93,0,0,0,.09-.72l-1.26-.11ZM28.68,53.74a7.16,7.16,0,0,1-.68-.38.47.47,0,0,0-.51,0,1.3,1.3,0,0,1-.91.15,8,8,0,0,0-.87-.09l-.17.66c.59.32,1.16.65,1.74.93a.61.61,0,0,1,.41.66,1.22,1.22,0,0,0,.08.67l1.06.05.15-.6h1c.05-.16.11-.31.15-.45a.56.56,0,0,0-.47-.69l-.95-.14ZM67.41,80a.26.26,0,0,0,.34.11c.16-.06.32-.08.47-.14a.38.38,0,0,1,.42.08c.37.31.75.6,1.13.9l.42.32,1.44-1.64c-.35-.06-.65-.13-.95-.16a.91.91,0,0,1-.4-.14l-.6-.4a.6.6,0,0,0-.52-.08,4.07,4.07,0,0,1-.5.13.45.45,0,0,1-.56-.25c-.09-.17-.16-.35-.23-.52s-.17-.43-.26-.69a14,14,0,0,0-1.13,1.36Zm-5.1-11.68c-.22,0-.43.08-.65.1a.35.35,0,0,1-.26-.09.68.68,0,0,1,0-.84.8.8,0,0,0,.24-.32l-.67-.07c0,.1-.07.18-.11.26a.66.66,0,0,1-.71.42,3.5,3.5,0,0,1-.56-.13.59.59,0,0,1-.43-.42c0-.1-.09-.19-.13-.29-.33.12-.33.12-.38.41a1.89,1.89,0,0,0,0,.23c0,.24-.09.48-.14.72a.85.85,0,0,0,.15.09l2.34,1.18a.31.31,0,0,1,.22.35c0,.22,0,.45,0,.71l.86.05.73-2.48C62.55,68.22,62.43,68.27,62.31,68.29Zm-6.8-26.42,1.08-.09,0-.64c0-.12-.07-.18-.17-.24a1.91,1.91,0,0,1-.41-.26.31.31,0,0,1-.11-.22.77.77,0,0,1,.58-.62l.51,0c0-.19.08-.39,0-.52s-.27-.21-.42-.31l.23-.59-1.5-.28c0,.27,0,.5,0,.73S55.17,39,55,39s-.52.11-.81.17a2.05,2.05,0,0,1,.13.25c.11.24.22.47.32.71a1.08,1.08,0,0,1,0,.73l-.33,1.2a1.55,1.55,0,0,0,0,.21h1.14ZM32.63,74.77A4.49,4.49,0,0,0,34,74.19l-.44-.64c.16-.07.29-.12.4-.18a1,1,0,0,1,.92-.05l.2.57,1.24-1.24a2.53,2.53,0,0,0-1-1.31s0,0,0,0a1.23,1.23,0,0,0-1-.32c0,.18,0,.34.06.5,0,.62.09.47-.38.76l-.23.12-1.89.93Zm30.14,5.62A8.17,8.17,0,0,0,62,79.13l-.57.52-.55-.83.64-.6-1-.89,0,0,.6-.42a.29.29,0,0,0,0-.52.69.69,0,0,0-.69.09l-1.27,1.14-.17.17,2.44,3.41ZM35,50.13c.15.15.27.28.38.41a.56.56,0,0,1,.15.55c-.05.2-.07.4-.11.59L36.77,53c.18-.18.34-.33.51-.47a.62.62,0,0,1,.28-.14c.18,0,.3.09.22.25a2.21,2.21,0,0,1-.3.45,3.69,3.69,0,0,1-.28.29l.48.27,1.07-1.39L36.29,49.5ZM33.41,66.71A.68.68,0,0,0,33,67c-.15.18-.32.34-.48.5a.48.48,0,0,1-.52.13c-.36-.1-.73-.18-1.09-.26a1.35,1.35,0,0,0-.4,0,.5.5,0,0,0-.3.14c-.08.11,0,.24.07.34a3.31,3.31,0,0,0,.26.27l.25.24a.34.34,0,0,1,.06.42l-.21.35c-.16.3-.09.46.24.54a1.25,1.25,0,0,0,1-.11c.33-.21.69-.38,1-.57l-.1-.52,1.61-.34a13.42,13.42,0,0,0-.15-1.53Zm26.13-18-.26-.24-.85-.9a.5.5,0,0,1-.06-.66c.14-.25.27-.51.41-.78l-1.08-.7-1.4,3.38,1,.89.56-.75.74.57Zm-14.26-2.5a.82.82,0,0,1-.56-.63c-.08-.3-.21-.59-.32-.9l-1.26.26c.1.23.19.44.27.64a.79.79,0,0,1-.24,1l-.31.28.83,1.8c.63-.16,1.24-.31,1.86-.5L45,47.19l1-.68A5.29,5.29,0,0,0,45.28,46.17ZM69.52,81.75c-.43-.33-.87-.66-1.32-1S67,80,66.42,79.54l-.26-.19-.51.86,1.09,1.2c.15.17.17.2.05.39s-.15.22-.23.35a10.4,10.4,0,0,0,1.38,1.1l.33.17a.26.26,0,0,0,.32,0,.25.25,0,0,0,0-.34c-.1-.16-.22-.29-.33-.44s-.18-.2-.17-.34.3-.11.43-.18.3-.12.47.08.18.22.29.36l.55-.44A2.13,2.13,0,0,0,69.52,81.75ZM25.27,66.68a.26.26,0,0,1,.22.28c0,.32,0,.63.06.94h.76l-.06-1.08,1.85.1V65.74c-.86-.13-1.71-.18-2.55-.31l0-.42h-1.7v1.22C24.36,66.38,24.81,66.54,25.27,66.68ZM40.06,84.45a.36.36,0,0,1-.32.24c-.25,0-.49.08-.74.11a.44.44,0,0,0-.43.28.46.46,0,0,0,.19.46.69.69,0,0,0,.13.11l.27.22a.24.24,0,0,1,.07.31,4.47,4.47,0,0,0-.16.63,1.13,1.13,0,0,1-.51.86,2.92,2.92,0,0,0-.38.32.28.28,0,0,0,0,.43,3.31,3.31,0,0,0,.26.27c.19.19.27.21.45,0a2.12,2.12,0,0,0,.37-.61,10,10,0,0,0,.63-1.51c0-.18.13-.2.3-.11l.21.15c.2.14.26.14.46,0s.28-.25.42-.39c.47-.48.46-.62,0-1.22a.54.54,0,0,0-.33-.2.41.41,0,0,1-.35-.25.39.39,0,0,0-.34-.22C40.22,84.34,40.08,84.38,40.06,84.45ZM74.38,65.79v-.7H73.07l0,.47-1.16-.06-.09.58h1l.11.72-.62.11v.65a3,3,0,0,0,1.58.18V66.56a2.85,2.85,0,0,1,1.2.08,6,6,0,0,0,.59.22,2.61,2.61,0,0,0,.27.06,7.8,7.8,0,0,0,0-1.89c-.16,0-.34,0-.51,0a.32.32,0,0,0-.36.21l-.22.49ZM30.9,78.39a1.23,1.23,0,0,1-.26.34c-.28.24-.56.46-.86.67s-.5.3-.8-.08c-.06-.06-.19-.14-.24-.11a1.31,1.31,0,0,0-.7.45.19.19,0,0,0,0,.09l1,1a.26.26,0,0,0,.34,0l.23-.12a5.7,5.7,0,0,0,1.08-.82.6.6,0,0,1,.38-.21l.07.39a1.19,1.19,0,0,0,.22,0,3.76,3.76,0,0,0,.52-.31c.33-.29.65-.6,1-.9A.48.48,0,0,0,33,78.3a.14.14,0,0,0-.22-.09,1,1,0,0,0-.16.12l-.59.36a.26.26,0,0,1-.32,0,.29.29,0,0,1-.07-.37l.08,0c.44-.07.53-.16.58-.58a.25.25,0,0,0-.16-.3l-.57-.23ZM43.36,38.58c.33.72.67,1.44,1,2.17a1.18,1.18,0,0,1,0,.94c-.09.24-.14.49-.23.79l1.7-.36a6.09,6.09,0,0,0-.28-.57,1.16,1.16,0,0,1-.16-.63c0-1,0-2-.06-3,0-.07,0-.14,0-.25l-2.13.58C43.27,38.39,43.32,38.48,43.36,38.58Zm-2.78,9.56a1.57,1.57,0,0,1,.25,1.45.23.23,0,0,0,0,.2c.16.2.33.38.5.57.66-.5,1.3-1,2-1.49L43,48.74a5.36,5.36,0,0,1-.54-.26c-.21-.11-.25-.21-.17-.42a2.87,2.87,0,0,1,.2-.39,2.69,2.69,0,0,1,.19-.32l-.51-.67c-.26.18-.48.33-.69.49a.3.3,0,0,1-.42,0l-.83-.73L40,46.29l-.45.31Zm22.31-6.55c-.11.25-.21.5-.32.74s-.14.2-.35.14c-.47-.15-.47-.15-.74.28-.09.14-.17.28-.25.42l-.14.3c.59.3.59.3.7.5a3.93,3.93,0,0,0-.71,1l.89.49c.83-1.23,1.67-2.42,2.46-3.66l-1.34-.71ZM60.71,52.41l.95-1.06-1-1.05L62.29,48l-.94-.48c-.8,1.13-1.54,2.26-2.3,3.41ZM47.29,78.11a.28.28,0,0,1,.42-.17,1.64,1.64,0,0,1,.22.14c.19.16.39.31.57.48s.2.14.33.07l.14,0a.36.36,0,0,0,.3-.39c0-1.1.13-2.2.2-3.31v-.35l-.48.12a.47.47,0,0,0-.4.35c-.24.59-.51,1.18-.77,1.77a.5.5,0,0,1-.37.32c-.22.05-.42.14-.63.2a.77.77,0,0,0-.53.56c-.07.21,0,.32.17.41a6.37,6.37,0,0,0,.7.24A3.15,3.15,0,0,1,47.29,78.11Zm18.27,3.1c-.73.39-.44.34-1.24.16a.37.37,0,0,0-.48.2.48.48,0,0,0,0,.49,5.39,5.39,0,0,0,1.35,1.85.27.27,0,0,0,.28.08l.45-.1a.56.56,0,0,1,.54.15c.14.14,0,.28-.06.42a.52.52,0,0,0-.06.13c0,.09,0,.19-.07.31a.72.72,0,0,0,.21,0,8.87,8.87,0,0,0,.87-.29c.37-.16.39-.3.11-.59s-.74-.76-1.11-1.14c-.19-.2-.38-.41-.56-.62a.23.23,0,0,1,0-.31,2,2,0,0,0,.21-.44c0-.13.1-.26,0-.39A.48.48,0,0,0,65.56,81.21Zm-27-14.52a.34.34,0,0,1,.35-.27c.53,0,1.07-.12,1.6-.19l.25-.06V65H40.6a5.2,5.2,0,0,0-2.37.39c-.12.06-.27.1-.4.15L36.56,66l.11.13A1.09,1.09,0,0,1,37,67.46c-.06.14-.11.28-.17.44H37l1.18-.06C38.27,67.45,38.42,67.07,38.54,66.69Zm-10.62-2.2a.5.5,0,0,0-.27-.44c-.41-.26-.4-.36,0-.68a.42.42,0,0,0,.15-.22,2,2,0,0,0,0-.43H26.68l-.11.24c-.9-.05-1.78-.07-2.65-.07v1.33l2,.19,0,.34h2A2.6,2.6,0,0,1,27.92,64.49Zm47-8.08a.5.5,0,0,0-.19-.24.67.67,0,0,0-.76.22,5,5,0,0,1-.32.44.49.49,0,0,1-.24.16c-.22.08-.46.12-.69.19a.62.62,0,0,1-.59-.08.37.37,0,0,0-.55,0,.5.5,0,0,1-.37.12h-.56l0,.56a1.41,1.41,0,0,0,.37.06.58.58,0,0,1,.62.36.86.86,0,0,0,.07.1.76.76,0,0,0,.84.28l.2-.06a2,2,0,0,1,1.21-.12l1,.13a2.13,2.13,0,0,0,.39,0L75,58.13a4.41,4.41,0,0,1-.36-.49c-.13-.25,0-.45.28-.48h.23C75.07,56.88,75,56.64,74.93,56.41ZM37.75,88l-.08-1c.27-.07.52,0,.77-.09l-.11-.16L37.74,86a.36.36,0,0,1,0-.48c.18-.29.33-.6.5-.9s.23-.4.35-.6a1.71,1.71,0,0,0,.17-.33.26.26,0,0,0-.06-.19c-.27-.18-.55-.36-.83-.52s-.32-.09-.37.18-.15.79-.24,1.18a1.33,1.33,0,0,1-.19.42c-.31.46-.63.91-.95,1.37,0,.06-.07.13-.11.2l.69.73a.48.48,0,0,1,.15.32c0,.23.07.46.12.72ZM35.34,47.05l-2.89-2.94-1,.88,1.39,1.53c.29-.11.54-.21.79-.29s.28,0,.35.16a4.05,4.05,0,0,1,.12.5.27.27,0,0,1-.11.28c-.17.15-.33.32-.49.49a.37.37,0,0,0-.11.19c0,.5,0,1,0,1.56ZM32.06,72a3.44,3.44,0,0,1-.05-.45c0-.17.11-.23.26-.14a.77.77,0,0,1,.31.28.54.54,0,0,0,.72.28l.25,0c0-.24-.06-.47-.07-.7a.44.44,0,0,1,.24-.45c.36-.22.7-.45,1-.68l.18-.13a3,3,0,0,0-.84-1.15.86.86,0,0,0-.18.2,2.82,2.82,0,0,1-.76.78,1.07,1.07,0,0,1-.71.26,1.7,1.7,0,0,0-.68.08,8.66,8.66,0,0,0-.86.53L31.44,72c.18.45.18.45.67.43l0,0C32.13,72.24,32.09,72.1,32.06,72ZM66.8,63a.34.34,0,0,0-.34.2.86.86,0,0,1-.55.47.47.47,0,0,0-.32.47.39.39,0,0,0,.31.37,1,1,0,0,0,.38.1l2.57.13h.34c.26,0,.31-.09.2-.33s-.11-.22-.15-.34a.42.42,0,0,1,.16-.6c.16-.11.34-.18.5-.27s.14-.1.15-.15a1.15,1.15,0,0,0,0-.58l-1.49.25v.62H68L67.74,63C67.41,63,67.11,63,66.8,63Zm3.3,15.71.53-.19a.89.89,0,0,1,1,.13.42.42,0,0,0,.14.09.3.3,0,0,0,.38,0,.38.38,0,0,0,.13-.42A.81.81,0,0,0,72,78a4.75,4.75,0,0,0-.58-.42c-.15-.1-.31-.17-.45-.26a.79.79,0,0,1-.36-.53c0-.28-.09-.3-.37-.21a3.86,3.86,0,0,1-.58.17c-.3.06-.38,0-.38-.33a1.85,1.85,0,0,0,0-.23.59.59,0,0,0-.31-.49.3.3,0,0,0-.26,0,.64.64,0,0,0-.31.25c-.19.34-.35.7-.53,1.06ZM58.82,41.57a.4.4,0,0,0-.27-.4.8.8,0,0,1-.19-.13c-.24-.21-.23-.36,0-.52a1.42,1.42,0,0,1,.46-.23.93.93,0,0,0,.64-.56l.12-.2c.06-.09.11-.19.19-.33-.33,0-.6,0-.87,0a.28.28,0,0,1-.31-.2.48.48,0,0,0-.31-.32c-.22.72-.46,1.42-.69,2.12L56.89,43l1.92.91c.09-.34-.12-.74.34-.92l-.6-.47c0-.52,0-.52.29-.7A1.83,1.83,0,0,1,58.82,41.57ZM55.17,84l2.15-.55-.13-.16c-.26-.3-.53-.6-.79-.91a.53.53,0,0,1-.08-.61l.27-.64a1,1,0,0,0-.57-.46,1.17,1.17,0,0,1-.63-.38L55.14,80l-.7.14ZM67.35,71.57l-.45.24c-.07,0-.17,0-.22,0a1.64,1.64,0,0,1-.73-.72,1.33,1.33,0,0,0-.46-.56.38.38,0,0,0-.42-.11c-.15.07-.16.24-.15.38a.24.24,0,0,1-.16.27l-.35.13a.38.38,0,0,0-.18.56c.27.29.57.57.86.85a.46.46,0,0,0,.2.09l1.15.39a1.66,1.66,0,0,0,1.64-.44.55.55,0,0,0,0-.86c-.13-.13-.27-.25-.43-.39ZM40.13,73.8l1.51-1.71a.49.49,0,0,1,.44-.2,3.09,3.09,0,0,0,.68-.09.33.33,0,0,0,.29-.25c0-.16-.11-.24-.23-.3a7,7,0,0,0-.67-.33.37.37,0,0,1-.24-.38c0-.17,0-.33,0-.49s-.08-.3-.31-.29a1.56,1.56,0,0,0-.89.36c-.18.14-.18.21-.08.42l.32.71-1.89,1.86L40,74Zm15.95-21a.43.43,0,0,0-.08.41,5.73,5.73,0,0,0,.14.56.45.45,0,0,1-.08.47c-.25.34-.48.7-.71,1a2.05,2.05,0,0,0-.18.43c-.06.19,0,.31.22.31a.68.68,0,0,0,.4-.1,1.51,1.51,0,0,1,.92-.34l.09,0a.54.54,0,0,0,.4-.67c0-.14-.07-.28-.11-.46l1.34-1.35a9,9,0,0,0-1.66-1A4.49,4.49,0,0,0,56.08,52.77Zm2.07,7.17L58.6,61l.26-.18,1.59-1a.48.48,0,0,1,.65.07l.36.33.94-.35-1-2.22ZM53.47,47.27a.5.5,0,0,1,.44-.44.79.79,0,0,0,.59-.54c.12-.33.27-.64.37-1a2.17,2.17,0,0,0,.06-.57.55.55,0,0,0-.41-.53c-.36-.13-.72-.28-1.08-.42l-.18,0-.88,3.42a3,3,0,0,0,1,.32A1.71,1.71,0,0,0,53.47,47.27ZM70.26,72.66a13.91,13.91,0,0,0,1.2,1,8.24,8.24,0,0,1,1.28,1,1.25,1.25,0,0,0,.42.3.7.7,0,0,0,1-.23,1.44,1.44,0,0,0,.14-1.42.49.49,0,0,0,0-.11c-.09-.32-.14-.36-.48-.35a6.34,6.34,0,0,0-.75.07,2.1,2.1,0,0,1-1.37-.2,3.77,3.77,0,0,0-.57-.28l-.67-.23a.31.31,0,0,0-.38.1A.65.65,0,0,0,70.26,72.66ZM65.72,59.3a.57.57,0,0,0,.32-.23l.55-.63a1.47,1.47,0,0,1,.62-.41c.41-.15.82-.32,1.23-.48l.22-.11-.79-1.39c-.09.11-.14.19-.21.26L67,57a1.25,1.25,0,0,1-.64.36l-1.07.23-.87.16.34,1.81ZM51.39,46.88l-1.13-.74a.4.4,0,0,1-.2-.46q.12-.91.21-1.83a1.78,1.78,0,0,0,0-.69l-1.2-.07c0,1.43,0,2.83.08,4.25l.4,0a4.61,4.61,0,0,1,1.23,0,.61.61,0,0,0,.74-.38Zm-.88,42.59c0-.36,0-.69,0-1a.47.47,0,0,0-.32-.49c-.23-.07-.24-.19-.09-.39a.39.39,0,0,0,.1-.43,5.52,5.52,0,0,0-.58,0c-.37,0-.44.12-.44.48,0,.67,0,1.34-.06,2s-.07.55-.55.68c-.27.07-.52.16-.56.49a.93.93,0,0,1,0,.1c-.1.24-.06.33.21.33a4,4,0,0,1,1.18.2l.31.08c.29,0,.35,0,.35-.3s0-.77,0-1.15a2.7,2.7,0,0,1,0-.41Zm-25-15.31.2.74h.17l1.21-.25a.46.46,0,0,1,.41.07,2.47,2.47,0,0,0,.44.27c.19.08.25.07.38-.09a4.36,4.36,0,0,0,.41-.55.61.61,0,0,1,.31-.24l.89-.34.19-.09-.59-1.11ZM47.21,41.52l1.2-.07c0-.05,0-.06,0-.08,0-.69-.12-1.38-.18-2.07,0-.12-.08-.17-.19-.21l-1-.35-.1-.66L48,38l-.08-.37L46,37.68ZM50,78.31l2.24.12-.16-4a1.26,1.26,0,0,0-.64,0,9.71,9.71,0,0,1,.05,1.21,8.05,8.05,0,0,0-1.28-.06v.87l1.25.15-.13.74H49.86ZM62.91,64.79a2.51,2.51,0,0,0,.05-1.3,4,4,0,0,1-.13-.6c0-.11,0-.23-.08-.36l-2.28.15-.11.5,1.19.14c0,.17.05.31.07.45s0,.06,0,.11l-2.36.52.12.48Zm-29,12.11a9.29,9.29,0,0,0,1.39-.76L35,75.59l2.19-1.32-.57-.68a.16.16,0,0,0-.23,0l-.18.09L33.27,75.4l-.15.1A7.58,7.58,0,0,0,33.89,76.9ZM65.08,44c-.23,0-.46,0-.69,0a.33.33,0,0,0-.31.16c-.21.3-.44.58-.64.89-.35.52-.25.46.11.75.1.09.25.15.27.32l-.33.19a.16.16,0,0,0,0,.27l.32.35.93-.66c0-.09-.07-.15-.09-.21a4.33,4.33,0,0,1-.22-.56c-.07-.26,0-.35.24-.44l.71-.23a.52.52,0,0,0,.22-.12l1-1.2-1.51-1.09-.47.39a3.54,3.54,0,0,1,.76,1A1.35,1.35,0,0,1,65.08,44Zm3.28,1.31-1.27-1.09-2.44,3.24.63.6ZM74.44,63s-.11,0-.11.06-.11.12-.2.12l-1.09,0-1.35.07a7.22,7.22,0,0,1,0,.82.5.5,0,0,0,.36.59l.19.07a.46.46,0,0,0,.57-.15.38.38,0,0,1,.31-.12l1.64-.14c.15,0,.3,0,.44-.06l.11-.57.48-.18.08-.63ZM33.81,79.71a2.07,2.07,0,0,0-.17-.24c-.18-.21-.26-.2-.45,0s-.66.65-1,1a.83.83,0,0,1-.81.19.46.46,0,0,0-.5.13,2.91,2.91,0,0,1-.94.66.24.24,0,0,0-.12.07.23.23,0,0,0-.07.31,1.16,1.16,0,0,0,.13.22l.89,1a.22.22,0,0,0,.28.06l.25-.11c-.22-.19-.43-.35-.61-.53a.28.28,0,0,1,.16-.5.74.74,0,0,1,.36,0,2.49,2.49,0,0,1,.37.23.52.52,0,0,0,.53.08L32,82c0-.11-.1-.21-.13-.32s0-.23.17-.22a.48.48,0,0,1,.2,0l.47.2c.26.09.36,0,.35-.26l0-.63a.42.42,0,0,1,.22-.38c.22-.14.43-.31.65-.48A1.14,1.14,0,0,0,33.81,79.71Zm40.12-7.47a6,6,0,0,0,.85.12c.25,0,.34-.12.19-.31a10.67,10.67,0,0,1-.71-1.28c-.17-.34-.33-.37-.68-.22l-.3.13a5.84,5.84,0,0,1-.82.22.73.73,0,0,1-.88-.38l-.08-.06a3,3,0,0,0-.77.08c0,.16,0,.31,0,.46a.39.39,0,0,0,.32.4.92.92,0,0,1,.69.62,1.44,1.44,0,0,0,.11.2A3.46,3.46,0,0,1,73.93,72.24ZM46.09,81.92a.36.36,0,0,0-.32.24c-.17.35-.35.68-.53,1a.54.54,0,0,0-.08.21v1.1l1.3.39c.23.06.28,0,.37-.19s.1-.27.16-.4a.41.41,0,0,0,0-.44l-.27-.3c-.13-.17-.15-.27,0-.44a2.35,2.35,0,0,1,.43-.46.29.29,0,0,0,.14-.29l0-.83c0-.23-.05-.46-.07-.7l-.35,0-.24,1ZM65.81,49l.39.36c.13.11.21.26.4.35,0-.13,0-.22,0-.32a3.46,3.46,0,0,1,0-.46q0-.27.27-.18a2.22,2.22,0,0,1,.32.14.48.48,0,0,0,.56-.06l.21-.15L69.8,47l.1-.12L69,45.84Zm0,36.21a2.72,2.72,0,0,0-1-.58,1.07,1.07,0,0,1-.55-.4c-.26-.36-.51-.72-.78-1.07a2.23,2.23,0,0,0-.27-.28,2.49,2.49,0,0,0-.06.37,4.68,4.68,0,0,1,0,.84,4.31,4.31,0,0,1-.41.75,12.11,12.11,0,0,0,1.41,1.64.85.85,0,0,0,.19.14c.15.08.26,0,.24-.15a1,1,0,0,0-.11-.38c-.07-.17-.16-.32-.25-.51l.21,0a.58.58,0,0,1,.66.28,2.94,2.94,0,0,0,.34.41l.61-.75A2.47,2.47,0,0,0,65.8,85.16Zm-13-6.93,1.77-.58c-.39-1.27-.71-2.52-1.15-3.76l-.86.25c0,.12,0,.22.06.31.16.73.31,1.46.48,2.19a.37.37,0,0,1-.13.43c-.17.15-.31.32-.49.5ZM65.13,57A2.74,2.74,0,0,0,66.71,56a1.23,1.23,0,0,1,.45-.3c.26-.09.51-.2.77-.31l-1-.94L63.73,56.4l.34.85A10,10,0,0,1,65.13,57ZM61,41.89a1.42,1.42,0,0,1-.25-.24c-.11-.14-.1-.22.06-.29a3.93,3.93,0,0,1,.58-.19,1.64,1.64,0,0,0,.78-.46c.14-.14.12-.22-.07-.29-.4-.16-.81-.3-1.22-.45a1.27,1.27,0,0,0-.28-.06c-.28,0-.39.07-.36.36,0,.11,0,.23.07.34.08.37.08.4-.25.61s-.4.25-.62.37l.73.59L59.29,44a2.5,2.5,0,0,0,.6.44l1.37-2.32C61.16,42,61.07,42,61,41.89Zm-9.78-1.33,1-.05a6.79,6.79,0,0,0-.14-1l-1.19-.38.23-.58.76.07.26-1.18c-.62,0-1.19,0-1.79.07l.12,3.7.82.06Zm5,6c-.26-.11-.31-.21-.18-.47a6.59,6.59,0,0,1,.41-.79.65.65,0,0,0,0-.71,5.2,5.2,0,0,1-.51.11.35.35,0,0,0-.3.23c-.18.42-.39.82-.57,1.23s-.39.94-.58,1.41a.43.43,0,0,0,.14.57c.23.18.48.34.73.5a3,3,0,0,0,.31.15l.87-2.14A2.29,2.29,0,0,1,56.2,46.61ZM38.7,72.1l.92-.6c-.12-.14-.21-.24-.29-.35-.27-.36-.26-.44.11-.71l2-1.45.29-.21a1.84,1.84,0,0,0-.5-.74l-3.42,2.37Zm5.92,8.31a.49.49,0,0,1-.37.47,3.75,3.75,0,0,0-.77.4c-.25.16-.27.25-.16.53s.19.44.29.66c0,.06.09.13.07.18-.09.31,0,.69-.34.93-.2.12-.13.33.09.4h1.08c0-.06,0-.08,0-.11.14-.72.29-1.45.42-2.18a.67.67,0,0,1,.39-.58.91.91,0,0,0,.23-.15v-.51l-.92-.3C44.65,80.26,44.63,80.34,44.62,80.41Zm-16.2-31.9L32,51.12l.65-.76-1.78-1.64a7.65,7.65,0,0,1-.78.08c-.31,0-.44-.2-.34-.5.05-.14.11-.26.18-.41l-.61-.37Zm9.3,9.85L40,59.54c-.1.27-.2.5-.28.73s-.06.43.27.49.57.07.86.1.32,0,.27-.29A4.62,4.62,0,0,0,41,60a.54.54,0,0,1,.1-.59.69.69,0,0,1,.11-.13c.14-.18.16-.24,0-.41a5.39,5.39,0,0,0-.55-.63c-.16-.17-.3-.15-.47,0s-.17.23-.26.35l-1.81-.91ZM58.38,54.8a.59.59,0,0,1-.25.37l-1.86,1.41-.18.16,1.23,1.44a2.49,2.49,0,0,0,.85-.57l-.59-.75,2.07-2.15-1.06-.86C58.51,54.21,58.44,54.5,58.38,54.8Zm13.37,7.86,2,0a.45.45,0,0,0,.27-.14.47.47,0,0,1,.31-.12c.41,0,.81,0,1.21-.06a1,1,0,0,0,.22,0l-.16-1.46-.83-.06,0,.28-1.23.07a3.37,3.37,0,0,1,0,.49.55.55,0,0,1-.12.28.45.45,0,0,1-.76,0c-.13-.15-.22-.33-.34-.5l-.47.12ZM51.32,86.94c0,.12,0,.22,0,.31-.07.65-.16,1.3-.21,2s-.06,1-.08,1.58a3.18,3.18,0,0,0,0,.34h1.06V89.64c.18-.08.34-.14.49-.22.35-.18.37-.31.09-.57a2.33,2.33,0,0,0-.37-.27.35.35,0,0,1-.19-.38c0-.38,0-.76,0-1.17Zm6.32-28.17.41.47L59.6,58.1c0-.1,0-.2,0-.3a.43.43,0,0,1,.24-.37.39.39,0,0,1,.42.11l.22.19.86-.62-1.19-1.6L58.59,57l.38.6ZM41.35,75.13c.54-.54,1.07-1.09,1.62-1.61a5.45,5.45,0,0,1,.56-.42c.2.15.23.41.5.44,0-.07.09-.14.13-.22.28-.51.28-.51-.08-1-.14-.18-.28-.36-.42-.52a4.06,4.06,0,0,1-.52.45,12,12,0,0,0-1.66,1.25c-.39.32-.76.65-1.14,1l.83.77Zm8-25-.21,2.46-.44.13.1,1.28,1.46-.11V50.14ZM40.73,62.2a1.3,1.3,0,0,1,0-.27.32.32,0,0,0-.27-.35l-.6-.19-.93-.28a1.3,1.3,0,0,0,0-.13c0-.43-.11-.86-.16-1.28,0-.09,0-.18-.11-.22L37.46,59c-.08.14-.13.28-.21.39a.7.7,0,0,0,0,.76c0,.11.09.23.14.34s.08.16.14.19c.28.11.31.36.34.61a.73.73,0,0,0,.06.22Zm-6.6-10.67L33,53c.3,0,.53,0,.76,0a1.13,1.13,0,0,1,.74.25c.4.39.79.79,1.19,1.17.21.2.44.38.66.58l.74-.55Zm31.2,9.71v.91a1.57,1.57,0,0,1,1.79.13l.22-.36a.92.92,0,0,1,1.15-.42,5.11,5.11,0,0,1,.63.29,1,1,0,0,0,.58.17,6.22,6.22,0,0,0-.59-1.56ZM39.25,55.58l-.91,1.09,1,.88.12-.14c.31-.38.51-.38.85-.1l1.23,1,.56.48.54-.63Zm3,23.33-.69-.34-.13.28c-.19.42-.38.84-.56,1.26a.57.57,0,0,1-.42.35,5.83,5.83,0,0,0-.7.25.59.59,0,0,0-.39.61,6.54,6.54,0,0,0,.06.72L41,81.86Zm-16-18.84L26,59.41l.85,0,0,.33.9.06.11-.55s0-.05-.06-.05l-2.38-1a.36.36,0,0,0-.45.12l.05.88H24l-.06.68C24.74,59.91,25.45,60,26.21,60.07ZM36.74,41l-1.11.69c.1.35.17.67.28,1a.71.71,0,0,1-.13.89.1.1,0,0,0,0,.07l.62.67,1.27-1.07A11.07,11.07,0,0,0,36.74,41Zm8.72,36.72a2.36,2.36,0,0,1,1-1.31,1.58,1.58,0,0,0,.58-.72c.2-.48.43-1,.66-1.45l-.68-.12c-.16.24-.3.46-.46.66a.54.54,0,0,1-.28.22,1.43,1.43,0,0,0-.59.41A4.66,4.66,0,0,0,45,76.6c-.27.61-.23.76.3,1.17l.09,0S45.46,77.78,45.46,77.76Zm1.88,12.71a.89.89,0,0,1,.63-.78c.2-.06.39-.15.61-.24L48.42,87h-.66v1.46a6.59,6.59,0,0,1-.76.24c-.57.12-.47.19-.21.58a.77.77,0,0,1,.15.7c0,.17-.06.34-.1.51s-.12.44-.18.68h.56C47.26,90.9,47.31,90.69,47.34,90.47Zm-13-36.53a9.8,9.8,0,0,1-1.75.17c.29.22.53.41.79.57a5.91,5.91,0,0,1,1.53,1.42l.24.29.28.34,1-.87Zm6.76,28.81c.32.22.64.41.93.64a.44.44,0,0,0,.62,0l.12-.08c.34-.26.34-.41,0-.65-.15-.11-.32-.21-.49-.31l.88-2.8-.48-.25ZM39,67.24a1.11,1.11,0,0,1-.58.84l-.83.47-.52.28.18.6,2.05-.83a.57.57,0,0,1,.41-.61,10.13,10.13,0,0,1,1-.35c.15-.06.31-.09.48-.14L41,66.9H39.08C39.06,67,39,67.13,39,67.24ZM30.37,46.91c.16-.11.31-.22.48-.32a.25.25,0,0,1,.19,0,.41.41,0,0,1,.08.57c-.19.19-.39.37-.61.57l1.17.94c.38-.34.76-.64,1.11-1l-2-1.89-1.15,1,.39.42Zm18.94-5.54.26.08.22,0V37.32l-1,0Zm1.57,2.38c0,.49,0,1,0,1.47s0,.48.45.62l.17,0a.34.34,0,0,0,.4-.16,3.84,3.84,0,0,0,.18-.35,4.46,4.46,0,0,0,.27-1.7s0,0,0-.06l-1.42-.21Zm-.63,37.57c0,.75-.09,1.5-.12,2.25a1.87,1.87,0,0,0,.13.77,4,4,0,0,0,.83,0V81h-.81C50.27,81.11,50.25,81.22,50.25,81.32ZM59,65.69a1.32,1.32,0,0,0,.7.9.85.85,0,0,0,.47.12l1.69-.07a.34.34,0,0,0,.12,0,1.33,1.33,0,0,0,0-.2c0-.27-.07-.54-.12-.86ZM68,58.78a.55.55,0,0,0-.93-.09,1.83,1.83,0,0,0-.48.71.86.86,0,0,1-.33.42c-.23.15-.44.32-.66.48l0,.05,3.45-.81-.16-.65-.71.19C68.16,59,68.1,58.87,68,58.78ZM37.59,45.68l1.43-1-.78-1.22-1.48,1ZM70,65.51l-3.35-.1.25.61h.33l2.08,0a.44.44,0,0,1,.34.13l.35.29A4.48,4.48,0,0,0,70,65.51Zm-10.79-19c0,.18-.07.35-.09.54a.46.46,0,0,0,0,.23c.18.22.37.44.56.65a4.51,4.51,0,0,0,1-1.1l-1.2-.71A.41.41,0,0,0,59.2,46.55Zm3.67,6.3.42.52,1.33-1.29-.51-.82Zm-33,10.47,1.51-.15a7.06,7.06,0,0,0,0-.92L30,62.32ZM60.29,80.38l-.84.26.84,1.45.58-.46Zm9.47-13.15-.48-.2a19.73,19.73,0,0,0-.6,2.41l.35.18ZM33.34,63.47a1,1,0,0,0-.5-1.11c-.2-.11-.3-.11-.41.09s-.27.54-.43.87ZM31.2,58.36a.24.24,0,0,0,.28.15l.73-.13a.14.14,0,0,0,.12-.07,1.24,1.24,0,0,0,.25-.62,11,11,0,0,0-1.59.22C31.07,58.09,31.14,58.22,31.2,58.36Z" style="fill:#5bc0ef"/></svg>