<svg xmlns="http://www.w3.org/2000/svg" viewBox="0 0 100 100"><title>Ravnica Guild - Selesnya</title><path d="M48.65,99.33q-.18-.48-.33-1a7.55,7.55,0,0,0-1.18-2.56l-.08-.1h-.13a2.31,2.31,0,0,0-1.71,1l-.09.11-.43.51a11,11,0,0,1-1,1.13,1,1,0,0,1-.63.2h-.13c-.78-.13-1.57-.31-2.32-.48l-.67-.16v-.6c0-.72,0-1.41,0-2.1a2.19,2.19,0,0,0-.23-.78,1.4,1.4,0,0,0-1.23-1,1.51,1.51,0,0,0-1,.48,11.37,11.37,0,0,0-1,1.13l-.33.42-.54.69-.11.15-.77-.33L34,95.86c.49-.61,1-1.21,1.5-1.81a37.56,37.56,0,0,0,3.65-4.79l.08-.14-.35-.51-.18.06-.24.07a1.73,1.73,0,0,0-.61.26c-.41.3-.81.63-1.22,1-.59.47-1.21,1-1.86,1.4-1,.67-2,1.27-3.05,1.86l-.72.42a1.05,1.05,0,0,1-1.34-.16,3.77,3.77,0,0,0-.52-.37l.91-.52c1-.55,1.95-1.11,2.89-1.73a18.62,18.62,0,0,0,2.32-1.92,2.12,2.12,0,0,0,.49-.77,2.88,2.88,0,0,1,.13-.31L36,87.7l-.3-.32-.21,0-.82.2-2,.5c-1.54.39-3.12.8-4.7,1.11a10.56,10.56,0,0,1-2.09.15h-1.3a.5.5,0,0,1-.29-.08l-1.75-1.6-.23-.22h1.08l1.43,0c.58,0,1.15,0,1.72,0,5-.26,9-1.81,12.14-4.74A18.75,18.75,0,0,0,44,73.76a21.07,21.07,0,0,0,.36-11.31c-1.38-5.21-4.93-8.67-10.57-10.3a18.23,18.23,0,0,0-5.05-.71,23.32,23.32,0,0,0-7.48,1.33c-1.6.54-3.2,1.18-4.74,1.8l-2.15.85-.26.1V52.88l8-4.1-7.63-5.49.5-2.6.34.2,2.65,1.65,6.21,3.85a1.68,1.68,0,0,0,.78.29c3.67.13,7.34.25,11.1.36l3.53.12-.72-.64a1.8,1.8,0,0,0-.24-.2l-.75-.52q-5-3.51-10-7a2,2,0,0,0-1-.35c-2.64-.21-5.29-.4-7.94-.6l-2.63-.19-.19,0,.95-2.41H26.5l-4.22-8.31,1.59-1.83.12.19,1.36,2.31q2,3.36,4,6.72A2.08,2.08,0,0,0,30,35l10.54,6.22,1,.6.29.15.81.41-.38-.89c-.07-.15-.12-.28-.18-.39l-.77-1.58q-2.43-4.94-4.87-9.86a2.39,2.39,0,0,0-.75-.86l-6.46-4.4L27,22.94l-.33-.23,2-1.67,7.93,4.53.61-9.18,2.41-.82a1.62,1.62,0,0,1,0,.21l0,2.55c0,2.63.05,5.27.08,7.9a2.4,2.4,0,0,0,.34,1.15c1.83,3.05,3.69,6.09,5.54,9.13l1.14,1.87.79,1.24.11-2.25c.05-1.06.1-2.07.14-3.08.13-3.09.26-6.18.37-9.27A2.18,2.18,0,0,0,47.91,24c-1.23-2.34-2.46-4.66-3.7-7L43,14.78l2.37-.62L50,21.72l4.61-7.55,2.37.61-1.25,2.36c-1.22,2.28-2.44,4.56-3.64,6.85a2.1,2.1,0,0,0-.25,1q.24,5.92.49,11.83l.07,1.71a1.43,1.43,0,0,0,0,.16l.14.71.46-.67a3.16,3.16,0,0,0,.18-.27L54.17,37q3-4.86,5.9-9.72a2,2,0,0,0,.27-1c0-2.79,0-5.58,0-8.38V15.56l2.44.83.61,9.18L71.38,21l2,1.67-.2.15-2.44,1.66q-3.21,2.18-6.41,4.36a1.73,1.73,0,0,0-.58.59c-1.78,3.59-3.55,7.19-5.36,10.86l-1.06,2.15.89-.44.29-.16,1.72-1L70,35.06a2.11,2.11,0,0,0,.66-.67l4.11-6.95,1.39-2.34,1.58,1.83-4.2,8.29H83l1,2.42-3.37.26-2.18.16-5.41.4a1.3,1.3,0,0,0-.62.24L62.18,45.82,60.54,47l.84.09.28,0,1.44,0c3.93-.11,7.87-.22,11.8-.36a2.4,2.4,0,0,0,1.1-.35l6.69-4.16,2.12-1.32.29-.17.52,2.6L78,48.78l8,4.1v2.65l-1.08-.45a43.29,43.29,0,0,0-10.2-3.33,21.54,21.54,0,0,0-3.53-.29,17.21,17.21,0,0,0-10.94,3.78,13,13,0,0,0-4.79,8.53,22,22,0,0,0,4,16.84c2.57,3.48,6.18,5.6,11,6.47a25,25,0,0,0,4.49.37c.78,0,1.62,0,2.55-.08a6.72,6.72,0,0,0-.77.85,2.74,2.74,0,0,1-2.47,1.15h-.36a29.92,29.92,0,0,1-8.26-1.71c-.26-.09-.52-.16-.78-.24a1.5,1.5,0,0,0-.31,0l-.63,0,.16.38.12.34a1.55,1.55,0,0,0,.34.69l.23.23A16.27,16.27,0,0,0,67,90.78c1,.64,2,1.22,3,1.79l.95.54,0,0a12.32,12.32,0,0,1-1,.65h-.07a1.21,1.21,0,0,1-.38-.06A14.52,14.52,0,0,1,64.7,91L64,90.41c-.61-.47-1.21-.94-1.83-1.4a2.18,2.18,0,0,0-.58-.27l-.23-.08-.16-.07-.39.4.08.16.12.28a3.15,3.15,0,0,0,.36.64c1.11,1.41,2.24,2.81,3.37,4.22L66,95.86l-1.45.65-.21-.29c-.26-.34-.5-.67-.76-1l-.08-.09a9.43,9.43,0,0,0-.9-1,1.64,1.64,0,0,0-1.09-.49,1.23,1.23,0,0,0-1.18,1,9.45,9.45,0,0,0-.19,2.12c0,.28,0,.55,0,.82a2.18,2.18,0,0,0,0,.44h0l-.69.16c-.9.2-1.78.4-2.67.56h0a.85.85,0,0,1-.47-.27c-.27-.28-.51-.58-.76-.87s-.57-.69-.88-1a6.73,6.73,0,0,0-.87-.71l-.43-.31-.19-.15-.15.19a7.92,7.92,0,0,0-1.36,2.81c-.09.29-.19.59-.29.88Zm6-6.53c.7,1.17,1.37,2.28,2.06,3.38a1.91,1.91,0,0,0,.59.54l.28.21.26.21.13-.31a4,4,0,0,0-.51-3.66,4.16,4.16,0,0,0-3.35-2h-.45Zm-8.88-1.73a5.18,5.18,0,0,0-3.44,2.2A4.32,4.32,0,0,0,42,96.68l.07.39.32-.23a10.15,10.15,0,0,0,3-4.2c.2-.4.39-.8.6-1.2l.25-.46Zm4-2.19-.08.13-.29.58A14.29,14.29,0,0,0,48.75,91l-.09.24a2.85,2.85,0,0,0-.31,1.64,16.87,16.87,0,0,0,.9,2.3c.14.3.28.6.41.91l.07.16.62,0,.39-.93,1-2.36a.83.83,0,0,0,.05-.56l-1-2.5-.4-1Zm-5.83-.61A4.88,4.88,0,0,0,41,89.87a2.36,2.36,0,0,0-.79,1.56l0,.41,3.89-2.28.23-1.25-.27,0Zm12.27,0-.25,0-.24,0,.21,1.2,3.87,2.27.08-.38a2.44,2.44,0,0,0-.81-1.57A4.83,4.83,0,0,0,56.19,88.28Z" style="fill:#3a5e29"/><path d="M45.29,14.45l3.89,6.38.42.67.43.7.42-.7.57-.93,3.73-6.11.46.12,1.43.36,0,.07-1,2c-1.23,2.3-2.46,4.6-3.67,6.91A2.37,2.37,0,0,0,51.62,25c.15,3.84.31,7.67.48,11.51l.08,2,0,.21,0,.11L52.47,40l.67-1,.12-.17a2.51,2.51,0,0,0,.2-.29l1-1.6q2.94-4.81,5.85-9.63a2.19,2.19,0,0,0,.31-1.14c0-2.72,0-5.45,0-8.17V15.91l1.78.61.17.05.57,8.61.06.8.69-.39,7.32-4.18.11-.06.87.73.71.61-2.46,1.67-6.34,4.31a2,2,0,0,0-.66.69c-1.68,3.39-3.35,6.79-5,10.25l-1,2.09-.66,1.35,1.34-.69.2-.1.32-.16,1.17-.7,10.39-6.13a2.13,2.13,0,0,0,.74-.75c1.4-2.34,2.78-4.69,4.17-7.05l1.11-1.88,0-.07L77.47,27l-2.9,5.7-1,2.08-.37.72h9.64l.7,1.74.08.21-.53,0-2.5.19-2.3.17L73,38.21a1.57,1.57,0,0,0-.75.28l-9.48,6.65L61,46.38l-1.09.77,1.32.14.16,0a2,2,0,0,0,.34,0h0l1.49,0q5.87-.16,11.73-.36a2.53,2.53,0,0,0,1.22-.39c2.26-1.39,4.52-2.8,6.77-4.2l2-1.26.28,1.38.14.71-4.25,3-2.92,2.1-.66.48.72.38,4.44,2.27L85.75,53v2.11l-.73-.3A43.5,43.5,0,0,0,74.76,51.5a23.3,23.3,0,0,0-3.57-.29A17.45,17.45,0,0,0,60.1,55a13.21,13.21,0,0,0-4.89,8.69,22.2,22.2,0,0,0,4,17,17,17,0,0,0,11.19,6.58A25.68,25.68,0,0,0,75,87.7c.6,0,1.24,0,1.92,0-.12.14-.24.28-.35.43a2.49,2.49,0,0,1-2.26,1H74a29.5,29.5,0,0,1-8.2-1.7L65,87.18l-.12,0a1.17,1.17,0,0,0-.27,0l-.22,0L63.57,87l.32.76c0,.11.07.22.11.33a1.67,1.67,0,0,0,.41.79l.24.23A16,16,0,0,0,66.81,91c1,.65,2,1.24,3,1.8l.6.34c-.23.16-.47.3-.7.43a1.13,1.13,0,0,1-.29-.06,14.06,14.06,0,0,1-4.57-2.74l-.18-.14-.51-.4c-.6-.46-1.21-.94-1.83-1.4a2.36,2.36,0,0,0-.65-.3l-.22-.08-.31-.13-.23.23-.15.15-.26.26.16.32a1.59,1.59,0,0,1,.12.27,3,3,0,0,0,.39.69c1.14,1.45,2.3,2.88,3.46,4.32l1,1.23-1,.43-.1-.14c-.25-.34-.5-.67-.76-1l-.08-.1a8.9,8.9,0,0,0-.92-1,1.91,1.91,0,0,0-1.26-.55,1.47,1.47,0,0,0-1.42,1.23,9.47,9.47,0,0,0-.2,2.18c0,.27,0,.54,0,.81a2.17,2.17,0,0,0,0,.26l-.47.1c-.91.21-1.77.4-2.61.56a.74.74,0,0,1-.29-.19c-.26-.28-.51-.57-.75-.86s-.58-.7-.89-1a7,7,0,0,0-.9-.73l-.42-.31-.38-.29-.31.37a8,8,0,0,0-1.41,2.89c-.07.24-.15.48-.23.71H48.82c-.09-.26-.18-.53-.26-.79a8.11,8.11,0,0,0-1.22-2.64l-.16-.2-.26,0A2.56,2.56,0,0,0,45,96.59l-.09.11c-.15.17-.29.34-.43.52a9.7,9.7,0,0,1-1,1.1.75.75,0,0,1-.46.14H43c-.78-.13-1.56-.31-2.31-.48l-.47-.11v-.42c0-.71,0-1.4,0-2.08a2.36,2.36,0,0,0-.25-.88,1.65,1.65,0,0,0-1.46-1.1,1.73,1.73,0,0,0-1.2.55,10.58,10.58,0,0,0-1,1.15c-.11.14-.22.29-.34.42l-.52.68h0l-.58-.25-.39-.17,1.3-1.55a38.85,38.85,0,0,0,3.67-4.83l.16-.27-.17-.27-.15-.22L39,88.31l-.36.13-.23.06a1.89,1.89,0,0,0-.69.3c-.41.3-.82.63-1.22,1-.59.47-1.21,1-1.85,1.4-1,.65-2,1.26-3,1.84l-.73.42a.94.94,0,0,1-.45.14.9.9,0,0,1-.6-.27l-.22-.16.55-.31c1-.56,2-1.12,2.92-1.75a17.76,17.76,0,0,0,2.35-2l.05,0a2.45,2.45,0,0,0,.5-.82c0-.09.08-.19.13-.28l.16-.31-.24-.26,0,0-.11-.11-.2-.22-.29.07-.23.06-.59.15-1.93.49c-1.54.39-3.13.8-4.71,1.12a10.88,10.88,0,0,1-2.05.14h-1.3l-.11,0h0c-.51-.45-1-.91-1.51-1.37h.44l1.44,0c.66,0,1.21,0,1.72,0,5.1-.26,9.12-1.84,12.3-4.81a19,19,0,0,0,5.28-9,21.35,21.35,0,0,0,.36-11.44c-1.4-5.29-5-8.82-10.74-10.47a18.41,18.41,0,0,0-5.12-.72,23.54,23.54,0,0,0-7.56,1.34c-1.62.55-3.22,1.19-4.77,1.81l-2,.82V53l7.5-3.84.73-.38-.66-.48-2.59-1.85-4.58-3.3.1-.51.31-1.58h0l2.31,1.43L24,46.6a1.84,1.84,0,0,0,.9.33l11.62.38,2.32.07,1.39,0-1.05-.92L39,46.34l-.27-.23-1-.72c-3.24-2.26-6.47-4.53-9.71-6.78a2.3,2.3,0,0,0-1.1-.4L19,37.61l-2.49-.18.29-.71.48-1.23h9.67l-.37-.72-2.73-5.38L22.58,27l1.25-1.45,1.31,2.21q2,3.36,4,6.71a2.3,2.3,0,0,0,.76.81l10.08,6,1.48.87.3.15.21.1,1.23.62-.55-1.26-.11-.26L42.33,41l-.83-1.67q-2.4-4.89-4.82-9.76a2.64,2.64,0,0,0-.83-1l-6.64-4.51-2-1.39-.06,0,.63-.54.95-.81L33.39,24l2.74,1.56.69.39,0-.8L37.42,17l0-.44.8-.27,1.13-.38,0,2.45q0,3.93.08,7.86a2.67,2.67,0,0,0,.37,1.28q2.71,4.5,5.45,9l1.23,2,.22.34.16.25.84,1.32.08-1.57.07-1.5C48,36.3,48,35.3,48,34.3c.14-3.28.26-6.24.36-9.27a2.34,2.34,0,0,0-.27-1.19c-1.22-2.32-2.45-4.62-3.68-6.93l-1-2,.65-.17,1.23-.32M40,92.26l.71-.41.66-.39,2.77-1.63.2-.12,0-.22.11-.6,0-.27.1-.53L44.11,88h-.2a5.17,5.17,0,0,0-3.1,1.68A2.63,2.63,0,0,0,40,91.45l0,.81m20.07,0,0-.83a2.67,2.67,0,0,0-.88-1.75,5.09,5.09,0,0,0-3-1.67,1.39,1.39,0,0,0-.3,0l-.48.09.09.49.06.34.09.5,0,.22.2.12L57.82,91l1.54.91.71.42m-10.5,4.2.35,0,.29,0,.31,0,.12-.29.29-.7c.35-.81.69-1.63,1-2.44a1,1,0,0,0,0-.75l-1-2.61-.29-.71-.13-.34-.37,0h-.33l-.29,0-.12.26-.29.57a14.91,14.91,0,0,0-.64,1.4l-.1.24a3,3,0,0,0-.31,1.79A15.34,15.34,0,0,0,49,95.24c.14.3.28.6.41.91l.14.33m-7.65,1,.65-.47a10.5,10.5,0,0,0,3.1-4.29q.28-.6.6-1.2l.48-.9-1,.18a5.36,5.36,0,0,0-3.6,2.29,4.5,4.5,0,0,0-.36,3.61l.14.78m16,0,.26-.62a4.23,4.23,0,0,0-.54-3.9,4.39,4.39,0,0,0-3.55-2.13l-.9,0,.47.77.75,1.27c.71,1.18,1.37,2.29,2.06,3.4a2.37,2.37,0,0,0,.66.61l.27.19.52.43M45.52,13.88l-2.85.74c.12.21.2.38.29.54,1.58,3,3.16,5.93,4.73,8.91a1.93,1.93,0,0,1,.21.94c-.1,3.09-.23,6.18-.36,9.27-.06,1.47-.13,2.94-.21,4.55L47,38.25q-3.35-5.49-6.68-11a2.16,2.16,0,0,1-.3-1c0-3.48-.07-7-.1-10.44,0-.16,0-.32,0-.55l-2.88,1c-.2,3-.39,5.91-.59,8.94l-7.74-4.41-2.33,2,.58.42q4.35,2.94,8.67,5.9a2.07,2.07,0,0,1,.68.76c1.89,3.81,3.76,7.62,5.64,11.44.09.17.16.35.28.64-.23-.12-.36-.17-.47-.24q-5.79-3.4-11.56-6.83a1.78,1.78,0,0,1-.59-.63c-1.79-3-3.56-6-5.33-9-.09-.15-.19-.29-.32-.48L22,26.9c1.36,2.7,2.72,5.36,4.1,8.09H16.9l-1.13,2.86c.23,0,.37.06.52.07,3.52.26,7.05.51,10.57.79a1.72,1.72,0,0,1,.85.31q5.38,3.73,10.74,7.5l.41.36c-4.76-.15-9.35-.29-13.93-.45a1.48,1.48,0,0,1-.66-.25l-8.86-5.5-.65-.38c-.21,1.1-.41,2.1-.6,3.1l7.43,5.34-7.78,4v3.15l.6-.23C16.7,54.77,19,53.79,21.29,53a23.18,23.18,0,0,1,7.4-1.32,17.93,17.93,0,0,1,5,.7c5.27,1.52,9,4.68,10.4,10.12a20.92,20.92,0,0,1-.36,11.18,18.7,18.7,0,0,1-5.14,8.8,18.24,18.24,0,0,1-12,4.67c-.57,0-1.14,0-1.7,0-1,0-1.91,0-2.87,0l-.15.13c.77.71,1.54,1.43,2.32,2.12a.67.67,0,0,0,.44.15h1.3a11.77,11.77,0,0,0,2.15-.15c2.24-.45,4.44-1.07,6.66-1.62l.83-.2.13.15a3.68,3.68,0,0,1-.52,1,18.9,18.9,0,0,1-2.34,2c-1.33.87-2.74,1.62-4.14,2.44a8.88,8.88,0,0,1,.84.57,1.41,1.41,0,0,0,.93.39,1.38,1.38,0,0,0,.7-.21c1.27-.74,2.57-1.46,3.78-2.28S37,90,38,89.2a2.79,2.79,0,0,1,.78-.29l.15.22A67.84,67.84,0,0,1,33.64,96l1,.44,1,.4c.27-.34.51-.67.76-1a17.27,17.27,0,0,1,1.28-1.53,1.3,1.3,0,0,1,.86-.41,1.16,1.16,0,0,1,1,.81,1.85,1.85,0,0,1,.21.68c0,.94,0,1.87,0,2.89,1,.23,2.11.5,3.19.68l.18,0a1.27,1.27,0,0,0,.8-.27A21.24,21.24,0,0,0,45.32,97,2.27,2.27,0,0,1,47,96a13.17,13.17,0,0,1,1.52,3.62h3.11c.49-1.24.68-2.59,1.67-3.78a11.19,11.19,0,0,1,1.27,1c.57.6,1.07,1.28,1.63,1.88a1.08,1.08,0,0,0,.65.35h.06c1.19-.21,2.38-.5,3.6-.77a3.1,3.1,0,0,1-.08-.61,14.68,14.68,0,0,1,.22-2.9,1,1,0,0,1,.93-.85,1.4,1.4,0,0,1,.92.42,9.79,9.79,0,0,1,.95,1.08c.37.46.72.94,1.09,1.44L66.42,96c-.16-.21-.27-.33-.37-.46-1.5-1.86-3-3.72-4.48-5.59a5.1,5.1,0,0,1-.45-.87l.15-.15a3,3,0,0,1,.76.32c.79.58,1.56,1.2,2.33,1.8a15.49,15.49,0,0,0,4.91,3,1.63,1.63,0,0,0,.44.08.45.45,0,0,0,.2,0c.51-.27,1-.62,1.45-.91-1.46-.85-2.91-1.63-4.27-2.53a17.21,17.21,0,0,1-2.33-2,2.82,2.82,0,0,1-.41-1c.25,0,.33,0,.4,0,.28.08.57.16.85.26a30.36,30.36,0,0,0,8.33,1.72h.37A3,3,0,0,0,77,88.37a13.93,13.93,0,0,1,1.21-1.29c-1.09.07-2.15.12-3.19.12a25.37,25.37,0,0,1-4.45-.36,16.49,16.49,0,0,1-10.87-6.38,21.69,21.69,0,0,1-4-16.66,12.75,12.75,0,0,1,4.7-8.37,16.9,16.9,0,0,1,10.78-3.72,20.89,20.89,0,0,1,3.49.29,42.77,42.77,0,0,1,10.15,3.31l1.42.6V52.73l-7.79-4,7.44-5.35c-.21-1-.41-2-.63-3.09l-.59.35q-4.41,2.74-8.81,5.47a2.07,2.07,0,0,1-1,.32c-4.4.15-8.81.27-13.21.4h0c-.12,0-.24,0-.43-.05L72.49,38.9a1,1,0,0,1,.5-.19l7.59-.56,3.71-.28L83.13,35H74c1.38-2.72,2.74-5.38,4.1-8.07l-1.92-2.23-.4.67c-1.76,3-3.51,6-5.28,8.93a1.7,1.7,0,0,1-.56.57L58.34,41.66c-.13.08-.27.14-.5.26,2.06-4.19,4.06-8.26,6.08-12.33a1.41,1.41,0,0,1,.5-.5c2.94-2,5.9-4,8.85-6,.15-.1.28-.21.46-.34l-2.32-2-7.74,4.41c-.2-3-.4-6-.6-8.95l-2.92-1V16c0,3.43,0,6.85-.06,10.28a1.81,1.81,0,0,1-.23.88Q56.46,32.74,53,38.34c-.08.13-.17.25-.3.44l0-.25Q52.4,31.77,52.12,25a1.82,1.82,0,0,1,.22-.88c1.56-3,3.14-5.91,4.71-8.87l.33-.63-2.86-.73c-1.51,2.48-3,4.89-4.5,7.36-1.52-2.49-3-4.92-4.5-7.36ZM40.46,91.42c-.07-1.06,2.18-2.9,3.45-2.9h.14c0,.3-.11.6-.16.87l-3.43,2Zm19.15,0-3.47-2c-.06-.31-.1-.58-.15-.84l.2,0c1.22,0,3.48,1.84,3.42,2.9ZM49.89,96a25,25,0,0,1-1.3-3.18A3.34,3.34,0,0,1,49,91a21,21,0,0,1,.91-1.92l.33,0c.44,1.1.88,2.2,1.31,3.31a.54.54,0,0,1,0,.37c-.44,1.06-.88,2.1-1.33,3.15l-.28,0Zm-4.07-4.63c-1,2-1.73,4-3.55,5.32a4.13,4.13,0,0,1,.27-3.23,4.94,4.94,0,0,1,3.28-2.09Zm11.93,5.42c-.3-.25-.65-.41-.82-.69-.94-1.49-1.83-3-2.82-4.65,2.52,0,4.57,3.14,3.64,5.34Z" style="fill:#939468"/><path d="M90.32,55.65a52.81,52.81,0,0,0-.49-10.55l9.27,5.45ZM1,50.54l9.22-5.44a53.56,53.56,0,0,0-.49,10.55Zm88.55-7.17a41.27,41.27,0,0,0-3.27-10.11l10.25,2.2Zm-86-7.9,10.25-2.21a41.27,41.27,0,0,0-3.27,10.11Zm81.88-3.91A40.69,40.69,0,0,0,79,22.71l10.86-1ZM10.22,21.74l10.86,1a40.69,40.69,0,0,0-6.44,8.85Zm11-10.83L30.67,15a51.17,51.17,0,0,0-8.35,6.48ZM77.73,21.46A51.6,51.6,0,0,0,69.38,15l9.49-4.07Zm-43-17.63,8,6.84A39.81,39.81,0,0,0,32.69,14ZM67.36,14A40.08,40.08,0,0,0,57.3,10.67l8-6.84ZM50,1.43l5.11,8.9a38.5,38.5,0,0,0-10.21,0Z" style="fill:#faf7d1"/><path d="M50,2.43l1.8,3.13,2.39,4.15C52.8,9.57,51.4,9.49,50,9.49s-2.78.08-4.18.22l3-5.31,1.13-2m-15,2.33,6.59,5.63a39.5,39.5,0,0,0-8.26,2.76l1.67-8.39m30,0,.35,1.76,1.32,6.63a40,40,0,0,0-8.27-2.76L61,8.22l4-3.46m13.28,7-.43,4-.51,4.65a50.84,50.84,0,0,0-6.9-5.33l7.84-3.36m-56.51,0,7.84,3.36a50.1,50.1,0,0,0-6.9,5.34l-.65-6-.29-2.71M89,22.31l-3.26,7.26-.39.87A40.48,40.48,0,0,0,80,23.11l2.39-.21,6.6-.59m-78,0,5.63.51,3.36.3a40.07,40.07,0,0,0-5.34,7.32L11,22.31M87.15,34l3.6.77,4.83,1-5.75,6.51A41.7,41.7,0,0,0,87.15,34M12.9,34a41.7,41.7,0,0,0-2.68,8.32L4.47,35.77l.85-.18L12.9,34M9.57,46.06a53.85,53.85,0,0,0-.38,8.7L6.82,53.37,2,50.54l4.42-2.6,3.18-1.88m80.91,0,1.26.74,6.37,3.75-.1.06-7.15,4.15a55,55,0,0,0-.38-8.7M50,.42,44,11A38.83,38.83,0,0,1,50,10.49a40.2,40.2,0,0,1,6.06.47L50,.42ZM34.41,2.9,32,14.93A39.4,39.4,0,0,1,43.88,11L34.41,2.9Zm31.23,0L56.17,11a39.68,39.68,0,0,1,11.88,3.95c-.81-4.06-1.6-8-2.41-12Zm13.82,7.21L68.29,14.9C84,24.39,90.93,38.36,89.77,56.55l1.37-.79L100,50.61V50.5L89.41,44.27l8-9.12-12-2.57,5.13-11.41L78.15,22.28l1.31-12.17Zm-58.87,0c.44,4.1.87,8.11,1.31,12.17L9.42,21.17c1.73,3.85,3.42,7.62,5.13,11.41l-12,2.58,8.05,9.11L0,50.54l10.27,6C9.12,38.37,16,24.39,31.76,14.9L20.59,10.11Z" style="fill:#939468"/></svg>