<svg xmlns="http://www.w3.org/2000/svg" viewBox="0 0 100 100"><title>Ravnica Guild - Boros</title><path d="M83.75,59.45l15.74-4.92L83.41,50.11l-1-4,14-11.41L78,36.93l-1.79-2.21L86.49,17.17,68.1,27.6l-1.48-1L69.36,5.06,56.17,22.67H54.92L50,0,45.08,22.67H43.83L30.64,5.06l2.74,21.59-1.48,1L13.72,17.28,23.88,34.55,22,36.93,3.56,34.72l14,11.41-1,4L.51,54.53l15.74,4.92c.5,8,4.12,14.86,10.3,20.9L22.41,91.9a25.91,25.91,0,0,0,12.48,6.87l4.92-23.49L29.25,61.65v-12H46.68v6h-12v3.48H43l14.29,6.83,12.84-6.71-2.55,10-6,6.33,4.67,23.28h0a31.21,31.21,0,0,0,11.82-6.42l-4.61-12.1C79.63,74.31,83.25,67.41,83.75,59.45Zm-41-22.84V47.08h-9V36.61M53,55.63H49.53V47.08H44.46v-14H53Zm9.82,0H54.92V36.29h7.92Zm1.91,0V38.83h7v16.8Z" style="fill:#12100b"/><path d="M83.75,59.45l15.74-4.92L83.41,50.11l-1-4,14-11.41L78,36.93l-1.79-2.21L86.49,17.17,68.1,27.6l-1.48-1L69.36,5.06,56.17,22.67H54.92L50,0,45.08,22.67H43.83L30.64,5.06l2.74,21.59-1.48,1L13.72,17.28,23.88,34.55,22,36.93,3.56,34.72l14,11.41-1,4L.51,54.53l15.74,4.92c.5,8,4.12,14.86,10.3,20.9L22.41,91.9a25.91,25.91,0,0,0,12.48,6.87l4.92-23.49L29.25,61.65v-12H46.68v6h-12v3.48H43l14.29,6.83,12.84-6.71-2.55,10-6,6.33,4.67,23.28h0a31.21,31.21,0,0,0,11.82-6.42l-4.61-12.1C79.63,74.31,83.25,67.41,83.75,59.45Zm-41-12.37h-9V36.61h9ZM53,55.63H49.53V47.08H44.46v-14H53Zm9.82,0H54.92V36.29h7.92Zm1.91,0V38.83h7v16.8Zm6.78,23.93L75.91,92a26.94,26.94,0,0,1-8.33,4.56l-4.1-20.3,5.39-5.75L73.3,55.32V37.24H64.43V34.71H54.92V31.86h-12V35H32.28V47.71H27.5V62.29L38.06,75.92,33.68,96.83a36.4,36.4,0,0,1-9.22-5.69l4-11.58C22.38,74.25,18.66,67.16,17.66,58L7.18,54.53l11-3L19.4,45.2,9.7,37.38l12.86,1.44,3.2-4.11-7-12.38,13,7.32,3.54-2.25L33.21,11.63l9.67,12.92,3.8-.33L50,8.69l3.32,15.53,3.8.33,9.67-12.92L64.73,27.4l3.54,2.25,13-7.32-7,12.38,3.2,4.11L90.3,37.38,80.6,45.2l1.27,6.31,10.95,3L82.34,58C81.34,67.16,77.62,74.25,71.53,79.56Z" style="fill:#6f250d"/><path d="M25,89.49l-.57,1.65a36.4,36.4,0,0,0,9.22,5.69l4.38-20.91L27.5,62.29V47.71h4.91V35H42.88V31.86h12v2.85h9.51v2.53H73.3V55.32L68.87,70.5l-5.39,5.75,4.1,20.3A26.94,26.94,0,0,0,75.91,92l-.57-1.63h0a26,26,0,0,1-6.43,3.88L65.16,76.89l5.39-5.52,4.17-14.66.06-20.84-8.78,0V33.13H56.49V30.27H41.28v3.18H30.34V46.12H25.45v16.8L36,76.11l-3.92,18A38.2,38.2,0,0,1,25,89.49Z" style="fill:#c45e19"/><path d="M25,89.49l3.44-9.93C22.38,74.25,18.66,67.16,17.66,58L7.18,54.53l11-3L19.4,45.2,9.7,37.38l12.86,1.44,3.2-4.11-7-12.38,13,7.32,3.54-2.25L33.21,11.63l9.67,12.92,3.8-.33L50,8.69l3.32,15.53,3.8.33,9.67-12.92L64.73,27.4l3.54,2.25,13-7.32-7,12.38,3.2,4.11L90.3,37.38,80.6,45.2l1.27,6.31,10.95,3L82.34,58c-1,9.16-4.72,16.25-10.81,21.56l3.81,10.8h0a26,26,0,0,1-6.43,3.88L65.16,76.89l5.39-5.52,4.17-14.66.06-20.84-8.78,0V33.13H56.49V30.27H41.28v3.18H30.34V46.12H25.45v16.8L36,76.11l-3.92,18A38.2,38.2,0,0,1,25,89.49Z" style="fill:#a52d17"/><path d="M35.54,95.7q2.13-10.22,4.27-20.42L29.25,61.65v-12H46.68v6h-12v3.48H43l14.29,6.83,12.84-6.71-2.55,10-6,6.33s2.9,14.49,4.13,20.6c0,0-13.92,3.82-15.39,3.81S35.54,95.7,35.54,95.7Z" style="fill:#faf9f4"/><rect x="33.68" y="36.61" width="9.03" height="10.47" style="fill:#faf9f4"/><polygon points="44.46 47.08 44.46 33.12 53.02 33.12 53.02 55.63 49.53 55.63 49.53 47.08 44.46 47.08" style="fill:#faf9f4"/><rect x="54.92" y="36.29" width="7.92" height="19.33" style="fill:#faf9f4"/><rect x="64.75" y="38.83" width="6.97" height="16.8" style="fill:#faf9f4"/></svg>