<svg xmlns="http://www.w3.org/2000/svg" xmlns:xlink="http://www.w3.org/1999/xlink" viewBox="0 0 100 100"><defs><linearGradient id="a" x1="50.12" y1="9.73" x2="50.12" y2="92.5" gradientUnits="userSpaceOnUse"><stop offset="0" stop-color="#364f21"/><stop offset="0.09" stop-color="#4f692b"/><stop offset="0.22" stop-color="#6b8637"/><stop offset="0.33" stop-color="#7c983e"/><stop offset="0.42" stop-color="#829e40"/><stop offset="0.69" stop-color="#809c3f"/><stop offset="0.79" stop-color="#7a953d"/><stop offset="0.86" stop-color="#6e8938"/><stop offset="0.92" stop-color="#5e7931"/><stop offset="0.97" stop-color="#496329"/><stop offset="1" stop-color="#364f21"/></linearGradient></defs><title>Ravnica Guild - Golgari</title><path d="M62.26,92.68c-6.41-5.11-8.56-15.44-4.5-23a8.69,8.69,0,0,0,1.42.12,6.28,6.28,0,0,0,6.5-5.69,2.4,2.4,0,0,0-2.52-2.59,3.38,3.38,0,0,0-.62.05,20.23,20.23,0,0,1,3.55-4.17l.19-.16V57c-.12-2.53-1-10.9-7.18-12.27a1.67,1.67,0,0,1-.38-.08h0s0-.14.05-.25l0-.15a27.78,27.78,0,0,0-1.29-6.14c-.77-2.67-1.51-5.2-1.21-7.89a4,4,0,0,1,.86,1.84v.05l0,.06c2,4.84,5.17,6.81,8.19,8.71,4.24,2.66,8.24,5.18,8.43,15.93A63.93,63.93,0,0,1,72.14,70L72,70c-4,1.28-7.63,5.38-9.49,10.68C61,85,60.89,89.36,62.26,92.68Zm-24.16,0c1.43-3.45,1.15-8.38-.83-13.26-2.08-5.08-5.39-8.49-8.92-9.18-2.72-10-2.49-18,.66-24,1.42-2.66,4-4.3,6.57-5.89,3.27-2,6.66-4.17,7.63-8.52a3.82,3.82,0,0,1,.71-1.46v.33c0,.29,0,.58,0,.87a18.79,18.79,0,0,1-1.25,7,21.68,21.68,0,0,0-1.29,6.22c-5.68.91-7,8-7.37,11.12v.1c.18,1.65,1.35,2.93,2.48,4.17a17.17,17.17,0,0,1,1.37,1.61,5.3,5.3,0,0,0-.77-.06,2.39,2.39,0,0,0-2.28,1.11,3.8,3.8,0,0,0,.42,3.71,6.57,6.57,0,0,0,5.43,3.38h0a5.4,5.4,0,0,0,1.48-.21c2.26,3.12,3,7.56,2.07,12.25A18.35,18.35,0,0,1,38.1,92.64Zm-14.86-2.1A19,19,0,0,0,17.46,75.3C13.32,71.12,9.8,65.93,6.4,59c-1-2.36-2.12-3.58-3.34-3.58-.88,0-1.7.64-2.43,1.89a7.59,7.59,0,0,1,1.51-4.18c5-7.48,7.3-16.22,9.54-24.67l.47-1.78a2.81,2.81,0,0,0-.8-2.17,3.77,3.77,0,0,0-2.19-1.14C11,22,12.77,20.45,14.52,19c5.67-4.74,11.53-9.63,18.73-11.84,1.88,1,1.33,3.26.42,6.15-.18.58-.35,1.12-.48,1.62a17.57,17.57,0,0,0-10,4.88c-9.22,7.59-10.53,20-11,31.12-2.55,6.39,3.51,15.62,7.52,21.74.56.85,1.09,1.65,1.54,2.37C25.07,79.55,25.8,85.87,23.24,90.54Zm53.68-.14c-3.77-6.65.61-13.26,4.84-19.66,1-1.54,2-3,2.82-4.42.41-1,.88-1.94,1.38-3,1.78-3.65,3.8-7.78,2.5-11.67a33.88,33.88,0,0,1-.78-6.89,28.38,28.38,0,0,0-1.46-9.21c-1.13-7-5.35-13.37-11.9-18A16,16,0,0,0,67.09,15c-.13-.48-.29-1-.47-1.54-.94-3-1.52-5.32.41-6.28,5.78,1.46,10.33,5.19,14.74,8.81a69.62,69.62,0,0,0,8,5.93c.68.3,1.52.86,1.68,1.46a3.79,3.79,0,0,0-2.73,1.43,2.68,2.68,0,0,0-.53,2.35A113.91,113.91,0,0,0,95.6,48.86a25.91,25.91,0,0,0,1.6,2.7c1.19,1.85,2.32,3.6,2.42,5.66a3.52,3.52,0,0,0-2.55-1.9,1.86,1.86,0,0,0-1.49.82c-1.27,2-2.39,4-3.46,6-1.2,2.21-2.45,4.49-3.87,6.59-.82,1-1.7,2.06-2.6,3.12C81,77.29,76.26,82.91,76.92,90.4Zm-24.2-34a3.81,3.81,0,0,1-.8-2.68c0-.13.07-.29.1-.47a9.39,9.39,0,0,1,.55-1.93c.73-1.12.4-3.26-.36-4.65a2.48,2.48,0,0,0-2-1.55,2.14,2.14,0,0,0-1.65,1c-1.68,1.67-1.13,3.89-.65,5.84s.77,3.42-.27,4.45c0-1.82-1.1-3.23-2.16-4.61s-2.17-2.83-1.85-4.6a58.88,58.88,0,0,1,2.53-11.38c.6-1.2.86-6.21-.27-8a1.44,1.44,0,0,0-1.24-.78,1.51,1.51,0,0,0-.5.09l-.07,0-.06,0a17.47,17.47,0,0,0-6.07,7.69c-.36-.65-.81-1.35-1.29-2.08-1.29-2-2.75-4.24-2.11-5.49a78.77,78.77,0,0,0,2.58-11.4c.36-2,.73-4.16,1.17-6.18.45-2.41,2-2.56,4.54-2.61,1.63,0,3.32-.07,4.59-1.11l.17-.13.09.12.28.31A4.64,4.64,0,0,0,50.2,7.85l.22,0,.17-.13a6.55,6.55,0,0,1,.53-.39,5.62,5.62,0,0,0,1.61-1.55,5.42,5.42,0,0,0,4,1.22l1.34,0c1.78,0,3,.26,3.66,1.57a74.27,74.27,0,0,1,1.7,8.16A56,56,0,0,0,66,27.57a13.25,13.25,0,0,1-2.24,4.76c-.48.77-1,1.56-1.4,2.36A26.2,26.2,0,0,0,58,28.39a4,4,0,0,0-2.44-1.51,1.14,1.14,0,0,0-1.11.86c-1.65,4-.47,8.14.68,12.12a36.48,36.48,0,0,1,1.37,6V46l0,0c.79,2.23-.41,3.87-1.67,5.61C53.83,53.05,52.77,54.51,52.72,56.36ZM70.59,38.93c-1.27-2-2.19-2.48-2.71-2.65,0-.07.05-.14.09-.24.23-.6.63-1.64,1.2-3.53a14.46,14.46,0,0,1,1.48,6C70.63,38.59,70.61,38.75,70.59,38.93Zm-40.89,0c0-.18,0-.34-.07-.48a14.64,14.64,0,0,1,1.48-5.93c.55,1.81,1,2.85,1.17,3.45a3.43,3.43,0,0,1,.12.33C31.83,36.48,30.93,37,29.7,38.92Z" style="fill:url(#a)"/><path d="M47.5,6.44l.07.09a5,5,0,0,0,2.55,1.81l.43.07.35-.27c.16-.13.33-.25.51-.38a7.44,7.44,0,0,0,1.41-1.21,6.4,6.4,0,0,0,3.91,1h1.35c1.64,0,2.6.2,3.2,1.27a75.86,75.86,0,0,1,1.67,8,57.73,57.73,0,0,0,2.56,10.8,13.5,13.5,0,0,1-2.14,4.45c-.32.5-.65,1-.95,1.55a28,28,0,0,0-4-5.58c-1.12-1.14-2-1.66-2.79-1.66A1.63,1.63,0,0,0,54,27.53c-1.73,4.21-.52,8.41.65,12.47A35.12,35.12,0,0,1,56,46v.12l0,.11c.7,2-.37,3.44-1.61,5.15a13,13,0,0,0-2,3.39,6.71,6.71,0,0,1-.09-1c0-.12.06-.27.09-.42a9.4,9.4,0,0,1,.5-1.77c.83-1.4.44-3.68-.36-5.15a3,3,0,0,0-2.47-1.81,2.56,2.56,0,0,0-2,1.09C46.31,47.58,46.91,50,47.4,52a9.54,9.54,0,0,1,.42,2.67,11.86,11.86,0,0,0-2-3.25c-1.1-1.43-2-2.66-1.76-4.2v-.09a57.23,57.23,0,0,1,2.48-11.18c.66-1.51.89-6.57-.31-8.5a1.93,1.93,0,0,0-1.66-1,2,2,0,0,0-.67.12l-.14.05-.11.08a18.16,18.16,0,0,0-5.85,7c-.25-.41-.52-.83-.8-1.25-1.09-1.69-2.6-4-2.08-5l0-.07,0-.08a79.74,79.74,0,0,0,2.56-11.39c.36-2,.73-4.15,1.18-6.2s1.58-2.13,4-2.18A8.06,8.06,0,0,0,47.5,6.44M67.1,7.66c5.57,1.47,9.84,5,14.35,8.66a69,69,0,0,0,8,6l.06,0,.06,0a3.64,3.64,0,0,1,1,.6,4.35,4.35,0,0,0-2.28,1.5,3.19,3.19,0,0,0-.62,2.76,115.41,115.41,0,0,0,7.48,21.87,25.63,25.63,0,0,0,1.62,2.74,18.36,18.36,0,0,1,2,3.67,2.78,2.78,0,0,0-1.71-.68,2.35,2.35,0,0,0-1.88,1l0,0,0,0c-1.26,1.94-2.38,4-3.46,6-1.19,2.19-2.42,4.45-3.82,6.52-.83,1-1.72,2.08-2.59,3.1-4.15,4.91-8.42,10-8.88,16.36C74.77,82.21,78.53,76.53,82.18,71c1-1.54,2-3,2.83-4.44l0-.06,0-.06c.38-.91.84-1.86,1.33-2.87,1.82-3.72,3.88-7.94,2.55-12a33.06,33.06,0,0,1-.77-6.79,29,29,0,0,0-1.47-9.32c-1.17-7.09-5.46-13.58-12.08-18.26a16.13,16.13,0,0,0-7.14-2.7l-.39-1.25c-.87-2.71-1.38-4.73,0-5.59m-33.9,0c.87.49,1.26,1.45,0,5.46-.14.46-.28.9-.4,1.32a18,18,0,0,0-9.95,5c-9.35,7.72-10.7,20.24-11.19,31.4-2.57,6.62,3.54,15.93,7.59,22.11.56.86,1.08,1.65,1.54,2.37l0,.06,0,.06A13.7,13.7,0,0,1,23.75,88,19.25,19.25,0,0,0,17.83,75c-4.11-4.15-7.59-9.29-11-16.17C5.78,56.21,4.5,54.9,3.06,54.9a2.55,2.55,0,0,0-1.59.58,8.62,8.62,0,0,1,1.09-2.1c5-7.54,7.35-16.32,9.6-24.81l.47-1.79,0-.09v-.1a3.29,3.29,0,0,0-1-2.44,4.43,4.43,0,0,0-1.46-1c1.55-1.22,3.09-2.51,4.59-3.76C20.42,14.71,26.19,9.9,33.2,7.69M56.77,32.48c2.1,4.92,5.42,7,8.35,8.84,4.29,2.7,8,5,8.19,15.47a63.26,63.26,0,0,1-1.59,12.77c-4.11,1.36-7.83,5.55-9.72,11a18.88,18.88,0,0,0-.79,10.55A18.69,18.69,0,0,1,58,70.26a9.09,9.09,0,0,0,1.15.07,6.8,6.8,0,0,0,7-6.19A3.15,3.15,0,0,0,65.44,62a2.84,2.84,0,0,0-1.91-.93,17.39,17.39,0,0,1,2.88-3.25l.38-.32,0-.49c-.12-2.61-1-11.21-7.48-12.72v-.11A28.65,28.65,0,0,0,58,38a27.83,27.83,0,0,1-1.21-5.51m-13.28.23a21.45,21.45,0,0,1-1.25,5.64,23.93,23.93,0,0,0-1.3,6c-2.42.56-6.47,2.81-7.37,11.47l0,.11,0,.1c.19,1.82,1.42,3.16,2.61,4.46l.65.72A2.76,2.76,0,0,0,34,64.05c0,3.66,4,6.31,6.68,6.31A6.17,6.17,0,0,0,42,70.22c2,3,2.68,7.17,1.79,11.58A18.55,18.55,0,0,1,39.13,91a20.39,20.39,0,0,0-1.4-11.84c-2.08-5.09-5.4-8.56-9-9.41-2.59-9.69-2.36-17.53.7-23.32,1.36-2.55,3.8-4.08,6.39-5.7,3.16-2,6.43-4,7.65-8M31,33.92c.32,1,.57,1.64.74,2.1a5,5,0,0,0-1.55,1.32A14.39,14.39,0,0,1,31,33.92m38.22,0a13.92,13.92,0,0,1,.81,3.42A5.38,5.38,0,0,0,68.51,36c.17-.45.42-1.12.74-2.09M52.62,5.17a.18.18,0,0,0-.15,0c-.44,1-1.39,1.5-2.19,2.13-.8-.12-1.65-1.17-2.22-1.76-.19-.28-.33-.37-.47-.37s-.3.13-.5.28c-2.83,2.31-8.39-.89-9.31,4-1.26,5.77-1.85,11.88-3.7,17.46-1.2,2.32,3.05,6.62,3.9,9.13a16.72,16.72,0,0,1,6.31-8.61,1.05,1.05,0,0,1,.33-.06c1.9,0,1.74,6.75,1,8.17A58.66,58.66,0,0,0,43.11,47C42.36,51.09,48,53.12,47,57.37c4.61-2.46-1.3-7.8,1.94-11a1.66,1.66,0,0,1,1.26-.76c1.68,0,2.94,4,1.94,5.5a13.75,13.75,0,0,0-.7,2.54c0,2,.54,3.11,1.88,3.75-.86-4.57,5.38-6.81,3.71-11.52-.61-6-4.48-12-2.07-17.94a.67.67,0,0,1,.65-.53c1.92,0,6.74,7.21,6.71,8.71,1.12-2.9,3.86-5.6,4.24-8.58-2.34-6-2.52-12.89-4.33-19.12-.9-1.7-2.46-1.88-4.13-1.88l-1.35,0c-1.42,0-2.81-.13-3.8-1.23a.44.44,0,0,0-.31-.13ZM67,6.6c-3.37,1.47-.91,6.1-.3,8.79A15.93,15.93,0,0,1,74,18c6,4.25,10.54,10.41,11.71,17.73,2.06,5.2.91,10.94,2.25,16.12,1.57,4.72-2,9.92-3.85,14.22-4.62,8-13.71,17.25-6.39,26.45C75.54,82.64,83.13,75.92,88.66,69c2.72-4,4.68-8.48,7.32-12.54a1.35,1.35,0,0,1,1.08-.63c1.26,0,2.55,2.08,2.88,3.21a8.72,8.72,0,0,1,.16-.89c.35-3.71-2.53-6.41-4-9.49A115.57,115.57,0,0,1,88.65,27c-.43-1.68,1.33-3.17,2.92-3.17a1.84,1.84,0,0,1,.33,0c.33-1.11-1-2-1.89-2.41C82.2,16.72,76.3,8.88,67,6.6Zm-33.69,0c-9.86,3-17.09,10.76-24.94,16.72-.15.23-.25.5.23.5h.21a2.91,2.91,0,0,1,2.88,2.7C9.25,35.59,7,44.9,1.73,52.82a8.16,8.16,0,0,0-1.6,4.66A8.89,8.89,0,0,0,.34,59c.86-2.14,1.79-3.13,2.72-3.13s2,1.17,2.89,3.3A61.22,61.22,0,0,0,17.12,75.66a18.88,18.88,0,0,1,5.4,16.86c4.16-5.18,3.3-12.86-.9-17.76C17.91,68.87,9.75,58,12.64,51c.48-11,1.72-23.34,10.87-30.87A17,17,0,0,1,33.6,15.37c.57-2.68,3-7.28-.31-8.76ZM56,29.06c-1.15,5.35,2,10,2.31,15.17,0,.58-.17.91.69,1C64,46.36,65.57,52.55,65.77,57a26,26,0,0,0-4.43,5.42,4.85,4.85,0,0,1,1.82-.41c3.88,0,2,7.28-4,7.28a7.91,7.91,0,0,1-1.69-.18c-4.65,8.19-2.09,20.2,6.15,25.1C58.8,87,64,73.09,72.11,70.48a.58.58,0,0,0,.32.18c.18,0,.14-.34.17-.46a64.58,64.58,0,0,0,1.71-13.38C74,38.29,62.54,43.58,57.65,32A6,6,0,0,0,56,29.06Zm-11.67,0a6.35,6.35,0,0,0-1.59,2.64c-1.67,7.48-10.82,8-14.15,14.29-4,7.49-2.77,16.91-.62,24.65,8,1.19,13.62,17.1,8.68,23.61,8-4.56,11.34-18,5.76-25.18a5.11,5.11,0,0,1-1.67.29c-4.86,0-8-7.2-3.58-7.2a6.4,6.4,0,0,1,1.8.3c-1.09-2.34-4.11-4-4.38-6.57.46-4.34,2.27-10.23,7.38-10.73-.16-4.61,2.89-8.86,2.53-13.65-.06-.81,0-1.64-.16-2.45ZM69,31.24c-2.8,9.71-2.25,1.71,1.8,9.08a10.94,10.94,0,0,0,.32-1.82A14.58,14.58,0,0,0,69,31.24Zm-37.78,0a14.58,14.58,0,0,0-2.12,7.24,9.59,9.59,0,0,0,.33,1.84c4-7.32,4.59.57,1.79-9.08Z" style="fill:#95c11f"/><path d="M47.57,5.76l.09.12,0,0,0,0,.24.26A4.64,4.64,0,0,0,50.2,7.85l.22,0,.17-.13a6.55,6.55,0,0,1,.53-.39,5.62,5.62,0,0,0,1.61-1.55,5.37,5.37,0,0,0,4,1.22h1.35c1.78,0,3,.26,3.66,1.57a74.27,74.27,0,0,1,1.7,8.16A56,56,0,0,0,66,27.57a13.25,13.25,0,0,1-2.24,4.76c-.48.77-1,1.56-1.4,2.36A26.2,26.2,0,0,0,58,28.39a4,4,0,0,0-2.43-1.51,1.13,1.13,0,0,0-1.11.84c-1.66,4.05-.48,8.16.67,12.14a36.48,36.48,0,0,1,1.37,6V46l0,0c.79,2.23-.41,3.87-1.67,5.61-1,1.43-2.1,2.89-2.15,4.74a3.81,3.81,0,0,1-.8-2.68c0-.13.07-.29.1-.47a9.74,9.74,0,0,1,.54-1.9c.73-1.19.4-3.3-.35-4.68a2.48,2.48,0,0,0-2-1.55,2.11,2.11,0,0,0-1.63.93c-1.69,1.71-1.15,3.91-.67,5.86s.77,3.42-.27,4.45c0-1.82-1.1-3.23-2.16-4.61s-2.17-2.83-1.84-4.64a58.14,58.14,0,0,1,2.51-11.3c.62-1.35.85-6.27-.26-8.07a1.44,1.44,0,0,0-1.24-.78,1.51,1.51,0,0,0-.5.09l-.07,0-.06,0a17.47,17.47,0,0,0-6.07,7.69c-.36-.65-.81-1.35-1.29-2.08-1.29-2-2.75-4.24-2.11-5.49l0,0v0A79.66,79.66,0,0,0,37.1,15.79c.36-2,.73-4.16,1.18-6.2.44-2.39,2-2.54,4.53-2.59,1.63,0,3.32-.07,4.57-1.09l.12-.09.07-.06M67,7.13c5.78,1.46,10.33,5.19,14.74,8.81a69.62,69.62,0,0,0,8,5.93l0,0h0c.63.27,1.47.83,1.62,1.43a3.79,3.79,0,0,0-2.73,1.43,2.68,2.68,0,0,0-.53,2.35A114.25,114.25,0,0,0,95.6,48.87a26.85,26.85,0,0,0,1.6,2.69c1.19,1.85,2.32,3.6,2.42,5.66a3.52,3.52,0,0,0-2.56-1.9,1.87,1.87,0,0,0-1.5.86c-1.25,1.92-2.37,4-3.44,5.94-1.2,2.21-2.45,4.49-3.85,6.56-.84,1-1.74,2.11-2.61,3.14C81,77.28,76.26,82.91,76.92,90.4c-3.77-6.65.6-13.26,4.84-19.66,1-1.54,2-3,2.82-4.42v0l0,0c.38-.92.85-1.88,1.34-2.9,1.79-3.65,3.81-7.78,2.52-11.64a33.71,33.71,0,0,1-.79-6.92,28.38,28.38,0,0,0-1.46-9.21c-1.13-7-5.35-13.37-11.89-18A15.94,15.94,0,0,0,67.09,15c-.13-.48-.29-1-.47-1.54-.94-3-1.52-5.32.41-6.28m-33.78,0c1.88,1,1.33,3.26.42,6.15-.18.57-.35,1.12-.48,1.62a17.44,17.44,0,0,0-10,4.86c-9.26,7.61-10.57,20-11.06,31.14-2.55,6.39,3.51,15.62,7.52,21.74.56.85,1.09,1.65,1.54,2.37l0,0,0,0a13.9,13.9,0,0,1,2,15.45,19,19,0,0,0-5.77-15.23C13.32,71.12,9.81,65.93,6.41,59c-1-2.39-2.13-3.61-3.35-3.61-.88,0-1.69.63-2.43,1.88A7.68,7.68,0,0,1,2.15,53.1c5-7.47,7.29-16.21,9.53-24.66l.47-1.78v-.1a2.83,2.83,0,0,0-.82-2.07,3.77,3.77,0,0,0-2.19-1.14C11,22,12.77,20.45,14.52,19c5.67-4.74,11.53-9.63,18.73-11.84m23,23.09a4,4,0,0,1,.86,1.84v.05l0,.06c2,4.84,5.17,6.81,8.19,8.71,4.24,2.66,8.24,5.18,8.43,15.9A64,64,0,0,1,72.14,70L72,70c-4,1.28-7.63,5.38-9.49,10.68-1.52,4.34-1.58,8.67-.21,12-6.41-5.11-8.56-15.44-4.5-23a8.69,8.69,0,0,0,1.42.12,6.28,6.28,0,0,0,6.5-5.69,2.68,2.68,0,0,0-.62-1.82,2.43,2.43,0,0,0-1.9-.77,3.38,3.38,0,0,0-.62.05,20.54,20.54,0,0,1,3.55-4.17l.19-.16V57c-.12-2.53-1-10.9-7.18-12.27H59a1.22,1.22,0,0,1-.29-.06c0-.06,0-.17,0-.26l0-.15V44.2a28,28,0,0,0-1.29-6.07c-.77-2.67-1.51-5.2-1.21-7.89m-12.37.11c0,.11,0,.22,0,.33,0,.29,0,.58,0,.87a18.79,18.79,0,0,1-1.25,7,21.68,21.68,0,0,0-1.29,6.22C39.22,45.1,35,47,34.06,55.84v.1c.18,1.66,1.35,2.93,2.48,4.17a17.79,17.79,0,0,1,1.37,1.61,5.3,5.3,0,0,0-.77-.06,2.31,2.31,0,0,0-2.6,2.39,6.51,6.51,0,0,0,6.18,5.81,5.4,5.4,0,0,0,1.48-.21c2.26,3.12,3,7.56,2.07,12.25A18.35,18.35,0,0,1,38.1,92.64c1.43-3.45,1.15-8.38-.83-13.26-2.08-5.08-5.39-8.49-8.92-9.18-2.72-10-2.49-18,.66-24,1.42-2.66,4-4.3,6.57-5.89,3.27-2,6.66-4.17,7.63-8.52a3.9,3.9,0,0,1,.71-1.46M31.11,32.51c.55,1.81,1,2.85,1.17,3.46a3.21,3.21,0,0,1,.12.31c-.52.18-1.43.65-2.7,2.64,0-.18,0-.34-.07-.48a14.64,14.64,0,0,1,1.48-5.93m38.06,0a14.62,14.62,0,0,1,1.48,6c0,.13,0,.29-.06.47-1.27-2-2.18-2.48-2.71-2.65,0-.07.06-.15.09-.24.23-.6.63-1.64,1.2-3.53M52.62,5.17a.18.18,0,0,0-.15,0c-.44,1-1.39,1.5-2.19,2.13-.8-.12-1.65-1.17-2.22-1.76-.19-.28-.33-.37-.47-.37s-.3.13-.5.28c-2.83,2.31-8.39-.89-9.31,4-1.26,5.77-1.85,11.88-3.7,17.46-1.2,2.32,3.05,6.62,3.9,9.13a16.72,16.72,0,0,1,6.31-8.61,1.05,1.05,0,0,1,.33-.06c1.9,0,1.74,6.75,1,8.17A58.66,58.66,0,0,0,43.11,47C42.36,51.09,48,53.12,47,57.37c4.61-2.46-1.3-7.8,1.94-11a1.66,1.66,0,0,1,1.26-.76c1.68,0,2.94,4,1.94,5.5a13.75,13.75,0,0,0-.7,2.54c0,2,.54,3.11,1.88,3.75-.86-4.57,5.38-6.81,3.71-11.52-.61-6-4.48-12-2.07-17.94a.67.67,0,0,1,.65-.53c1.92,0,6.74,7.21,6.71,8.71,1.12-2.9,3.86-5.6,4.24-8.58-2.34-6-2.52-12.89-4.33-19.12-.9-1.7-2.46-1.88-4.13-1.88l-1.35,0c-1.42,0-2.81-.13-3.8-1.23a.44.44,0,0,0-.31-.13ZM67,6.6c-3.37,1.47-.91,6.1-.3,8.79A15.93,15.93,0,0,1,74,18c6,4.25,10.54,10.41,11.71,17.73,2.06,5.2.91,10.94,2.25,16.12,1.57,4.72-2,9.92-3.85,14.22-4.62,8-13.71,17.25-6.39,26.45C75.54,82.64,83.13,75.92,88.66,69c2.72-4,4.68-8.48,7.32-12.54a1.35,1.35,0,0,1,1.08-.63c1.26,0,2.55,2.08,2.88,3.21a8.72,8.72,0,0,1,.16-.89c.35-3.71-2.53-6.41-4-9.49A115.57,115.57,0,0,1,88.65,27c-.43-1.68,1.33-3.17,2.92-3.17a1.84,1.84,0,0,1,.33,0c.33-1.11-1-2-1.89-2.41C82.2,16.72,76.3,8.88,67,6.6Zm-33.69,0c-9.86,3-17.09,10.76-24.94,16.72-.15.23-.25.5.23.5h.21a2.91,2.91,0,0,1,2.88,2.7C9.25,35.59,7,44.9,1.73,52.82a8.16,8.16,0,0,0-1.6,4.66A8.89,8.89,0,0,0,.34,59c.86-2.14,1.79-3.13,2.72-3.13s2,1.17,2.89,3.3A61.22,61.22,0,0,0,17.12,75.66a18.88,18.88,0,0,1,5.4,16.86c4.16-5.18,3.3-12.86-.9-17.76C17.91,68.87,9.75,58,12.64,51c.48-11,1.72-23.34,10.87-30.87A17,17,0,0,1,33.6,15.37c.57-2.68,3-7.28-.31-8.76ZM56,29.06c-1.15,5.35,2,10,2.31,15.17,0,.58-.17.91.69,1C64,46.36,65.57,52.55,65.77,57a26,26,0,0,0-4.43,5.42,4.85,4.85,0,0,1,1.82-.41c3.88,0,2,7.28-4,7.28a7.91,7.91,0,0,1-1.69-.18c-4.65,8.19-2.09,20.2,6.15,25.1C58.8,87,64,73.09,72.11,70.48a.58.58,0,0,0,.32.18c.18,0,.14-.34.17-.46a64.58,64.58,0,0,0,1.71-13.38C74,38.29,62.54,43.58,57.65,32A6,6,0,0,0,56,29.06Zm-11.67,0a6.35,6.35,0,0,0-1.59,2.64c-1.67,7.48-10.82,8-14.15,14.29-4,7.49-2.77,16.91-.62,24.65,8,1.19,13.62,17.1,8.68,23.61,8-4.56,11.34-18,5.76-25.18a5.11,5.11,0,0,1-1.67.29c-4.86,0-8-7.2-3.58-7.2a6.4,6.4,0,0,1,1.8.3c-1.09-2.34-4.11-4-4.38-6.57.46-4.34,2.27-10.23,7.38-10.73-.16-4.61,2.89-8.86,2.53-13.65-.06-.81,0-1.64-.16-2.45ZM69,31.24c-2.8,9.71-2.25,1.71,1.8,9.08a10.94,10.94,0,0,0,.32-1.82A14.58,14.58,0,0,0,69,31.24Zm-37.78,0a14.58,14.58,0,0,0-2.12,7.24,9.59,9.59,0,0,0,.33,1.84c4-7.32,4.59.57,1.79-9.08Z" style="fill:#1d1d1b"/></svg>