<svg xmlns="http://www.w3.org/2000/svg" viewBox="0 0 100 100"><title>Ravnica Guild - Gruul</title><path d="M50.73,68a14.61,14.61,0,0,1-5.44-1,5,5,0,0,0-1.23-.27l-.41,0a3.36,3.36,0,0,1-2.28-.85.71.71,0,0,0,.28-.44c.09-.44-.29-.83-.49-1L41,64.16a6.45,6.45,0,0,0-.66-.62.84.84,0,0,0-.51-.18.72.72,0,0,0-.35.08A19,19,0,0,1,36,49.31a10.42,10.42,0,0,1,2.46-4.86,12.9,12.9,0,0,0,.78-1.15,5.37,5.37,0,0,1,1.87-2.07l.18-.1a6.09,6.09,0,0,0,1.13-.74,8.09,8.09,0,0,1,1.09-.67l.28-.15a.65.65,0,0,0,.42.16.63.63,0,0,0,.51-.26.8.8,0,0,0,.11-.23,9.64,9.64,0,0,0,3.09-.67l.19-.06a.55.55,0,0,1,.18,0,.35.35,0,0,1,.14,0,3.12,3.12,0,0,0,1,.15,4.24,4.24,0,0,0,1.06-.14,1.15,1.15,0,0,1,.26,0l.27,0a4.9,4.9,0,0,0,1.09.14,2.77,2.77,0,0,0,.78-.11,1.55,1.55,0,0,1,.29,0,1,1,0,0,1,.33.06,9.59,9.59,0,0,0,3.11.7h0a.77.77,0,0,0,.66.49.58.58,0,0,0,.4-.17l.09,0,1.05.6a2.19,2.19,0,0,1,.25.2,3.15,3.15,0,0,0,.41.31l.72.41a6.54,6.54,0,0,1,2.29,2.53,14.61,14.61,0,0,0,1.17,1.66C67.5,50.16,65.3,59,62,63.45a.87.87,0,0,0-.36-.09.81.81,0,0,0-.46.15,4.89,4.89,0,0,0-.71.65l-.2.2a1.19,1.19,0,0,0-.48,1,.78.78,0,0,0,.28.44,3.33,3.33,0,0,1-2.34.86,6.34,6.34,0,0,0-1.93.46A14.54,14.54,0,0,1,50.73,68Zm0-7.94a.21.21,0,0,1,.11,0,2.21,2.21,0,0,0,1,.42,1.26,1.26,0,0,1,.55.21,5.29,5.29,0,0,1,1,.81c.67.64,1.36,1.31,2.09,1.31a.93.93,0,0,0,.24,0c1.8-.49,2.77-2.2,3.54-3.77a10.64,10.64,0,0,0,.5-8.17,1,1,0,0,0,.43-.72.7.7,0,0,0-.51-.74,1.07,1.07,0,0,1-.47-.34,5.52,5.52,0,0,1-.81-2.5c0-.21-.13-.77-.13-.77l-.13-.09a12.65,12.65,0,0,1-1.55-1.4,10.5,10.5,0,0,0-2-1.72,1,1,0,0,0-.53-.16,1.69,1.69,0,0,0-1.13.64c-.33.36-.6.67-.87,1s-.83.94-1.26,1.39l-.05.05a9.54,9.54,0,0,1-1.21-1.31,10.24,10.24,0,0,0-1.36-1.44,1.14,1.14,0,0,0-.74-.34,1.31,1.31,0,0,0-.66.23,4.91,4.91,0,0,0-.79.59c-.37.31-.71.66-1.06,1a14.71,14.71,0,0,1-1.63,1.46l-.12.09,0,.14c0,.25-.09.5-.13.75a6.24,6.24,0,0,1-.59,2.09,1.16,1.16,0,0,1-.65.62.71.71,0,0,0-.52.65,1,1,0,0,0,.43.83,10.67,10.67,0,0,0,.7,8.59c.4.79,1.84,3.35,3.55,3.35a1.77,1.77,0,0,0,1-.29,6.84,6.84,0,0,0,1-.88,3.39,3.39,0,0,1,1.64-1.12h0a1.54,1.54,0,0,0,.79-.29A1,1,0,0,1,50.71,60.07Zm18.62-5.71c0-.44.11-.91.16-1.25A11.18,11.18,0,0,0,69.63,52a12.42,12.42,0,0,0-.2-2.2c-.07-.53-.15-1-.18-1.54a.79.79,0,0,0,.63.32h.29l.09-.28a8.17,8.17,0,0,1,1.25-2.39,8.12,8.12,0,0,0,1.38-2.7l.07-.29.29,0c2.13,0,3-2.64,3.26-4.21l0-.31a5.83,5.83,0,0,0-.09-3.26L76.41,35l-.15-.06a1.15,1.15,0,0,0-.36-.07c-.62,0-.78.63-.87,1a1.49,1.49,0,0,1-.07.25c-.22.85-.44,1.35-1,1.48a10.16,10.16,0,0,1-1.15.27,6,6,0,0,0-2.29.79c.4-1.45,1.53-2.26,2.71-3.12,1.51-1.09,3.07-2.22,3-4.67a.73.73,0,0,1,.15-.46,2.29,2.29,0,0,0,.39-1.12,8.5,8.5,0,0,0-1.33-5.08c-.14-.22-.13-.25-.08-.33v0c.28.34.57.64.86,1s.49.5.72.77a8.45,8.45,0,0,1,1.48,4.35,13.53,13.53,0,0,0,.48,3c.12.5.25,1,.33,1.51.49,3.18.2,5.64-2.83,7.29l-.15.09c-.77.51-1.82,1.19-1.59,2.44a.64.64,0,0,0,.63.55,1.59,1.59,0,0,0,.82-.33,5.24,5.24,0,0,0,1.23-1.33c0,1.39-.13,2.93-1.2,3.59l-.68.39c-.37.1-1.37,1.19-1.29,1.85a.64.64,0,0,0,.67.55,2.43,2.43,0,0,0,1-.21,8.27,8.27,0,0,1-2.26,1.48A9.24,9.24,0,0,0,69.33,54.36Zm-37.4-1.12a11.53,11.53,0,0,1-.78-1c-.18-.26-.37-.53-.57-.77a3.16,3.16,0,0,0-2.3-1.15,6.7,6.7,0,0,1-.91-.21C25,49.45,24,47,23.57,44.93a3.34,3.34,0,0,0,2.48,1.35h.14l.1-.08a.58.58,0,0,0,.23-.44c.06-.61-.66-1.5-1.54-2.52l-.36-.43a5.6,5.6,0,0,0-1.26-1L23,41.59a4.71,4.71,0,0,1-2.43-4.37c.25-1.65.55-3.65.92-5.64a15.48,15.48,0,0,1,1.62-5.25,2.46,2.46,0,0,1,.78-.83,5.4,5.4,0,0,0,.52-.43,4.36,4.36,0,0,0,.68-.82.68.68,0,0,0,0,.12,6.32,6.32,0,0,0-1.19,2.81c0,.09-.1.23-.16.37a2.54,2.54,0,0,0-.33,1.14,5.45,5.45,0,0,0,.6,2.76,1.57,1.57,0,0,1,.1.92c0,.17,0,.35,0,.52a1,1,0,0,0,.53.88,7.25,7.25,0,0,1,1.4,1,8.61,8.61,0,0,1,.67.68,9.07,9.07,0,0,0,.82.82l.27.23.24-.25a.68.68,0,0,0,.2-.53v-.29a5.89,5.89,0,0,1,.56-3.08,5.69,5.69,0,0,0,1,3.07,6.54,6.54,0,0,1,1.09,4.17,6.22,6.22,0,0,0-2.78-1.38c-1.36-.4-2.53-.75-3-2.42l0-.11a1.44,1.44,0,0,0-.3-.57l-.12-.13-.56,0-.1.21a7,7,0,0,0,.44,5,4.59,4.59,0,0,0,2.45,2.67l.27.11c.51,1.72,2.58,4.54,4.59,4.92l.12,0,.11-.05a1,1,0,0,0,.28-.21,2.7,2.7,0,0,1-.16,1.12A6.8,6.8,0,0,0,31.93,53.24ZM36.3,39.56a1.2,1.2,0,0,1-.34-.23,6.87,6.87,0,0,0,.75-3.61,2,2,0,0,0-.86-1.8,2.11,2.11,0,0,1-.79-1.15,4.2,4.2,0,0,0-.64-1.12A5.17,5.17,0,0,0,32.19,30c-1-.49-1.84-.91-2.19-2.16A13,13,0,0,1,29.54,24a15.43,15.43,0,0,1,.77-4.36c.13-.47.26-.94.38-1.41A9,9,0,0,0,31,15.55a2,2,0,0,1,.34-1.22,7.45,7.45,0,0,0,.76-1.52c.1-.24.2-.48.31-.72a.39.39,0,0,1,.17-.17,7.08,7.08,0,0,0,1.21-1.17l.5-.55.3-.3.16-.16c0,.08,0,.17.07.26a3,3,0,0,0-.67,1,1.59,1.59,0,0,1-.16.32,2.43,2.43,0,0,0-.43,2c0,.07,0,.11-.16.24a1.35,1.35,0,0,0-.46,1.25V15a5.28,5.28,0,0,0,.7,3.38,1.24,1.24,0,0,1,.11.6,2.61,2.61,0,0,0,2,2.8l.39.09.07-.39c.57-3.21,2.37-6.06,4.2-8.8A9.2,9.2,0,0,0,40.61,17a2,2,0,0,0,1,1.15l.47.19,0-.5a17.54,17.54,0,0,1,4-9c.22-.31.45-.6.69-.89a12.3,12.3,0,0,0,1.25-1.75.9.9,0,0,0,0-.85.47.47,0,0,0-.23-.21c.2-.4.42-.79.64-1.17a18.79,18.79,0,0,0,1.3-2.62h0a20.8,20.8,0,0,0,1.46,3l.27.48a10.66,10.66,0,0,1,.65,1.58,9,9,0,0,0,1,2.17,17.25,17.25,0,0,0,1.55,2.21,12.23,12.23,0,0,1,1,2.15c.17.45.35.89.55,1.32l.47,1.09a6.83,6.83,0,0,1,.39,2.38c0,.36,0,.72.07,1.08l0,.3.31,0a.63.63,0,0,0,.52-.24,8.38,8.38,0,0,0,1.5-3.3l.06-.23A2.46,2.46,0,0,0,59.61,14a3.15,3.15,0,0,1-.12-.58,3.19,3.19,0,0,1,.07-1.25,8.25,8.25,0,0,0,2.92,5.12,5.81,5.81,0,0,1,2,2.91l.07.22c.09.34.26,1,.84,1l.22,0c.7-.21.55-.92.48-1.23,0,0,0-.07,0-.1A1.12,1.12,0,0,0,66.26,19a4.32,4.32,0,0,0,1-2.42c.36-1-1-5.73-2-6.26a.7.7,0,0,0,.3-.21,1.52,1.52,0,0,0,.37.56c1.5,1.63,3.07,3.62,3.2,5.94a13.8,13.8,0,0,0,.52,3.2c.16.65.33,1.33.43,2v.09c.31,2.57.75,6.09-1.53,7.76l-.87.56a11.14,11.14,0,0,0-1.83,1.34,7.52,7.52,0,0,0-1.42,1.85,1.91,1.91,0,0,1-.35.47,3.51,3.51,0,0,0-1.16,2.63,4.8,4.8,0,0,1,0,.58,1.62,1.62,0,0,0,.51,1.65.67.67,0,0,0-.16.44,7.08,7.08,0,0,1-.59-.62,4,4,0,0,0-1.36-1.16,3.62,3.62,0,0,0-.37-.22c-.18-.11-.36-.21-.52-.32l0-.91a15.67,15.67,0,0,1,.09-1.66h0c.89-.33,1.74-.7,2-1.86A5.08,5.08,0,0,0,62.1,29c-.07-.2-.14-.4-.21-.62a1.8,1.8,0,0,1-.08-.5,4,4,0,0,0-1.09-2.72c-.14-.17-.3-.32-.45-.48a4.6,4.6,0,0,1-.79-1.12l-.09-.16,0,0a.75.75,0,0,0-.51-.24.59.59,0,0,0-.53.37,1.23,1.23,0,0,0,.14,1.17,1.46,1.46,0,0,1,.44,1,5.62,5.62,0,0,0,.16.71c.06.19,0,.33-.3.63a2,2,0,0,0-.51.86c-.17,0-.35,0-.54.06l-.32,0a5.63,5.63,0,0,0-2.16.6c0-.12,0-.25-.08-.39a1.83,1.83,0,0,0-.59-1.23,10,10,0,0,0,1-.67c1.51-1.22,1.77-3.4.77-6.32a12.26,12.26,0,0,0-1.87-3.12l-.06-.08a1.35,1.35,0,0,1-.23-.5,4.23,4.23,0,0,0-.67-1.62,5.29,5.29,0,0,0-.66-.75,4.13,4.13,0,0,1-.6-.67,5.71,5.71,0,0,0-2.7-1.89l-.06,0h-.06c-.11,0-.21-.16-.35-.39a1.07,1.07,0,0,0-.88-.68.94.94,0,0,0-.49.14l-.25.13.06.28c0,.2.11.4.17.61l.12.44a1,1,0,0,0,.57.63,1,1,0,0,1,.17.1.62.62,0,0,1,.27.36,6.26,6.26,0,0,0,1,1.93.51.51,0,0,1,.08.53,7.88,7.88,0,0,1-.69,1.4,1,1,0,0,0,.09,1l0,0A5.69,5.69,0,0,0,47.68,19a9.66,9.66,0,0,1-.86.74c-.3.2-.63.39-1,.58a6.07,6.07,0,0,0-3.48,4.54l0,.28a4.08,4.08,0,0,0,.37,2.77c-1-.21-2-.72-2-1.79a3,3,0,0,1,.32-1c.33-.77.74-1.73.07-2.25l-.22-.17-.23.17c-2.63,1.88-5.09,7.2-3,10.4a1.92,1.92,0,0,0,1.22.72c.06.51.13,1,.2,1.5s.17,1.25.23,1.88a23,23,0,0,1-2.52,1.84Zm21.56-4.29a2.15,2.15,0,0,1,.89-.47A3.62,3.62,0,0,1,57.86,35.27ZM41.4,34.94a2.39,2.39,0,0,1-.72-.39A3.09,3.09,0,0,1,41.4,34.94Zm10-5.18c.11-.73.74-1.17,1.69-1.74l.5-.31C53.4,28.75,52.65,29.3,51.39,29.76Z" style="fill:#6e270f"/><path d="M49.84,2.29c.34.76.75,1.48,1.14,2.19l.27.48a11,11,0,0,1,.63,1.52,9,9,0,0,0,1,2.24,16.57,16.57,0,0,0,1.55,2.22,11.52,11.52,0,0,1,1,2.09c.17.44.35.9.56,1.34s.31.72.46,1.07a6.27,6.27,0,0,1,.36,2.26c0,.37,0,.73.08,1.1l.06.59.6.07h.11a.93.93,0,0,0,.74-.37A8.82,8.82,0,0,0,60,15.65l.06-.23a2,2,0,0,0,.07-.4,11,11,0,0,0,2.09,2.53,5.65,5.65,0,0,1,1.9,2.73v.07a1.56,1.56,0,0,1,0,.16c.1.38.33,1.26,1.2,1.26a1.26,1.26,0,0,0,.33-.05c.46-.14,1-.54.75-1.63a1.45,1.45,0,0,0,.22-1,5.15,5.15,0,0,0,.89-2.45,8.75,8.75,0,0,0-.48-3.51c-.09-.29-.18-.56-.27-.82a7.82,7.82,0,0,1,1.87,4.23,14.31,14.31,0,0,0,.54,3.31,18.9,18.9,0,0,1,.41,1.95l0,.1c.32,2.61.72,5.87-1.37,7.4l-.86.56a11.05,11.05,0,0,0-1.89,1.37,8.06,8.06,0,0,0-1.49,1.95,1.45,1.45,0,0,1-.27.36,3.9,3.9,0,0,0-1.28,2.93c0,.2,0,.37,0,.53a4,4,0,0,0,0,.78,3.45,3.45,0,0,0-1-.75l-.39-.23-.33-.19c0-.23,0-.47,0-.7,0-.48,0-.94.07-1.4a2.75,2.75,0,0,0,2-2,5.46,5.46,0,0,0-.36-3.61c-.06-.19-.14-.39-.2-.58a1.68,1.68,0,0,1-.07-.41,4.35,4.35,0,0,0-1.17-3c-.15-.18-.31-.34-.49-.52a4.18,4.18,0,0,1-.71-1l-.07-.12-.05-.09-.07-.07a1.08,1.08,0,0,0-.77-.35,1,1,0,0,0-.87.59,1.56,1.56,0,0,0,.2,1.57l0,0,0,0a1.15,1.15,0,0,1,.29.76,3.64,3.64,0,0,0,.18.74,2,2,0,0,1-.23.3,2.53,2.53,0,0,0-.52.76l-.28,0-.32,0a6.35,6.35,0,0,0-1.85.44,2.76,2.76,0,0,0-.36-1c.23-.14.45-.3.68-.47,1.63-1.32,1.93-3.64.87-6.73a12.37,12.37,0,0,0-1.92-3.2l-.06-.09a.83.83,0,0,1-.16-.37,4.68,4.68,0,0,0-.72-1.73,5.24,5.24,0,0,0-.72-.81,4.35,4.35,0,0,1-.57-.65,6.11,6.11,0,0,0-2.86-2l-.12,0h0c0-.05-.09-.14-.13-.2a1.43,1.43,0,0,0-1.2-.87,1.31,1.31,0,0,0-.67.19l-.5.27.12.54c.05.22.11.43.18.64s.08.28.11.41a1.37,1.37,0,0,0,.76.89.41.41,0,0,1,.11.07l0,0,0,0a.19.19,0,0,1,.09.11,6.21,6.21,0,0,0,1.09,2.07.15.15,0,0,1,0,.17,8.22,8.22,0,0,1-.66,1.33,1.14,1.14,0,0,0-.07,1.05,7.44,7.44,0,0,0-1.43,1.11,8.17,8.17,0,0,1-.8.7c-.26.17-.55.35-.91.56A6.47,6.47,0,0,0,42,24.84l0,.27a6,6,0,0,0,0,2.19,1.38,1.38,0,0,1-1-1.2,5.15,5.15,0,0,1,.29-.81c.36-.84.86-2,0-2.69l-.44-.34-.45.32c-2.82,2-5.35,7.49-3.08,10.92l0,0,0,0a2.33,2.33,0,0,0,1.15.77c.05.42.11.84.17,1.25.08.57.16,1.11.21,1.66a25.76,25.76,0,0,1-2.33,1.69l-.08,0a6.6,6.6,0,0,0,.57-3.28v-.08a2.28,2.28,0,0,0-1-2c-.28-.16-.42-.47-.64-1a4.51,4.51,0,0,0-.66-1.18,5.75,5.75,0,0,0-2.39-1.82c-.94-.46-1.69-.83-2-1.95A12.75,12.75,0,0,1,29.91,24a14.94,14.94,0,0,1,.76-4.25c.14-.47.27-.94.38-1.41a9.86,9.86,0,0,0,.33-2.84,1.56,1.56,0,0,1,.26-1,7.77,7.77,0,0,0,.81-1.6c.09-.24.19-.47.29-.69l.06,0a4.72,4.72,0,0,0,.48-.38,3.48,3.48,0,0,0-.1,1.46l0,0a1.75,1.75,0,0,0-.57,1.5V15a5.5,5.5,0,0,0,.72,3.53.91.91,0,0,1,.09.4,3,3,0,0,0,2.26,3.22l.77.19.15-.79a20.87,20.87,0,0,1,3.33-7.42,7.67,7.67,0,0,0,.39,3,2.28,2.28,0,0,0,1.22,1.35l.94.39.1-1a17.14,17.14,0,0,1,4-8.85c.21-.3.44-.58.67-.87a12.42,12.42,0,0,0,1.31-1.83,1.27,1.27,0,0,0,0-1.2A.44.44,0,0,0,48.38,5l.5-.88c.33-.6.67-1.2,1-1.83M76.61,25.7l.06.07a8.12,8.12,0,0,1,1.42,4.12A13.39,13.39,0,0,0,78.58,33c.12.52.24,1,.32,1.48.48,3.12.21,5.36-2.64,6.91h0l0,0-.12.08-.22.14a8.67,8.67,0,0,0,1-2.86l.05-.28A6.36,6.36,0,0,0,76.82,35l-.13-.29-.29-.12a1.51,1.51,0,0,0-.5-.09c-.91,0-1.14.9-1.24,1.29a1.08,1.08,0,0,1,0,.21l0,0v0c-.19.8-.37,1.1-.68,1.17h-.06a9.58,9.58,0,0,1-1.08.25,11.71,11.71,0,0,0-1.47.37,7.91,7.91,0,0,1,2.18-2c1.51-1.09,3.23-2.33,3.16-4.94a.39.39,0,0,1,.08-.26,2.66,2.66,0,0,0,.46-1.3,7.29,7.29,0,0,0-.56-3.63M23.81,26a7.28,7.28,0,0,0-.26,1l-.15.34A3,3,0,0,0,23,28.65a5.88,5.88,0,0,0,.65,3,1.28,1.28,0,0,1,0,.69,3.33,3.33,0,0,0,0,.54,1.35,1.35,0,0,0,.72,1.22,6.54,6.54,0,0,1,1.33.91,7.89,7.89,0,0,1,.64.65,10,10,0,0,0,.86.86l.53.44.48-.48a1.06,1.06,0,0,0,.32-.79v-.3a14,14,0,0,1,.07-1.46,9.56,9.56,0,0,0,.79,1.64,6.26,6.26,0,0,1,1.06,3.2,7.93,7.93,0,0,0-2.32-1c-1.35-.4-2.33-.69-2.79-2.19l0-.09a1.64,1.64,0,0,0-.37-.72l-.24-.25-.35,0h-.17l-.45,0-.19.42c-.67,1.49-.26,3.76.44,5.35a5,5,0,0,0,2.63,2.86l.13,0c.63,1.86,2.71,4.61,4.82,5l.17,0a1.69,1.69,0,0,1-.1.34,7.39,7.39,0,0,0-.44,3.07c-.12-.16-.24-.33-.37-.48A3.57,3.57,0,0,0,28.34,50a7.57,7.57,0,0,1-.88-.2,5,5,0,0,1-3.21-3.68,3.25,3.25,0,0,0,1.8.59h.27l.21-.17a1,1,0,0,0,.37-.7c.06-.69-.5-1.48-1.64-2.8a4.7,4.7,0,0,1-.33-.4l0,0,0,0a6,6,0,0,0-1.31-1l-.38-.24h0l0,0a4.31,4.31,0,0,1-2.22-4c.25-1.69.55-3.67.91-5.65a15.55,15.55,0,0,1,1.6-5.15,1.28,1.28,0,0,1,.38-.44M48.26,38.09l0,.75a3.28,3.28,0,0,0,1.09.18,5,5,0,0,0,1.15-.15.5.5,0,0,1,.17,0,.65.65,0,0,1,.19,0,5.47,5.47,0,0,0,1.17.15,3.32,3.32,0,0,0,.87-.12l.2,0a.64.64,0,0,1,.22,0l.07,0a10.74,10.74,0,0,0,3,.68,1.05,1.05,0,0,0,.87.49,1,1,0,0,0,.42-.1l.9.52a1.81,1.81,0,0,1,.23.18,3.51,3.51,0,0,0,.45.34l.75.43a6.27,6.27,0,0,1,2.15,2.39,13.31,13.31,0,0,0,1.18,1.68C67,50.18,65,58.59,61.82,63a.78.78,0,0,0-.22,0,1.22,1.22,0,0,0-.67.22,5.86,5.86,0,0,0-.77.69l-.19.2a1.56,1.56,0,0,0-.59,1.35,1.42,1.42,0,0,0,.14.35,4,4,0,0,1-1.88.51,6.85,6.85,0,0,0-2,.47,14,14,0,0,1-4.9.87,14.23,14.23,0,0,1-5.3-1,5.32,5.32,0,0,0-1.33-.29l-.4,0a4.18,4.18,0,0,1-1.81-.5,1.05,1.05,0,0,0,.13-.35,1.54,1.54,0,0,0-.6-1.36l-.16-.17a5.82,5.82,0,0,0-.72-.67,1.19,1.19,0,0,0-.73-.26l-.21,0a18.66,18.66,0,0,1-3.26-13.65,10.21,10.21,0,0,1,2.38-4.67c.3-.38.56-.78.81-1.17a5.06,5.06,0,0,1,1.74-2l.18-.09a6.19,6.19,0,0,0,1.15-.76,8.3,8.3,0,0,1,1.06-.65l.09,0A1,1,0,0,0,45,39.7l0-.05,0,0a10.74,10.74,0,0,0,3-.68l.19-.06h0l0,0h0v-.75M41.22,51a11.14,11.14,0,0,0,.8,8.65c.43.84,2,3.56,3.89,3.56a2.06,2.06,0,0,0,1.16-.36,6.26,6.26,0,0,0,1.07-.93,3.51,3.51,0,0,1,1.39-1,1.93,1.93,0,0,0,1-.34l.16-.1a2.66,2.66,0,0,0,1.12.43,1.07,1.07,0,0,1,.46.18,5.45,5.45,0,0,1,.86.74,3.86,3.86,0,0,0,2.35,1.41,1.65,1.65,0,0,0,.36,0c2.09-.57,3.18-2.78,3.77-4a11.06,11.06,0,0,0,.59-8.2,1.34,1.34,0,0,0,.36-.8,1,1,0,0,0-.76-1.12.63.63,0,0,1-.28-.21,5.18,5.18,0,0,1-.75-2.34c0-.21-.07-.42-.1-.63l-.06-.3-.25-.18a10.54,10.54,0,0,1-1.51-1.36,10.41,10.41,0,0,0-2.07-1.76,1.33,1.33,0,0,0-.74-.22,2,2,0,0,0-1.39.74l-.07.08-.83.93c-.34.39-.68.79-1,1.17-.31-.31-.6-.66-.9-1a9.72,9.72,0,0,0-1.39-1.48,1.5,1.5,0,0,0-1-.44,1.69,1.69,0,0,0-.86.28,5.59,5.59,0,0,0-.83.62c-.38.33-.74.69-1.09,1a13.09,13.09,0,0,1-1.58,1.43l-.24.17-.05.29c-.06.25-.1.5-.14.75a6.16,6.16,0,0,1-.56,2,.77.77,0,0,1-.47.43,1,1,0,0,0-.73,1,1.3,1.3,0,0,0,.36,1m33.29-8a2,2,0,0,0-.17,1.32,1,1,0,0,0,1,.84,1.92,1.92,0,0,0,1.06-.42,5.71,5.71,0,0,0,.58-.51,2.65,2.65,0,0,1-1,2.15l-.42.24-.23.13c-.61.29-1.62,1.41-1.51,2.25a1,1,0,0,0,.71.81c-.35.21-.74.42-1.15.63a10.91,10.91,0,0,0-3.5,2.51c0-.37.09-.69.1-.94a13,13,0,0,0-.2-2.27c0-.28-.08-.54-.11-.81l.19,0h.05l.56,0,.14-.54a7.12,7.12,0,0,1,1.2-2.27,9.19,9.19,0,0,0,1.35-2.56h0v0l.06-.21a2.72,2.72,0,0,0,1.26-.3M49.88,0c-.18.37-.22.8-.38,1.18C48.94,2.69,48,4,47.31,5.45a1.23,1.23,0,0,0,.29,0h0c.28,0,.24.37.15.56a27,27,0,0,1-1.92,2.58,18.05,18.05,0,0,0-4.1,9.23c-1.77-.74-1.15-5.65-.53-7.11C39.08,14,36.52,17.42,35.81,21.4a2.22,2.22,0,0,1-1.7-2.4,1.61,1.61,0,0,0-.15-.81,5,5,0,0,1-.64-3.37c-.09-1,.59-.88.62-1.45a2.13,2.13,0,0,1,.34-1.77,1.68,1.68,0,0,0,.22-.42,2.1,2.1,0,0,1,.54-.83.41.41,0,0,0,.13-.48A3.13,3.13,0,0,1,35.35,8c-1,.31-.39,1.09-1,1.6a3.43,3.43,0,0,0-.33.33,12.86,12.86,0,0,1-1.64,1.66.82.82,0,0,0-.31.33,14.07,14.07,0,0,1-1,2.18,2.29,2.29,0,0,0-.4,1.45,9.25,9.25,0,0,1-.3,2.62,22.73,22.73,0,0,0-1.17,5.87,13.51,13.51,0,0,0,.48,3.85c.69,2.49,3.22,2.1,4.5,4,.63.72.66,1.87,1.54,2.35.57.29.6,1,.66,1.51a6.7,6.7,0,0,1-.84,3.66,1.85,1.85,0,0,0,.86.55,27.7,27.7,0,0,0,3.35-2.42c-.1-1.27-.34-2.49-.47-3.77,1.06.91,1.52,1.64,3,1.67-.54-1.21-2-1.36-3.07-1.78A1.58,1.58,0,0,1,38,33.08c-1.95-2.93.25-8,2.88-9.89.71.54-.57,2.19-.54,2.94,0,1.65,2,2.24,3.34,2.27-.18-.19-.34-.35-.49-.52-.7-.81-.5-2-.41-3a5.75,5.75,0,0,1,3.3-4.26c.33-.2.66-.4,1-.61,1-.68,1.61-1.7,2.79-2,0-.4-.48-.72-.27-1.07a7.92,7.92,0,0,0,.72-1.46.88.88,0,0,0-.12-.88,5.57,5.57,0,0,1-1-1.81.94.94,0,0,0-.4-.55c-.21-.17-.54-.24-.61-.53S48,11,47.9,10.68a.71.71,0,0,1,.31-.09c.54,0,.6,1.06,1.23,1.07A5.4,5.4,0,0,1,52,13.4c.35.55.91.9,1.27,1.44a4.11,4.11,0,0,1,.61,1.48,1.59,1.59,0,0,0,.29.65A12.53,12.53,0,0,1,56,20.06c.64,1.88,1.1,4.49-.64,5.9a13,13,0,0,1-1.5.94l0,.12c-1.12.93-3.11,1.43-2.87,3.27,1.68-.56,3-1.25,3-3.22,1,.3.61,1.33,1.07,2a5.14,5.14,0,0,1,2.37-.76,5.25,5.25,0,0,0,1.18-.17c-.07-.79,1.06-1.1.81-1.9a4.27,4.27,0,0,1-.15-.64,1.77,1.77,0,0,0-.53-1.2c-.22-.25-.17-.91.11-.91a.32.32,0,0,1,.24.13A5,5,0,0,0,60,24.94c.15.16.3.31.44.47a3.62,3.62,0,0,1,1,2.47,2.23,2.23,0,0,0,.1.62c.47,1.41.95,2.27.54,3.82-.19,1-1,1.3-1.85,1.62l-.1.18c-1.1.21-2.67.36-2.95,1.67a5.16,5.16,0,0,0,2.94-1.61C60,35.14,60,36.06,60,37a10.19,10.19,0,0,0,1.13.71c1.19.54,1.64,2.19,3,2.19h0c.12-.45-.29-.52-.54-.75,0-.28.28-.3.37-.5-1.07-.56-.69-1.17-.68-2.15a3.15,3.15,0,0,1,1-2.37,2.19,2.19,0,0,0,.43-.57,6.82,6.82,0,0,1,1.35-1.76,20.52,20.52,0,0,1,2.66-1.87c2.49-1.82,2-5.51,1.67-8.21-.25-1.73-.94-3.4-1-5.17-.14-2.42-1.72-4.46-3.31-6.18-.39-.38-.4-.92-.57-1.41A.66.66,0,0,0,65,8.42a.48.48,0,0,0-.32.12c.31.33.95,1.14.34,1.47a.32.32,0,0,0,0,.6c.84.43,2.13,4.93,1.81,5.88A4.3,4.3,0,0,1,66,18.77a.33.33,0,0,0-.07.34c.13.32-.07.57-.23.83,0,.35.31.91-.18,1.06l-.11,0c-.37,0-.44-.63-.54-.92-.85-3.41-4.74-3.41-5-9.17a3.16,3.16,0,0,0-.7,2.52c.06.59.4,1.17.23,1.77a8.55,8.55,0,0,1-1.49,3.39.23.23,0,0,1-.17.11h0a12,12,0,0,0-.49-3.58c-.16-.36-.31-.72-.47-1.09a27.78,27.78,0,0,0-1.62-3.55,17.41,17.41,0,0,1-1.53-2.18c-.79-1.14-1-2.52-1.63-3.72a16,16,0,0,1-2-4.6ZM75,22.54c0,.38.27.78.08,1.15a.61.61,0,0,0,.08.7,8,8,0,0,1,1.29,4.84,2,2,0,0,1-.33.95,1.23,1.23,0,0,0-.22.69C76,35.36,70.16,35,70,39.66a.08.08,0,0,0,.08,0c.86-1.32,2.61-1.24,4-1.67.81-.18,1.06-1,1.24-1.71.13-.36.16-1,.59-1a.7.7,0,0,1,.23,0,6.25,6.25,0,0,1,0,3.35c-.3,1.57-1.09,3.91-2.89,3.91a2.58,2.58,0,0,1-.6-.07l-.06.29h-.24a2.09,2.09,0,0,0-1.86.78l0,0a4.36,4.36,0,0,0,2-.47c-.45,1.9-2.14,3.18-2.62,5.08h0a.45.45,0,0,1-.41-.36c-.14-.47-.24-1-.34-1.43h0c-.59,1.83.22,3.72.16,5.57,0,.86-.6,3.11-.13,3.7,2.09-5.23,7-4,7.93-7.92A2.91,2.91,0,0,1,74.9,49.1c-.92,0,.39-1.58.79-1.7l.69-.39c1.65-1,1.37-3.63,1.32-5.33a5.75,5.75,0,0,1-1.76,2.44,1.29,1.29,0,0,1-.61.27c-.12,0-.22-.07-.26-.25-.2-1.06.8-1.64,1.55-2.13,3.18-1.73,3.54-4.35,3-7.68a29.46,29.46,0,0,1-.8-4.45,8.94,8.94,0,0,0-1.58-4.58A14.69,14.69,0,0,1,75,22.54Zm-49.66.33a5,5,0,0,1-1.2,1.93c-.46.45-1.09.75-1.37,1.36a16,16,0,0,0-1.66,5.35c-.35,1.89-.64,3.79-.92,5.69a5.08,5.08,0,0,0,2.59,4.7A8.74,8.74,0,0,1,24.32,43c.32.45,2.28,2.44,1.74,2.88-1.47,0-2.6-1.48-3.12-2.72.24,2.83,1.23,6.42,4.31,7.28,1.05.34,2.36.22,3,1.24s1.34,2.14,2.52,2.61a6.39,6.39,0,0,1-.4-5.38,4.12,4.12,0,0,0-.07-2.55c-.25.32-.18,1-.57,1.17-1.8-.34-3.83-3-4.31-4.69l0,0c.59.25,1.15.74,1.79.74a1.23,1.23,0,0,0,.42-.07c-1-1.13-1.75-.49-2.74-1-2.18-.71-3.55-5.24-2.67-7.21h.17a1.3,1.3,0,0,1,.24.54c1,3.44,4.72,1.88,6.44,4.62.82-5.13-2.62-5.35-1.86-9.16-1.49.92-1.41,2.82-1.43,4.36a.37.37,0,0,1-.09.27c-.54-.46-1-1-1.48-1.5a7.9,7.9,0,0,0-1.48-1,.6.6,0,0,1-.33-.56,3.36,3.36,0,0,0-.12-1.58,5.19,5.19,0,0,1-.56-2.62,4.32,4.32,0,0,1,.48-1.43,5.71,5.71,0,0,1,1.24-2.79,5.46,5.46,0,0,1-.2-.77,4.51,4.51,0,0,1,0-.82ZM48.26,38.09a.8.8,0,0,0-.3.06,9.94,9.94,0,0,1-3.18.72h-.26a1.29,1.29,0,0,1-.12.38.31.31,0,0,1-.22.12.3.3,0,0,1-.27-.3,14.74,14.74,0,0,0-1.77,1,7,7,0,0,1-1.23.79c-1.34.7-1.88,2.19-2.78,3.32a10.69,10.69,0,0,0-2.53,5A19.38,19.38,0,0,0,39.38,64a.64.64,0,0,1,.43-.23.48.48,0,0,1,.28.1,9.7,9.7,0,0,1,.8.77c.42.42.66.78,0,1.07.52,1.2,2,1.25,3.13,1.41a4.62,4.62,0,0,1,1.16.25,15.28,15.28,0,0,0,5.58,1.06,14.88,14.88,0,0,0,5.19-.93c1.43-.69,3.86-.1,4.62-1.79-.65-.26-.46-.65,0-1a6.05,6.05,0,0,1,.87-.81.4.4,0,0,1,.24-.09A.7.7,0,0,1,62,64c3.73-4.69,5.91-13.85,1.88-18.89-1.22-1.4-1.86-3.38-3.57-4.27-.24-.12-.48-.26-.71-.4s-.43-.36-.66-.51c-.48-.29-1-.56-1.48-.84-.05.22-.15.3-.25.3s-.36-.24-.36-.5h-.32a9.28,9.28,0,0,1-3-.67,1.28,1.28,0,0,0-.46-.08,1.74,1.74,0,0,0-.39.05,2.24,2.24,0,0,1-.68.1,4.9,4.9,0,0,1-1-.13,1.45,1.45,0,0,0-.35,0,1.39,1.39,0,0,0-.35,0,4,4,0,0,1-1,.13,2.53,2.53,0,0,1-.85-.14,1.09,1.09,0,0,0-.26,0ZM45.91,62.46c-1.37,0-2.7-2.12-3.22-3.15a10.25,10.25,0,0,1-.55-8.6.68.68,0,0,1-.54-.65c0-.4.67-.17,1.13-1.09A9.86,9.86,0,0,0,43.49,46c1-.72,1.79-1.69,2.72-2.5A5,5,0,0,1,47,43a.9.9,0,0,1,.46-.17.76.76,0,0,1,.5.25c1,.85,1.7,2.1,2.76,2.9a.67.67,0,0,0,.38-.23c.71-.76,1.37-1.56,2.07-2.33.26-.25.56-.57.91-.57a.59.59,0,0,1,.34.11c1.37.8,2.25,2.19,3.55,3.1a7.42,7.42,0,0,0,1,3.29,1.39,1.39,0,0,0,.65.46c.52.16.14.86-.29.91a10.25,10.25,0,0,1-.35,8.19c-.71,1.43-1.64,3.13-3.28,3.57a.5.5,0,0,1-.17,0c-.94,0-2-1.6-2.84-2.06-.62-.4-.85-.1-1.63-.64a.53.53,0,0,0-.29-.08c-.41,0-.76.46-1.2.46h0c-1.09.14-1.92,1.48-2.82,2.06a1.3,1.3,0,0,1-.75.24Z" style="fill:#44150d"/><path d="M48.49,98.34c-.07-1.08-.09-2.16-.1-3.22s0-2.29-.11-3.43L48.23,91l-.33.27c-.06-.07-.12-.14-.12-.17s0-.28,0-.42l0-.27a.72.72,0,0,0-.12-.56.84.84,0,0,0-.52-.31c0-.7.12-1.39.19-2.09.1-1,.21-2,.24-3a4.66,4.66,0,0,0-.17-1.74l-.08-.24h-.26a1.06,1.06,0,0,0-.61.17c-.63.4-1.25.85-1.85,1.29l-.7.51a1.6,1.6,0,0,1-.63.33,6.27,6.27,0,0,0-2.59,1.14c-.37.23-.79.56-1.23.9a10.31,10.31,0,0,1-2.19,1.44.61.61,0,0,0,0-.44l0-.13-.11-.09a.7.7,0,0,0-.46-.16,1.41,1.41,0,0,0-.6.18l-.11.06-.62.37c-.44.27-.89.54-1.35.78H34a.38.38,0,0,1-.21-.07,1.19,1.19,0,0,0-.54-.17.76.76,0,0,0-.48.18,7.18,7.18,0,0,1-1.18.87,7.43,7.43,0,0,0-.75.49.69.69,0,0,0-.35.56v.11l.06.1a.77.77,0,0,0,.7.35l.28,0h.12a1.23,1.23,0,0,1,.2.2l.24.27.28-.23a1.49,1.49,0,0,1,.81-.36C32,92,30.87,92.85,29.7,93.76l-2.23,1.72c-.1.07-.14.08-.18.08h-.8a.42.42,0,0,1-.13,0,2.82,2.82,0,0,0,.72-.91.52.52,0,0,0-.19-.69l-.09-.07h-.11a1.57,1.57,0,0,0-.73.22,4.24,4.24,0,0,1-.77.38c2.28-2.09,4.49-4,6.73-5.67l.35-.28a14.51,14.51,0,0,1,2.79-1.94l.63-.32A7.73,7.73,0,0,0,38,84.69a1.93,1.93,0,0,1,.61-.44,3.06,3.06,0,0,0,1.13-.93c.28-.36.54-.75.81-1.14a8.61,8.61,0,0,1,1.5-1.86,1.06,1.06,0,0,1,.22-.13l.16-.09c.08,0,.23.15.32.25a1.7,1.7,0,0,0,.88.56l.11,0,.5-.21.86-.37c.28-.13.67-.31.74-.68a.67.67,0,0,0-.19-.57c-.78-.95-1.63-1.88-2.46-2.78l-1.44-1.59a1.16,1.16,0,0,0-.94-.37h-.17c-.28,0-.6,0-1.06-.72-.19-.32-.33-.58-.46-.79a4.62,4.62,0,0,0-2.22-2.2l-.29-.21c-.27-.18-.45-.31-.5-.48l.05,0a.75.75,0,0,0,.47-.87l0-.11-.07-.08-1.88-2c-1.31-1.4-2.66-2.83-3.92-4.26a7.22,7.22,0,0,0-1-3.12,9.45,9.45,0,0,1,1.67,1.62l.37.41.24.28a2.12,2.12,0,0,0,.56.56l.72.46-.17-.95a1,1,0,0,1,0-.28l.15.07c.86.76,1.68,1.59,2.46,2.4l1.13,1.15q.39.39.78.75l.29.28a2.23,2.23,0,0,0,.69.43,3.55,3.55,0,0,1,.92.57l1.08,1c.4.36.8.72,1.21,1.07a1,1,0,0,0,.65.24,1.24,1.24,0,0,0,.33,0,1,1,0,0,0,.6-.43l0,0c.11.3.18.6.26.9a7.74,7.74,0,0,0,.45,1.36l.1.2h.08a.69.69,0,0,0,.11.64A32.19,32.19,0,0,0,47.05,75l1.2,1.21.51-5.72.46,0h.07a1.17,1.17,0,0,0,.88.35l.14,1.31.83-.15c0,.92.21,4.09.21,4.09l.51-.24a25.07,25.07,0,0,0,3.36-2,.94.94,0,0,0,.38-.75.54.54,0,0,1,.31-.49l.16-.09a2.09,2.09,0,0,1,.89-.36.37.37,0,0,1,.15,0,.48.48,0,0,0,.27.07.7.7,0,0,0,.4-.13,5.72,5.72,0,0,0,1.57-.76c1.56-1,3-2.1,4.46-3.2.82-.64,1.67-1.29,2.53-1.91a.6.6,0,0,0,.54.4.77.77,0,0,0,.43-.15l1.66-1c.71-.44,1.43-.89,2.16-1.32l-.38.33a3.35,3.35,0,0,0-.7.88l0,.06v.06a.57.57,0,0,0,.14.44.92.92,0,0,0,.69.24,119.67,119.67,0,0,1-10.58,7.44,2.14,2.14,0,0,0-.84,1.47c0,.15,0,.3-.06.45a.48.48,0,0,1-.5.39.27.27,0,0,1-.17,0l-.22-.17a4.35,4.35,0,0,0-.42-.33l-.21-.15-.22.15c-.9.64-1.84,1.25-2.75,1.84s-2,1.29-3,2l-.36.26.31.31c1.51,1.54,3,3,4.79,4.66l.24.23.26-.22.16-.15c.11-.1.35-.33.45-.33a36.63,36.63,0,0,1,3.76,4,2.07,2.07,0,0,1,.28.4c0,.07-.1.13-.35.36l-.28.24,5.66,6.63a4.23,4.23,0,0,1-1-.48L65.51,95A.83.83,0,0,0,65,94.8c-.58,0-.78.6-.9,1.11a.56.56,0,0,1,0-.12,2.33,2.33,0,0,0-.08-.31,1,1,0,0,0-.75-.7.8.8,0,0,1-.38-.22L60.6,92.43c-2.54-2.38-5.17-4.85-7.81-7.21l-.12-.11-.17,0c-.88.1-.91,1-.93,1.65a2,2,0,0,1-.12.82.3.3,0,0,1-.28.18,1.15,1.15,0,0,1-.69-.32l-.6-.58,0,.83c0,.66,0,1.31-.06,2a37.65,37.65,0,0,1-.24,4.37,1,1,0,0,0-.38-.17l-.25-.06-.14.23a.77.77,0,0,0-.12.53A14.56,14.56,0,0,1,48.49,98.34Zm2.22-40.29-.47-.32a3.79,3.79,0,0,0-2.15-.89l-.27,0c-.17,0-.28,0-.34-.06a4,4,0,0,1-1.56-2.46,8.48,8.48,0,0,1,.25-2.67,5,5,0,0,1,1.13-1.87l.12-.15c.71-1.5,1-1.74,2.61-1.89l.19,0,.1-.16a.46.46,0,0,1,.37-.27.53.53,0,0,1,.4.28l.1.19h.21a2.26,2.26,0,0,1,2.28,1.32,2,2,0,0,0,.36.64,4.63,4.63,0,0,1,1.33,2.54l0,.37a4.68,4.68,0,0,1-.07,2.27c-.52,1.18-1.17,1.91-1.74,1.95a5.5,5.5,0,0,0-.66.07l-.12,0a3.29,3.29,0,0,0-1.61.78Z" style="fill:#6b762d"/><path d="M50.69,47.66a.17.17,0,0,1,.07.09l.22.36h.42c.77,0,1.69.29,1.92,1.06a2.31,2.31,0,0,0,.46.8A4.17,4.17,0,0,1,55,52.28l0,.37a4.6,4.6,0,0,1,0,2.07c-.45,1-1,1.71-1.38,1.74a5.64,5.64,0,0,0-.74.07l-.09,0a3.65,3.65,0,0,0-1.8.85l-.28.2-.25-.18a4.21,4.21,0,0,0-2.31-1,1.67,1.67,0,0,0-.32,0h-.15a3.7,3.7,0,0,1-1.39-2.17,8.2,8.2,0,0,1,.25-2.55A4.55,4.55,0,0,1,47.59,50l.12-.16.06-.07,0-.09c.6-1.29.83-1.45,2.26-1.59l.37,0,.2-.33,0-.07M30.81,61l.29.32c.12.15.25.29.39.45a1.43,1.43,0,0,1,.2.23,2.72,2.72,0,0,0,.66.65l1.44.91-.19-1.07c.61.58,1.21,1.19,1.8,1.8.38.38.75.77,1.14,1.15s.53.53.8.78l.27.26a2.53,2.53,0,0,0,.81.51,2.87,2.87,0,0,1,.81.51c.37.31.72.63,1.08,1s.8.72,1.21,1.07a1.36,1.36,0,0,0,.9.34,1.68,1.68,0,0,0,.4,0,1.31,1.31,0,0,0,.38-.15c0,.1,0,.21.08.32a7.2,7.2,0,0,0,.48,1.42l.1.23a1.21,1.21,0,0,0,.23.69,30,30,0,0,0,2.69,2.92l.64.64,1.14,1.15.14-1.61.18-2,.23-2.58h0a1.41,1.41,0,0,0,.69.31v.13l0,.48.09.79.79-.13h0l.12,2.29,0,.82,0,1.13,1-.49a24,24,0,0,0,3.42-2,1.32,1.32,0,0,0,.54-1c0-.05,0-.11,0-.12a.28.28,0,0,1,.09-.07l.17-.1a2,2,0,0,1,.71-.31,1.08,1.08,0,0,0,.43.1,1.19,1.19,0,0,0,.55-.16,6.53,6.53,0,0,0,1.61-.79A55.06,55.06,0,0,0,64,68.48c.72-.56,1.46-1.14,2.21-1.68a.89.89,0,0,0,.63.25,1.1,1.1,0,0,0,.62-.21l1.67-1,.46-.29a1,1,0,0,0,.24.67.8.8,0,0,0,.17.15c-3.27,2.6-6.84,4.94-10,7l0,0,0,0a2.5,2.5,0,0,0-1,1.7c0,.12,0,.25,0,.38l0,.09a.28.28,0,0,1-.11,0l-.17-.14a3.68,3.68,0,0,0-.44-.34l-.43-.29-.43.3c-.89.64-1.83,1.24-2.75,1.83s-2,1.29-3,2l-.71.51.61.62c1.52,1.55,3.07,3,4.8,4.67l.48.46.52-.43.18-.17.15-.13a36.86,36.86,0,0,1,3.5,3.77l.11.13-.13.12-.55.49.48.56,3.73,4.37.49.57a1,1,0,0,0-.29,0,1,1,0,0,0-.9.49,1.31,1.31,0,0,0-.79-.49.48.48,0,0,1-.21-.14L60.9,92.19c-2.56-2.4-5.2-4.87-7.86-7.25l-.25-.23-.33,0c-1.2.15-1.24,1.41-1.26,2a4.12,4.12,0,0,1-.05.61l0,0a.94.94,0,0,1-.39-.21L49.54,86l-.07,1.67c0,.65,0,1.31,0,2,0,1.26-.05,2.57-.19,3.84l-.49-.11h0c0-.58,0-1.16-.07-1.74l-.15-1.38-.28.23v-.06a1.09,1.09,0,0,0-.17-.85,1,1,0,0,0-.44-.36c.05-.6.11-1.2.17-1.79.11-1,.21-2,.24-3.06a5.05,5.05,0,0,0-.18-1.88L47.68,82l-.51,0h-.06a1.41,1.41,0,0,0-.76.23c-.66.42-1.29.87-1.9,1.32l-.69.5a1.39,1.39,0,0,1-.46.26,6.42,6.42,0,0,0-2.7,1.18,13,13,0,0,0-1.29.94,15.25,15.25,0,0,1-1.56,1.11l0-.16-.21-.17a1.11,1.11,0,0,0-.7-.25,1.71,1.71,0,0,0-.77.23l-.09.05h0l0,0-.59.36c-.43.26-.84.5-1.26.73l0,0a1.53,1.53,0,0,0-.71-.21,10.69,10.69,0,0,1,2-1.27l.61-.31A8.16,8.16,0,0,0,38.28,85a1.76,1.76,0,0,1,.49-.36,3.33,3.33,0,0,0,1.27-1c.3-.38.57-.78.83-1.17a8.52,8.52,0,0,1,1.43-1.78l.12-.08a.6.6,0,0,0,.08.08,2,2,0,0,0,1.07.67l.22,0,.21-.09.38-.16.91-.39a1.39,1.39,0,0,0,.92-.94.94.94,0,0,0-.25-.86c-.8-1-1.65-1.91-2.48-2.82L42,74.46A1.55,1.55,0,0,0,40.82,74h-.17c-.22,0-.4,0-.73-.53-.19-.31-.34-.57-.46-.79a5,5,0,0,0-2.32-2.31l-.31-.22-.14-.1A1.07,1.07,0,0,0,37,69l0-.22-.15-.16-1.89-2c-1.28-1.36-2.6-2.76-3.82-4.15a11.22,11.22,0,0,0-.3-1.41m-.66,29.61v.18l.11.19a1.14,1.14,0,0,0,1,.54l.27,0,.05.06.11.12-2.22,1.72c-.74.57-1.48,1.15-2.26,1.74h-.05a2.73,2.73,0,0,0,.23-.38.91.91,0,0,0-.3-1.19l-.21-.14h-.07c1.12-1,2.22-1.92,3.32-2.82M50.69,46.9a.8.8,0,0,0-.69.44c-1.71.17-2.16.51-2.87,2a5.65,5.65,0,0,0-1.32,2.17,8.7,8.7,0,0,0-.26,2.83,4.41,4.41,0,0,0,1.69,2.68c.23.19.56.12.84.17,1.11,0,1.73.74,2.62,1.27.74-.39,1.31-1.1,2.18-1.2a4.78,4.78,0,0,1,.75-.08c1-.08,1.7-1.39,2.06-2.19a6,6,0,0,0,.05-2.83,5.06,5.06,0,0,0-1.4-2.73A1.38,1.38,0,0,1,54,49a2.62,2.62,0,0,0-2.63-1.59.86.86,0,0,0-.72-.46ZM28.77,58.67a8.27,8.27,0,0,1,1.63,4.11c1.87,2.14,3.89,4.22,5.87,6.36.1.58-.62.35-.52.86s.61.68,1,1c1.81,1.16,1.53,1.13,2.57,2.88.54.84,1,.89,1.38.89h.17a.8.8,0,0,1,.66.24c1.3,1.47,2.66,2.88,3.91,4.38.3.33-.18.54-.43.66l-1.26.53c-.52-.09-.83-.83-1.24-.83a.48.48,0,0,0-.21.06,3.23,3.23,0,0,0-.44.27,20.76,20.76,0,0,0-2.36,3.06,2.7,2.7,0,0,1-1,.81,2.28,2.28,0,0,0-.72.52,10.11,10.11,0,0,1-2.84,1.79,17.1,17.1,0,0,0-3.21,2.27,100.57,100.57,0,0,0-7.86,6.72H24a1.7,1.7,0,0,0,.63-.14,10.25,10.25,0,0,0,1.51-.68,1.29,1.29,0,0,1,.53-.18h0a.16.16,0,0,1,.06.23,2.57,2.57,0,0,1-.79.92c-.1.34.23.54.52.56h.82a.62.62,0,0,0,.41-.16c2.17-1.69,4.36-3.34,6.51-5a4.18,4.18,0,0,0-.76-.08,1.92,1.92,0,0,0-1.29.46c-.15-.17-.2-.34-.41-.34h-.1c-.11,0-.25,0-.37,0a.42.42,0,0,1-.38-.18c0-.14.11-.2.2-.27A17.53,17.53,0,0,0,33.05,89a.34.34,0,0,1,.24-.09c.26,0,.49.26.76.26a.43.43,0,0,0,.25-.08c.67-.35,1.31-.76,2-1.14a1.37,1.37,0,0,1,.55-.21.32.32,0,0,1,.22.08A.21.21,0,0,1,37,88l-.59.73h.13c1.49,0,3.18-1.82,4.43-2.58a5.87,5.87,0,0,1,2.43-1.08,2,2,0,0,0,.79-.4c.84-.6,1.66-1.23,2.54-1.78a.6.6,0,0,1,.36-.12h0a4.35,4.35,0,0,1,.14,1.61c-.05,1.82-.35,3.62-.45,5.44.33.06.74.08.66.51,0,.23,0,.46-.08.69s.29.5.45.74l0,0c.18,2.75,0,5.54.35,8.28.92-1.64.86-3.61.78-5.43a.45.45,0,0,1,.06-.33c.22.05.39.3.6.3a.25.25,0,0,0,.16-.05,61,61,0,0,0,.36-6.76,1.46,1.46,0,0,0,1,.42.64.64,0,0,0,.58-.32c.43-.58-.13-2.22.79-2.33,3.41,3,6.74,6.21,10.08,9.33a1.16,1.16,0,0,0,.56.32.61.61,0,0,1,.48.46c.12.34.13,1,.56,1l.14,0c.12-.37.2-1.37.67-1.37a.51.51,0,0,1,.3.11A4.09,4.09,0,0,0,67,96a.81.81,0,0,0,.49-.15L61.67,89c.45-.4.45-.4.5-.67a2.19,2.19,0,0,0-.39-.61A36.6,36.6,0,0,0,58,83.69a.4.4,0,0,0-.24-.09c-.31,0-.64.39-.86.58-1.61-1.54-3.21-3.06-4.77-4.65C54,78.18,56,77,57.84,75.7c.22.15.42.34.63.5a.69.69,0,0,0,.39.11.86.86,0,0,0,.86-.64c0-.17.05-.35.08-.53a1.71,1.71,0,0,1,.66-1.2,110.63,110.63,0,0,0,11.59-8.27,11.5,11.5,0,0,1-1.16.14c-.3,0-.53-.06-.5-.27a2.63,2.63,0,0,1,.62-.76,28.71,28.71,0,0,0,2.45-2.36c-2.18,1.13-4.26,2.51-6.37,3.79a.43.43,0,0,1-.21.09c-.22,0-.22-.41-.45-.55-2.45,1.72-4.72,3.73-7.27,5.31a5.32,5.32,0,0,1-1.5.72.64.64,0,0,1-.27.12.28.28,0,0,1-.13,0,.8.8,0,0,0-.3-.06,3,3,0,0,0-1.25.5c-.75.46-.27.93-.71,1.25a22.94,22.94,0,0,1-3.3,2c-.07-1.32-.13-2.63-.21-4l-.85.15c0-.42-.09-.82-.13-1.24h-.22a.81.81,0,0,1-.8-.34l-.27,0a7.59,7.59,0,0,0-.81.07c-.15,1.74-.3,3.47-.46,5.22a38.36,38.36,0,0,1-3.26-3.49c-.29-.42.36-.6.19-.87l-.18.11-.27,0c-.34-.71-.43-1.51-.71-2.24a.63.63,0,0,0-.25-.37c-.39.08-.44.53-.81.61a1,1,0,0,1-.24,0A.63.63,0,0,1,42,69c-.77-.66-1.52-1.36-2.29-2a3.73,3.73,0,0,0-1-.64,1.54,1.54,0,0,1-.57-.36c-.36-.33-.72-.67-1.06-1-1.2-1.19-2.34-2.44-3.61-3.56a.45.45,0,0,0-.31-.13l-.18,0c-.41.07-.27.48-.22.77a4.79,4.79,0,0,1-.72-.77c-.93-1-1.85-2.26-3.26-2.61Z" style="fill:#4e5820"/></svg>