<?xml version="1.0" encoding="utf-8"?>
<svg viewBox="34.7354 31.3251 997.8111 350.5496" xmlns="http://www.w3.org/2000/svg">
  <g transform="matrix(0.6666669845581055, 0, 0, 0.6666669845581055, 33.640686035156236, 31.26647186279297)">
    <svg viewBox="0 0 396 139"  preserveAspectRatio="xMidYMid meet" height="526" width="1500" xmlns="http://www.w3.org/2000/svg" transform="matrix(1, 0, 0, 1.715739369392395, -294.9505920410156, -538.4692840576172)" style="">
      <g id="tight-bounds" transform="matrix(1,0,0,1,0.2400000000000091,0.023233996100771037)">
        <svg viewBox="0 0 395.52 138.9535320077985" height="138.9535320077985" width="395.52">
          <g>
            <svg viewBox="0 0 636.8120506943817 223.72391704367305" height="138.9535320077985" width="395.52">
              <g transform="matrix(1,0,0,1,0,30.919875655095197)">
                <svg viewBox="0 0 395.5199999999999 161.88416573348266" height="161.88416573348266" width="395.5199999999999">
                  <g id="textblocktransform">
                    <svg viewBox="0 0 395.5199999999999 161.88416573348266" height="161.88416573348266" width="395.5199999999999" id="textblock">
                      <g>
                        <svg viewBox="0 0 395.5199999999999 161.88416573348266" height="161.88416573348266" width="395.5199999999999">
                          <g transform="matrix(1,0,0,1,0,0)">
                            <svg width="395.5199999999999" viewBox="2.1 -32.54999999999999 178.6 69.25" height="161.88416573348266" data-palette-color="#252525">
                              <svg/>
                              <svg/>
                              <g class="wordmark-text-0" data-fill-palette-color="primary" id="text-0">
                                <path d="M3.05 0.15v0c-0.333 0-0.567-0.117-0.7-0.35-0.133-0.233-0.2-0.483-0.2-0.75v0c0.033-0.567 0.167-0.883 0.4-0.95 0.233-0.067 0.517-0.1 0.85-0.1v0c1.067 0 1.817-0.193 2.25-0.58 0.433-0.38 0.71-0.863 0.83-1.45 0.113-0.58 0.17-1.187 0.17-1.82v0-19.8c0-0.633-0.057-1.25-0.17-1.85-0.12-0.6-0.397-1.093-0.83-1.48-0.433-0.38-1.183-0.57-2.25-0.57v0c-0.333 0-0.617-0.033-0.85-0.1-0.233-0.067-0.367-0.383-0.4-0.95v0c0-0.267 0.067-0.517 0.2-0.75 0.133-0.233 0.367-0.35 0.7-0.35v0c1.067 0.033 2.077 0.067 3.03 0.1 0.947 0.033 1.92 0.05 2.92 0.05v0h8.6c2.7 0.033 4.893 0.45 6.58 1.25 1.68 0.8 2.903 1.817 3.67 3.05 0.767 1.233 1.15 2.517 1.15 3.85v0c0 1.767-0.707 3.433-2.12 5-1.42 1.567-3.413 2.683-5.98 3.35v0c1.267 2 2.55 4.007 3.85 6.02 1.3 2.02 2.8 3.913 4.5 5.68v0c0.467 0.367 0.927 0.667 1.38 0.9 0.447 0.233 0.987 0.383 1.62 0.45v0c0.267 0.033 0.533 0.073 0.8 0.12 0.267 0.053 0.417 0.363 0.45 0.93v0c0 0.267-0.067 0.517-0.2 0.75-0.133 0.233-0.367 0.35-0.7 0.35v0c-0.7-0.033-1.257-0.057-1.67-0.07-0.42-0.02-0.83-0.037-1.23-0.05-0.4-0.02-0.933-0.03-1.6-0.03v0c-1.367-0.267-2.523-0.75-3.47-1.45-0.953-0.7-1.88-1.667-2.78-2.9v0c-0.933-1.267-1.8-2.55-2.6-3.85-0.8-1.3-1.583-2.567-2.35-3.8v0c-0.433-0.7-0.873-1.21-1.32-1.53-0.453-0.313-1.297-0.47-2.53-0.47v0h-1.45v8.15c0.033 0.633 0.1 1.24 0.2 1.82 0.1 0.587 0.377 1.07 0.83 1.45 0.447 0.387 1.187 0.58 2.22 0.58v0c0.333 0 0.617 0.033 0.85 0.1 0.233 0.067 0.367 0.383 0.4 0.95v0c0 0.267-0.067 0.517-0.2 0.75-0.133 0.233-0.367 0.35-0.7 0.35v0c-2.133-0.1-4.217-0.15-6.25-0.15v0c-1 0-1.967 0.01-2.9 0.03-0.933 0.013-1.933 0.053-3 0.12zM11.6-25.55v9.6h4.4c1.7 0 3.043-0.233 4.03-0.7 0.98-0.467 1.72-1.067 2.22-1.8 0.5-0.733 0.827-1.5 0.98-2.3 0.147-0.8 0.22-1.533 0.22-2.2v0c0-1.1-0.24-2.167-0.72-3.2-0.487-1.033-1.337-1.883-2.55-2.55-1.22-0.667-2.913-1-5.08-1v0c-1.433 0-2.373 0.273-2.82 0.82-0.453 0.553-0.68 1.663-0.68 3.33zM51.05 1v0c-2.433 0-4.633-0.45-6.6-1.35-1.967-0.9-3.65-2.117-5.05-3.65-1.4-1.533-2.467-3.273-3.2-5.22-0.733-1.953-1.1-3.997-1.1-6.13v0c0-2.767 0.477-5.217 1.43-7.35 0.947-2.133 2.203-3.933 3.77-5.4 1.567-1.467 3.293-2.577 5.18-3.33 1.88-0.747 3.737-1.12 5.57-1.12v0c2.5 0 4.743 0.45 6.73 1.35 1.98 0.9 3.67 2.117 5.07 3.65 1.4 1.533 2.467 3.273 3.2 5.22 0.733 1.953 1.1 3.98 1.1 6.08v0c0 2.767-0.483 5.217-1.45 7.35-0.967 2.133-2.25 3.933-3.85 5.4-1.6 1.467-3.34 2.583-5.22 3.35-1.887 0.767-3.747 1.15-5.58 1.15zM51-1.2v0c2.367 0 4.3-0.7 5.8-2.1 1.5-1.4 2.61-3.243 3.33-5.53 0.713-2.28 1.07-4.753 1.07-7.42v0c0-2.5-0.373-4.827-1.12-6.98-0.753-2.147-1.88-3.88-3.38-5.2-1.5-1.313-3.4-1.97-5.7-1.97v0c-2.333 0-4.24 0.69-5.72 2.07-1.487 1.387-2.58 3.203-3.28 5.45-0.7 2.253-1.05 4.713-1.05 7.38v0c0 2.5 0.36 4.843 1.08 7.03 0.713 2.18 1.82 3.937 3.32 5.27 1.5 1.333 3.383 2 5.65 2zM71.9 0.15v0c-0.3 0-0.517-0.117-0.65-0.35-0.133-0.233-0.2-0.483-0.2-0.75v0c0.033-0.567 0.167-0.883 0.4-0.95 0.233-0.067 0.517-0.1 0.85-0.1v0c1.067 0 1.817-0.193 2.25-0.58 0.433-0.38 0.71-0.863 0.83-1.45 0.113-0.58 0.17-1.187 0.17-1.82v0-19.85c0-0.633-0.057-1.243-0.17-1.83-0.12-0.58-0.397-1.063-0.83-1.45-0.433-0.38-1.183-0.57-2.25-0.57v0c-0.333 0-0.617-0.033-0.85-0.1-0.233-0.067-0.367-0.383-0.4-0.95v0c0-0.267 0.067-0.517 0.2-0.75 0.133-0.233 0.35-0.35 0.65-0.35v0c1.1 0.033 2.117 0.067 3.05 0.1 0.933 0.033 1.9 0.05 2.9 0.05v0c2.033 0 4.117-0.05 6.25-0.15v0c0.333 0 0.567 0.117 0.7 0.35 0.133 0.233 0.2 0.483 0.2 0.75v0c-0.033 0.567-0.167 0.883-0.4 0.95-0.233 0.067-0.517 0.1-0.85 0.1v0c-1.033 0-1.773 0.19-2.22 0.57-0.453 0.387-0.73 0.87-0.83 1.45-0.1 0.587-0.167 1.197-0.2 1.83v0 20.6c0.033 0.433 0.1 0.9 0.2 1.4 0.1 0.5 0.393 0.917 0.88 1.25 0.48 0.333 1.287 0.483 2.42 0.45v0h4.5c1.167-0.033 2.06-0.227 2.68-0.58 0.613-0.347 1.103-0.937 1.47-1.77 0.367-0.833 0.767-1.983 1.2-3.45v0c0.133-0.333 0.36-0.55 0.68-0.65 0.313-0.1 0.653-0.117 1.02-0.05v0c0.267 0.033 0.543 0.15 0.83 0.35 0.28 0.2 0.403 0.467 0.37 0.8v0l-1 6.3c-0.1 0.467-0.257 0.757-0.47 0.87-0.22 0.12-0.547 0.18-0.98 0.18v0h-16.4c-1 0-1.973 0.01-2.92 0.03-0.953 0.013-1.98 0.053-3.08 0.12zM100.45 0.15v0c-0.3 0-0.517-0.117-0.65-0.35-0.133-0.233-0.2-0.483-0.2-0.75v0c0.033-0.567 0.167-0.883 0.4-0.95 0.233-0.067 0.517-0.1 0.85-0.1v0c1.067 0 1.817-0.193 2.25-0.58 0.433-0.38 0.707-0.863 0.82-1.45 0.12-0.58 0.18-1.187 0.18-1.82v0-19.85c0-0.633-0.06-1.243-0.18-1.83-0.113-0.58-0.387-1.063-0.82-1.45-0.433-0.38-1.183-0.57-2.25-0.57v0c-0.333 0-0.617-0.033-0.85-0.1-0.233-0.067-0.367-0.383-0.4-0.95v0c0-0.267 0.067-0.517 0.2-0.75 0.133-0.233 0.35-0.35 0.65-0.35v0c1.1 0.033 2.117 0.067 3.05 0.1 0.933 0.033 1.9 0.05 2.9 0.05v0h15.7c0.367 0 0.677 0.083 0.93 0.25 0.247 0.167 0.37 0.483 0.37 0.95v0l0.15 7c0 0.333-0.157 0.583-0.47 0.75-0.32 0.167-0.613 0.25-0.88 0.25v0c-0.367 0-0.7-0.077-1-0.23-0.3-0.147-0.483-0.37-0.55-0.67v0c-0.233-1.5-0.507-2.71-0.82-3.63-0.32-0.913-0.787-1.58-1.4-2-0.62-0.413-1.513-0.637-2.68-0.67v0h-6.7v12.7h9.05c0.267 0.033 0.46 0.167 0.58 0.4 0.113 0.233 0.17 0.483 0.17 0.75v0c0 0.233-0.057 0.457-0.17 0.67-0.12 0.22-0.313 0.33-0.58 0.33v0h-9.05v9.45c0.033 0.433 0.1 0.907 0.2 1.42 0.1 0.52 0.393 0.963 0.88 1.33 0.48 0.367 1.287 0.533 2.42 0.5v0h4.6c1.167-0.033 2.06-0.227 2.68-0.58 0.613-0.347 1.103-0.937 1.47-1.77 0.367-0.833 0.767-1.983 1.2-3.45v0c0.133-0.333 0.36-0.55 0.68-0.65 0.313-0.1 0.653-0.117 1.02-0.05v0c0.267 0.033 0.543 0.15 0.83 0.35 0.28 0.2 0.403 0.467 0.37 0.8v0l-1 6.3c-0.1 0.467-0.257 0.757-0.47 0.87-0.22 0.12-0.547 0.18-0.98 0.18v0h-16.5c-1 0-1.973 0.01-2.92 0.03-0.953 0.013-1.98 0.053-3.08 0.12z" fill="#000000" fill-rule="nonzero" stroke="none" stroke-width="1" stroke-linecap="butt" stroke-linejoin="miter" stroke-miterlimit="10" stroke-dasharray="" stroke-dashoffset="0" font-family="none" font-weight="none" font-size="none" text-anchor="none" style="mix-blend-mode: normal" data-fill-palette-color="primary" opacity="1"/>
                                <path transform="translate(0,36.55)" d="M3 0.15v0c-0.3 0-0.523-0.117-0.67-0.35-0.153-0.233-0.23-0.483-0.23-0.75v0c0.033-0.567 0.177-0.883 0.43-0.95 0.247-0.067 0.537-0.1 0.87-0.1v0c1.067 0 1.817-0.193 2.25-0.58 0.433-0.38 0.71-0.863 0.83-1.45 0.113-0.58 0.17-1.187 0.17-1.82v0-19.85c0-0.633-0.057-1.243-0.17-1.83-0.12-0.58-0.397-1.063-0.83-1.45-0.433-0.38-1.183-0.57-2.25-0.57v0c-0.333 0-0.623-0.033-0.87-0.1-0.253-0.067-0.397-0.383-0.43-0.95v0c0-0.267 0.077-0.517 0.23-0.75 0.147-0.233 0.37-0.35 0.67-0.35v0c1.067 0.033 2.083 0.067 3.05 0.1 0.967 0.033 1.95 0.05 2.95 0.05v0h7.5c0.633 0 1.46 0.05 2.48 0.15 1.013 0.1 2.097 0.3 3.25 0.6 1.147 0.3 2.237 0.783 3.27 1.45 1.033 0.667 1.877 1.55 2.53 2.65 0.647 1.1 0.97 2.483 0.97 4.15v0c0 1.567-0.357 2.983-1.07 4.25-0.72 1.267-1.67 2.35-2.85 3.25-1.187 0.9-2.52 1.59-4 2.07-1.487 0.487-2.997 0.73-4.53 0.73v0c-0.733 0-1.533-0.05-2.4-0.15-0.867-0.1-1.733-0.317-2.6-0.65v0 7.2c0.033 0.633 0.1 1.24 0.2 1.82 0.1 0.587 0.377 1.07 0.83 1.45 0.447 0.387 1.187 0.58 2.22 0.58v0c0.367 0 0.667 0.033 0.9 0.1 0.233 0.067 0.367 0.383 0.4 0.95v0c0 0.267-0.073 0.517-0.22 0.75-0.153 0.233-0.38 0.35-0.68 0.35v0c-2.133-0.1-4.217-0.15-6.25-0.15v0c-1 0-1.973 0.01-2.92 0.03-0.953 0.013-1.963 0.053-3.03 0.12zM15.1-14.5v0c0.767 0 1.627-0.127 2.58-0.38 0.947-0.247 1.863-0.663 2.75-1.25 0.88-0.58 1.603-1.38 2.17-2.4 0.567-1.013 0.85-2.303 0.85-3.87v0c0-1.7-0.333-3.043-1-4.03-0.667-0.98-1.49-1.703-2.47-2.17-0.987-0.467-1.963-0.767-2.93-0.9-0.967-0.133-1.75-0.2-2.35-0.2v0c-0.8 0-1.433 0.083-1.9 0.25-0.467 0.167-0.79 0.523-0.97 1.07-0.187 0.553-0.28 1.397-0.28 2.53v0 10.8c0.333 0.133 0.817 0.257 1.45 0.37 0.633 0.12 1.333 0.18 2.1 0.18zM32.85 0.15v0c-0.3 0-0.517-0.117-0.65-0.35-0.133-0.233-0.2-0.483-0.2-0.75v0c0.033-0.567 0.167-0.883 0.4-0.95 0.233-0.067 0.517-0.1 0.85-0.1v0c1.067 0 1.817-0.193 2.25-0.58 0.433-0.38 0.71-0.863 0.83-1.45 0.113-0.58 0.17-1.187 0.17-1.82v0-19.85c0-0.633-0.057-1.243-0.17-1.83-0.12-0.58-0.397-1.063-0.83-1.45-0.433-0.38-1.183-0.57-2.25-0.57v0c-0.333 0-0.617-0.033-0.85-0.1-0.233-0.067-0.367-0.383-0.4-0.95v0c0-0.267 0.067-0.517 0.2-0.75 0.133-0.233 0.35-0.35 0.65-0.35v0c1.1 0.033 2.117 0.067 3.05 0.1 0.933 0.033 1.9 0.05 2.9 0.05v0c2.033 0 4.117-0.05 6.25-0.15v0c0.333 0 0.567 0.117 0.7 0.35 0.133 0.233 0.2 0.483 0.2 0.75v0c-0.033 0.567-0.167 0.883-0.4 0.95-0.233 0.067-0.517 0.1-0.85 0.1v0c-1.033 0-1.773 0.19-2.22 0.57-0.453 0.387-0.73 0.87-0.83 1.45-0.1 0.587-0.167 1.197-0.2 1.83v0 20.6c0.033 0.433 0.1 0.9 0.2 1.4 0.1 0.5 0.393 0.917 0.88 1.25 0.48 0.333 1.287 0.483 2.42 0.45v0h4.5c1.167-0.033 2.06-0.227 2.68-0.58 0.613-0.347 1.103-0.937 1.47-1.77 0.367-0.833 0.767-1.983 1.2-3.45v0c0.133-0.333 0.36-0.55 0.68-0.65 0.313-0.1 0.653-0.117 1.02-0.05v0c0.267 0.033 0.543 0.15 0.83 0.35 0.28 0.2 0.403 0.467 0.37 0.8v0l-1 6.3c-0.1 0.467-0.257 0.757-0.47 0.87-0.22 0.12-0.547 0.18-0.98 0.18v0h-16.4c-1 0-1.973 0.01-2.92 0.03-0.953 0.013-1.98 0.053-3.08 0.12zM58.7 0.15v0c-0.333 0-0.567-0.117-0.7-0.35-0.133-0.233-0.2-0.483-0.2-0.75v0c0.033-0.567 0.167-0.883 0.4-0.95 0.233-0.067 0.517-0.1 0.85-0.1v0c0.9 0 1.583-0.183 2.05-0.55 0.467-0.367 0.843-0.85 1.13-1.45 0.28-0.6 0.553-1.217 0.82-1.85v0l8.75-20.7c0.333-0.8 0.4-1.41 0.2-1.83-0.2-0.413-0.533-0.713-1-0.9-0.467-0.18-0.983-0.32-1.55-0.42v0c-0.5-0.1-0.833-0.193-1-0.28-0.167-0.08-0.25-0.37-0.25-0.87v0c0-0.567 0.2-0.877 0.6-0.93 0.4-0.047 0.867-0.07 1.4-0.07v0c1.367 0 2.533 0.133 3.5 0.4 0.967 0.267 1.8 0.773 2.5 1.52 0.7 0.753 1.35 1.88 1.95 3.38v0l8.4 20.7c0.233 0.567 0.483 1.15 0.75 1.75 0.267 0.6 0.627 1.09 1.08 1.47 0.447 0.387 1.02 0.597 1.72 0.63v0c0.367 0 0.66 0.033 0.88 0.1 0.213 0.067 0.337 0.383 0.37 0.95v0c0 0.267-0.073 0.517-0.22 0.75-0.153 0.233-0.38 0.35-0.68 0.35v0c-1.067-0.067-2-0.107-2.8-0.12-0.8-0.02-1.7-0.03-2.7-0.03v0c-1.967 0-4.033 0.05-6.2 0.15v0c-0.333 0-0.567-0.117-0.7-0.35-0.133-0.233-0.2-0.483-0.2-0.75v0c0.033-0.567 0.167-0.883 0.4-0.95 0.233-0.067 0.517-0.1 0.85-0.1v0c1.633 0 2.527-0.3 2.68-0.9 0.147-0.6-0.013-1.583-0.48-2.95v0l-1.7-4.15h-12.35c-0.5 1.267-0.857 2.183-1.07 2.75-0.22 0.567-0.353 0.933-0.4 1.1-0.053 0.167-0.097 0.267-0.13 0.3v0c-0.367 1.133-0.557 1.973-0.57 2.52-0.02 0.553 0.247 0.913 0.8 1.08 0.547 0.167 1.47 0.25 2.77 0.25v0c0.367 0 0.66 0.033 0.88 0.1 0.213 0.067 0.337 0.383 0.37 0.95v0c0 0.267-0.073 0.517-0.22 0.75-0.153 0.233-0.38 0.35-0.68 0.35v0c-1.067-0.067-1.99-0.107-2.77-0.12-0.787-0.02-1.68-0.03-2.68-0.03v0c-0.667 0-1.223 0.01-1.67 0.03-0.453 0.013-0.913 0.03-1.38 0.05-0.467 0.013-1.067 0.037-1.8 0.07zM73.5-25l-5.3 12.85h10.5l-5.05-12.85zM96.5 0.15v0c-0.333 0-0.567-0.117-0.7-0.35-0.133-0.233-0.2-0.483-0.2-0.75v0c0.033-0.567 0.167-0.883 0.4-0.95 0.233-0.067 0.517-0.1 0.85-0.1v0c1.067 0 1.817-0.193 2.25-0.58 0.433-0.38 0.71-0.863 0.83-1.45 0.113-0.58 0.17-1.187 0.17-1.82v0-6.25c0-0.233-0.173-0.777-0.52-1.63-0.353-0.847-0.803-1.837-1.35-2.97-0.553-1.133-1.13-2.3-1.73-3.5-0.6-1.2-1.157-2.293-1.67-3.28-0.52-0.98-0.93-1.737-1.23-2.27v0c-0.7-1.267-1.467-2.177-2.3-2.73-0.833-0.547-1.783-0.937-2.85-1.17v0c-0.467-0.1-0.79-0.183-0.97-0.25-0.187-0.067-0.28-0.367-0.28-0.9v0c0-0.567 0.2-0.877 0.6-0.93 0.4-0.047 0.867-0.07 1.4-0.07v0c2.367 0 4.277 0.367 5.73 1.1 1.447 0.733 2.737 2.1 3.87 4.1v0c0.967 1.8 1.843 3.55 2.63 5.25 0.78 1.7 1.653 3.433 2.62 5.2v0h0.15l5.55-10.95c0.567-1.133 0.633-1.827 0.2-2.08-0.433-0.247-1.233-0.37-2.4-0.37v0c-0.333 0-0.617-0.033-0.85-0.1-0.233-0.067-0.367-0.383-0.4-0.95v0c0-0.267 0.067-0.517 0.2-0.75 0.133-0.233 0.35-0.35 0.65-0.35v0c1.067 0.033 1.993 0.067 2.78 0.1 0.78 0.033 1.67 0.05 2.67 0.05v0c1 0 1.827-0.017 2.48-0.05 0.647-0.033 1.503-0.067 2.57-0.1v0c0.333 0 0.567 0.117 0.7 0.35 0.133 0.233 0.2 0.483 0.2 0.75v0c-0.033 0.567-0.157 0.883-0.37 0.95-0.22 0.067-0.513 0.1-0.88 0.1v0c-1.267 0-2.3 0.273-3.1 0.82-0.8 0.553-1.517 1.413-2.15 2.58v0l-5.65 10.65c-0.3 0.633-0.55 1.167-0.75 1.6-0.2 0.433-0.35 0.883-0.45 1.35-0.1 0.467-0.15 1.083-0.15 1.85v0 4.85c0.033 0.633 0.1 1.24 0.2 1.82 0.1 0.587 0.377 1.07 0.83 1.45 0.447 0.387 1.187 0.58 2.22 0.58v0c0.367 0 0.66 0.033 0.88 0.1 0.213 0.067 0.337 0.383 0.37 0.95v0c0 0.267-0.067 0.517-0.2 0.75-0.133 0.233-0.35 0.35-0.65 0.35v0c-1.067-0.067-2.083-0.107-3.05-0.12-0.967-0.02-1.95-0.03-2.95-0.03v0c-1.967 0-4.033 0.05-6.2 0.15zM120.5 0.15v0c-0.3 0-0.517-0.117-0.65-0.35-0.133-0.233-0.2-0.483-0.2-0.75v0c0.033-0.567 0.167-0.883 0.4-0.95 0.233-0.067 0.517-0.1 0.85-0.1v0c1.067 0 1.817-0.193 2.25-0.58 0.433-0.38 0.71-0.863 0.83-1.45 0.113-0.58 0.17-1.187 0.17-1.82v0-19.85c0-0.633-0.057-1.243-0.17-1.83-0.12-0.58-0.397-1.063-0.83-1.45-0.433-0.38-1.183-0.57-2.25-0.57v0c-0.333 0-0.617-0.033-0.85-0.1-0.233-0.067-0.367-0.383-0.4-0.95v0c0-0.267 0.067-0.517 0.2-0.75 0.133-0.233 0.35-0.35 0.65-0.35v0c1.1 0.033 2.117 0.067 3.05 0.1 0.933 0.033 1.9 0.05 2.9 0.05v0h15.7c0.367 0 0.677 0.083 0.93 0.25 0.247 0.167 0.37 0.483 0.37 0.95v0l0.15 7c0 0.333-0.157 0.583-0.47 0.75-0.32 0.167-0.613 0.25-0.88 0.25v0c-0.367 0-0.7-0.077-1-0.23-0.3-0.147-0.483-0.37-0.55-0.67v0c-0.233-1.5-0.507-2.71-0.82-3.63-0.32-0.913-0.787-1.58-1.4-2-0.62-0.413-1.513-0.637-2.68-0.67v0h-6.7v12.7h9.05c0.267 0.033 0.46 0.167 0.58 0.4 0.113 0.233 0.17 0.483 0.17 0.75v0c0 0.233-0.057 0.457-0.17 0.67-0.12 0.22-0.313 0.33-0.58 0.33v0h-9.05v9.45c0.033 0.433 0.1 0.907 0.2 1.42 0.1 0.52 0.393 0.963 0.88 1.33 0.48 0.367 1.287 0.533 2.42 0.5v0h4.6c1.167-0.033 2.06-0.227 2.68-0.58 0.613-0.347 1.103-0.937 1.47-1.77 0.367-0.833 0.767-1.983 1.2-3.45v0c0.133-0.333 0.36-0.55 0.68-0.65 0.313-0.1 0.653-0.117 1.02-0.05v0c0.267 0.033 0.543 0.15 0.83 0.35 0.28 0.2 0.403 0.467 0.37 0.8v0l-1 6.3c-0.1 0.467-0.257 0.757-0.47 0.87-0.22 0.12-0.547 0.18-0.98 0.18v0h-16.5c-1 0-1.973 0.01-2.92 0.03-0.953 0.013-1.98 0.053-3.08 0.12zM150.25 0.15v0c-0.333 0-0.567-0.117-0.7-0.35-0.133-0.233-0.2-0.483-0.2-0.75v0c0.033-0.567 0.167-0.883 0.4-0.95 0.233-0.067 0.517-0.1 0.85-0.1v0c1.067 0 1.817-0.193 2.25-0.58 0.433-0.38 0.71-0.863 0.83-1.45 0.113-0.58 0.17-1.187 0.17-1.82v0-19.8c0-0.633-0.057-1.25-0.17-1.85-0.12-0.6-0.397-1.093-0.83-1.48-0.433-0.38-1.183-0.57-2.25-0.57v0c-0.333 0-0.617-0.033-0.85-0.1-0.233-0.067-0.367-0.383-0.4-0.95v0c0-0.267 0.067-0.517 0.2-0.75 0.133-0.233 0.367-0.35 0.7-0.35v0c1.067 0.033 2.077 0.067 3.03 0.1 0.947 0.033 1.92 0.05 2.92 0.05v0h8.6c2.7 0.033 4.893 0.45 6.58 1.25 1.68 0.8 2.903 1.817 3.67 3.05 0.767 1.233 1.15 2.517 1.15 3.85v0c0 1.767-0.707 3.433-2.12 5-1.42 1.567-3.413 2.683-5.98 3.35v0c1.267 2 2.55 4.007 3.85 6.02 1.3 2.02 2.8 3.913 4.5 5.68v0c0.467 0.367 0.927 0.667 1.38 0.9 0.447 0.233 0.987 0.383 1.62 0.45v0c0.267 0.033 0.533 0.073 0.8 0.12 0.267 0.053 0.417 0.363 0.45 0.93v0c0 0.267-0.067 0.517-0.2 0.75-0.133 0.233-0.367 0.35-0.7 0.35v0c-0.7-0.033-1.257-0.057-1.67-0.07-0.42-0.02-0.83-0.037-1.23-0.05-0.4-0.02-0.933-0.03-1.6-0.03v0c-1.367-0.267-2.523-0.75-3.47-1.45-0.953-0.7-1.88-1.667-2.78-2.9v0c-0.933-1.267-1.8-2.55-2.6-3.85-0.8-1.3-1.583-2.567-2.35-3.8v0c-0.433-0.7-0.873-1.21-1.32-1.53-0.453-0.313-1.297-0.47-2.53-0.47v0h-1.45v8.15c0.033 0.633 0.1 1.24 0.2 1.82 0.1 0.587 0.377 1.07 0.83 1.45 0.447 0.387 1.187 0.58 2.22 0.58v0c0.333 0 0.617 0.033 0.85 0.1 0.233 0.067 0.367 0.383 0.4 0.95v0c0 0.267-0.067 0.517-0.2 0.75-0.133 0.233-0.367 0.35-0.7 0.35v0c-2.133-0.1-4.217-0.15-6.25-0.15v0c-1 0-1.967 0.01-2.9 0.03-0.933 0.013-1.933 0.053-3 0.12zM158.8-25.55v9.6h4.4c1.7 0 3.043-0.233 4.03-0.7 0.98-0.467 1.72-1.067 2.22-1.8 0.5-0.733 0.827-1.5 0.98-2.3 0.147-0.8 0.22-1.533 0.22-2.2v0c0-1.1-0.24-2.167-0.72-3.2-0.487-1.033-1.337-1.883-2.55-2.55-1.22-0.667-2.913-1-5.08-1v0c-1.433 0-2.373 0.273-2.82 0.82-0.453 0.553-0.68 1.663-0.68 3.33z" fill="#000000" fill-rule="nonzero" stroke="none" stroke-width="1" stroke-linecap="butt" stroke-linejoin="miter" stroke-miterlimit="10" stroke-dasharray="" stroke-dashoffset="0" font-family="none" font-weight="none" font-size="none" text-anchor="none" style="mix-blend-mode: normal" data-fill-palette-color="primary" opacity="1"/>
                              </g>
                            </svg>
                          </g>
                        </svg>
                      </g>
                    </svg>
                  </g>
                </svg>
              </g>
              <g transform="matrix(1,0,0,1,413.0600714047928,0)">
                <svg viewBox="0 0 223.75197928958892 223.72391704367305" height="223.72391704367305" width="223.75197928958892">
                  <g>
                    <svg xmlns="http://www.w3.org/2000/svg" version="1.1" x="0" y="0" viewBox="2.159 2.165 95.681 95.669" enable-background="new 0 0 100 100" height="223.72391704367305" width="223.75197928958892" class="icon-icon-0" data-fill-palette-color="accent" id="icon-0">
                      <path d="M50.09 72.084l-0.011-19.649H50v0.8l0.01 1.2v0.05l0.069 17.32v0.279H50.09zM50.079 71.805l-0.01-19.37v-2.5l-0.01-22.09v-0.06c0 0-0.01 0.01-0.021 0.03-0.01 0.01-0.02 0.02-0.02 0.03 0 0-0.01 0-0.01 0.01L50 52.385c0 0.029 0 0.05 0 0.05v0.8l0.01 1.2v0.05L50.079 71.805zM50.09 72.084l-0.011-19.649-0.01-24.58c0-0.01-0.01-0.01-0.01-0.01 0-0.01-0.01-0.02-0.021-0.03-0.01-0.02-0.02-0.03-0.02-0.03v0.06l-0.01 22.09v4.55l0.069 17.32v0.279H50.09zM50.039 25.354c0.011 0.01 0.011 0.01 0.021 0.02v-0.02C50.05 25.354 50.05 25.354 50.039 25.354zM50.079 71.805l-0.01-19.37v-2.5l-0.01-22.09v-0.06c0 0-0.01 0.01-0.021 0.03-0.01-0.02-0.02-0.03-0.02-0.03v0.06c0 0-0.01 0-0.01 0.01L50 52.385c0 0.029 0 0.05 0 0.05v0.8l0.01 1.2v0.05L50.079 71.805zM50.02 25.364v0.01c0.01-0.01 0.01-0.01 0.02-0.02C50.029 25.354 50.029 25.364 50.02 25.364zM50.09 72.084l-0.011-19.649-0.01-24.58c0-0.01-0.01-0.01-0.01-0.01v-0.06c0 0-0.01 0.01-0.021 0.03-0.01-0.02-0.02-0.03-0.02-0.03v0.06l-0.01 22.09v4.55l0.069 17.32v0.279H50.09zM50.039 19.604c0.011 0 0.021 0.02 0.03 0.03v-0.08C50.069 19.554 50.06 19.574 50.039 19.604zM50.02 25.364l-0.01-0.01v0.04c0-0.01 0.01-0.01 0.01-0.02 0.01-0.01 0.01-0.01 0.02-0.02C50.029 25.354 50.029 25.364 50.02 25.364zM50.06 25.364c-0.01-0.01-0.01-0.01-0.021-0.01 0.011 0.01 0.011 0.01 0.021 0.02v0.01c0.01 0 0.01 0.01 0.01 0.01v-0.03H50.06zM50.09 72.084l-0.011-19.649-0.01-24.58c0-0.01-0.01-0.01-0.01-0.01v-0.06c0 0-0.01 0.01-0.021 0.03-0.01-0.02-0.02-0.03-0.02-0.03v0.06c0 0-0.01 0-0.01 0.01L50 52.385c0 0.029 0 0.05 0 0.05v0.8l0.01 1.2v0.05l0.069 17.32v0.279H50.09zM50.02 25.364l-0.01-0.01v0.04c0-0.01 0.01-0.01 0.01-0.02 0.01-0.01 0.01-0.01 0.02-0.02C50.029 25.354 50.029 25.364 50.02 25.364zM50.06 25.364c-0.01-0.01-0.01-0.01-0.021-0.01 0.011 0.01 0.011 0.01 0.021 0.02v0.01c0.01 0 0.01 0.01 0.01 0.01v-0.03H50.06zM50.09 72.084l-0.011-19.649-0.01-24.58c0-0.01-0.01-0.01-0.01-0.01v-0.06c0 0-0.01 0.01-0.021 0.03-0.01-0.02-0.02-0.03-0.02-0.03v0.06c0 0-0.01 0-0.01 0.01L50 52.385c0 0.029 0 0.05 0 0.05v0.8l0.01 1.2v0.05l0.069 17.32v0.279H50.09zM50.02 25.364l-0.01-0.01v0.04c0-0.01 0.01-0.01 0.01-0.02 0.01-0.01 0.01-0.01 0.02-0.02C50.029 25.354 50.029 25.364 50.02 25.364zM50.06 25.364v-0.01c-0.01 0-0.01 0-0.021 0 0.011 0.01 0.011 0.01 0.021 0.02v0.01c0.01 0 0.01 0.01 0.01 0.01v-0.03H50.06zM50.09 72.084l-0.011-19.649-0.01-24.58c0-0.01-0.01-0.01-0.01-0.01v-0.06c0 0-0.01 0.01-0.021 0.03-0.01-0.02-0.02-0.03-0.02-0.03v0.06c0 0-0.01 0-0.01 0.01L50 52.385c0 0.029 0 0.05 0 0.05v0.8l0.01 1.2v0.05l0.069 17.32v0.279H50.09zM50.01 19.554v0.08c0.01-0.01 0.02-0.03 0.029-0.03C50.02 19.574 50.01 19.554 50.01 19.554zM50.02 25.364l-0.01-0.01v0.04c0-0.01 0.01-0.01 0.01-0.02 0.01-0.01 0.01-0.01 0.02-0.02C50.029 25.354 50.029 25.364 50.02 25.364zM50.06 25.364v-0.01c-0.01 0-0.01 0-0.021 0 0.011 0.01 0.011 0.01 0.021 0.02v0.01c0.01 0 0.01 0.01 0.01 0.01v-0.03H50.06zM50.09 72.084l-0.011-19.649-0.01-24.58c0-0.01-0.01-0.01-0.01-0.01v-0.06c0 0-0.01 0.01-0.021 0.03-0.01-0.02-0.02-0.03-0.02-0.03v0.06c0 0-0.01 0-0.01 0.01L50 52.385c0 0.029 0 0.05 0 0.05v0.8l0.01 1.2v0.05l0.069 17.32v0.279H50.09zM50.02 25.364l-0.01-0.01v0.04c0-0.01 0.01-0.01 0.01-0.02 0.01-0.01 0.01-0.01 0.02-0.02C50.029 25.354 50.029 25.364 50.02 25.364zM50.06 25.364v-0.01c-0.01 0-0.01 0-0.021 0 0.011 0.01 0.011 0.01 0.021 0.02v0.01c0.01 0 0.01 0.01 0.01 0.01v-0.03H50.06zM50.09 72.084l-0.011-19.649-0.01-24.58c0-0.01-0.01-0.01-0.01-0.01v-0.06c0 0-0.01 0.01-0.021 0.03-0.01-0.02-0.02-0.03-0.02-0.03v0.06c0 0-0.01 0-0.01 0.01L50 52.385c0 0.029 0 0.05 0 0.05v0.8l0.01 1.2v0.05l0.069 17.32v0.279H50.09zM50.039 19.604c0.011 0 0.021 0.02 0.03 0.03v-0.08C50.069 19.554 50.06 19.574 50.039 19.604zM50.01 19.554v0.08c0.01-0.01 0.02-0.03 0.029-0.03C50.02 19.574 50.01 19.554 50.01 19.554zM50.02 25.364l-0.01-0.01v0.04c0-0.01 0.01-0.01 0.01-0.02 0.01-0.01 0.01-0.01 0.02-0.02C50.029 25.354 50.029 25.364 50.02 25.364zM50.06 25.364c-0.01-0.01-0.01-0.01-0.021-0.01 0.011 0.01 0.011 0.01 0.021 0.02v0.01c0.01 0 0.01 0.01 0.01 0.01v-0.03H50.06zM50.09 72.084l-0.011-19.649-0.01-24.58c0-0.01-0.01-0.01-0.01-0.01v-0.06c0 0-0.01 0.01-0.021 0.03-0.01-0.02-0.02-0.03-0.02-0.03v0.06c0 0-0.01 0-0.01 0.01L50 52.385c0 0.029 0 0.05 0 0.05v0.8l0.01 1.2v0.05l0.069 17.32v0.279H50.09zM50.02 25.364l-0.01-0.01v0.04c0-0.01 0.01-0.01 0.01-0.02 0.01-0.01 0.01-0.01 0.02-0.02C50.029 25.354 50.029 25.364 50.02 25.364zM50.06 25.364v-0.01c-0.01 0-0.01 0-0.021 0 0.011 0.01 0.011 0.01 0.021 0.02v0.01c0.01 0 0.01 0.01 0.01 0.01v-0.03H50.06zM50.09 72.084l-0.011-19.649-0.01-24.58c0-0.01-0.01-0.01-0.01-0.01v-0.06c0 0-0.01 0.01-0.021 0.03-0.01-0.02-0.02-0.03-0.02-0.03v0.06c0 0-0.01 0-0.01 0.01L50 52.385c0 0.029 0 0.05 0 0.05v0.8l0.01 1.2v0.05l0.069 17.32v0.279H50.09zM50.039 19.604c0.011 0 0.021 0.02 0.03 0.03v-0.08C50.069 19.554 50.06 19.574 50.039 19.604zM50.01 19.554v0.08c0.01-0.01 0.02-0.03 0.029-0.03C50.02 19.574 50.01 19.554 50.01 19.554zM50.01 19.554v0.08c0.01-0.01 0.02-0.03 0.029-0.03C50.02 19.574 50.01 19.554 50.01 19.554zM50.039 19.604c0.011 0 0.021 0.02 0.03 0.03v-0.08C50.069 19.554 50.06 19.574 50.039 19.604zM50.02 25.364l-0.01-0.01v0.04c0-0.01 0.01-0.01 0.01-0.02 0.01-0.01 0.01-0.01 0.02-0.02C50.029 25.354 50.029 25.364 50.02 25.364zM50.06 25.364v-0.01c-0.01 0-0.01 0-0.021 0 0.011 0.01 0.011 0.01 0.021 0.02v0.01c0.01 0 0.01 0.01 0.01 0.01v-0.03H50.06zM50.09 72.084l-0.011-19.649-0.01-24.58c0-0.01-0.01-0.01-0.01-0.01v-0.06c0 0-0.01 0.01-0.021 0.03-0.01-0.02-0.02-0.03-0.02-0.03v0.06c0 0-0.01 0-0.01 0.01L50 52.385c0 0.029 0 0.05 0 0.05v0.8l0.01 1.2v0.05l0.069 17.32v0.279H50.09zM50.02 25.364l-0.01-0.01v0.04c0-0.01 0.01-0.01 0.01-0.02 0.01-0.01 0.01-0.01 0.02-0.02C50.029 25.354 50.029 25.364 50.02 25.364zM50.06 25.364v-0.01c-0.01 0-0.01 0-0.021 0 0.011 0.01 0.011 0.01 0.021 0.02v0.01c0.01 0 0.01 0.01 0.01 0.01v-0.03H50.06zM50.09 72.084l-0.011-19.649-0.01-24.58c0-0.01-0.01-0.01-0.01-0.01v-0.06c0 0-0.01 0.01-0.021 0.03-0.01-0.02-0.02-0.03-0.02-0.03v0.06c0 0-0.01 0-0.01 0.01L50 52.385c0 0.029 0 0.05 0 0.05v0.8l0.01 1.2v0.05l0.069 17.32v0.279H50.09zM50.039 19.604c0.011 0 0.021 0.02 0.03 0.03v-0.08C50.069 19.554 50.06 19.574 50.039 19.604zM50.01 19.554v0.08c0.01-0.01 0.02-0.03 0.029-0.03C50.02 19.574 50.01 19.554 50.01 19.554zM50.01 19.554v0.08c0.01-0.01 0.02-0.03 0.029-0.03C50.02 19.574 50.01 19.554 50.01 19.554zM50.02 25.364l-0.01-0.01v0.04c0-0.01 0.01-0.01 0.01-0.02 0.01-0.01 0.01-0.01 0.02-0.02C50.029 25.354 50.029 25.364 50.02 25.364zM50.06 25.364v-0.01c-0.01 0-0.01 0-0.021 0 0.011 0.01 0.011 0.01 0.021 0.02v0.01c0.01 0 0.01 0.01 0.01 0.01v-0.03H50.06zM50.039 19.604c0.011 0 0.021 0.02 0.03 0.03v-0.08C50.069 19.554 50.06 19.574 50.039 19.604zM50.09 72.084l-0.011-19.649-0.01-24.58c0-0.01-0.01-0.01-0.01-0.01v-0.06c0 0-0.01 0.01-0.021 0.03-0.01-0.02-0.02-0.03-0.02-0.03v0.06c0 0-0.01 0-0.01 0.01L50 52.385c0 0.029 0 0.05 0 0.05v0.8l0.01 1.2v0.05l0.069 17.32v0.279H50.09zM50.09 72.084l-0.011-19.649-0.01-24.58c0-0.01-0.01-0.01-0.01-0.01v-0.06c0 0-0.01 0.01-0.021 0.03-0.01-0.02-0.02-0.03-0.02-0.03v0.06c0 0-0.01 0-0.01 0.01L50 52.385c0 0.029 0 0.05 0 0.05v0.8l0.01 1.2v0.05l0.069 17.32v0.279H50.09zM50.039 19.604c0.011 0 0.021 0.02 0.03 0.03v-0.08C50.069 19.554 50.06 19.574 50.039 19.604zM50.06 25.364v-0.01c-0.01 0-0.01 0-0.021 0 0.011 0.01 0.011 0.01 0.021 0.02v0.01c0.01 0 0.01 0.01 0.01 0.01v-0.03H50.06zM50.02 25.364l-0.01-0.01v0.04c0-0.01 0.01-0.01 0.01-0.02 0.01-0.01 0.01-0.01 0.02-0.02C50.029 25.354 50.029 25.364 50.02 25.364zM50.01 19.554v0.08c0.01-0.01 0.02-0.03 0.029-0.03C50.02 19.574 50.01 19.554 50.01 19.554zM50.01 19.554v0.08c0.01-0.01 0.02-0.03 0.029-0.03C50.02 19.574 50.01 19.554 50.01 19.554zM50.02 25.364l-0.01-0.01v0.04c0-0.01 0.01-0.01 0.01-0.02 0.01-0.01 0.01-0.01 0.02-0.02C50.029 25.354 50.029 25.364 50.02 25.364zM50.06 25.364v-0.01c-0.01 0-0.01 0-0.021 0 0.011 0.01 0.011 0.01 0.021 0.02v0.01c0.01 0 0.01 0.01 0.01 0.01v-0.03H50.06zM50.039 19.604c0.011 0 0.021 0.02 0.03 0.03v-0.08C50.069 19.554 50.06 19.574 50.039 19.604zM50.09 72.084l-0.011-19.649-0.01-24.58c0-0.01-0.01-0.01-0.01-0.01v-0.06c0 0-0.01 0.01-0.021 0.03-0.01-0.02-0.02-0.03-0.02-0.03v0.06c0 0-0.01 0-0.01 0.01L50 52.385c0 0.029 0 0.05 0 0.05v0.8l0.01 1.2v0.05l0.069 17.32v0.279H50.09zM50.09 72.084l-0.011-19.649-0.01-24.58c0-0.01-0.01-0.01-0.01-0.01v-0.06c0 0-0.01 0.01-0.021 0.03-0.01-0.02-0.02-0.03-0.02-0.03v0.06c0 0-0.01 0-0.01 0.01L50 52.385c0 0.029 0 0.05 0 0.05v0.8l0.01 1.2v0.05l0.069 17.32v0.279H50.09zM50.06 25.364v-0.01c-0.01 0-0.01 0-0.021 0 0.011 0.01 0.011 0.01 0.021 0.02v0.01c0.01 0 0.01 0.01 0.01 0.01v-0.03H50.06zM50.039 19.604c0.011 0 0.021 0.02 0.03 0.03v-0.08C50.069 19.554 50.06 19.574 50.039 19.604zM50.02 25.364l-0.01-0.01v0.04c0-0.01 0.01-0.01 0.01-0.02 0.01-0.01 0.01-0.01 0.02-0.02C50.029 25.354 50.029 25.364 50.02 25.364zM50.01 19.554v0.08c0.01-0.01 0.02-0.03 0.029-0.03C50.02 19.574 50.01 19.554 50.01 19.554zM50.01 19.554v0.08c0.01-0.01 0.02-0.03 0.029-0.03C50.02 19.574 50.01 19.554 50.01 19.554zM50.02 25.364l-0.01-0.01v0.04c0-0.01 0.01-0.01 0.01-0.02 0.01-0.01 0.01-0.01 0.02-0.02C50.029 25.354 50.029 25.364 50.02 25.364zM50.039 19.604c0.011 0 0.021 0.02 0.03 0.03v-0.08C50.069 19.554 50.06 19.574 50.039 19.604zM50.06 25.364v-0.01c-0.01 0-0.01 0-0.021 0 0.011 0.01 0.011 0.01 0.021 0.02v0.01c0.01 0 0.01 0.01 0.01 0.01v-0.03H50.06zM50.09 72.084l-0.011-19.649-0.01-24.58c0-0.01-0.01-0.01-0.01-0.01v-0.06c0 0-0.01 0.01-0.021 0.03-0.01-0.02-0.02-0.03-0.02-0.03v0.06c0 0-0.01 0-0.01 0.01L50 52.385c0 0.029 0 0.05 0 0.05v0.8l0.01 1.2v0.05l0.069 17.32v0.279H50.09zM50.09 72.084l-0.011-19.649-0.01-24.58c0-0.01-0.01-0.01-0.01-0.01v-0.06c0 0-0.01 0.01-0.021 0.03-0.01-0.02-0.02-0.03-0.02-0.03v0.06c0 0-0.01 0-0.01 0.01L50 52.385c0 0.029 0 0.05 0 0.05v0.8l0.01 1.2v0.05l0.069 17.32v0.279H50.09zM50.06 25.364v-0.01c-0.01 0-0.01 0-0.021 0 0.011 0.01 0.011 0.01 0.021 0.02v0.01c0.01 0 0.01 0.01 0.01 0.01v-0.03H50.06zM50.039 19.604c0.011 0 0.021 0.02 0.03 0.03v-0.08C50.069 19.554 50.06 19.574 50.039 19.604zM50.02 25.364l-0.01-0.01v0.04c0-0.01 0.01-0.01 0.01-0.02 0.01-0.01 0.01-0.01 0.02-0.02C50.029 25.354 50.029 25.364 50.02 25.364zM50.01 19.554v0.08c0.01-0.01 0.02-0.03 0.029-0.03C50.02 19.574 50.01 19.554 50.01 19.554zM50.01 19.554v0.08c0.01-0.01 0.02-0.03 0.029-0.03C50.02 19.574 50.01 19.554 50.01 19.554zM50.02 25.364l-0.01-0.01v0.04c0-0.01 0.01-0.01 0.01-0.02 0.01-0.01 0.01-0.01 0.02-0.02C50.029 25.354 50.029 25.364 50.02 25.364zM50.039 19.604c0.011 0 0.021 0.02 0.03 0.03v-0.08C50.069 19.554 50.06 19.574 50.039 19.604zM50.06 25.364v-0.01c-0.01 0-0.01 0-0.021 0 0.011 0.01 0.011 0.01 0.021 0.02v0.01c0.01 0 0.01 0.01 0.01 0.01v-0.03H50.06zM50.09 72.084l-0.011-19.649-0.01-24.58c0-0.01-0.01-0.01-0.01-0.01v-0.06c0 0-0.01 0.01-0.021 0.03-0.01-0.02-0.02-0.03-0.02-0.03v0.06c0 0-0.01 0-0.01 0.01L50 52.385c0 0.029 0 0.05 0 0.05v0.8l0.01 1.2v0.05l0.069 17.32v0.279H50.09zM50.09 72.084l-0.011-19.649-0.01-24.58c0-0.01-0.01-0.01-0.01-0.01v-0.06c0 0-0.01 0.01-0.021 0.03-0.01-0.02-0.02-0.03-0.02-0.03v0.06c0 0-0.01 0-0.01 0.01L50 52.385c0 0.029 0 0.05 0 0.05v0.8l0.01 1.2v0.05l0.069 17.32v0.279H50.09zM50.06 25.364v-0.01c-0.01 0-0.01 0-0.021 0 0.011 0.01 0.011 0.01 0.021 0.02v0.01c0.01 0 0.01 0.01 0.01 0.01v-0.03H50.06zM50.039 19.604c0.011 0 0.021 0.02 0.03 0.03v-0.08C50.069 19.554 50.06 19.574 50.039 19.604zM50.02 25.364l-0.01-0.01v0.04c0-0.01 0.01-0.01 0.01-0.02 0.01-0.01 0.01-0.01 0.02-0.02C50.029 25.354 50.029 25.364 50.02 25.364zM50.01 19.554v0.08c0.01-0.01 0.02-0.03 0.029-0.03C50.02 19.574 50.01 19.554 50.01 19.554zM50.01 19.554v0.08c0.01-0.01 0.02-0.03 0.029-0.03C50.02 19.574 50.01 19.554 50.01 19.554zM50.02 25.364l-0.01-0.01v0.04c0-0.01 0.01-0.01 0.01-0.02 0.01-0.01 0.01-0.01 0.02-0.02C50.029 25.354 50.029 25.364 50.02 25.364zM50.039 19.604c0.011 0 0.021 0.02 0.03 0.03v-0.08C50.069 19.554 50.06 19.574 50.039 19.604zM50.06 25.364v-0.01c-0.01 0-0.01 0-0.021 0 0.011 0.01 0.011 0.01 0.021 0.02v0.01c0.01 0 0.01 0.01 0.01 0.01v-0.03H50.06zM50.09 72.084l-0.011-19.649-0.01-24.58c0-0.01-0.01-0.01-0.01-0.01v-0.06c0 0-0.01 0.01-0.021 0.03-0.01-0.02-0.02-0.03-0.02-0.03v0.06c0 0-0.01 0-0.01 0.01L50 52.385c0 0.029 0 0.05 0 0.05v0.8l0.01 1.2v0.05l0.069 17.32v0.279H50.09zM50.09 72.084l-0.011-19.649-0.01-24.58c0-0.01-0.01-0.01-0.01-0.01v-0.06c0 0-0.01 0.01-0.021 0.03-0.01-0.02-0.02-0.03-0.02-0.03v0.06c0 0-0.01 0-0.01 0.01L50 52.385c0 0.029 0 0.05 0 0.05v0.8l0.01 1.2v0.05l0.069 17.32v0.279H50.09zM50.06 25.384c0.01 0 0.01 0.01 0.01 0.01v-0.03h-0.01v-0.01c-0.01 0-0.01 0-0.021 0 0.011 0.01 0.011 0.01 0.021 0.02V25.384zM50.069 19.554c0 0-0.01 0.02-0.03 0.05 0.011 0 0.021 0.02 0.03 0.03V19.554zM50.039 25.354c-0.01 0-0.01 0.01-0.02 0.01l-0.01-0.01v0.04c0-0.01 0.01-0.01 0.01-0.02C50.029 25.364 50.029 25.364 50.039 25.354zM50.01 19.554v0.08c0.01-0.01 0.02-0.03 0.029-0.03C50.02 19.574 50.01 19.554 50.01 19.554zM50 2.165L2.159 50.004 50 97.834l47.84-47.83L50 2.165zM6.949 50.004L50 6.944l43.06 43.06L50 93.055 6.949 50.004zM50.09 72.084l-0.011-19.649-0.01-24.58c0-0.01-0.01-0.01-0.01-0.01v-0.06c0 0-0.01 0.01-0.021 0.03-0.01-0.02-0.02-0.03-0.02-0.03v0.06c0 0-0.01 0-0.01 0.01L50 52.385c0 0.029 0 0.05 0 0.05v0.8l0.01 1.2v0.05l0.069 17.32v0.279H50.09zM50.06 25.384c0.01 0 0.01 0.01 0.01 0.01v-0.03h-0.01v-0.01c-0.01 0-0.01 0-0.021 0 0.011 0.01 0.011 0.01 0.021 0.02V25.384zM50.069 19.554c0 0-0.01 0.02-0.03 0.05 0.011 0 0.021 0.02 0.03 0.03V19.554zM50.039 25.354c-0.01 0-0.01 0.01-0.02 0.01l-0.01-0.01v0.04c0-0.01 0.01-0.01 0.01-0.02C50.029 25.364 50.029 25.364 50.039 25.354zM50.01 19.554v0.08c0.01-0.01 0.02-0.03 0.029-0.03C50.02 19.574 50.01 19.554 50.01 19.554zM50.01 19.554v0.08c0.01-0.01 0.02-0.03 0.029-0.03C50.02 19.574 50.01 19.554 50.01 19.554zM50.02 25.364l-0.01-0.01v0.04c0-0.01 0.01-0.01 0.01-0.02 0.01-0.01 0.01-0.01 0.02-0.02C50.029 25.354 50.029 25.364 50.02 25.364zM50.039 19.604c0.011 0 0.021 0.02 0.03 0.03v-0.08C50.069 19.554 50.06 19.574 50.039 19.604zM50.06 25.364v-0.01c-0.01 0-0.01 0-0.021 0 0.011 0.01 0.011 0.01 0.021 0.02v0.01c0.01 0 0.01 0.01 0.01 0.01v-0.03H50.06zM50.09 72.084l-0.011-19.649-0.01-24.58c0-0.01-0.01-0.01-0.01-0.01v-0.06c0 0-0.01 0.01-0.021 0.03-0.01-0.02-0.02-0.03-0.02-0.03v0.06c0 0-0.01 0-0.01 0.01L50 52.385c0 0.029 0 0.05 0 0.05v0.8l0.01 1.2v0.05l0.069 17.32v0.279H50.09zM50.09 72.084l-0.011-19.649-0.01-24.58c0-0.01-0.01-0.01-0.01-0.01v-0.06c0 0-0.01 0.01-0.021 0.03-0.01-0.02-0.02-0.03-0.02-0.03v0.06c0 0-0.01 0-0.01 0.01L50 52.385c0 0.029 0 0.05 0 0.05v0.8l0.01 1.2v0.05l0.069 17.32v0.279H50.09zM50.06 25.364v-0.01c-0.01 0-0.01 0-0.021 0 0.011 0.01 0.011 0.01 0.021 0.02v0.01c0.01 0 0.01 0.01 0.01 0.01v-0.03H50.06zM50.039 19.604c0.011 0 0.021 0.02 0.03 0.03v-0.08C50.069 19.554 50.06 19.574 50.039 19.604zM50.02 25.364l-0.01-0.01v0.04c0-0.01 0.01-0.01 0.01-0.02 0.01-0.01 0.01-0.01 0.02-0.02C50.029 25.354 50.029 25.364 50.02 25.364zM50.01 19.554v0.08c0.01-0.01 0.02-0.03 0.029-0.03C50.02 19.574 50.01 19.554 50.01 19.554zM50.01 19.554v0.08c0.01-0.01 0.02-0.03 0.029-0.03C50.02 19.574 50.01 19.554 50.01 19.554zM50.02 25.364l-0.01-0.01v0.04c0-0.01 0.01-0.01 0.01-0.02 0.01-0.01 0.01-0.01 0.02-0.02C50.029 25.354 50.029 25.364 50.02 25.364zM50.039 19.604c0.011 0 0.021 0.02 0.03 0.03v-0.08C50.069 19.554 50.06 19.574 50.039 19.604zM50.06 25.364v-0.01c-0.01 0-0.01 0-0.021 0 0.011 0.01 0.011 0.01 0.021 0.02v0.01c0.01 0 0.01 0.01 0.01 0.01v-0.03H50.06zM50.09 72.084l-0.011-19.649-0.01-24.58c0-0.01-0.01-0.01-0.01-0.01v-0.06c0 0-0.01 0.01-0.021 0.03-0.01-0.02-0.02-0.03-0.02-0.03v0.06c0 0-0.01 0-0.01 0.01L50 52.385c0 0.029 0 0.05 0 0.05v0.8l0.01 1.2v0.05l0.069 17.32v0.279H50.09zM50.09 72.084l-0.011-19.649-0.01-24.58c0-0.01-0.01-0.01-0.01-0.01v-0.06c0 0-0.01 0.01-0.021 0.03-0.01-0.02-0.02-0.03-0.02-0.03v0.06c0 0-0.01 0-0.01 0.01L50 52.385c0 0.029 0 0.05 0 0.05v0.8l0.01 1.2v0.05l0.069 17.32v0.279H50.09zM50.06 25.364v-0.01c-0.01 0-0.01 0-0.021 0 0.011 0.01 0.011 0.01 0.021 0.02v0.01c0.01 0 0.01 0.01 0.01 0.01v-0.03H50.06zM50.039 19.604c0.011 0 0.021 0.02 0.03 0.03v-0.08C50.069 19.554 50.06 19.574 50.039 19.604zM50.02 25.364l-0.01-0.01v0.04c0-0.01 0.01-0.01 0.01-0.02 0.01-0.01 0.01-0.01 0.02-0.02C50.029 25.354 50.029 25.364 50.02 25.364zM50.01 19.554v0.08c0.01-0.01 0.02-0.03 0.029-0.03C50.02 19.574 50.01 19.554 50.01 19.554zM50.01 19.554v0.08c0.01-0.01 0.02-0.03 0.029-0.03C50.02 19.574 50.01 19.554 50.01 19.554zM50.02 25.364l-0.01-0.01v0.04c0-0.01 0.01-0.01 0.01-0.02 0.01-0.01 0.01-0.01 0.02-0.02C50.029 25.354 50.029 25.364 50.02 25.364zM50.039 19.604c0.011 0 0.021 0.02 0.03 0.03v-0.08C50.069 19.554 50.06 19.574 50.039 19.604zM50.06 25.364v-0.01c-0.01 0-0.01 0-0.021 0 0.011 0.01 0.011 0.01 0.021 0.02v0.01c0.01 0 0.01 0.01 0.01 0.01v-0.03H50.06zM50.09 72.084l-0.011-19.649-0.01-24.58c0-0.01-0.01-0.01-0.01-0.01v-0.06c0 0-0.01 0.01-0.021 0.03-0.01-0.02-0.02-0.03-0.02-0.03v0.06c0 0-0.01 0-0.01 0.01L50 52.385c0 0.029 0 0.05 0 0.05v0.8l0.01 1.2v0.05l0.069 17.32v0.279H50.09zM50.09 72.084l-0.011-19.649-0.01-24.58c0-0.01-0.01-0.01-0.01-0.01v-0.06c0 0-0.01 0.01-0.021 0.03-0.01-0.02-0.02-0.03-0.02-0.03v0.06c0 0-0.01 0-0.01 0.01L50 52.385c0 0.029 0 0.05 0 0.05v0.8l0.01 1.2v0.05l0.069 17.32v0.279H50.09zM50.06 25.364v-0.01c-0.01 0-0.01 0-0.021 0 0.011 0.01 0.011 0.01 0.021 0.02v0.01c0.01 0 0.01 0.01 0.01 0.01v-0.03H50.06zM50.039 19.604c0.011 0 0.021 0.02 0.03 0.03v-0.08C50.069 19.554 50.06 19.574 50.039 19.604zM50.02 25.364l-0.01-0.01v0.04c0-0.01 0.01-0.01 0.01-0.02 0.01-0.01 0.01-0.01 0.02-0.02C50.029 25.354 50.029 25.364 50.02 25.364zM50.01 19.554v0.08c0.01-0.01 0.02-0.03 0.029-0.03C50.02 19.574 50.01 19.554 50.01 19.554zM50.01 19.554v0.08c0.01-0.01 0.02-0.03 0.029-0.03C50.02 19.574 50.01 19.554 50.01 19.554zM50.02 25.364l-0.01-0.01v0.04c0-0.01 0.01-0.01 0.01-0.02 0.01-0.01 0.01-0.01 0.02-0.02C50.029 25.354 50.029 25.364 50.02 25.364zM50.06 25.364v-0.01c-0.01 0-0.01 0-0.021 0 0.011 0.01 0.011 0.01 0.021 0.02v0.01c0.01 0 0.01 0.01 0.01 0.01v-0.03H50.06zM50.039 19.604c0.011 0 0.021 0.02 0.03 0.03v-0.08C50.069 19.554 50.06 19.574 50.039 19.604zM50.09 72.084l-0.011-19.649-0.01-24.58c0-0.01-0.01-0.01-0.01-0.01v-0.06c0 0-0.01 0.01-0.021 0.03-0.01-0.02-0.02-0.03-0.02-0.03v0.06c0 0-0.01 0-0.01 0.01L50 52.385c0 0.029 0 0.05 0 0.05v0.8l0.01 1.2v0.05l0.069 17.32v0.279H50.09zM50.09 72.084l-0.011-19.649-0.01-24.58c0-0.01-0.01-0.01-0.01-0.01v-0.06c0 0-0.01 0.01-0.021 0.03-0.01-0.02-0.02-0.03-0.02-0.03v0.06c0 0-0.01 0-0.01 0.01L50 52.385c0 0.029 0 0.05 0 0.05v0.8l0.01 1.2v0.05l0.069 17.32v0.279H50.09zM50.039 19.604c0.011 0 0.021 0.02 0.03 0.03v-0.08C50.069 19.554 50.06 19.574 50.039 19.604zM50.06 25.364v-0.01c-0.01 0-0.01 0-0.021 0 0.011 0.01 0.011 0.01 0.021 0.02v0.01c0.01 0 0.01 0.01 0.01 0.01v-0.03H50.06zM50.02 25.364l-0.01-0.01v0.04c0-0.01 0.01-0.01 0.01-0.02 0.01-0.01 0.01-0.01 0.02-0.02C50.029 25.354 50.029 25.364 50.02 25.364zM50.01 19.554v0.08c0.01-0.01 0.02-0.03 0.029-0.03C50.02 19.574 50.01 19.554 50.01 19.554zM50.01 19.554v0.08c0.01-0.01 0.02-0.03 0.029-0.03C50.02 19.574 50.01 19.554 50.01 19.554zM50.02 25.364l-0.01-0.01v0.04c0-0.01 0.01-0.01 0.01-0.02 0.01-0.01 0.01-0.01 0.02-0.02C50.029 25.354 50.029 25.364 50.02 25.364zM50.06 25.364v-0.01c-0.01 0-0.01 0-0.021 0 0.011 0.01 0.011 0.01 0.021 0.02v0.01c0.01 0 0.01 0.01 0.01 0.01v-0.03H50.06zM50.039 19.604c0.011 0 0.021 0.02 0.03 0.03v-0.08C50.069 19.554 50.06 19.574 50.039 19.604zM50.09 72.084l-0.011-19.649-0.01-24.58c0-0.01-0.01-0.01-0.01-0.01v-0.06c0 0-0.01 0.01-0.021 0.03-0.01-0.02-0.02-0.03-0.02-0.03v0.06c0 0-0.01 0-0.01 0.01L50 52.385c0 0.029 0 0.05 0 0.05v0.8l0.01 1.2v0.05l0.069 17.32v0.279H50.09zM50.02 25.364l-0.01-0.01v0.04c0-0.01 0.01-0.01 0.01-0.02 0.01-0.01 0.01-0.01 0.02-0.02C50.029 25.354 50.029 25.364 50.02 25.364zM50.06 25.364v-0.01c-0.01 0-0.01 0-0.021 0 0.011 0.01 0.011 0.01 0.021 0.02v0.01c0.01 0 0.01 0.01 0.01 0.01v-0.03H50.06zM50.09 72.084l-0.011-19.649-0.01-24.58c0-0.01-0.01-0.01-0.01-0.01v-0.06c0 0-0.01 0.01-0.021 0.03-0.01-0.02-0.02-0.03-0.02-0.03v0.06c0 0-0.01 0-0.01 0.01L50 52.385c0 0.029 0 0.05 0 0.05v0.8l0.01 1.2v0.05l0.069 17.32v0.279H50.09zM50.039 19.604c0.011 0 0.021 0.02 0.03 0.03v-0.08C50.069 19.554 50.06 19.574 50.039 19.604zM50.01 19.554v0.08c0.01-0.01 0.02-0.03 0.029-0.03C50.02 19.574 50.01 19.554 50.01 19.554zM50.01 19.554v0.08c0.01-0.01 0.02-0.03 0.029-0.03C50.02 19.574 50.01 19.554 50.01 19.554zM50.039 19.604c0.011 0 0.021 0.02 0.03 0.03v-0.08C50.069 19.554 50.06 19.574 50.039 19.604zM50.02 25.364l-0.01-0.01v0.04c0-0.01 0.01-0.01 0.01-0.02 0.01-0.01 0.01-0.01 0.02-0.02C50.029 25.354 50.029 25.364 50.02 25.364zM50.06 25.364v-0.01c-0.01 0-0.01 0-0.021 0 0.011 0.01 0.011 0.01 0.021 0.02v0.01c0.01 0 0.01 0.01 0.01 0.01v-0.03H50.06zM50.09 72.084l-0.011-19.649-0.01-24.58c0-0.01-0.01-0.01-0.01-0.01v-0.06c0 0-0.01 0.01-0.021 0.03-0.01-0.02-0.02-0.03-0.02-0.03v0.06c0 0-0.01 0-0.01 0.01L50 52.385c0 0.029 0 0.05 0 0.05v0.8l0.01 1.2v0.05l0.069 17.32v0.279H50.09zM50.02 25.364l-0.01-0.01v0.04c0-0.01 0.01-0.01 0.01-0.02 0.01-0.01 0.01-0.01 0.02-0.02C50.029 25.354 50.029 25.364 50.02 25.364zM50.06 25.364v-0.01c-0.01 0-0.01 0-0.021 0 0.011 0.01 0.011 0.01 0.021 0.02v0.01c0.01 0 0.01 0.01 0.01 0.01v-0.03H50.06zM50.09 72.084l-0.011-19.649-0.01-24.58c0-0.01-0.01-0.01-0.01-0.01v-0.06c0 0-0.01 0.01-0.021 0.03-0.01-0.02-0.02-0.03-0.02-0.03v0.06c0 0-0.01 0-0.01 0.01L50 52.385c0 0.029 0 0.05 0 0.05v0.8l0.01 1.2v0.05l0.069 17.32v0.279H50.09zM50.039 19.604c0.011 0 0.021 0.02 0.03 0.03v-0.08C50.069 19.554 50.06 19.574 50.039 19.604zM50.01 19.554v0.08c0.01-0.01 0.02-0.03 0.029-0.03C50.02 19.574 50.01 19.554 50.01 19.554zM50.02 25.364l-0.01-0.01v0.04c0-0.01 0.01-0.01 0.01-0.02 0.01-0.01 0.01-0.01 0.02-0.02C50.029 25.354 50.029 25.364 50.02 25.364zM50.06 25.364c-0.01-0.01-0.01-0.01-0.021-0.01 0.011 0.01 0.011 0.01 0.021 0.02v0.01c0.01 0 0.01 0.01 0.01 0.01v-0.03H50.06zM50.09 72.084l-0.011-19.649-0.01-24.58c0-0.01-0.01-0.01-0.01-0.01v-0.06c0 0-0.01 0.01-0.021 0.03-0.01-0.02-0.02-0.03-0.02-0.03v0.06c0 0-0.01 0-0.01 0.01L50 52.385c0 0.029 0 0.05 0 0.05v0.8l0.01 1.2v0.05l0.069 17.32v0.279H50.09zM50.02 25.364l-0.01-0.01v0.04c0-0.01 0.01-0.01 0.01-0.02 0.01-0.01 0.01-0.01 0.02-0.02C50.029 25.354 50.029 25.364 50.02 25.364zM50.06 25.364v-0.01c-0.01 0-0.01 0-0.021 0 0.011 0.01 0.011 0.01 0.021 0.02v0.01c0.01 0 0.01 0.01 0.01 0.01v-0.03H50.06zM50.09 72.084l-0.011-19.649-0.01-24.58c0-0.01-0.01-0.01-0.01-0.01v-0.06c0 0-0.01 0.01-0.021 0.03-0.01-0.02-0.02-0.03-0.02-0.03v0.06c0 0-0.01 0-0.01 0.01L50 52.385c0 0.029 0 0.05 0 0.05v0.8l0.01 1.2v0.05l0.069 17.32v0.279H50.09zM50.02 25.364l-0.01-0.01v0.04c0-0.01 0.01-0.01 0.01-0.02 0.01-0.01 0.01-0.01 0.02-0.02C50.029 25.354 50.029 25.364 50.02 25.364zM50.06 25.364v-0.01c-0.01 0-0.01 0-0.021 0 0.011 0.01 0.011 0.01 0.021 0.02v0.01c0.01 0 0.01 0.01 0.01 0.01v-0.03H50.06zM50.09 72.084l-0.011-19.649-0.01-24.58c0-0.01-0.01-0.01-0.01-0.01v-0.06c0 0-0.01 0.01-0.021 0.03-0.01-0.02-0.02-0.03-0.02-0.03v0.06c0 0-0.01 0-0.01 0.01L50 52.385c0 0.029 0 0.05 0 0.05v0.8l0.01 1.2v0.05l0.069 17.32v0.279H50.09zM50.039 19.604c0.011 0 0.021 0.02 0.03 0.03v-0.08C50.069 19.554 50.06 19.574 50.039 19.604zM50.01 19.554v0.08c0.01-0.01 0.02-0.03 0.029-0.03C50.02 19.574 50.01 19.554 50.01 19.554zM50.09 80.324h-0.101c-26.229-0.12-23.26-44.78-23.26-44.78 11.2 0 22.39-14.72 23.28-15.91v3.03c-0.061 0.08-0.181 0.23-0.33 0.44-0.05 0.04-0.08 0.08-0.11 0.14-2.18 2.79-11.35 13.74-20.51 13.74 0 0-2.67 40.18 20.93 40.3v-0.01c0.011 0 0.021 0.01 0.03 0.01s0.01-0.01 0.02-0.01l0.011 0.01c0.02 0 0.029-0.01 0.04-0.01v0.01c23.6-0.12 20.93-40.3 20.93-40.3-10.07 0-20.15-13.24-20.95-14.32v-3.03c0.891 1.19 12.08 15.91 23.28 15.91C73.35 35.544 76.319 80.204 50.09 80.324zM68.92 38.274c-9.04 0-18.08-11.86-18.851-12.88 0 0 0-0.01-0.01-0.01v-0.01c-0.01-0.01-0.01-0.01-0.021-0.02-0.01 0.01-0.01 0.01-0.02 0.02 0 0.01-0.01 0.01-0.01 0.02-0.771 1.02-9.811 12.88-18.851 12.88 0 0-2.399 36.12 18.79 36.27 0.021 0 0.03-0.01 0.04-0.01H50c0.029 0 0.039 0.01 0.069 0.01h0.021C71.319 74.444 68.92 38.274 68.92 38.274zM66.35 52.435H50.079l0.011 19.649h-0.101c-10.85-0.06-14.84-10.569-16.25-19.649H50c0 0 0-0.021 0-0.05l0.01-24.53c0-0.01 0.01-0.01 0.01-0.01v-0.06c0 0 0.01 0.01 0.02 0.03 0.011-0.02 0.021-0.03 0.021-0.03v0.06c0 0 0.01 0 0.01 0.01 0.69 0.93 8.83 11.59 16.96 11.59C67.029 39.444 67.439 45.524 66.35 52.435z" fill="#000000" data-fill-palette-color="accent"/>
                    </svg>
                  </g>
                </svg>
              </g>
            </svg>
          </g>
        </svg>
        <rect width="395.52" height="138.9535320077985" fill="none" stroke="none" visibility="hidden"/>
      </g>
    </svg>
  </g>
</svg>