<?xml version="1.0" encoding="utf-8"?>
<svg viewBox="34.735 33.373 416.27 415.067" xmlns="http://www.w3.org/2000/svg">
  <ellipse style="fill: rgb(67, 65, 65); stroke: rgb(255, 255, 255);" cx="241.5" cy="241.959" rx="197.996" ry="197.448" transform="matrix(1, 0, 0, 1, 0, 5.684341886080802e-14)"/>
  <path d="M 243.264 336.721 L 243.216 251.474 L 242.872 251.474 L 242.872 254.944 L 242.916 260.15 L 242.916 260.367 L 243.216 335.511 L 243.216 336.721 L 243.264 336.721 Z M 243.216 335.511 L 243.172 251.474 L 243.172 240.626 L 243.128 144.787 L 243.128 144.527 C 243.128 144.527 243.086 144.571 243.037 144.657 C 242.994 144.701 242.95 144.743 242.95 144.787 C 242.95 144.787 242.907 144.787 242.907 144.831 L 242.872 251.256 C 242.872 251.382 242.872 251.474 242.872 251.474 L 242.872 254.944 L 242.916 260.15 L 242.916 260.367 L 243.216 335.511 Z M 243.264 336.721 L 243.216 251.474 L 243.172 144.831 C 243.172 144.787 243.128 144.787 243.128 144.787 C 243.128 144.743 243.086 144.701 243.037 144.657 C 242.994 144.571 242.95 144.527 242.95 144.527 L 242.95 144.787 L 242.907 240.626 L 242.907 260.367 L 243.207 335.511 L 243.207 336.721 L 243.264 336.721 Z M 243.042 133.98 C 243.089 134.023 243.089 134.023 243.133 134.067 L 243.133 133.98 C 243.089 133.98 243.089 133.98 243.042 133.98 Z M 243.216 335.511 L 243.172 251.474 L 243.172 240.626 L 243.128 144.787 L 243.128 144.527 C 243.128 144.527 243.086 144.571 243.037 144.657 C 242.994 144.571 242.95 144.527 242.95 144.527 L 242.95 144.787 C 242.95 144.787 242.907 144.787 242.907 144.831 L 242.872 251.256 C 242.872 251.382 242.872 251.474 242.872 251.474 L 242.872 254.944 L 242.916 260.15 L 242.916 260.367 L 243.216 335.511 Z M 242.958 134.023 L 242.958 134.067 C 243.002 134.023 243.002 134.023 243.046 133.98 C 242.998 133.98 242.998 134.023 242.958 134.023 Z M 243.264 336.721 L 243.216 251.474 L 243.172 144.831 C 243.172 144.787 243.128 144.787 243.128 144.787 L 243.128 144.527 C 243.128 144.527 243.086 144.571 243.037 144.657 C 242.994 144.571 242.95 144.527 242.95 144.527 L 242.95 144.787 L 242.907 240.626 L 242.907 260.367 L 243.207 335.511 L 243.207 336.721 L 243.264 336.721 Z M 243.042 109.034 C 243.089 109.034 243.133 109.12 243.172 109.163 L 243.172 108.816 C 243.172 108.816 243.133 108.903 243.042 109.034 Z M 242.958 134.023 L 242.916 133.98 L 242.916 134.153 C 242.916 134.111 242.958 134.111 242.958 134.067 C 243.002 134.023 243.002 134.023 243.046 133.98 C 242.998 133.98 242.998 134.023 242.958 134.023 Z M 243.133 134.023 C 243.089 133.98 243.089 133.98 243.042 133.98 C 243.089 134.023 243.089 134.023 243.133 134.067 L 243.133 134.111 C 243.177 134.111 243.177 134.153 243.177 134.153 L 243.177 134.023 L 243.133 134.023 Z M 243.264 336.721 L 243.216 251.474 L 243.172 144.831 C 243.172 144.787 243.128 144.787 243.128 144.787 L 243.128 144.527 C 243.128 144.527 243.086 144.571 243.037 144.657 C 242.994 144.571 242.95 144.527 242.95 144.527 L 242.95 144.787 C 242.95 144.787 242.907 144.787 242.907 144.831 L 242.872 251.256 C 242.872 251.382 242.872 251.474 242.872 251.474 L 242.872 254.944 L 242.916 260.15 L 242.916 260.367 L 243.216 335.511 L 243.216 336.721 L 243.264 336.721 Z M 242.958 134.023 L 242.916 133.98 L 242.916 134.153 C 242.916 134.111 242.958 134.111 242.958 134.067 C 243.002 134.023 243.002 134.023 243.046 133.98 C 242.998 133.98 242.998 134.023 242.958 134.023 Z M 243.133 134.023 C 243.089 133.98 243.089 133.98 243.042 133.98 C 243.089 134.023 243.089 134.023 243.133 134.067 L 243.133 134.111 C 243.177 134.111 243.177 134.153 243.177 134.153 L 243.177 134.023 L 243.133 134.023 Z M 243.264 336.721 L 243.216 251.474 L 243.172 144.831 C 243.172 144.787 243.128 144.787 243.128 144.787 L 243.128 144.527 C 243.128 144.527 243.086 144.571 243.037 144.657 C 242.994 144.571 242.95 144.527 242.95 144.527 L 242.95 144.787 C 242.95 144.787 242.907 144.787 242.907 144.831 L 242.872 251.256 C 242.872 251.382 242.872 251.474 242.872 251.474 L 242.872 254.944 L 242.916 260.15 L 242.916 260.367 L 243.216 335.511 L 243.216 336.721 L 243.264 336.721 Z M 242.958 134.023 L 242.916 133.98 L 242.916 134.153 C 242.916 134.111 242.958 134.111 242.958 134.067 C 243.002 134.023 243.002 134.023 243.046 133.98 C 242.998 133.98 242.998 134.023 242.958 134.023 Z M 243.133 134.023 L 243.133 133.98 C 243.089 133.98 243.089 133.98 243.042 133.98 C 243.089 134.023 243.089 134.023 243.133 134.067 L 243.133 134.111 C 243.177 134.111 243.177 134.153 243.177 134.153 L 243.177 134.023 L 243.133 134.023 Z M 243.264 336.721 L 243.216 251.474 L 243.172 144.831 C 243.172 144.787 243.128 144.787 243.128 144.787 L 243.128 144.527 C 243.128 144.527 243.086 144.571 243.037 144.657 C 242.994 144.571 242.95 144.527 242.95 144.527 L 242.95 144.787 C 242.95 144.787 242.907 144.787 242.907 144.831 L 242.872 251.256 C 242.872 251.382 242.872 251.474 242.872 251.474 L 242.872 254.944 L 242.916 260.15 L 242.916 260.367 L 243.216 335.511 L 243.216 336.721 L 243.264 336.721 Z M 242.916 108.816 L 242.916 109.163 C 242.958 109.12 243.002 109.034 243.042 109.034 C 242.958 108.903 242.916 108.816 242.916 108.816 Z M 242.958 134.023 L 242.916 133.98 L 242.916 134.153 C 242.916 134.111 242.958 134.111 242.958 134.067 C 243.002 134.023 243.002 134.023 243.046 133.98 C 242.998 133.98 242.998 134.023 242.958 134.023 Z M 243.133 134.023 L 243.133 133.98 C 243.089 133.98 243.089 133.98 243.042 133.98 C 243.089 134.023 243.089 134.023 243.133 134.067 L 243.133 134.111 C 243.177 134.111 243.177 134.153 243.177 134.153 L 243.177 134.023 L 243.133 134.023 Z M 243.264 336.721 L 243.216 251.474 L 243.172 144.831 C 243.172 144.787 243.128 144.787 243.128 144.787 L 243.128 144.527 C 243.128 144.527 243.086 144.571 243.037 144.657 C 242.994 144.571 242.95 144.527 242.95 144.527 L 242.95 144.787 C 242.95 144.787 242.907 144.787 242.907 144.831 L 242.872 251.256 C 242.872 251.382 242.872 251.474 242.872 251.474 L 242.872 254.944 L 242.916 260.15 L 242.916 260.367 L 243.216 335.511 L 243.216 336.721 L 243.264 336.721 Z M 242.958 134.023 L 242.916 133.98 L 242.916 134.153 C 242.916 134.111 242.958 134.111 242.958 134.067 C 243.002 134.023 243.002 134.023 243.046 133.98 C 242.998 133.98 242.998 134.023 242.958 134.023 Z M 243.133 134.023 L 243.133 133.98 C 243.089 133.98 243.089 133.98 243.042 133.98 C 243.089 134.023 243.089 134.023 243.133 134.067 L 243.133 134.111 C 243.177 134.111 243.177 134.153 243.177 134.153 L 243.177 134.023 L 243.133 134.023 Z M 243.264 336.721 L 243.216 251.474 L 243.172 144.831 C 243.172 144.787 243.128 144.787 243.128 144.787 L 243.128 144.527 C 243.128 144.527 243.086 144.571 243.037 144.657 C 242.994 144.571 242.95 144.527 242.95 144.527 L 242.95 144.787 C 242.95 144.787 242.907 144.787 242.907 144.831 L 242.872 251.256 C 242.872 251.382 242.872 251.474 242.872 251.474 L 242.872 254.944 L 242.916 260.15 L 242.916 260.367 L 243.216 335.511 L 243.216 336.721 L 243.264 336.721 Z M 243.042 109.034 C 243.089 109.034 243.133 109.12 243.172 109.163 L 243.172 108.816 C 243.172 108.816 243.133 108.903 243.042 109.034 Z M 242.916 108.816 L 242.916 109.163 C 242.958 109.12 243.002 109.034 243.042 109.034 C 242.958 108.903 242.916 108.816 242.916 108.816 Z M 242.958 134.023 L 242.916 133.98 L 242.916 134.153 C 242.916 134.111 242.958 134.111 242.958 134.067 C 243.002 134.023 243.002 134.023 243.046 133.98 C 242.998 133.98 242.998 134.023 242.958 134.023 Z M 243.133 134.023 C 243.089 133.98 243.089 133.98 243.042 133.98 C 243.089 134.023 243.089 134.023 243.133 134.067 L 243.133 134.111 C 243.177 134.111 243.177 134.153 243.177 134.153 L 243.177 134.023 L 243.133 134.023 Z M 243.264 336.721 L 243.216 251.474 L 243.172 144.831 C 243.172 144.787 243.128 144.787 243.128 144.787 L 243.128 144.527 C 243.128 144.527 243.086 144.571 243.037 144.657 C 242.994 144.571 242.95 144.527 242.95 144.527 L 242.95 144.787 C 242.95 144.787 242.907 144.787 242.907 144.831 L 242.872 251.256 C 242.872 251.382 242.872 251.474 242.872 251.474 L 242.872 254.944 L 242.916 260.15 L 242.916 260.367 L 243.216 335.511 L 243.216 336.721 L 243.264 336.721 Z M 242.958 134.023 L 242.916 133.98 L 242.916 134.153 C 242.916 134.111 242.958 134.111 242.958 134.067 C 243.002 134.023 243.002 134.023 243.046 133.98 C 242.998 133.98 242.998 134.023 242.958 134.023 Z M 243.133 134.023 L 243.133 133.98 C 243.089 133.98 243.089 133.98 243.042 133.98 C 243.089 134.023 243.089 134.023 243.133 134.067 L 243.133 134.111 C 243.177 134.111 243.177 134.153 243.177 134.153 L 243.177 134.023 L 243.133 134.023 Z M 243.264 336.721 L 243.216 251.474 L 243.172 144.831 C 243.172 144.787 243.128 144.787 243.128 144.787 L 243.128 144.527 C 243.128 144.527 243.086 144.571 243.037 144.657 C 242.994 144.571 242.95 144.527 242.95 144.527 L 242.95 144.787 C 242.95 144.787 242.907 144.787 242.907 144.831 L 242.872 251.256 C 242.872 251.382 242.872 251.474 242.872 251.474 L 242.872 254.944 L 242.916 260.15 L 242.916 260.367 L 243.216 335.511 L 243.216 336.721 L 243.264 336.721 Z M 243.042 109.034 C 243.089 109.034 243.133 109.12 243.172 109.163 L 243.172 108.816 C 243.172 108.816 243.133 108.903 243.042 109.034 Z M 242.916 108.816 L 242.916 109.163 C 242.958 109.12 243.002 109.034 243.042 109.034 C 242.958 108.903 242.916 108.816 242.916 108.816 Z M 242.916 108.816 L 242.916 109.163 C 242.958 109.12 243.002 109.034 243.042 109.034 C 242.958 108.903 242.916 108.816 242.916 108.816 Z M 243.042 109.034 C 243.089 109.034 243.133 109.12 243.172 109.163 L 243.172 108.816 C 243.172 108.816 243.133 108.903 243.042 109.034 Z M 242.958 134.023 L 242.916 133.98 L 242.916 134.153 C 242.916 134.111 242.958 134.111 242.958 134.067 C 243.002 134.023 243.002 134.023 243.046 133.98 C 242.998 133.98 242.998 134.023 242.958 134.023 Z M 243.133 134.023 L 243.133 133.98 C 243.089 133.98 243.089 133.98 243.042 133.98 C 243.089 134.023 243.089 134.023 243.133 134.067 L 243.133 134.111 C 243.177 134.111 243.177 134.153 243.177 134.153 L 243.177 134.023 L 243.133 134.023 Z M 243.264 336.721 L 243.216 251.474 L 243.172 144.831 C 243.172 144.787 243.128 144.787 243.128 144.787 L 243.128 144.527 C 243.128 144.527 243.086 144.571 243.037 144.657 C 242.994 144.571 242.95 144.527 242.95 144.527 L 242.95 144.787 C 242.95 144.787 242.907 144.787 242.907 144.831 L 242.872 251.256 C 242.872 251.382 242.872 251.474 242.872 251.474 L 242.872 254.944 L 242.916 260.15 L 242.916 260.367 L 243.216 335.511 L 243.216 336.721 L 243.264 336.721 Z M 242.958 134.023 L 242.916 133.98 L 242.916 134.153 C 242.916 134.111 242.958 134.111 242.958 134.067 C 243.002 134.023 243.002 134.023 243.046 133.98 C 242.998 133.98 242.998 134.023 242.958 134.023 Z M 243.133 134.023 L 243.133 133.98 C 243.089 133.98 243.089 133.98 243.042 133.98 C 243.089 134.023 243.089 134.023 243.133 134.067 L 243.133 134.111 C 243.177 134.111 243.177 134.153 243.177 134.153 L 243.177 134.023 L 243.133 134.023 Z M 243.264 336.721 L 243.216 251.474 L 243.172 144.831 C 243.172 144.787 243.128 144.787 243.128 144.787 L 243.128 144.527 C 243.128 144.527 243.086 144.571 243.037 144.657 C 242.994 144.571 242.95 144.527 242.95 144.527 L 242.95 144.787 C 242.95 144.787 242.907 144.787 242.907 144.831 L 242.872 251.256 C 242.872 251.382 242.872 251.474 242.872 251.474 L 242.872 254.944 L 242.916 260.15 L 242.916 260.367 L 243.216 335.511 L 243.216 336.721 L 243.264 336.721 Z M 243.042 109.034 C 243.089 109.034 243.133 109.12 243.172 109.163 L 243.172 108.816 C 243.172 108.816 243.133 108.903 243.042 109.034 Z M 242.916 108.816 L 242.916 109.163 C 242.958 109.12 243.002 109.034 243.042 109.034 C 242.958 108.903 242.916 108.816 242.916 108.816 Z M 242.916 108.816 L 242.916 109.163 C 242.958 109.12 243.002 109.034 243.042 109.034 C 242.958 108.903 242.916 108.816 242.916 108.816 Z M 242.958 134.023 L 242.916 133.98 L 242.916 134.153 C 242.916 134.111 242.958 134.111 242.958 134.067 C 243.002 134.023 243.002 134.023 243.046 133.98 C 242.998 133.98 242.998 134.023 242.958 134.023 Z M 243.133 134.023 L 243.133 133.98 C 243.089 133.98 243.089 133.98 243.042 133.98 C 243.089 134.023 243.089 134.023 243.133 134.067 L 243.133 134.111 C 243.177 134.111 243.177 134.153 243.177 134.153 L 243.177 134.023 L 243.133 134.023 Z M 243.042 109.034 C 243.089 109.034 243.133 109.12 243.172 109.163 L 243.172 108.816 C 243.172 108.816 243.133 108.903 243.042 109.034 Z M 243.264 336.721 L 243.216 251.474 L 243.172 144.831 C 243.172 144.787 243.128 144.787 243.128 144.787 L 243.128 144.527 C 243.128 144.527 243.086 144.571 243.037 144.657 C 242.994 144.571 242.95 144.527 242.95 144.527 L 242.95 144.787 C 242.95 144.787 242.907 144.787 242.907 144.831 L 242.872 251.256 C 242.872 251.382 242.872 251.474 242.872 251.474 L 242.872 254.944 L 242.916 260.15 L 242.916 260.367 L 243.216 335.511 L 243.216 336.721 L 243.264 336.721 Z M 243.264 336.721 L 243.216 251.474 L 243.172 144.831 C 243.172 144.787 243.128 144.787 243.128 144.787 L 243.128 144.527 C 243.128 144.527 243.086 144.571 243.037 144.657 C 242.994 144.571 242.95 144.527 242.95 144.527 L 242.95 144.787 C 242.95 144.787 242.907 144.787 242.907 144.831 L 242.872 251.256 C 242.872 251.382 242.872 251.474 242.872 251.474 L 242.872 254.944 L 242.916 260.15 L 242.916 260.367 L 243.216 335.511 L 243.216 336.721 L 243.264 336.721 Z M 243.042 109.034 C 243.089 109.034 243.133 109.12 243.172 109.163 L 243.172 108.816 C 243.172 108.816 243.133 108.903 243.042 109.034 Z M 243.133 134.023 L 243.133 133.98 C 243.089 133.98 243.089 133.98 243.042 133.98 C 243.089 134.023 243.089 134.023 243.133 134.067 L 243.133 134.111 C 243.177 134.111 243.177 134.153 243.177 134.153 L 243.177 134.023 L 243.133 134.023 Z M 242.958 134.023 L 242.916 133.98 L 242.916 134.153 C 242.916 134.111 242.958 134.111 242.958 134.067 C 243.002 134.023 243.002 134.023 243.046 133.98 C 242.998 133.98 242.998 134.023 242.958 134.023 Z M 242.916 108.816 L 242.916 109.163 C 242.958 109.12 243.002 109.034 243.042 109.034 C 242.958 108.903 242.916 108.816 242.916 108.816 Z M 242.916 108.816 L 242.916 109.163 C 242.958 109.12 243.002 109.034 243.042 109.034 C 242.958 108.903 242.916 108.816 242.916 108.816 Z M 242.958 134.023 L 242.916 133.98 L 242.916 134.153 C 242.916 134.111 242.958 134.111 242.958 134.067 C 243.002 134.023 243.002 134.023 243.046 133.98 C 242.998 133.98 242.998 134.023 242.958 134.023 Z M 243.133 134.023 L 243.133 133.98 C 243.089 133.98 243.089 133.98 243.042 133.98 C 243.089 134.023 243.089 134.023 243.133 134.067 L 243.133 134.111 C 243.177 134.111 243.177 134.153 243.177 134.153 L 243.177 134.023 L 243.133 134.023 Z M 243.042 109.034 C 243.089 109.034 243.133 109.12 243.172 109.163 L 243.172 108.816 C 243.172 108.816 243.133 108.903 243.042 109.034 Z M 243.264 336.721 L 243.216 251.474 L 243.172 144.831 C 243.172 144.787 243.128 144.787 243.128 144.787 L 243.128 144.527 C 243.128 144.527 243.086 144.571 243.037 144.657 C 242.994 144.571 242.95 144.527 242.95 144.527 L 242.95 144.787 C 242.95 144.787 242.907 144.787 242.907 144.831 L 242.872 251.256 C 242.872 251.382 242.872 251.474 242.872 251.474 L 242.872 254.944 L 242.916 260.15 L 242.916 260.367 L 243.216 335.511 L 243.216 336.721 L 243.264 336.721 Z M 243.264 336.721 L 243.216 251.474 L 243.172 144.831 C 243.172 144.787 243.128 144.787 243.128 144.787 L 243.128 144.527 C 243.128 144.527 243.086 144.571 243.037 144.657 C 242.994 144.571 242.95 144.527 242.95 144.527 L 242.95 144.787 C 242.95 144.787 242.907 144.787 242.907 144.831 L 242.872 251.256 C 242.872 251.382 242.872 251.474 242.872 251.474 L 242.872 254.944 L 242.916 260.15 L 242.916 260.367 L 243.216 335.511 L 243.216 336.721 L 243.264 336.721 Z M 243.133 134.023 L 243.133 133.98 C 243.089 133.98 243.089 133.98 243.042 133.98 C 243.089 134.023 243.089 134.023 243.133 134.067 L 243.133 134.111 C 243.177 134.111 243.177 134.153 243.177 134.153 L 243.177 134.023 L 243.133 134.023 Z M 243.042 109.034 C 243.089 109.034 243.133 109.12 243.172 109.163 L 243.172 108.816 C 243.172 108.816 243.133 108.903 243.042 109.034 Z M 242.958 134.023 L 242.916 133.98 L 242.916 134.153 C 242.916 134.111 242.958 134.111 242.958 134.067 C 243.002 134.023 243.002 134.023 243.046 133.98 C 242.998 133.98 242.998 134.023 242.958 134.023 Z M 242.916 108.816 L 242.916 109.163 C 242.958 109.12 243.002 109.034 243.042 109.034 C 242.958 108.903 242.916 108.816 242.916 108.816 Z M 242.916 108.816 L 242.916 109.163 C 242.958 109.12 243.002 109.034 243.042 109.034 C 242.958 108.903 242.916 108.816 242.916 108.816 Z M 242.958 134.023 L 242.916 133.98 L 242.916 134.153 C 242.916 134.111 242.958 134.111 242.958 134.067 C 243.002 134.023 243.002 134.023 243.046 133.98 C 242.998 133.98 242.998 134.023 242.958 134.023 Z M 243.042 109.034 C 243.089 109.034 243.133 109.12 243.172 109.163 L 243.172 108.816 C 243.172 108.816 243.133 108.903 243.042 109.034 Z M 243.133 134.023 L 243.133 133.98 C 243.089 133.98 243.089 133.98 243.042 133.98 C 243.089 134.023 243.089 134.023 243.133 134.067 L 243.133 134.111 C 243.177 134.111 243.177 134.153 243.177 134.153 L 243.177 134.023 L 243.133 134.023 Z M 243.264 336.721 L 243.216 251.474 L 243.172 144.831 C 243.172 144.787 243.128 144.787 243.128 144.787 L 243.128 144.527 C 243.128 144.527 243.086 144.571 243.037 144.657 C 242.994 144.571 242.95 144.527 242.95 144.527 L 242.95 144.787 C 242.95 144.787 242.907 144.787 242.907 144.831 L 242.872 251.256 C 242.872 251.382 242.872 251.474 242.872 251.474 L 242.872 254.944 L 242.916 260.15 L 242.916 260.367 L 243.216 335.511 L 243.216 336.721 L 243.264 336.721 Z M 243.264 336.721 L 243.216 251.474 L 243.172 144.831 C 243.172 144.787 243.128 144.787 243.128 144.787 L 243.128 144.527 C 243.128 144.527 243.086 144.571 243.037 144.657 C 242.994 144.571 242.95 144.527 242.95 144.527 L 242.95 144.787 C 242.95 144.787 242.907 144.787 242.907 144.831 L 242.872 251.256 C 242.872 251.382 242.872 251.474 242.872 251.474 L 242.872 254.944 L 242.916 260.15 L 242.916 260.367 L 243.216 335.511 L 243.216 336.721 L 243.264 336.721 Z M 243.133 134.023 L 243.133 133.98 C 243.089 133.98 243.089 133.98 243.042 133.98 C 243.089 134.023 243.089 134.023 243.133 134.067 L 243.133 134.111 C 243.177 134.111 243.177 134.153 243.177 134.153 L 243.177 134.023 L 243.133 134.023 Z M 243.042 109.034 C 243.089 109.034 243.133 109.12 243.172 109.163 L 243.172 108.816 C 243.172 108.816 243.133 108.903 243.042 109.034 Z M 242.958 134.023 L 242.916 133.98 L 242.916 134.153 C 242.916 134.111 242.958 134.111 242.958 134.067 C 243.002 134.023 243.002 134.023 243.046 133.98 C 242.998 133.98 242.998 134.023 242.958 134.023 Z M 242.916 108.816 L 242.916 109.163 C 242.958 109.12 243.002 109.034 243.042 109.034 C 242.958 108.903 242.916 108.816 242.916 108.816 Z M 242.916 108.816 L 242.916 109.163 C 242.958 109.12 243.002 109.034 243.042 109.034 C 242.958 108.903 242.916 108.816 242.916 108.816 Z M 242.958 134.023 L 242.916 133.98 L 242.916 134.153 C 242.916 134.111 242.958 134.111 242.958 134.067 C 243.002 134.023 243.002 134.023 243.046 133.98 C 242.998 133.98 242.998 134.023 242.958 134.023 Z M 243.042 109.034 C 243.089 109.034 243.133 109.12 243.172 109.163 L 243.172 108.816 C 243.172 108.816 243.133 108.903 243.042 109.034 Z M 243.133 134.023 L 243.133 133.98 C 243.089 133.98 243.089 133.98 243.042 133.98 C 243.089 134.023 243.089 134.023 243.133 134.067 L 243.133 134.111 C 243.177 134.111 243.177 134.153 243.177 134.153 L 243.177 134.023 L 243.133 134.023 Z M 243.264 336.721 L 243.216 251.474 L 243.172 144.831 C 243.172 144.787 243.128 144.787 243.128 144.787 L 243.128 144.527 C 243.128 144.527 243.086 144.571 243.037 144.657 C 242.994 144.571 242.95 144.527 242.95 144.527 L 242.95 144.787 C 242.95 144.787 242.907 144.787 242.907 144.831 L 242.872 251.256 C 242.872 251.382 242.872 251.474 242.872 251.474 L 242.872 254.944 L 242.916 260.15 L 242.916 260.367 L 243.216 335.511 L 243.216 336.721 L 243.264 336.721 Z M 243.264 336.721 L 243.216 251.474 L 243.172 144.831 C 243.172 144.787 243.128 144.787 243.128 144.787 L 243.128 144.527 C 243.128 144.527 243.086 144.571 243.037 144.657 C 242.994 144.571 242.95 144.527 242.95 144.527 L 242.95 144.787 C 242.95 144.787 242.907 144.787 242.907 144.831 L 242.872 251.256 C 242.872 251.382 242.872 251.474 242.872 251.474 L 242.872 254.944 L 242.916 260.15 L 242.916 260.367 L 243.216 335.511 L 243.216 336.721 L 243.264 336.721 Z M 243.133 134.023 L 243.133 133.98 C 243.089 133.98 243.089 133.98 243.042 133.98 C 243.089 134.023 243.089 134.023 243.133 134.067 L 243.133 134.111 C 243.177 134.111 243.177 134.153 243.177 134.153 L 243.177 134.023 L 243.133 134.023 Z M 243.042 109.034 C 243.089 109.034 243.133 109.12 243.172 109.163 L 243.172 108.816 C 243.172 108.816 243.133 108.903 243.042 109.034 Z M 242.958 134.023 L 242.916 133.98 L 242.916 134.153 C 242.916 134.111 242.958 134.111 242.958 134.067 C 243.002 134.023 243.002 134.023 243.046 133.98 C 242.998 133.98 242.998 134.023 242.958 134.023 Z M 242.916 108.816 L 242.916 109.163 C 242.958 109.12 243.002 109.034 243.042 109.034 C 242.958 108.903 242.916 108.816 242.916 108.816 Z M 242.916 108.816 L 242.916 109.163 C 242.958 109.12 243.002 109.034 243.042 109.034 C 242.958 108.903 242.916 108.816 242.916 108.816 Z M 242.958 134.023 L 242.916 133.98 L 242.916 134.153 C 242.916 134.111 242.958 134.111 242.958 134.067 C 243.002 134.023 243.002 134.023 243.046 133.98 C 242.998 133.98 242.998 134.023 242.958 134.023 Z M 243.042 109.034 C 243.089 109.034 243.133 109.12 243.172 109.163 L 243.172 108.816 C 243.172 108.816 243.133 108.903 243.042 109.034 Z M 243.133 134.023 L 243.133 133.98 C 243.089 133.98 243.089 133.98 243.042 133.98 C 243.089 134.023 243.089 134.023 243.133 134.067 L 243.133 134.111 C 243.177 134.111 243.177 134.153 243.177 134.153 L 243.177 134.023 L 243.133 134.023 Z M 243.264 336.721 L 243.216 251.474 L 243.172 144.831 C 243.172 144.787 243.128 144.787 243.128 144.787 L 243.128 144.527 C 243.128 144.527 243.086 144.571 243.037 144.657 C 242.994 144.571 242.95 144.527 242.95 144.527 L 242.95 144.787 C 242.95 144.787 242.907 144.787 242.907 144.831 L 242.872 251.256 C 242.872 251.382 242.872 251.474 242.872 251.474 L 242.872 254.944 L 242.916 260.15 L 242.916 260.367 L 243.216 335.511 L 243.216 336.721 L 243.264 336.721 Z M 243.264 336.721 L 243.216 251.474 L 243.172 144.831 C 243.172 144.787 243.128 144.787 243.128 144.787 L 243.128 144.527 C 243.128 144.527 243.086 144.571 243.037 144.657 C 242.994 144.571 242.95 144.527 242.95 144.527 L 242.95 144.787 C 242.95 144.787 242.907 144.787 242.907 144.831 L 242.872 251.256 C 242.872 251.382 242.872 251.474 242.872 251.474 L 242.872 254.944 L 242.916 260.15 L 242.916 260.367 L 243.216 335.511 L 243.216 336.721 L 243.264 336.721 Z M 243.133 134.111 C 243.177 134.111 243.177 134.153 243.177 134.153 L 243.177 134.023 L 243.133 134.023 L 243.133 133.98 C 243.089 133.98 243.089 133.98 243.042 133.98 C 243.089 134.023 243.089 134.023 243.133 134.067 L 243.133 134.111 Z M 243.172 108.816 C 243.172 108.816 243.128 108.903 243.042 109.034 C 243.089 109.034 243.133 109.12 243.172 109.163 L 243.172 108.816 Z M 243.042 133.98 C 242.998 133.98 242.998 134.023 242.955 134.023 L 242.911 133.98 L 242.911 134.153 C 242.911 134.111 242.955 134.111 242.955 134.067 C 242.998 134.023 242.998 134.023 243.042 133.98 Z M 242.916 108.816 L 242.916 109.163 C 242.958 109.12 243.002 109.034 243.042 109.034 C 242.958 108.903 242.916 108.816 242.916 108.816 Z M 242.872 33.373 L 34.735 240.926 L 242.872 448.44 L 451.005 240.926 L 242.872 33.373 Z M 55.574 240.926 L 242.872 54.107 L 430.209 240.926 L 242.872 427.706 L 55.574 240.926 Z M 243.264 336.721 L 243.216 251.474 L 243.172 144.831 C 243.172 144.787 243.128 144.787 243.128 144.787 L 243.128 144.527 C 243.128 144.527 243.086 144.571 243.037 144.657 C 242.994 144.571 242.95 144.527 242.95 144.527 L 242.95 144.787 C 242.95 144.787 242.907 144.787 242.907 144.831 L 242.872 251.256 C 242.872 251.382 242.872 251.474 242.872 251.474 L 242.872 254.944 L 242.916 260.15 L 242.916 260.367 L 243.216 335.511 L 243.216 336.721 L 243.264 336.721 Z M 243.133 134.111 C 243.177 134.111 243.177 134.153 243.177 134.153 L 243.177 134.023 L 243.133 134.023 L 243.133 133.98 C 243.089 133.98 243.089 133.98 243.042 133.98 C 243.089 134.023 243.089 134.023 243.133 134.067 L 243.133 134.111 Z M 243.172 108.816 C 243.172 108.816 243.128 108.903 243.042 109.034 C 243.089 109.034 243.133 109.12 243.172 109.163 L 243.172 108.816 Z M 243.042 133.98 C 242.998 133.98 242.998 134.023 242.955 134.023 L 242.911 133.98 L 242.911 134.153 C 242.911 134.111 242.955 134.111 242.955 134.067 C 242.998 134.023 242.998 134.023 243.042 133.98 Z M 242.916 108.816 L 242.916 109.163 C 242.958 109.12 243.002 109.034 243.042 109.034 C 242.958 108.903 242.916 108.816 242.916 108.816 Z M 242.916 108.816 L 242.916 109.163 C 242.958 109.12 243.002 109.034 243.042 109.034 C 242.958 108.903 242.916 108.816 242.916 108.816 Z M 242.958 134.023 L 242.916 133.98 L 242.916 134.153 C 242.916 134.111 242.958 134.111 242.958 134.067 C 243.002 134.023 243.002 134.023 243.046 133.98 C 242.998 133.98 242.998 134.023 242.958 134.023 Z M 243.042 109.034 C 243.089 109.034 243.133 109.12 243.172 109.163 L 243.172 108.816 C 243.172 108.816 243.133 108.903 243.042 109.034 Z M 243.133 134.023 L 243.133 133.98 C 243.089 133.98 243.089 133.98 243.042 133.98 C 243.089 134.023 243.089 134.023 243.133 134.067 L 243.133 134.111 C 243.177 134.111 243.177 134.153 243.177 134.153 L 243.177 134.023 L 243.133 134.023 Z M 243.264 336.721 L 243.216 251.474 L 243.172 144.831 C 243.172 144.787 243.128 144.787 243.128 144.787 L 243.128 144.527 C 243.128 144.527 243.086 144.571 243.037 144.657 C 242.994 144.571 242.95 144.527 242.95 144.527 L 242.95 144.787 C 242.95 144.787 242.907 144.787 242.907 144.831 L 242.872 251.256 C 242.872 251.382 242.872 251.474 242.872 251.474 L 242.872 254.944 L 242.916 260.15 L 242.916 260.367 L 243.216 335.511 L 243.216 336.721 L 243.264 336.721 Z M 243.264 336.721 L 243.216 251.474 L 243.172 144.831 C 243.172 144.787 243.128 144.787 243.128 144.787 L 243.128 144.527 C 243.128 144.527 243.086 144.571 243.037 144.657 C 242.994 144.571 242.95 144.527 242.95 144.527 L 242.95 144.787 C 242.95 144.787 242.907 144.787 242.907 144.831 L 242.872 251.256 C 242.872 251.382 242.872 251.474 242.872 251.474 L 242.872 254.944 L 242.916 260.15 L 242.916 260.367 L 243.216 335.511 L 243.216 336.721 L 243.264 336.721 Z M 243.133 134.023 L 243.133 133.98 C 243.089 133.98 243.089 133.98 243.042 133.98 C 243.089 134.023 243.089 134.023 243.133 134.067 L 243.133 134.111 C 243.177 134.111 243.177 134.153 243.177 134.153 L 243.177 134.023 L 243.133 134.023 Z M 243.042 109.034 C 243.089 109.034 243.133 109.12 243.172 109.163 L 243.172 108.816 C 243.172 108.816 243.133 108.903 243.042 109.034 Z M 242.958 134.023 L 242.916 133.98 L 242.916 134.153 C 242.916 134.111 242.958 134.111 242.958 134.067 C 243.002 134.023 243.002 134.023 243.046 133.98 C 242.998 133.98 242.998 134.023 242.958 134.023 Z M 242.916 108.816 L 242.916 109.163 C 242.958 109.12 243.002 109.034 243.042 109.034 C 242.958 108.903 242.916 108.816 242.916 108.816 Z M 242.916 108.816 L 242.916 109.163 C 242.958 109.12 243.002 109.034 243.042 109.034 C 242.958 108.903 242.916 108.816 242.916 108.816 Z M 242.958 134.023 L 242.916 133.98 L 242.916 134.153 C 242.916 134.111 242.958 134.111 242.958 134.067 C 243.002 134.023 243.002 134.023 243.046 133.98 C 242.998 133.98 242.998 134.023 242.958 134.023 Z M 243.042 109.034 C 243.089 109.034 243.133 109.12 243.172 109.163 L 243.172 108.816 C 243.172 108.816 243.133 108.903 243.042 109.034 Z M 243.133 134.023 L 243.133 133.98 C 243.089 133.98 243.089 133.98 243.042 133.98 C 243.089 134.023 243.089 134.023 243.133 134.067 L 243.133 134.111 C 243.177 134.111 243.177 134.153 243.177 134.153 L 243.177 134.023 L 243.133 134.023 Z M 243.264 336.721 L 243.216 251.474 L 243.172 144.831 C 243.172 144.787 243.128 144.787 243.128 144.787 L 243.128 144.527 C 243.128 144.527 243.086 144.571 243.037 144.657 C 242.994 144.571 242.95 144.527 242.95 144.527 L 242.95 144.787 C 242.95 144.787 242.907 144.787 242.907 144.831 L 242.872 251.256 C 242.872 251.382 242.872 251.474 242.872 251.474 L 242.872 254.944 L 242.916 260.15 L 242.916 260.367 L 243.216 335.511 L 243.216 336.721 L 243.264 336.721 Z M 243.264 336.721 L 243.216 251.474 L 243.172 144.831 C 243.172 144.787 243.128 144.787 243.128 144.787 L 243.128 144.527 C 243.128 144.527 243.086 144.571 243.037 144.657 C 242.994 144.571 242.95 144.527 242.95 144.527 L 242.95 144.787 C 242.95 144.787 242.907 144.787 242.907 144.831 L 242.872 251.256 C 242.872 251.382 242.872 251.474 242.872 251.474 L 242.872 254.944 L 242.916 260.15 L 242.916 260.367 L 243.216 335.511 L 243.216 336.721 L 243.264 336.721 Z M 243.133 134.023 L 243.133 133.98 C 243.089 133.98 243.089 133.98 243.042 133.98 C 243.089 134.023 243.089 134.023 243.133 134.067 L 243.133 134.111 C 243.177 134.111 243.177 134.153 243.177 134.153 L 243.177 134.023 L 243.133 134.023 Z M 243.042 109.034 C 243.089 109.034 243.133 109.12 243.172 109.163 L 243.172 108.816 C 243.172 108.816 243.133 108.903 243.042 109.034 Z M 242.958 134.023 L 242.916 133.98 L 242.916 134.153 C 242.916 134.111 242.958 134.111 242.958 134.067 C 243.002 134.023 243.002 134.023 243.046 133.98 C 242.998 133.98 242.998 134.023 242.958 134.023 Z M 242.916 108.816 L 242.916 109.163 C 242.958 109.12 243.002 109.034 243.042 109.034 C 242.958 108.903 242.916 108.816 242.916 108.816 Z M 242.916 108.816 L 242.916 109.163 C 242.958 109.12 243.002 109.034 243.042 109.034 C 242.958 108.903 242.916 108.816 242.916 108.816 Z M 242.958 134.023 L 242.916 133.98 L 242.916 134.153 C 242.916 134.111 242.958 134.111 242.958 134.067 C 243.002 134.023 243.002 134.023 243.046 133.98 C 242.998 133.98 242.998 134.023 242.958 134.023 Z M 243.042 109.034 C 243.089 109.034 243.133 109.12 243.172 109.163 L 243.172 108.816 C 243.172 108.816 243.133 108.903 243.042 109.034 Z M 243.133 134.023 L 243.133 133.98 C 243.089 133.98 243.089 133.98 243.042 133.98 C 243.089 134.023 243.089 134.023 243.133 134.067 L 243.133 134.111 C 243.177 134.111 243.177 134.153 243.177 134.153 L 243.177 134.023 L 243.133 134.023 Z M 243.264 336.721 L 243.216 251.474 L 243.172 144.831 C 243.172 144.787 243.128 144.787 243.128 144.787 L 243.128 144.527 C 243.128 144.527 243.086 144.571 243.037 144.657 C 242.994 144.571 242.95 144.527 242.95 144.527 L 242.95 144.787 C 242.95 144.787 242.907 144.787 242.907 144.831 L 242.872 251.256 C 242.872 251.382 242.872 251.474 242.872 251.474 L 242.872 254.944 L 242.916 260.15 L 242.916 260.367 L 243.216 335.511 L 243.216 336.721 L 243.264 336.721 Z M 243.264 336.721 L 243.216 251.474 L 243.172 144.831 C 243.172 144.787 243.128 144.787 243.128 144.787 L 243.128 144.527 C 243.128 144.527 243.086 144.571 243.037 144.657 C 242.994 144.571 242.95 144.527 242.95 144.527 L 242.95 144.787 C 242.95 144.787 242.907 144.787 242.907 144.831 L 242.872 251.256 C 242.872 251.382 242.872 251.474 242.872 251.474 L 242.872 254.944 L 242.916 260.15 L 242.916 260.367 L 243.216 335.511 L 243.216 336.721 L 243.264 336.721 Z M 243.133 134.023 L 243.133 133.98 C 243.089 133.98 243.089 133.98 243.042 133.98 C 243.089 134.023 243.089 134.023 243.133 134.067 L 243.133 134.111 C 243.177 134.111 243.177 134.153 243.177 134.153 L 243.177 134.023 L 243.133 134.023 Z M 243.042 109.034 C 243.089 109.034 243.133 109.12 243.172 109.163 L 243.172 108.816 C 243.172 108.816 243.133 108.903 243.042 109.034 Z M 242.958 134.023 L 242.916 133.98 L 242.916 134.153 C 242.916 134.111 242.958 134.111 242.958 134.067 C 243.002 134.023 243.002 134.023 243.046 133.98 C 242.998 133.98 242.998 134.023 242.958 134.023 Z M 242.916 108.816 L 242.916 109.163 C 242.958 109.12 243.002 109.034 243.042 109.034 C 242.958 108.903 242.916 108.816 242.916 108.816 Z M 242.916 108.816 L 242.916 109.163 C 242.958 109.12 243.002 109.034 243.042 109.034 C 242.958 108.903 242.916 108.816 242.916 108.816 Z M 242.958 134.023 L 242.916 133.98 L 242.916 134.153 C 242.916 134.111 242.958 134.111 242.958 134.067 C 243.002 134.023 243.002 134.023 243.046 133.98 C 242.998 133.98 242.998 134.023 242.958 134.023 Z M 243.133 134.023 L 243.133 133.98 C 243.089 133.98 243.089 133.98 243.042 133.98 C 243.089 134.023 243.089 134.023 243.133 134.067 L 243.133 134.111 C 243.177 134.111 243.177 134.153 243.177 134.153 L 243.177 134.023 L 243.133 134.023 Z M 243.042 109.034 C 243.089 109.034 243.133 109.12 243.172 109.163 L 243.172 108.816 C 243.172 108.816 243.133 108.903 243.042 109.034 Z M 243.264 336.721 L 243.216 251.474 L 243.172 144.831 C 243.172 144.787 243.128 144.787 243.128 144.787 L 243.128 144.527 C 243.128 144.527 243.086 144.571 243.037 144.657 C 242.994 144.571 242.95 144.527 242.95 144.527 L 242.95 144.787 C 242.95 144.787 242.907 144.787 242.907 144.831 L 242.872 251.256 C 242.872 251.382 242.872 251.474 242.872 251.474 L 242.872 254.944 L 242.916 260.15 L 242.916 260.367 L 243.216 335.511 L 243.216 336.721 L 243.264 336.721 Z M 243.264 336.721 L 243.216 251.474 L 243.172 144.831 C 243.172 144.787 243.128 144.787 243.128 144.787 L 243.128 144.527 C 243.128 144.527 243.086 144.571 243.037 144.657 C 242.994 144.571 242.95 144.527 242.95 144.527 L 242.95 144.787 C 242.95 144.787 242.907 144.787 242.907 144.831 L 242.872 251.256 C 242.872 251.382 242.872 251.474 242.872 251.474 L 242.872 254.944 L 242.916 260.15 L 242.916 260.367 L 243.216 335.511 L 243.216 336.721 L 243.264 336.721 Z M 243.042 109.034 C 243.089 109.034 243.133 109.12 243.172 109.163 L 243.172 108.816 C 243.172 108.816 243.133 108.903 243.042 109.034 Z M 243.133 134.023 L 243.133 133.98 C 243.089 133.98 243.089 133.98 243.042 133.98 C 243.089 134.023 243.089 134.023 243.133 134.067 L 243.133 134.111 C 243.177 134.111 243.177 134.153 243.177 134.153 L 243.177 134.023 L 243.133 134.023 Z M 242.958 134.023 L 242.916 133.98 L 242.916 134.153 C 242.916 134.111 242.958 134.111 242.958 134.067 C 243.002 134.023 243.002 134.023 243.046 133.98 C 242.998 133.98 242.998 134.023 242.958 134.023 Z M 242.916 108.816 L 242.916 109.163 C 242.958 109.12 243.002 109.034 243.042 109.034 C 242.958 108.903 242.916 108.816 242.916 108.816 Z M 242.916 108.816 L 242.916 109.163 C 242.958 109.12 243.002 109.034 243.042 109.034 C 242.958 108.903 242.916 108.816 242.916 108.816 Z M 242.958 134.023 L 242.916 133.98 L 242.916 134.153 C 242.916 134.111 242.958 134.111 242.958 134.067 C 243.002 134.023 243.002 134.023 243.046 133.98 C 242.998 133.98 242.998 134.023 242.958 134.023 Z M 243.133 134.023 L 243.133 133.98 C 243.089 133.98 243.089 133.98 243.042 133.98 C 243.089 134.023 243.089 134.023 243.133 134.067 L 243.133 134.111 C 243.177 134.111 243.177 134.153 243.177 134.153 L 243.177 134.023 L 243.133 134.023 Z M 243.042 109.034 C 243.089 109.034 243.133 109.12 243.172 109.163 L 243.172 108.816 C 243.172 108.816 243.133 108.903 243.042 109.034 Z M 243.264 336.721 L 243.216 251.474 L 243.172 144.831 C 243.172 144.787 243.128 144.787 243.128 144.787 L 243.128 144.527 C 243.128 144.527 243.086 144.571 243.037 144.657 C 242.994 144.571 242.95 144.527 242.95 144.527 L 242.95 144.787 C 242.95 144.787 242.907 144.787 242.907 144.831 L 242.872 251.256 C 242.872 251.382 242.872 251.474 242.872 251.474 L 242.872 254.944 L 242.916 260.15 L 242.916 260.367 L 243.216 335.511 L 243.216 336.721 L 243.264 336.721 Z M 242.958 134.023 L 242.916 133.98 L 242.916 134.153 C 242.916 134.111 242.958 134.111 242.958 134.067 C 243.002 134.023 243.002 134.023 243.046 133.98 C 242.998 133.98 242.998 134.023 242.958 134.023 Z M 243.133 134.023 L 243.133 133.98 C 243.089 133.98 243.089 133.98 243.042 133.98 C 243.089 134.023 243.089 134.023 243.133 134.067 L 243.133 134.111 C 243.177 134.111 243.177 134.153 243.177 134.153 L 243.177 134.023 L 243.133 134.023 Z M 243.264 336.721 L 243.216 251.474 L 243.172 144.831 C 243.172 144.787 243.128 144.787 243.128 144.787 L 243.128 144.527 C 243.128 144.527 243.086 144.571 243.037 144.657 C 242.994 144.571 242.95 144.527 242.95 144.527 L 242.95 144.787 C 242.95 144.787 242.907 144.787 242.907 144.831 L 242.872 251.256 C 242.872 251.382 242.872 251.474 242.872 251.474 L 242.872 254.944 L 242.916 260.15 L 242.916 260.367 L 243.216 335.511 L 243.216 336.721 L 243.264 336.721 Z M 243.042 109.034 C 243.089 109.034 243.133 109.12 243.172 109.163 L 243.172 108.816 C 243.172 108.816 243.133 108.903 243.042 109.034 Z M 242.916 108.816 L 242.916 109.163 C 242.958 109.12 243.002 109.034 243.042 109.034 C 242.958 108.903 242.916 108.816 242.916 108.816 Z M 242.916 108.816 L 242.916 109.163 C 242.958 109.12 243.002 109.034 243.042 109.034 C 242.958 108.903 242.916 108.816 242.916 108.816 Z M 243.042 109.034 C 243.089 109.034 243.133 109.12 243.172 109.163 L 243.172 108.816 C 243.172 108.816 243.133 108.903 243.042 109.034 Z M 242.958 134.023 L 242.916 133.98 L 242.916 134.153 C 242.916 134.111 242.958 134.111 242.958 134.067 C 243.002 134.023 243.002 134.023 243.046 133.98 C 242.998 133.98 242.998 134.023 242.958 134.023 Z M 243.133 134.023 L 243.133 133.98 C 243.089 133.98 243.089 133.98 243.042 133.98 C 243.089 134.023 243.089 134.023 243.133 134.067 L 243.133 134.111 C 243.177 134.111 243.177 134.153 243.177 134.153 L 243.177 134.023 L 243.133 134.023 Z M 243.264 336.721 L 243.216 251.474 L 243.172 144.831 C 243.172 144.787 243.128 144.787 243.128 144.787 L 243.128 144.527 C 243.128 144.527 243.086 144.571 243.037 144.657 C 242.994 144.571 242.95 144.527 242.95 144.527 L 242.95 144.787 C 242.95 144.787 242.907 144.787 242.907 144.831 L 242.872 251.256 C 242.872 251.382 242.872 251.474 242.872 251.474 L 242.872 254.944 L 242.916 260.15 L 242.916 260.367 L 243.216 335.511 L 243.216 336.721 L 243.264 336.721 Z M 242.958 134.023 L 242.916 133.98 L 242.916 134.153 C 242.916 134.111 242.958 134.111 242.958 134.067 C 243.002 134.023 243.002 134.023 243.046 133.98 C 242.998 133.98 242.998 134.023 242.958 134.023 Z M 243.133 134.023 L 243.133 133.98 C 243.089 133.98 243.089 133.98 243.042 133.98 C 243.089 134.023 243.089 134.023 243.133 134.067 L 243.133 134.111 C 243.177 134.111 243.177 134.153 243.177 134.153 L 243.177 134.023 L 243.133 134.023 Z M 243.264 336.721 L 243.216 251.474 L 243.172 144.831 C 243.172 144.787 243.128 144.787 243.128 144.787 L 243.128 144.527 C 243.128 144.527 243.086 144.571 243.037 144.657 C 242.994 144.571 242.95 144.527 242.95 144.527 L 242.95 144.787 C 242.95 144.787 242.907 144.787 242.907 144.831 L 242.872 251.256 C 242.872 251.382 242.872 251.474 242.872 251.474 L 242.872 254.944 L 242.916 260.15 L 242.916 260.367 L 243.216 335.511 L 243.216 336.721 L 243.264 336.721 Z M 243.042 109.034 C 243.089 109.034 243.133 109.12 243.172 109.163 L 243.172 108.816 C 243.172 108.816 243.133 108.903 243.042 109.034 Z M 242.916 108.816 L 242.916 109.163 C 242.958 109.12 243.002 109.034 243.042 109.034 C 242.958 108.903 242.916 108.816 242.916 108.816 Z M 242.958 134.023 L 242.916 133.98 L 242.916 134.153 C 242.916 134.111 242.958 134.111 242.958 134.067 C 243.002 134.023 243.002 134.023 243.046 133.98 C 242.998 133.98 242.998 134.023 242.958 134.023 Z M 243.133 134.023 C 243.089 133.98 243.089 133.98 243.042 133.98 C 243.089 134.023 243.089 134.023 243.133 134.067 L 243.133 134.111 C 243.177 134.111 243.177 134.153 243.177 134.153 L 243.177 134.023 L 243.133 134.023 Z M 243.264 336.721 L 243.216 251.474 L 243.172 144.831 C 243.172 144.787 243.128 144.787 243.128 144.787 L 243.128 144.527 C 243.128 144.527 243.086 144.571 243.037 144.657 C 242.994 144.571 242.95 144.527 242.95 144.527 L 242.95 144.787 C 242.95 144.787 242.907 144.787 242.907 144.831 L 242.872 251.256 C 242.872 251.382 242.872 251.474 242.872 251.474 L 242.872 254.944 L 242.916 260.15 L 242.916 260.367 L 243.216 335.511 L 243.216 336.721 L 243.264 336.721 Z M 242.958 134.023 L 242.916 133.98 L 242.916 134.153 C 242.916 134.111 242.958 134.111 242.958 134.067 C 243.002 134.023 243.002 134.023 243.046 133.98 C 242.998 133.98 242.998 134.023 242.958 134.023 Z M 243.133 134.023 L 243.133 133.98 C 243.089 133.98 243.089 133.98 243.042 133.98 C 243.089 134.023 243.089 134.023 243.133 134.067 L 243.133 134.111 C 243.177 134.111 243.177 134.153 243.177 134.153 L 243.177 134.023 L 243.133 134.023 Z M 243.264 336.721 L 243.216 251.474 L 243.172 144.831 C 243.172 144.787 243.128 144.787 243.128 144.787 L 243.128 144.527 C 243.128 144.527 243.086 144.571 243.037 144.657 C 242.994 144.571 242.95 144.527 242.95 144.527 L 242.95 144.787 C 242.95 144.787 242.907 144.787 242.907 144.831 L 242.872 251.256 C 242.872 251.382 242.872 251.474 242.872 251.474 L 242.872 254.944 L 242.916 260.15 L 242.916 260.367 L 243.216 335.511 L 243.216 336.721 L 243.264 336.721 Z M 242.958 134.023 L 242.916 133.98 L 242.916 134.153 C 242.916 134.111 242.958 134.111 242.958 134.067 C 243.002 134.023 243.002 134.023 243.046 133.98 C 242.998 133.98 242.998 134.023 242.958 134.023 Z M 243.133 134.023 L 243.133 133.98 C 243.089 133.98 243.089 133.98 243.042 133.98 C 243.089 134.023 243.089 134.023 243.133 134.067 L 243.133 134.111 C 243.177 134.111 243.177 134.153 243.177 134.153 L 243.177 134.023 L 243.133 134.023 Z M 243.264 336.721 L 243.216 251.474 L 243.172 144.831 C 243.172 144.787 243.128 144.787 243.128 144.787 L 243.128 144.527 C 243.128 144.527 243.086 144.571 243.037 144.657 C 242.994 144.571 242.95 144.527 242.95 144.527 L 242.95 144.787 C 242.95 144.787 242.907 144.787 242.907 144.831 L 242.872 251.256 C 242.872 251.382 242.872 251.474 242.872 251.474 L 242.872 254.944 L 242.916 260.15 L 242.916 260.367 L 243.216 335.511 L 243.216 336.721 L 243.264 336.721 Z M 243.042 109.034 C 243.089 109.034 243.133 109.12 243.172 109.163 L 243.172 108.816 C 243.172 108.816 243.133 108.903 243.042 109.034 Z M 242.916 108.816 L 242.916 109.163 C 242.958 109.12 243.002 109.034 243.042 109.034 C 242.958 108.903 242.916 108.816 242.916 108.816 Z M 243.264 372.471 L 242.824 372.471 C 128.712 371.952 141.629 178.19 141.629 178.19 C 190.356 178.19 239.039 114.326 242.911 109.163 L 242.911 122.309 C 242.646 122.656 242.124 123.307 241.475 124.218 C 241.258 124.392 241.128 124.565 240.997 124.825 C 231.513 136.93 191.617 184.437 151.765 184.437 C 151.765 184.437 140.15 358.761 242.824 359.282 L 242.824 359.239 C 242.872 359.239 242.916 359.282 242.955 359.282 C 242.994 359.282 242.998 359.239 243.042 359.239 L 243.089 359.282 C 243.177 359.282 243.216 359.239 243.264 359.239 L 243.264 359.282 C 345.938 358.761 334.322 184.437 334.322 184.437 C 290.511 184.437 246.657 126.995 243.177 122.309 L 243.177 109.163 C 247.052 114.326 295.732 178.19 344.459 178.19 C 344.459 178.19 357.376 371.952 243.264 372.471 Z M 325.186 190.034 C 285.856 190.034 246.526 138.579 243.172 134.153 C 243.172 134.153 243.172 134.111 243.128 134.111 L 243.128 134.067 C 243.086 134.023 243.086 134.023 243.037 133.98 C 242.994 134.023 242.994 134.023 242.95 134.067 C 242.95 134.111 242.907 134.111 242.907 134.153 C 239.552 138.579 200.223 190.034 160.894 190.034 C 160.894 190.034 150.456 346.744 242.641 347.394 C 242.733 347.394 242.772 347.352 242.816 347.352 L 242.872 347.352 C 242.998 347.352 243.042 347.394 243.172 347.394 L 243.264 347.394 C 335.623 346.961 325.186 190.034 325.186 190.034 Z M 314.005 251.474 L 243.216 251.474 L 243.264 336.721 L 242.824 336.721 C 195.62 336.461 178.261 290.867 172.127 251.474 L 242.872 251.474 C 242.872 251.474 242.872 251.382 242.872 251.256 L 242.916 144.831 C 242.916 144.787 242.958 144.787 242.958 144.787 L 242.958 144.527 C 242.958 144.527 243.002 144.571 243.046 144.657 C 243.094 144.571 243.138 144.527 243.138 144.527 L 243.138 144.787 C 243.138 144.787 243.18 144.787 243.18 144.831 C 246.183 148.865 281.597 195.115 316.967 195.115 C 316.959 195.11 318.742 221.489 314.005 251.474 Z" data-fill-palette-color="accent" style="fill: rgb(255, 255, 255);" transform="matrix(1, 0, 0, 1, 0, 5.684341886080802e-14)"/>
</svg>