<svg xmlns="http://www.w3.org/2000/svg" viewBox="0 0 100 100"><title>Ravnica Guild - Rakdos</title><path d="M36.66,84a14.34,14.34,0,0,1-8.39-3.23l-.19-.15-.22,0a36.32,36.32,0,0,1-6,.77c-.31,0-.58,0-.79,0l.3-.21a20.94,20.94,0,0,0,2.67-2,23.5,23.5,0,0,0,6.25-9.62A2.08,2.08,0,0,0,30,67.83a1.68,1.68,0,0,0-1.43-.67,4.73,4.73,0,0,0-.88.1l-.2,0-.33-.89A30.55,30.55,0,0,0,26,63.37a6,6,0,0,0-5-3.73c-.35,0-.71,0-1.06,0a10.37,10.37,0,0,0-6.3,2A8.73,8.73,0,0,1,8.2,63.41,9.36,9.36,0,0,1,7,63.34a14.22,14.22,0,0,1-5.48-1.57,8.55,8.55,0,0,0,6.18-3,31.75,31.75,0,0,0,2.36-3.31,21.7,21.7,0,0,1,5.6-6.36c.66-.46,1.37-.9,2.05-1.32l.94-.58L19,47l-.11-.36a31.45,31.45,0,0,1-.62-12l.08-.73-.71.19a3.61,3.61,0,0,0-1.95,1.59l-.15.21a3.37,3.37,0,0,0-1.65.72,13.74,13.74,0,0,1,3.49-6.37,22.72,22.72,0,0,1,5.29-3.65l.51-.28A11.09,11.09,0,0,0,26,24.37a12.19,12.19,0,0,1-1.5,4.27,6.64,6.64,0,0,0-.94,3.66c.26,4.63,2.39,8.4,6.52,11.53a.85.85,0,0,0,.51.17l2.4-.27L34,43.6l-.37-1.41c-.16-.61-.33-1.22-.46-1.83L33,39.44c-.28-1.23-.56-2.5-.75-3.75-.28-1.84.47-3.43,2.36-5,.75-.63,1.55-1.24,2.32-1.83s1.61-1.24,2.39-1.9c3.17-2.68,3.86-6,2-9.74-.06-.14-.13-.27-.2-.4a19.34,19.34,0,0,1,3.66,3.05,8,8,0,0,1,2.53,5.23c0,1.63-.82,2.87-1.94,4.32-.27.35-.54.7-.82,1a30.46,30.46,0,0,0-2.44,3.37,7.28,7.28,0,0,0,.46,8.54l.15.21h2.83c1,0,2.05,0,3.07,0a.4.4,0,0,1,.13.11,9.48,9.48,0,0,1,.25,2c0,1.56-.12,3.12-.19,4.67-.1,2.16-.2,4.39-.25,6.58,0,1.5,0,3,.11,4.48,0,.87.07,1.74.09,2.6l0,1.18c.06,2.75.13,5.59.12,8.38a6.08,6.08,0,0,1-1.07,3.18,1.74,1.74,0,0,0-.32-1.39A1.1,1.1,0,0,0,47,74l-.47-.3-.17.54-.66,1.33-.06-.18c-.7-1.94-1.41-3.94-3.83-4.82l-.42-.16L40.11,73l0,.18a5.14,5.14,0,0,1,0,3.26,1.69,1.69,0,0,0-1.46-1,2.38,2.38,0,0,0-1.66.89A16.79,16.79,0,0,0,35,79.26l-.24.38a2.2,2.2,0,0,0,.2,2.42A6.76,6.76,0,0,0,36.66,84ZM31,54.17c.09.21.2.4.31.6a2.48,2.48,0,0,1,.48,2l-.12.38.34.2A6.09,6.09,0,0,1,34.4,60a6.06,6.06,0,0,0,4.09,3.15,4.48,4.48,0,0,0,1.13.2c1,0,1.42-.75,1.77-1.51a1.93,1.93,0,0,1,1.11-1.19.75.75,0,0,0,.48-.46l.42-1.32.24-.78-.3-.21c-2.92-2-6.9-4.38-11.85-4.44h-.8Z" style="fill:#9e1a27"/><path d="M42.3,18.25a17.23,17.23,0,0,1,2.11,1.93c1.64,1.79,2.36,3.25,2.4,4.91,0,1.46-.77,2.62-1.83,4l-.82,1a31.77,31.77,0,0,0-2.48,3.42,7.84,7.84,0,0,0,.49,9.1l.3.41h3.1l2.74,0a7.29,7.29,0,0,1,.19,1.63c0,1.55-.12,3.11-.19,4.66-.1,2.16-.2,4.4-.25,6.6,0,1.52,0,3,.11,4.52q.06,1.29.09,2.58l0,1.22c.07,2.73.13,5.56.12,8.33a4.45,4.45,0,0,1-.36,1.69,1.45,1.45,0,0,0-.12-.19,1.6,1.6,0,0,0-.71-.53l-.86-.52-.48,1-.14.28A6.37,6.37,0,0,0,42,70.11l-.84-.31-.4.81L40,72l-.28.58-.16.34.09.35a6.72,6.72,0,0,1,.26,2.08,1.91,1.91,0,0,0-1.2-.41,2.89,2.89,0,0,0-2,1,17.78,17.78,0,0,0-2.17,3l-.24.38a2.67,2.67,0,0,0,.19,2.95,8.29,8.29,0,0,0,.74,1,13.59,13.59,0,0,1-6.64-3l-.36-.29-.46.08a42.46,42.46,0,0,1-5.12.74,17.73,17.73,0,0,0,1.7-1.33,24.13,24.13,0,0,0,6.38-9.82,2.55,2.55,0,0,0-.28-2.22,2.14,2.14,0,0,0-1.83-.88,4.47,4.47,0,0,0-.76.07l-.18-.48a31.56,31.56,0,0,0-1.27-3.1,6.52,6.52,0,0,0-5.43-4c-.37,0-.74,0-1.1,0a10.84,10.84,0,0,0-6.6,2.09A8.26,8.26,0,0,1,8.2,62.91a10.28,10.28,0,0,1-1.1-.06A16.45,16.45,0,0,1,3.26,62a8.72,8.72,0,0,0,4.87-2.92,33.74,33.74,0,0,0,2.39-3.36A21.18,21.18,0,0,1,16,49.5c.65-.46,1.35-.89,2-1.3l.95-.59.63-.4-.21-.72a30.8,30.8,0,0,1-.6-11.81l.15-1.45-1.41.38a4.07,4.07,0,0,0-2.22,1.77l0,0a4.26,4.26,0,0,0-.54.15,12.84,12.84,0,0,1,3-5A21.87,21.87,0,0,1,22.92,27l.26-.15.25-.14a16.63,16.63,0,0,0,1.73-1A11.9,11.9,0,0,1,24,28.39a7.17,7.17,0,0,0-1,3.94c.27,4.71,2.53,8.72,6.71,11.9a1.44,1.44,0,0,0,.82.27h.13l2.24-.27.59-.07L34.63,44l-.28-1.11c-.08-.28-.15-.57-.23-.85-.16-.63-.32-1.22-.46-1.82l-.2-.91c-.28-1.22-.56-2.49-.75-3.73-.25-1.67.42-3.07,2.19-4.56.74-.63,1.53-1.24,2.3-1.82s1.62-1.25,2.41-1.92c3-2.54,3.91-5.59,2.69-9.06M39.62,63.87a2.5,2.5,0,0,0,2.23-1.8c.29-.65.53-.83.81-.92a1.29,1.29,0,0,0,.8-.79L43.88,59l.13-.4.21-.7-.6-.42c-3-2.07-7-4.47-12.12-4.53l-1.62,0,.71,1.45c.1.21.21.42.32.62.39.72.59,1.12.44,1.61l-.23.76.68.4A5.62,5.62,0,0,1,34,60.25a6.52,6.52,0,0,0,4.4,3.4,4.69,4.69,0,0,0,1.27.22m.32-48.41h0c.33.65.67,1.29,1,1.95C42.59,21,42,24,39,26.55c-1.52,1.29-3.17,2.44-4.7,3.73s-2.89,3.13-2.54,5.48c.24,1.58.62,3.14,1,4.71.2.9.46,1.79.69,2.7l-2.82.33h0a.38.38,0,0,1-.21-.07c-3.7-2.81-6-6.4-6.32-11.16a6.14,6.14,0,0,1,.87-3.39,12.82,12.82,0,0,0,1.72-6.6c-.65,2-2.31,2.84-3.91,3.73A24,24,0,0,0,17,29.89,15.42,15.42,0,0,0,13,38.52a3.72,3.72,0,0,1,2.84-2.16c.53-.68,1-1.52,2-1.78a31.41,31.41,0,0,0,.64,12.19c-1,.62-2,1.22-3,1.91a22.44,22.44,0,0,0-5.73,6.5,31.48,31.48,0,0,1-2.32,3.26C5.56,60.6,3.11,61.28.41,61.33H0v.05a.75.75,0,0,1,.2.1A13.49,13.49,0,0,0,7,63.84a9.93,9.93,0,0,0,1.21.07A9.25,9.25,0,0,0,13.86,62a9.86,9.86,0,0,1,6-1.9c.34,0,.68,0,1,0a5.57,5.57,0,0,1,4.61,3.45c.7,1.4,1.17,2.9,1.74,4.36a3.56,3.56,0,0,1,.59-.2,4.05,4.05,0,0,1,.78-.09,1.17,1.17,0,0,1,1,.47,1.57,1.57,0,0,1,.15,1.29,23.3,23.3,0,0,1-6.11,9.42,40.3,40.3,0,0,1-3.79,2.74,3.85,3.85,0,0,0,1.94.36A35.74,35.74,0,0,0,28,81.16a15.14,15.14,0,0,0,9.94,3.38h.7a6.63,6.63,0,0,1-3.25-2.73,1.77,1.77,0,0,1-.21-1.9,20.5,20.5,0,0,1,2.29-3.21A2,2,0,0,1,38.73,76c.56,0,1,.49,1.35,1.42,0,0,0,0,0,.05.89-.9,1.06-2.36.53-4.39l1-2c2.68,1,3.06,3.48,4,5.78l1.17-2.36a.85.85,0,0,1,.34.21c.5.71.16,1.37-.21,2h.9a7.38,7.38,0,0,0,1.6-4.13c0-3.19-.07-6.38-.15-9.57,0-2.35-.24-4.71-.2-7.06.08-3.75.32-7.5.44-11.24a8.92,8.92,0,0,0-.29-2.23.75.75,0,0,0-.58-.43q-1.53,0-3.06,0H43a6.83,6.83,0,0,1-.43-8,44.9,44.9,0,0,1,3.23-4.35c1.07-1.38,2.08-2.78,2-4.64a8.43,8.43,0,0,0-2.66-5.55,22.25,22.25,0,0,0-5.21-4.05Zm-.32,47.41a3.94,3.94,0,0,1-1-.18,5.6,5.6,0,0,1-3.78-2.89,6.67,6.67,0,0,0-2.54-2.88c.35-1.15-.36-2-.82-3,4.41,0,8.08,1.92,11.56,4.35l-.54,1.74a.32.32,0,0,1-.17.15,2.39,2.39,0,0,0-1.4,1.45c-.4.87-.72,1.22-1.32,1.22Z" style="fill:#63240e"/><path d="M63.3,84a7.78,7.78,0,0,0,1.45-1.47A2.76,2.76,0,0,0,65,79.05l-.19-.28a15.83,15.83,0,0,0-1.89-2.43,2.56,2.56,0,0,0-1.7-.87,1.67,1.67,0,0,0-1.46,1,4.93,4.93,0,0,1,0-3.22l.08-.2L58.63,70.5l-.39.1a4.34,4.34,0,0,0-2.93,2.59c-.35.76-.63,1.55-.93,2.39l0,.1-1-1.91-.46.28a1.13,1.13,0,0,0-.45.3,1.52,1.52,0,0,0-.27,1.55A6.58,6.58,0,0,1,51,72.2v-.77c.05-3.49.09-7.11.3-10.65a74.35,74.35,0,0,0-.1-7.77c-.05-.94-.1-1.88-.13-2.83-.07-1.87,0-3.79,0-5.65l0-1.65c0-.24,0-.35.45-.35l2.33,0h3.38l.14-.24c1.52-2.45,2.58-4.82.2-8.89a25.07,25.07,0,0,0-2.32-3.15l-1-1.17c-1.09-1.38-2-2.93-1.62-5a8.89,8.89,0,0,1,2.42-4.29,20.07,20.07,0,0,1,3.68-3.08q-.27.54-.51,1.08A7,7,0,0,0,60,26.28a38.29,38.29,0,0,0,3.15,2.59c.49.38,1,.75,1.46,1.14a7.73,7.73,0,0,1,3,4,6.69,6.69,0,0,1-.2,3.25c0,.2-.09.41-.14.62-.25,1.22-.54,2.43-.83,3.65L66,43.61l1.16.13,2.18.26h0a.93.93,0,0,0,.56-.17,15.32,15.32,0,0,0,6.51-11.24,6.56,6.56,0,0,0-.9-3.9A12.58,12.58,0,0,1,74,24.36a10.63,10.63,0,0,0,2.76,1.95l.45.25a21.87,21.87,0,0,1,5.52,3.86,13.86,13.86,0,0,1,3.32,6.19,3.37,3.37,0,0,0-1.65-.72l-.16-.21a3.54,3.54,0,0,0-2-1.59l-.7-.18.08.72c.53,4.95.34,8.64-.62,12L81,47l.31.2,1,.68c.78.49,1.58,1,2.32,1.54a21.83,21.83,0,0,1,5.14,5.95,35.92,35.92,0,0,0,2.41,3.4,8.53,8.53,0,0,0,6.19,3,14,14,0,0,1-6.29,1.65,11,11,0,0,1-3.22-.48,8.94,8.94,0,0,1-2.16-1.16c-.25-.17-.51-.34-.76-.49a10.78,10.78,0,0,0-5.69-1.7,10.56,10.56,0,0,0-2.08.21c-2.61.54-3.84,2.71-4.55,4.3-.37.85-.66,1.71-.94,2.56-.07.22-.15.44-.22.66h-.14a8.24,8.24,0,0,0-1-.07,2.75,2.75,0,0,0-.41,0,1.56,1.56,0,0,0-1.21.72,1.52,1.52,0,0,0-.1,1.35c2.27,5.93,5.14,9.66,9.27,12a10.21,10.21,0,0,1-1.68.13,21.71,21.71,0,0,1-5.1-.78l-.24-.06-.19.16A14.36,14.36,0,0,1,63.3,84Zm5.16-30.54c-4.95.06-8.93,2.41-11.84,4.44l-.3.21s.49,1.58.65,2.07a.66.66,0,0,0,.43.45c.57.17.82.59,1.18,1.26l.26.46a1.89,1.89,0,0,0,1.34,1A5.91,5.91,0,0,0,65,60.87c.2-.3.39-.61.58-.92a7.12,7.12,0,0,1,2.15-2.51l.2-.12,0-.23c0-.21.05-.41.08-.6a4.21,4.21,0,0,1,.18-1,4.82,4.82,0,0,1,.42-.9q.12-.21.24-.45l.37-.74Z" style="fill:#00040c"/><path d="M57.64,18.26a7.42,7.42,0,0,0,2,8.39,40.89,40.89,0,0,0,3.18,2.62l1.46,1.13a7.35,7.35,0,0,1,2.88,3.73,6.33,6.33,0,0,1-.21,3c0,.22-.09.43-.14.64-.25,1.2-.54,2.42-.82,3.6-.13.53-.25,1.05-.38,1.58L65.39,44l1.11.13.55.06,2.24.27h.13a1.41,1.41,0,0,0,.81-.27,15.79,15.79,0,0,0,6.71-11.6,7.06,7.06,0,0,0-1-4.19,11.57,11.57,0,0,1-1.16-2.74,19.83,19.83,0,0,0,1.72,1.05l.24.13L77,27a21.89,21.89,0,0,1,5.41,3.77,13,13,0,0,1,2.85,4.82,4.26,4.26,0,0,0-.54-.15l0,0a4,4,0,0,0-2.23-1.78L81,33.24l.15,1.44c.53,4.88.35,8.52-.6,11.78l-.2.71.61.41,1.08.69c.76.48,1.55,1,2.27,1.52a21.2,21.2,0,0,1,5,5.81,35.29,35.29,0,0,0,2.45,3.45A8.6,8.6,0,0,0,96.66,62a12.31,12.31,0,0,1-4.57.93A10.45,10.45,0,0,1,89,62.46a8.42,8.42,0,0,1-2-1.1l-.78-.5a11.23,11.23,0,0,0-5.95-1.77,10.82,10.82,0,0,0-2.18.22c-2.83.58-4.16,2.9-4.9,4.58a25.85,25.85,0,0,0-1,2.61c0,.09-.07.19-.1.28-.25,0-.51,0-.78,0a3.46,3.46,0,0,0-.46,0,2.08,2.08,0,0,0-1.58.95,2,2,0,0,0-.15,1.8c2.07,5.41,4.65,9,8.2,11.45h-.14a21.44,21.44,0,0,1-5-.76l-.48-.12-.38.31a13.68,13.68,0,0,1-6.63,3c.14-.16.28-.33.41-.51a3.27,3.27,0,0,0,.25-4.06l-.18-.28a16.09,16.09,0,0,0-2-2.5,3,3,0,0,0-2-1,2,2,0,0,0-1.2.4,4.73,4.73,0,0,1,.25-2l.15-.4-.19-.38-.85-1.74-.11-.23-.35-.73-.79.2A4.84,4.84,0,0,0,54.86,73c-.22.47-.41,1-.59,1.44l-.2-.39-.48-1-.86.52a1.8,1.8,0,0,0-.63.43,2.07,2.07,0,0,0-.19.25,5.28,5.28,0,0,1-.4-2.06v-.71c.05-3.51.09-7.13.3-10.68A72.73,72.73,0,0,0,51.7,53c0-.94-.09-1.88-.12-2.81-.07-1.86,0-3.77,0-5.61l0-1.53c.67,0,1.39,0,2.29,0h3.65l.29-.48c1.54-2.49,2.72-5.09.2-9.4A24.75,24.75,0,0,0,55.69,30c-.32-.38-.63-.77-.94-1.16-1.38-1.76-1.82-3.07-1.52-4.54a8.2,8.2,0,0,1,2.3-4.05,18,18,0,0,1,2.11-1.94m2.54,45.56h.08a6.34,6.34,0,0,0,5.17-2.67c.21-.31.4-.62.6-.93a6.67,6.67,0,0,1,2-2.35l.4-.24.08-.46c0-.22.06-.42.08-.61a5.39,5.39,0,0,1,.16-.88,5.67,5.67,0,0,1,.38-.8c.09-.16.18-.31.26-.47l.74-1.48-1.65,0c-5.09.07-9.15,2.46-12.11,4.54l-.6.41.21.7.11.35c.15.46.29.92.43,1.37a1.19,1.19,0,0,0,.76.78c.37.11.55.38.89,1l.27.48a2.37,2.37,0,0,0,1.77,1.21m-.11-48.36h0a22.4,22.4,0,0,0-5.23,4.06,9.54,9.54,0,0,0-2.55,4.53c-.42,2.11.49,3.78,1.72,5.36a38.88,38.88,0,0,1,3.24,4.26c2.18,3.74,1.37,5.85-.19,8.38H53.92c-.76,0-1.51,0-2.26,0h-.08c-.62,0-.94.24-.95.84,0,2.44-.14,4.89-.05,7.33.12,3.52.44,7,.23,10.55-.22,3.81-.26,7.63-.3,11.44a7.73,7.73,0,0,0,1.67,4.58l.86,0c-.51-1.18-.56-1.64-.2-2a.86.86,0,0,1,.34-.21c.42.83.8,1.59,1.23,2.46.5-1.32.86-2.46,1.35-3.54a3.9,3.9,0,0,1,2.6-2.32c.33.67.65,1.32,1,2-.6,1.66-.34,3.74.55,4.37.31-1,.77-1.45,1.34-1.45a2.12,2.12,0,0,1,1.35.73,17.26,17.26,0,0,1,2,2.63,2.3,2.3,0,0,1-.22,2.9,6.82,6.82,0,0,1-3,2.3h.71A15.15,15.15,0,0,0,72,81.17a22.26,22.26,0,0,0,5.21.79,10.72,10.72,0,0,0,3.17-.46c-.33-.15-.55-.23-.75-.33-4.94-2.61-7.63-7-9.54-12a1,1,0,0,1,.89-1.4h.36c.5,0,1,.09,1.47.12.4-1.12.75-2.38,1.28-3.56.84-1.89,2-3.57,4.2-4a9.48,9.48,0,0,1,2-.2,10.29,10.29,0,0,1,5.43,1.62,14.49,14.49,0,0,0,3,1.71,11.72,11.72,0,0,0,3.37.5,14.53,14.53,0,0,0,6.58-1.74,13.54,13.54,0,0,0,1.33-.85h-.45c-2.71,0-5.18-.74-7-2.92a34.38,34.38,0,0,1-2.38-3.35A22.08,22.08,0,0,0,84.94,49c-1.1-.8-2.27-1.5-3.4-2.24a31.2,31.2,0,0,0,.64-12.16c1,.26,1.42,1.1,2,1.78A3.67,3.67,0,0,1,87,38.52a15.48,15.48,0,0,0-3.87-8.45A23.51,23.51,0,0,0,77.25,26c-1.59-.89-3.25-1.72-3.9-3.73v.36a13.18,13.18,0,0,0,1.75,6.31A6.18,6.18,0,0,1,76,32.55a14.81,14.81,0,0,1-6.32,10.88.4.4,0,0,1-.21.07h0c-.94-.1-1.88-.22-2.78-.33.4-1.73.84-3.46,1.2-5.2a8.62,8.62,0,0,0,.33-4.1,8.27,8.27,0,0,0-3.22-4.25c-1.53-1.23-3.15-2.36-4.57-3.7a6.49,6.49,0,0,1-1.57-7.86c.38-.89.85-1.74,1.28-2.6ZM68.46,54a13.15,13.15,0,0,0-.69,1.42A10.69,10.69,0,0,0,67.49,57c-1.3.77-2,2.25-2.89,3.58a5.38,5.38,0,0,1-4.4,2.23h0c-.3,0-.72-.41-.91-.73-.46-.76-.75-1.65-1.73-1.94,0,0-.08-.07-.1-.12-.18-.57-.35-1.14-.53-1.72C60.39,55.88,64.06,54,68.46,54Z" style="fill:#63240e"/></svg>