<svg xmlns="http://www.w3.org/2000/svg" xmlns:xlink="http://www.w3.org/1999/xlink" viewBox="0 0 100 100"><defs><linearGradient id="a" x1="50.01" y1="96.84" x2="50.01" y2="12.28" gradientUnits="userSpaceOnUse"><stop offset="0" stop-color="#70252f"/><stop offset="1" stop-color="#282f64"/></linearGradient></defs><title>Ravnica Guild - Izzet</title><path d="M5.38,60.37v-4l.09-.73a82.22,82.22,0,0,1,1.29-8.44C10.12,34,18.18,24.41,30,17.89c8.08-4.47,16.75-6.83,26-5C73,16.4,85,26.11,91.66,42.23c3.2,7.8,3.53,16,2.3,24.24a36.32,36.32,0,0,1-7,17.35,33.58,33.58,0,0,1-3.28,3.47c-.83.81-1.85,1.42-2.63,2.26a13.57,13.57,0,0,0-1.44,2.3,8.8,8.8,0,0,1-.23-5.62,3.4,3.4,0,0,0-.42-3.11,41.56,41.56,0,0,1-9.74,7,34.91,34.91,0,0,0-7.61,5.45,15.29,15.29,0,0,1-6.4,3.71c-1.12.33-2.28.51-3.42.76H48.18a.7.7,0,0,0-.23-.08,16.78,16.78,0,0,1-8.87-3.81c-1.75-1.41-3.4-3-5.26-4.24-2.62-1.76-5.44-3.23-8.09-5-1.66-1.09-3.17-2.43-4.76-3.66a3.52,3.52,0,0,0-.29,3.14,8.49,8.49,0,0,1-.27,5.45l-.07,0c-.08-.15-.15-.3-.23-.44a8.31,8.31,0,0,0-3.43-3.91,4.61,4.61,0,0,1-1.11-.8C9.77,80.83,7,73.6,5.89,65.62,5.64,63.88,5.54,62.12,5.38,60.37Zm62-23.88a9.3,9.3,0,0,0-5.21,2.19A5.78,5.78,0,0,0,59.66,43c-.11,3.13-.38,6.25-.59,9.37-.1,1.49-.21,3-.32,4.6.52-.28.89-.46,1.24-.66,10.49-6.1,14.06-20.07,7.86-30.78C61,13.66,45.45,11.39,35.77,20.87a22.89,22.89,0,0,0-1.29,30.9,20.89,20.89,0,0,0,5,4.28c1.58-2.47,3.06-4.95,4.71-7.3.94-1.34,1.82-2.63,1.7-4.34,1.07-.27.87-1,.7-1.71-.38-1.52-1.48-1.82-2.79-1.4-.62-1-1.43-1.26-2.15-.73s-.7,1.58.11,2.59l-.53.22.51,1.23a5.1,5.1,0,0,1-3.65-3.4c-.32-1.06-.71-2.09-1.06-3.13a5.18,5.18,0,0,1,1.39-5.75c1.27-1.25,2.53-2.51,3.85-3.71,2.31-2.07,4.74-4,7.87-4.64a.67.67,0,0,0,.21-.13c.92-.65,1.81-1.35,2.77-1.93,1.45-.86,2.94-1.64,4.3-2.4l-2,3.77c2.57.24,4.44-.87,6.13-1.76l-4,6.16a5.94,5.94,0,0,0,1.91.57c1.52-.16,3-.52,4.53-.73,1.3-.19,2.62-.28,3.92-.41-2.69,1-4.18,3.18-5.62,5.53a7.13,7.13,0,0,0,1.34,1.74C64.89,35.23,66.24,35.88,67.33,36.49Zm-3,37c5-4.08,9-11.55,10.36-19.15S75,35.3,72.91,32.79C74.21,44.76,70,54,59,59.94,59.73,64.83,60.79,69.66,64.38,73.53Zm-27-.82a27.1,27.1,0,0,1,1.25-14c-1.38-1.09-2.77-2-4-3.18a25.42,25.42,0,0,1-3.3-3.8A24.37,24.37,0,0,1,29,47.43a25.73,25.73,0,0,1-1.54-4.79,26.46,26.46,0,0,1-.59-5c0-1.65.16-3.31.24-4.9-6.2,11-.82,35.37,9.16,41.25Z" style="fill:#282f64"/><path d="M7.82,47.25C9.14,42.21,18.16,24.4,30,17.88c8.08-4.47,16.75-6.83,26-4.95,17,3.46,28.26,13.5,34.89,29.62,3.2,7.8,2.83,15.55,1.6,23.81a29.36,29.36,0,0,1-6.6,15.45,18.09,18.09,0,0,1-3.92,4.26,11,11,0,0,0-3-7.76c-2.85,2.92-6.1,6.66-9.59,8.61a34.91,34.91,0,0,0-7.61,5.45,15.34,15.34,0,0,1-6.4,3.71c-1.12.33-2.27.51-3.41.76H48.35a1.28,1.28,0,0,0-.22-.09A16.63,16.63,0,0,1,39.26,93c-1.76-1.42-3.4-3-5.26-4.24-2.63-1.76-5.45-3.23-8.09-5-1.67-1.09-3.18-2.43-4.76-3.67-1,1-2.26,3.37-2,4.43a19.88,19.88,0,0,1-.07,3.42,11.81,11.81,0,0,0-2.78-3.14c-5.8-5.82-8-11.47-9.11-19.45C6.41,63.85,6.51,52.3,7.82,47.25ZM67.3,36.48a9.22,9.22,0,0,0-5.2,2.18A5.81,5.81,0,0,0,59.64,43c-.11,3.12-1.46,8.15-1.67,11.27-.1,1.49-.21,3-.32,4.61.52-.28,3.43-1.71,3.78-1.91C71.92,50.91,74.5,36.25,68.3,25.54c-6.89-11.91-23.43-14.43-33.12-4.95-8.36,8.19-9.69,22.67-2,31.54a31.85,31.85,0,0,0,6.18,5.3c1.58-2.47,3.4-5.62,5-8a8.5,8.5,0,0,0,1.51-5.06c1.06-.27.87-1,.7-1.71-.38-1.52-1.49-1.82-2.79-1.41-.62-1-1.43-1.25-2.15-.73s-.7,1.58.11,2.6l-.53.22.51,1.23a5.14,5.14,0,0,1-3.66-3.4c-.31-1.06-.7-2.09-1.06-3.14a5.17,5.17,0,0,1,1.4-5.74c1.27-1.25,2.53-2.52,3.85-3.71,2.31-2.08,4.74-4,7.87-4.65.08,0,.14-.08.21-.12.92-.65,1.81-1.35,2.77-1.93,1.45-.86,2.94-1.64,4.3-2.4l-2,3.77c2.57.24,4.44-.87,6.13-1.76l-4,6.16a5.87,5.87,0,0,0,1.91.57c1.52-.16,3-.52,4.53-.74,1.3-.18,2.62-.27,3.92-.4-2.69,1-4.18,3.18-5.62,5.53a7.13,7.13,0,0,0,1.34,1.74C64.87,35.22,66.22,35.87,67.3,36.48ZM64.17,75.81c5-4.08,10.53-13.57,11.87-21.17S76.71,36,72.88,32.78C74.19,44.75,69.94,54,59,59.92,59.71,64.81,60.57,71.94,64.17,75.81ZM39,73.52c-.71-4.77-2.07-10.32-.33-14.78-1.38-1.09-2.77-2-4-3.18a26.45,26.45,0,0,1-3.3-3.8,24.11,24.11,0,0,1-2.44-4.35,25.87,25.87,0,0,1-1.54-4.78,26.46,26.46,0,0,1-.59-5c0-1.65.15-3.31.24-4.91C20,44.15,20.71,67.62,36.41,76.5,36.79,76.08,38.53,74,39,73.52Z" style="fill:url(#a)"/><path d="M84.45,31c1.76,16-5.88,52.26-34.6,52.26C22.61,83.24,13.79,47,15.55,31,7.94,44.84,0,58.61,15.49,78.23A9.71,9.71,0,0,1,20.77,74c.57,4.34,24,19.66,29.23,19.66S78.66,78.3,79.23,74a9.71,9.71,0,0,1,5.28,4.27C100,58.61,92.06,44.84,84.45,31Z" style="fill:#9e2e18"/><path d="M50,0l3.17,8.92H46.83Zm13.3,3.47L58.46,9.89l4.83,1.48Zm-26.6,0v7.89l4.83-1.48ZM69.23,14l3,1.88,1.48-5.34Zm-43-3.46,1.49,5.34,3-1.88Z" style="fill:#282f64"/></svg>